<svg viewBox="0 0 320 210" xmlns="http://www.w3.org/2000/svg">
<polygon points="50.0,100.0 50.075,93.03018526841768 50.15,93.01778775400385 50.225,93.02476139910314 50.3,93.04975039205637 50.375,93.09217387828315 50.45,93.10573396668802 50.525,93.12665504035874 50.6,93.15164413709161 50.675,93.21440735810378 50.75,93.28956833568225 50.825,93.33470386034593 50.9,93.33024880845612 50.975,93.347295615631 51.05,93.37674024855862 51.125,93.50865951569506 51.2,93.5807208379244 51.275,93.63476722741832 51.35,93.66324331966688 51.425,93.74886504163997 51.5,93.91119699807815 51.575,94.09386865470852 51.65,94.24922706982703 51.725,94.36506803587444 51.8,94.48943228443305 51.875,94.65835047661756 51.95,94.86562420115311 52.025,95.08839502626522 52.1,95.30903470211403 52.175,95.5087535810378 52.25,95.71021560140936 52.325,95.95991219641256 52.4,96.27469648584241 52.475,96.56410461165919 52.55,96.83588465714286 52.625,96.97729530121717 52.7,97.13943391620757 52.775,97.30350909365791 52.85,97.51814349212043 52.925,97.68124994900704 53.0,97.75059957873158 53.075,97.7722956094811 53.15,97.82246721358104 53.225,97.91467482536835 53.3,97.99235405022421 53.375,97.97859999769379 53.45,97.90692573888533 53.525,97.79457190672646 53.6,97.69558447559257 53.675,97.56289052812299 53.75,97.39203547251762 53.825,97.15919168597053 53.9,96.93893942985265 53.975,96.76111031748879 54.05,96.60982008110186 54.125,96.42772924099935 54.2,96.22626700269058 54.275,96.0782698495836 54.35,95.95642422882767 54.425,95.88998053939783 54.5,95.84252069698911 54.575,95.85414349647662 54.65,95.85085039590007 54.725,95.7919613721973 54.8,95.72881063805254 54.875,95.72706772837924 54.95,95.7518630685458 55.025,95.7619362306214 55.1,95.69278053042922 55.175,95.66411092376681 55.25,95.63660337219731 55.325,95.6923929827034 55.4,95.6706970557335 55.475,95.63272914029469 55.55,95.5232807226137 55.625,95.51436992696989 55.7,95.57112807815503 55.775,95.58391341704036 55.85,95.5560185598975 55.925,95.43804696348495 56.0,95.33809064573991 56.075,95.21469497245356 56.15,95.15425620755926 56.225,95.13546590262652 56.3,95.138177871877 56.375,95.12500536579115 56.45,95.18679999769378 56.525,95.3012843426009 56.6,95.48356862793082 56.675,95.61490659077515 56.75,95.74856869839846 56.825,95.85840445624599 56.9,96.06025376143498 56.975,96.24679992325433 57.05,96.45407347482383 57.125,96.6216356685458 57.2,96.81534912133247 57.275,97.02533434811019 57.35,97.21517359320949 57.425,97.43155172120436 57.5,97.61170544535554 57.575,97.7678384785394 57.65,97.84629300640614 57.725,97.95206053363229 57.8,98.03070826457399 57.875,98.09889515426009 57.95,98.0682885838565 58.025,98.02082913581037 58.1,97.96930150903268 58.175,97.93946963971813 58.25,97.91486847123639 58.325,97.84842446354901 58.4,97.74730601806534 58.475,97.62100517591287 58.55,97.52841012017937 58.625,97.43872094247277 58.7,97.30893280038437 58.775,97.14059586060218 58.85,96.97593953798847 58.925,96.8157385682255 59.0,96.71248911185138 59.075,96.63461646944266 59.15,96.62434941242793 59.225,96.60362216450993 59.3,96.55732468853299 59.375,96.48313227930814 59.45,96.39692963356822 59.525,96.33765281998718 59.6,96.28980546444586 59.675,96.21115766431774 59.75,96.1100391877002 59.825,96.01008307751441 59.9,95.97172799487508 59.975,95.9418960217809 60.05,95.91651951569507 60.125,95.87119037283793 60.2,95.8944362139654 60.275,95.962816991672 60.35,96.06703467392697 60.425,96.18558747085201 60.5,96.26927190390775 60.575,96.344820256246 60.65,96.33842739654068 60.725,96.30375261627162 60.8,96.29406696732863 60.875,96.283800256246 60.95,96.34152680973735 61.025,96.37232746188342 61.1,96.40060959000641 61.175,96.4529121704036 61.25,96.54434475592569 61.325,96.69427940550929 61.4,96.78900554131967 61.475,96.83801474439461 61.55,96.84150187828315 61.625,96.84653878795643 61.7,96.81941874951954 61.775,96.75181282511211 61.85,96.63771570275465 61.925,96.52458656758488 62.0,96.45543114413837 62.075,96.43528537347854 62.15,96.43354222165279 62.225,96.41533311723255 62.3,96.37600932094811 62.375,96.39538103395259 62.45,96.42986229980781 62.525,96.46531196796926 62.6,96.4653121409353 62.675,96.47790358488149 62.75,96.51354711338885 62.825,96.52826894554772 62.9,96.55771327405509 62.975,96.65553859474696 63.05,96.81360871966687 63.125,96.97206611210763 63.2,97.10262900717488 63.275,97.27290310096092 63.35,97.49354274913517 63.425,97.70856496342088 63.5,97.88058215368353 63.575,98.01753711973095 63.65,98.17270150153747 63.725,98.32689765227418 63.8,98.46675870736708 63.875,98.56361514836644 63.95,98.63296431454197 64.025,98.71413022011531 64.1,98.7751499537476 64.175,98.83965653414478 64.25,98.87258765752722 64.325,98.90784354490711 64.4,98.88924702421525 64.475,98.82241621601537 64.55,98.7247846830237 64.625,98.65737243215887 64.7,98.5510237459321 64.775,98.3602159186419 64.85,98.07216375669442 64.925,97.79476586912236 65.0,97.57645068398463 65.075,97.36259127719411 65.15,97.1547364905189 65.225,96.96625334939142 65.3,96.84169556912235 65.375,96.74638855797566 65.45,96.63887765060858 65.525,96.48196956694427 65.6,96.31711924907111 65.675,96.15536863151826 65.75,95.99206805137732 65.825,95.84252125048046 65.9,95.66740416271621 65.975,95.56260500320307 66.05,95.45083219859065 66.125,95.3770272056374 66.2,95.36753507110826 66.275,95.46264840871237 66.35,95.63427901985906 66.425,95.79951666752082 66.5,95.89191810506085 66.575,95.96862847789879 66.65,96.04340208071748 66.725,96.13134822421524 66.8,96.17938912876362 66.875,96.21173914157592 66.95,96.26384820755926 67.025,96.36070514670084 67.1,96.48042003331197 67.175,96.58773740550929 67.25,96.73108530044843 67.325,96.85893638539397 67.4,97.0580739392697 67.475,97.21866223190263 67.55,97.382156623959 67.625,97.46971560025625 67.7,97.50090359256886 67.775,97.52163101345292 67.85,97.54507033440103 67.925,97.54313366816143 68.0,97.51078362075593 68.075,97.43058604484305 68.15,97.38351357719411 68.225,97.35348784753363 68.3,97.34438329532351 68.375,97.26573577194107 68.45,97.15570611915439 68.525,97.02785539397821 68.6,96.90620335682254 68.675,96.75452531326073 68.75,96.57475907110826 68.825,96.43838459987188 68.9,96.25280696143497 68.975,96.10229155413197 69.05,95.93685997693785 69.125,95.85104456758488 69.2,95.82624908904549 69.275,95.82276243946188 69.35,95.79719193465726 69.425,95.66720978347213 69.5,95.51456326841767 69.575,95.40007849455478 69.65,95.32278695579757 69.725,95.27842638821268 69.8,95.25324367328635 69.875,95.28133207943625 69.95,95.29799175400385 70.025,95.30341558872517 70.1,95.32782348494555 70.175,95.4148009147982 70.25,95.51572598078155 70.325,95.59011227802691 70.4,95.69723561691224 70.475,95.7807264317745 70.55,95.86305463805253 70.625,95.8622799231262 70.7,95.83574129276106 70.775,95.76367962459962 70.85,95.70595314029468 70.925,95.76697307110827 71.0,95.88300772453556 71.075,96.02151301985907 71.15,96.07245985778347 71.225,96.09493060345932 71.3,96.09880493914157 71.375,96.14200327866752 71.45,96.1722224189622 71.525,96.16040586290839 71.6,96.07129759513133 71.675,95.94693351953876 71.75,95.87177285329916 71.825,95.83264250224215 71.9,95.7404351326073 71.975,95.64687146700832 72.05,95.62478840743114 72.125,95.73559239115951 72.2,95.81191546534274 72.275,95.80126124112748 72.35,95.74275966137091 72.425,95.70789112453555 72.5,95.64958316297245 72.575,95.56551163190262 72.65,95.4901570707239 72.725,95.43029957552851 72.8,95.38225853260731 72.875,95.26719245445227 72.95,95.17789074144778 73.025,95.12946249673287 73.1,95.17130467866752 73.175,95.26758034811019 73.25,95.29586202652146 73.325,95.2766841738629 73.4,95.29837999705317 73.475,95.3359604339526 73.55,95.32065688238309 73.625,95.189900192697 73.7,95.0624366623959 73.775,95.05604411402948 73.85,95.11803234336963 73.925,95.17014120179373 74.0,95.2131459231262 74.075,95.22476875720692 74.15,95.23154843818065 74.225,95.24045923382447 74.3,95.2505325342729 74.375,95.33111734657271 74.45,95.41906335169763 74.525,95.50100411402947 74.6,95.5965050339526 74.675,95.66178653683536 74.75,95.75360701601538 74.825,95.82702456502243 74.9,95.87932738757206 74.975,95.89792386675208 75.05,95.88165184368994 75.125,95.85840641768097 75.2,95.85317644330557 75.275,95.83109296860987 75.35,95.77956520691865 75.425,95.72358204740551 75.5,95.69123168866112 75.575,95.7421783882127 75.65,95.8138524740551 75.725,95.8291560256246 75.8,95.83399865983344 75.875,95.82973719154388 75.95,95.87642193850097 76.025,95.97889633055733 76.1,96.08369524445868 76.175,96.2080592439462 76.25,96.30433479231262 76.325,96.38317613106983 76.4,96.50366574298526 76.475,96.63907139679692 76.55,96.82523025304292 76.625,96.95792357783472 76.7,97.10650182767456 76.775,97.2409390099936 76.85,97.38293098949391 76.925,97.49063601319666 77.0,97.59950278065342 77.075,97.65858514580397 77.15,97.69442218872517 77.225,97.73258351479821 77.3,97.80038309199232 77.375,97.79612120858424 77.45,97.71766688827674 77.525,97.58381078193466 77.6,97.46816378347214 77.675,97.29227195310698 77.75,97.13788247648942 77.825,97.03560157463164 77.9,96.93506432274184 77.975,96.81321851518257 78.05,96.63752019577194 78.125,96.56758978065342 78.2,96.45794798693146 78.275,96.3297097347854 78.35,96.1811316925048 78.425,96.13134725560538 78.5,96.15556160281871 78.575,96.23130359410635 78.65,96.30104048443306 78.725,96.34850036143497 78.8,96.36244799756567 78.875,96.4440012640615 78.95,96.56274793516977 79.025,96.67955751108263 79.1,96.73902766611147 79.175,96.85719312286996 79.25,96.97264612953235 79.325,97.06524147584881 79.4,97.10204702485586 79.475,97.1429203893658 79.55,97.24035859820629 79.625,97.35852392005125 79.7,97.50380889980782 79.775,97.68125042639333 79.85,97.86566551505445 79.925,98.00475158193466 80.0,98.06925820730301 80.075,98.07255140819987 80.15,98.08184969276105 80.225,98.07991261140295 80.3,98.06073507008328 80.375,98.01075713606663 80.45,97.95012498129404 80.525,97.90770149506726 80.6,97.84183906841768 80.675,97.75757336566303 80.75,97.69694111748879 80.825,97.63165966995516 80.9,97.5789697147982 80.975,97.47940122152467 81.05,97.38312555208199 81.125,97.23067299769379 81.2,97.11250767584882 81.275,96.95463109993594 81.35,96.7975297024984 81.425,96.54589566636771 81.5,96.29232476681614 81.575,96.07865889173607 81.65,95.94112220627802 81.725,95.86479917360666 81.8,95.73365496732863 81.875,95.5970869955157 81.95,95.49945516848175 82.025,95.4886071877002 82.1,95.52173184625241 82.175,95.51805140550928 82.25,95.4703979103139 82.32499999999999,95.39175004099936 82.4,95.36404911338886 82.475,95.38923186290839 82.55,95.3929122690583 82.625,95.37257239590006 82.69999999999999,95.3140708161435 82.775,95.34274073414478 82.85,95.40279163997437 82.925,95.52986799615631 83.0,95.65830009481101 83.07499999999999,95.72784316976298 83.15,95.75690022037156 83.225,95.79138114029469 83.3,95.94189681742473 83.375,96.09318710570147 83.44999999999999,96.20360389109545 83.525,96.26229919282511 83.6,96.3731034256246 83.675,96.50986509865471 83.75,96.64100908007687 83.82499999999999,96.797142223959 83.9,96.95811793286354 83.975,97.13749662037155 84.05,97.3110639219731 84.125,97.48095058910954 84.19999999999999,97.65568020525305 84.275,97.76822752069187 84.35,97.86605290019219 84.425,97.92126113721973 84.5,97.96329693734785 84.57499999999999,97.99390372914799 84.65,97.95767948443306 84.725,97.82886001101858 84.8,97.66052256963485 84.875,97.53906408148623 84.94999999999999,97.50961958693145 85.025,97.43988254785394 85.1,97.31319390890455 85.175,97.12684165932095 85.25,96.92557350621396 85.32499999999999,96.67161495169763 85.4,96.36012373862908 85.475,96.05676855784753 85.55,95.82605586867393 85.625,95.5996046339526 85.69999999999999,95.39252514336964 85.775,95.20132992402306 85.85,95.07018595643818 85.925,94.97914033055733 86.0,94.89158156181935 86.07499999999999,94.84915797181294 86.15,94.87240319026265 86.225,95.00742176681614 86.3,95.17730865188982 86.375,95.32298117591287 86.44999999999999,95.36753539628444 86.525,95.4347536345932 86.6,95.51088308366431 86.675,95.6499691297886 86.75,95.81675644599616 86.82499999999999,96.047275783344 86.9,96.32002413081358 86.975,96.5462812595772 87.05,96.69795913017296 87.125,96.829878328123 87.19999999999999,96.91743688930173 87.275,96.96877099820628 87.35,96.92809111351698 87.425,96.8707523153107 87.5,96.82542341460602 87.57499999999999,96.78396902254964 87.65,96.74948817181294 87.725,96.66677234862267 87.8,96.5135448267777 87.875,96.36380434887892 87.94999999999999,96.24215220794362 88.025,96.12863656284433 88.1,95.90625335464446 88.175,95.64609612594491 88.25,95.40376038821269 88.32499999999999,95.20132956079436 88.4,95.02253201153107 88.475,94.8764720089686 88.55,94.74881469442664 88.625,94.61553968481742 88.69999999999999,94.48691382959642 88.775,94.37940277001921 88.85,94.26162486098654 88.925,94.12292612043562 89.0,93.94703428315182 89.07499999999999,93.81143457527226 89.15,93.65317050352338 89.225,93.53345523638693 89.3,93.38526460345932 89.375,93.27930321588725 89.44999999999999,93.06854298014093 89.525,92.85700754516336 89.6,92.77022404484305 89.675,92.80586753875721 89.75,92.79734401409353 89.82499999999999,92.6898328507367 89.9,92.5524900602178 89.975,92.44091101217168 90.05,92.32855690326714 90.125,92.22453301217169 90.19999999999999,92.17668576041 90.275,92.16603157078795 90.35,92.25882045227418 90.425,92.34637845996156 90.5,92.36749342857144 90.57499999999999,92.29756301345292 90.65,92.23092597565663 90.725,92.14143047149264 90.8,92.14898521332479 90.875,92.15208455733504 90.94999999999999,92.28690910057655 91.025,92.40371850352338 91.1,92.46803132735425 91.175,92.47151804612427 91.25,92.53428157847533 91.32499999999999,92.69506410506085 91.4,92.87095618449712 91.475,93.01178603971813 91.55,93.13072634977578 91.625,93.26496951953875 91.69999999999999,93.37228703010891 91.775,93.3722869955157 91.85,93.2349441704036 91.925,93.12452748878924 92.0,93.15532776040999 92.07499999999999,93.26342002049968 92.15,93.38274739397822 92.225,93.47786076617552 92.3,93.53558735426009 92.375,93.54740418705958 92.44999999999999,93.53849339141576 92.525,93.55941432671365 92.6,93.63302539013453 92.675,93.67176822805894 92.75,93.69540106342089 92.82499999999999,93.62043387700191 92.9,93.53442484945548 92.975,93.46836849327354 93.05,93.41451589493914 93.125,93.41122279436259 93.19999999999999,93.4073479397822 93.275,93.48696434977579 93.35,93.6291497053171 93.425,93.80232991928251 93.5,93.93037471236387 93.57499999999999,94.04137224855862 93.65,94.0741097053171 93.725,94.05357600640615 93.8,93.99468708648303 93.875,93.94935808199872 93.94999999999999,93.94703352210122 94.025,93.9313428033312 94.1,93.90228592568866 94.175,93.91952624727739 94.25,93.91545815502883 94.32499999999999,93.9218504612428 94.4,93.91410182447149 94.475,93.91971955413197 94.55,93.97996445868033 94.625,94.01986955925689 94.69999999999999,94.0624869058296 94.775,94.17329082383088 94.85,94.34588977501602 94.925,94.54851400960922 95.0,94.75966163395259 95.07499999999999,94.97855810954516 95.15,95.22999822306214 95.225,95.52831681934657 95.3,95.85685485688661 95.375,96.1743510913517 95.44999999999999,96.43295858231903 95.525,96.64430036450993 95.6,96.84150068481742 95.675,96.95075506918641 95.75,97.0427688206278 95.82499999999999,97.16635849263292 95.9,97.36762704356182 95.975,97.54584368981422 96.05,97.63592084420243 96.125,97.70507657898783 96.19999999999999,97.8044517654068 96.275,97.87709436425368 96.35,97.8784502935298 96.425,97.79379746162716 96.5,97.70914450864831 96.57499999999999,97.58710521434978 96.65,97.48443721101857 96.725,97.41760668648303 96.8,97.40133490211403 96.875,97.42244978078155 96.94999999999999,97.43407253529789 97.025,97.47978859628444 97.1,97.527054543754 97.175,97.64212050429212 97.25,97.78895564035875 97.32499999999999,97.94857543036515 97.4,98.01908709788597 97.475,98.0491124401025 97.55,98.08243078603459 97.625,98.12001122293401 97.69999999999999,98.1099379570788 97.775,98.03535851902626 97.85,97.96504070839205 97.925,97.92687898795644 98.0,97.87263925701474 98.07499999999999,97.83970797450353 98.15,97.84145129929533 98.225,97.842613319795 98.3,97.80910094746957 98.375,97.72929100922485 98.44999999999999,97.66924021409353 98.525,97.60647741511852 98.6,97.55088166495835 98.675,97.487149847918 98.75,97.4292295136451 98.82499999999999,97.35232516630366 98.9,97.27755206508648 98.975,97.20723437898783 99.05,97.17023545393978 99.125,97.16481155003203 99.19999999999999,97.19871120025624 99.275,97.24229650288277 99.35,97.2721286835362 99.425,97.28704492953236 99.5,97.31087186739269 99.57499999999999,97.3081594830237 99.65,97.27425972901986 99.725,97.24868932799488 99.8,97.27871469096733 99.875,97.340121816656 99.94999999999999,97.39668576502243 100.025,97.45266859590006 100.1,97.51988718360026 100.175,97.56947789506727 100.25,97.60686453388853 100.32499999999999,97.63340326457399 100.4,97.68434955592569 100.475,97.7610597627162 100.55,97.8069695525945 100.625,97.79224737450352 100.69999999999999,97.73742675438821 100.775,97.71573089314542 100.85,97.76803313452915 100.925,97.84009439795003 101.0,97.93113963984625 101.07499999999999,98.03613241755285 101.15,98.13899430890454 101.225,98.14945512248559 101.3,98.07952455515695 101.375,97.95206086572709 101.44999999999999,97.90188915438821 101.525,97.85423560730301 101.6,97.79476551800128 101.675,97.6303026925048 101.75,97.44995565803971 101.82499999999999,97.30176506316464 101.9,97.19076738167841 101.975,97.0830626623959 102.05,97.03773379628443 102.125,97.05710499039077 102.19999999999999,97.11289415118515 102.275,97.13439614862268 102.35,97.11386255003202 102.425,97.02533540320307 102.5,96.86726529903908 102.57499999999999,96.71210102101217 102.65,96.61969945893658 102.725,96.65069366008969 102.8,96.68013812005125 102.875,96.72449875682256 102.94999999999999,96.67161480294683 103.025,96.63112864023063 103.1,96.6202807978219 103.175,96.70648361652786 103.25,96.79869098616271 103.32499999999999,96.84692540512492 103.4,96.81128218795644 103.475,96.76188533337604 103.55,96.70435264023062 103.625,96.68866205983343 103.69999999999999,96.67762070301089 103.775,96.63674761524663 103.85,96.57495303523382 103.925,96.59238759769379 104.0,96.72682478693146 104.07499999999999,96.8876069191544 104.15,97.01778243946188 104.225,97.08945622434337 104.3,97.15202577181294 104.375,97.20820258411275 104.44999999999999,97.27484010621397 104.525,97.31784458539397 104.6,97.29537352837924 104.675,97.27619567572069 104.75,97.20219713376041 104.82499999999999,97.17449606777707 104.9,97.1981288339526 104.975,97.34728829122358 105.05,97.47513904407431 105.125,97.46874632274184 105.19999999999999,97.4123756500961 105.275,97.4141189748879 105.35,97.44956867764253 105.425,97.44724394477899 105.5,97.36200992274183 105.57499999999999,97.26805879244074 105.65,97.12083684548367 105.725,96.96063582037155 105.8,96.78861806278027 105.875,96.65786126585522 105.94999999999999,96.55441847149264 106.025,96.46395428827675 106.1,96.41262049071108 106.175,96.34230245868034 106.25,96.33048600640615 106.32499999999999,96.30336610634208 106.4,96.2661732863549 106.475,96.12515001358103 106.55,95.98935679820627 106.625,95.86770448430494 106.69999999999999,95.74818311210763 106.775,95.59088775400384 106.85,95.40724714157591 106.925,95.28230190006406 107.0,95.20171677642537 107.07499999999999,95.14999532735426 107.15,95.137791119795 107.225,95.11357673798847 107.3,95.08335763228699 107.375,95.00064218962204 107.44999999999999,94.90552854067906 107.525,94.83094872901987 107.6,94.77399685586163 107.675,94.76237402178091 107.75,94.78581330813581 107.82499999999999,94.82068177578475 107.9,94.79666128891736 107.975,94.73622235105701 108.05,94.63684713004484 108.125,94.63859055861627 108.19999999999999,94.6424647905189 108.275,94.66183598462524 108.35,94.65311925688661 108.425,94.64885754644459 108.5,94.59849218577834 108.57499999999999,94.49427415759129 108.65,94.40477830749519 108.725,94.4152390172966 108.8,94.54386497629724 108.875,94.70387254580397 108.94999999999999,94.85593789493915 109.025,94.98456399231262 109.1,95.06882931454196 109.175,95.12849312235747 109.25,95.16936659064702 109.32499999999999,95.18893185265856 109.4,95.268354367713 109.475,95.28908168481743 109.55,95.37315370019219 109.625,95.38903827930814 109.69999999999999,95.47291605381166 109.775,95.52967441255605 109.85,95.61180872389494 109.925,95.68716318129404 110.0,95.82973643049327 110.07499999999999,95.97056614734144 110.15,96.04378983600256 110.225,95.9961360640615 110.3,95.92020030237028 110.375,95.91032079308135 110.44999999999999,95.9422835003203 110.525,95.97017808071749 110.6,95.99323019987187 110.675,96.02441808840487 110.75,95.96940364253683 110.82499999999999,95.9488699782191 110.9,95.85046322869955 110.975,95.89772952210122 111.05,95.91342010249839 111.125,95.93840926841769 111.19999999999999,95.93531009737347 111.275,95.91923141575913 111.35,95.95778018577835 111.425,95.93414745419602 111.5,95.85046340166559 111.57499999999999,95.82934877898784 111.65,95.81733891607944 111.725,95.86286191928251 111.8,95.83128637924408 111.875,95.7414034657271 111.94999999999999,95.60541638308777 112.025,95.45218873670724 112.1,95.35378212556054 112.175,95.29760527866752 112.25,95.30884066880205 112.32499999999999,95.34467771172325 112.4,95.406472495836 112.475,95.42119460474055 112.55,95.39213745035234 112.625,95.36424269698911 112.69999999999999,95.3406096540679 112.775,95.34932679692504 112.85,95.34060944650865 112.925,95.3508758808456 113.0,95.4351409955157 113.07499999999999,95.47407745163356 113.15,95.5066209788597 113.225,95.4816317091608 113.3,95.52482994490711 113.375,95.63137215246637 113.44999999999999,95.77530149007046 113.525,95.91768112107623 113.6,96.01724975272262 113.675,96.04630673414478 113.75,96.06684046764894 113.82499999999999,96.06277237540039 113.9,96.15381803587444 113.975,96.28050672325432 114.05,96.46027301037796 114.125,96.61098187674568 114.2,96.70996937706599 114.27499999999999,96.80372662626522 114.35,96.89632182037155 114.425,97.01409980896861 114.5,97.03657103894939 114.575,97.05148690442024 114.64999999999999,97.09584747200512 114.725,97.19793459308136 114.8,97.2849119537476 114.875,97.30350891723255 114.95,97.34050804638052 115.02499999999999,97.41683112402306 115.1,97.52376113529789 115.175,97.60182745470851 115.25,97.59814691018578 115.325,97.5516555392697 115.39999999999999,97.47358897424728 115.475,97.37866937591288 115.55,97.27503253786034 115.625,97.2254422172966 115.7,97.20394018526585 115.77499999999999,97.12684226470212 115.85,96.93351652222934 115.925,96.69466773158231 116.0,96.49998510506086 116.075,96.32448067713004 116.14999999999999,96.13386659256886 116.225,95.91497037988469 116.3,95.67863988148622 116.375,95.4791145169763 116.45,95.30535355566944 116.52499999999999,95.11570803600256 116.6,94.86271819513132 116.675,94.61922043689943 116.75,94.53282382703395 116.825,94.52933721204356 116.89999999999999,94.53689174631646 116.975,94.46967309288917 117.05,94.42570024599615 117.125,94.40264819602818 117.2,94.43616047149263 117.27499999999999,94.51267750288277 117.35,94.62968024727738 117.425,94.73389799871877 117.5,94.7652797821909 117.575,94.82087539397821 117.64999999999999,94.87472757719411 117.725,94.99269910442024 117.8,95.02117505829597 117.875,95.00742145547726 117.95,94.88247624855862 118.02499999999999,94.80053531326072 118.1,94.77012196668802 118.175,94.82533009993594 118.25,94.80460305957719 118.325,94.72905484561178 118.39999999999999,94.60953375016015 118.475,94.55335693786034 118.55,94.47102876617552 118.625,94.33039287508008 118.7,94.11362756950672 118.77499999999999,93.92727509160794 118.85,93.80291098142216 118.925,93.73220571300448 119.0,93.68552065470853 119.075,93.60203032415119 119.14999999999999,93.52919442536836 119.225,93.42575131966689 119.3,93.40889813068546 119.375,93.43253100064061 119.45,93.40289292248559 119.52499999999999,93.27678552210122 119.6,93.11542241768097 119.675,92.99493298910954 119.75,92.94534241255604 119.825,92.85972096732864 119.89999999999999,92.84712941960282 119.975,92.8591396284433 120.05,92.93158842921204 120.125,93.02166513388853 120.2,93.12607681486227 120.27499999999999,93.22700170787957 120.35,93.31301070083279 120.425,93.39378902754645 120.5,93.52222122998077 120.575,93.67041203587443 120.64999999999999,93.85637665470853 120.725,94.06326283151826 120.8,94.23876753619474 120.875,94.33833658295964 120.95,94.51054780653428 121.02499999999999,94.78833318129404 121.1,95.0934319013453 121.175,95.32433832286995 121.25,95.48105209993594 121.325,95.72803671877001 121.39999999999999,95.93298571044203 121.475,96.11604501857784 121.55,96.22878657142857 121.625,96.34540207943625 121.7,96.48623148494555 121.77499999999999,96.65514952491992 121.85,96.79927222126841 121.925,96.91898703869315 122.0,96.98426857616913 122.075,97.00383352684177 122.14999999999999,97.00325246470211 122.225,96.95598634426649 122.3,96.91821180486868 122.375,96.87443226483023 122.45,96.87055813670725 122.52499999999999,96.8244543827034 122.6,96.7735079598975 122.675,96.68401197142857 122.75,96.66367206367713 122.825,96.62938469276105 122.89999999999999,96.61543722959641 122.975,96.54356935259449 123.05,96.44128833657912 123.125,96.27973130262652 123.2,96.05928545253043 123.27499999999999,95.76890885522101 123.35,95.45741760409993 123.425,95.16355441255605 123.5,94.98553159897502 123.575,94.91114561306854 123.64999999999999,94.88867504035875 123.725,94.86620436386931 123.8,94.86756045227418 123.875,94.88441332991673 123.95,94.86775382831519 124.02499999999999,94.82494300192184 124.1,94.81177039205637 124.175,94.85167566559898 124.25,94.82998008456117 124.325,94.76954166559898 124.39999999999999,94.64730822037156 124.475,94.59888014862268 124.55,94.5609123715567 124.625,94.6382039449071 124.7,94.76276170787956 124.77499999999999,94.93787893401665 124.85,95.14922043946189 124.925,95.33266719154388 125.0,95.48434492376681 125.075,95.55737509801409 125.14999999999999,95.59999161434978 125.225,95.63660344138373 125.3,95.6404778462524 125.375,95.6811576617553 125.45,95.73481650352338 125.52499999999999,95.85879316976298 125.6,95.92484938757207 125.675,95.93550368097374 125.75,95.91303276233184 125.825,95.876227247918 125.89999999999999,95.86344263549007 125.975,95.786731743754 126.05,95.74237131454196 126.125,95.5955366662396 126.2,95.44618383984626 126.27499999999999,95.22786834336964 126.35,95.0180764061499 126.425,94.8559381024984 126.5,94.7306052094811 126.575,94.6428529955157 126.64999999999999,94.51093438565023 126.725,94.40187358488149 126.8,94.33814178859706 126.875,94.29513765534914 126.95,94.26646801409353 127.02499999999999,94.17658482383088 127.1,94.10491104932736 127.175,94.02820050352338 127.25,94.00456742600898 127.325,94.02490702242153 127.39999999999999,94.10045506342088 127.475,94.21687712620115 127.55,94.31567080076874 127.625,94.32613144138372 127.7,94.33911008712364 127.77499999999999,94.45030169122357 127.85,94.66571139269699 127.925,94.82881813324792 128.0,94.89196907495196 128.075,94.9458214657271 128.14999999999998,95.0506205214606 128.225,95.13314265727098 128.3,95.1563882908392 128.375,95.16994817168482 128.45,95.16626759256887 128.52499999999998,95.20229818449712 128.6,95.2687418116592 128.675,95.3874882267777 128.75,95.45800008456118 128.825,95.3967867777066 128.89999999999998,95.27164774503524 128.975,95.16297435361948 129.05,95.16936676361307 129.125,95.34738936963485 129.2,95.48511953491352 129.27499999999998,95.56899744778988 129.35,95.52967337475977 129.425,95.53606609609226 129.5,95.61374514798206 129.575,95.6675974695708 129.64999999999998,95.74062736707239 129.725,95.80590855861627 129.8,95.91961861755286 129.875,95.99923481998718 129.95,96.07420176425369 130.02499999999998,96.138127247918 130.1,96.17861330685459 130.175,96.21658101473415 130.25,96.22917225112107 130.325,96.34656268161434 130.39999999999998,96.49281664830237 130.475,96.6481750980141 130.55,96.65108106598335 130.625,96.57669487251762 130.7,96.48933017168481 130.77499999999998,96.42230520563741 130.85,96.31343819602819 130.925,96.20069671236386 131.0,96.0420451620756 131.075,95.92174890198591 131.14999999999998,95.71350684433055 131.225,95.56550986418962 131.3,95.45238107495196 131.375,95.45121908904548 131.45,95.44366420884049 131.52499999999998,95.38748736194746 131.6,95.31329530557335 131.675,95.24646413068545 131.75,95.23503508776426 131.825,95.21740687251761 131.89999999999998,95.19280521973094 131.975,95.14902578347214 132.05,95.10079112235746 132.125,95.07890136963485 132.2,95.08355048942985 132.27499999999998,95.10718384368994 132.35,95.21237044714927 132.425,95.26138003074952 132.5,95.32704894298527 132.575,95.35591220243434 132.64999999999998,95.47892063933377 132.725,95.58798112876362 132.8,95.61723186675208 132.875,95.50623398462524 132.95,95.36985945803971 133.02499999999998,95.28598151057015 133.1,95.22767368737989 133.175,95.1538692133248 133.25,95.04287160794362 133.325,94.9394287098014 133.39999999999998,94.85516324919924 133.475,94.81293376169123 133.55,94.84179715951313 133.625,94.86988573862908 133.7,94.92586889814221 133.77499999999998,95.0033544702114 133.85,95.05662566047405 133.925,95.14999567328636 134.0,95.23774785265856 134.075,95.3450653632287 134.14999999999998,95.4004672184497 134.225,95.44134089429852 134.3,95.55911873068546 134.375,95.7355915955157 134.45,95.92349429891095 134.52499999999998,96.06761708174247 134.6,96.13890358526585 134.675,96.23382282037156 134.75,96.40138492415119 134.825,96.62183082267777 134.89999999999998,96.8054713036515 134.975,96.89380440679052 135.05,96.96470360474055 135.125,97.03870218129404 135.2,97.0791885515695 135.27499999999998,97.07705767905189 135.35,97.06601628763613 135.425,97.0743460557335 135.5,97.07841397501602 135.575,97.05284364317745 135.64999999999998,97.05361821973094 135.725,97.0379274663677 135.8,97.00460870877643 135.875,96.95172496245996 135.95,96.96877183190263 136.02499999999998,97.0423830579116 136.1,97.22176169007047 136.175,97.3749891877002 136.25,97.48773030121717 136.325,97.52627948981421 136.39999999999998,97.53499648046125 136.475,97.54429510057655 136.55,97.53925815631005 136.625,97.5274418078155 136.7,97.50671449071109 136.77499999999998,97.4385271928251 136.85,97.39900950160154 136.925,97.33605255861627 137.0,97.3056397309417 137.075,97.26709113388853 137.14999999999998,97.19193060602178 137.225,97.09255562716207 137.3,96.98562559513132 137.375,96.90949624983985 137.45,96.81767539705316 137.52499999999998,96.66425431582319 137.6,96.45000714682895 137.675,96.23614764663677 137.75,96.09783616668803 137.825,95.97947728199873 137.89999999999998,95.88068364894299 137.975,95.7698793504164 138.05,95.69510619730941 138.125,95.66740509673286 138.2,95.67166670339526 138.27499999999998,95.67844652274184 138.35,95.61529561563101 138.425,95.51456472133248 138.5,95.45180153491351 138.575,95.42274417296605 138.64999999999998,95.40879674439462 138.725,95.37722148110186 138.8,95.34603366175529 138.875,95.32181948750801 138.95,95.23619838821269 139.02499999999998,95.15406390390775 139.1,95.07309171684817 139.175,95.01071552466368 139.25,94.90068625240231 139.325,94.80789750928892 139.39999999999998,94.72944343113389 139.475,94.66358079692505 139.55,94.56401213068546 139.625,94.43790452274183 139.7,94.34608418193466 139.77499999999998,94.29494372581678 139.85,94.32264489557976 139.925,94.39722456886611 140.0,94.40168003587443 140.075,94.42511946060218 140.14999999999998,94.43984170787957 140.225,94.51306505060859 140.3,94.53417981165919 140.375,94.48671976169122 140.45,94.40865298910954 140.52499999999998,94.3687482690583 140.6,94.38656992953236 140.675,94.38947596668802 140.75,94.36913595515695 140.825,94.3162518975016 140.89999999999998,94.31625182831519 140.975,94.32535651889815 141.05,94.37436582575272 141.125,94.4162080768738 141.2,94.42608744778988 141.27499999999998,94.423762991672 141.35,94.43616081742472 141.425,94.46424905060859 141.5,94.50492872773863 141.575,94.54715800768739 141.64999999999998,94.59907314413837 141.725,94.61805727482383 141.8,94.6145705560538 141.875,94.6986427098014 141.95,94.81274014349776 142.02499999999998,94.92741832799487 142.1,94.96325530172966 142.175,95.00006047021141 142.25,95.00548465086483 142.325,94.99928592825113 142.39999999999998,94.95938079308135 142.475,94.95531270083279 142.55,94.93574802690583 142.625,94.93051767200512 142.7,94.92838686867393 142.77499999999998,94.96325533632287 142.85,94.97681518257528 142.925,94.97429714285714 143.0,94.91637704035874 143.075,94.77845332607303 143.14999999999998,94.6354925637412 143.225,94.54231623830877 143.3,94.5301119615631 143.375,94.4923375259449 143.45,94.4452651966688 143.52499999999998,94.39354350544522 143.6,94.33000556950672 143.675,94.30850343369634 143.75,94.34724592568865 143.825,94.46812331710441 143.89999999999998,94.55645686995516 143.975,94.63491084433056 144.05,94.71995067392697 144.125,94.81196445996156 144.2,94.88790011787316 144.27499999999998,94.85787466495836 144.35,94.73273570147342 144.425,94.58473865214606 144.5,94.52294376425368 144.575,94.53863437924407 144.64999999999998,94.57137225112108 144.725,94.54560857783473 144.8,94.48923811274824 144.875,94.42415026265215 144.95,94.41349614221653 145.02499999999998,94.4218259103139 145.1,94.44642739013453 145.175,94.44700883279948 145.25,94.38734526713645 145.325,94.26394976681614 145.39999999999998,94.13648613965407 145.475,94.04970270852017 145.55,93.96291913901345 145.625,93.87671673542602 145.7,93.84804730172966 145.77499999999998,93.92068972069187 145.85,94.07759784240871 145.925,94.22675725816784 146.0,94.36448752722613 146.075,94.47955350160154 146.14999999999998,94.57447308263933 146.225,94.67694771684818 146.3,94.77496688404868 146.375,94.8727922946829 146.45,94.96383767841128 146.52499999999998,95.03415567584881 146.6,95.17944096348495 146.675,95.33576771172325 146.75,95.54381594362589 146.825,95.73772305957719 146.89999999999998,95.9389912991672 146.975,96.09202484304933 147.05,96.22006942857143 147.125,96.31711988212685 147.2,96.36961594234465 147.27499999999998,96.38705012427931 147.35,96.4029345304292 147.425,96.46879692248558 147.5,96.51955010762332 147.575,96.59083706085842 147.64999999999998,96.65844312363869 147.725,96.75588081358104 147.8,96.84828211274824 147.875,96.89303002049968 147.95,96.92983550032031 148.02499999999998,96.94010224599616 148.1,96.89942222293402 148.175,96.82038690967329 148.25,96.68846809224856 148.325,96.61156365150545 148.39999999999998,96.53814637924407 148.475,96.49514172709802 148.55,96.43993349007047 148.625,96.40060969378604 148.7,96.39344246508648 148.77499999999998,96.40642124919923 148.85,96.43683397309417 148.925,96.45349371684817 149.0,96.44710123766816 149.075,96.41068254452274 149.14999999999998,96.33842708520179 149.225,96.26462219602818 149.3,96.17008998975015 149.375,96.11507561306854 149.45,96.07788272389494 149.52499999999998,96.01570104932736 149.6,95.95448729276104 149.675,95.90102276105061 149.75,95.92446194362589 149.825,95.9533254106342 149.89999999999998,95.96824124151185 149.975,95.96223613709161 150.05,95.9860629019859 150.125,95.99206793721973 150.2,95.97598949775785 150.27499999999998,95.92581785906471 150.35,95.8500759231262 150.425,95.80997689301729 150.5,95.8014533337604 150.575,95.83651597309417 150.64999999999998,95.86034298014094 150.725,95.83419179372197 150.8,95.82082535810378 150.875,95.83864674183216 150.95,95.90315314926329 151.02499999999998,96.02325527226137 151.1,96.15653055861627 151.175,96.28244434080717 151.25,96.34075233696349 151.325,96.33862139525945 151.39999999999998,96.33862146444586 151.475,96.39228013324792 151.55,96.46008012556054 151.625,96.53601567969251 151.7,96.53834037796284 151.77499999999998,96.56119856758488 151.85,96.57107786931454 151.925,96.61524443818065 152.0,96.66096093504164 152.075,96.68653071338885 152.14999999999998,96.72953550390775 152.225,96.80663352825113 152.3,96.93545331300449 152.375,97.05613667110826 152.45,97.12451744881486 152.52499999999998,97.16364736399744 152.6,97.21265664317745 152.675,97.29653430352339 152.75,97.43484561050609 152.825,97.57896860089686 152.89999999999998,97.73703891607944 152.975,97.83738261204356 153.05,97.91525516450993 153.125,97.96562080538116 153.2,98.03555116515055 153.27499999999998,98.08920979935938 153.35,98.17270033747597 153.425,98.19439612607303 153.5,98.1837415074952 153.575,98.14441798795644 153.64999999999998,98.10606210967329 153.725,98.07177466957079 153.8,97.96852538962203 153.875,97.8404810462524 153.95,97.68706002383088 154.02499999999998,97.60686288379245 154.1,97.53577023369635 154.175,97.39048499103139 154.25,97.12432278590647 154.325,96.73398999538757 154.39999999999998,96.36690276925049 154.475,96.00853254413838 154.55,95.6778637136451 154.625,95.36830948853299 154.7,95.12926738757207 154.77499999999998,95.01013352850737 154.85,94.90184778859705 154.925,94.75055774247278 155.0,94.58512671877001 155.075,94.4483647136451 155.14999999999998,94.42298858808456 155.225,94.4859453615631 155.3,94.62386920730302 155.375,94.75307597245356 155.45,94.85961838757207 155.52499999999998,94.85961835297886 155.6,94.8377284618834 155.675,94.87511521140294 155.75,95.02175627610507 155.825,95.25711840679053 155.89999999999998,95.4578056880205 155.975,95.69084322421524 156.05,95.93124160730301 156.125,96.15265627482383 156.2,96.27682655925689 156.27499999999998,96.2818631921845 156.35,96.28651224279308 156.425,96.34365763036514 156.5,96.45523657463164 156.575,96.53988940999359 156.64999999999998,96.56216608776425 156.725,96.47615740269059 156.8,96.3566360028187 156.875,96.25241798846893 156.95,96.21754979756567 157.02499999999998,96.21580633440102 157.1,96.18946166816144 157.175,96.12456788597054 157.25,96.06412932863549 157.325,96.09841669955156 157.39999999999998,96.1687346623959 157.475,96.17551482767456 157.55,96.11662587315823 157.625,96.06994091864189 157.7,96.07827072133247 157.77499999999998,96.06529176425369 157.85,96.00059166944267 157.925,95.8863008251121 158.0,95.79564267777066 158.075,95.78014543882126 158.14999999999998,95.79138096732864 158.225,95.83806612940423 158.3,95.8762279397822 158.375,95.90838443818066 158.45,95.92949895707879 158.52499999999998,95.98141412812299 158.6,96.07323446893017 158.675,96.15614384112749 158.75,96.15594987700192 158.825,96.07749562588084 158.89999999999998,95.98451316079436 158.975,95.93453500192184 159.05,95.9428647008328 159.125,95.99051812684176 159.2,96.07420224855862 159.27499999999998,96.19411106470211 159.35,96.33687782831518 159.425,96.46782800128123 159.5,96.47325207815503 159.575,96.3665158372838 159.64999999999998,96.2537744573991 159.725,96.16834638821268 159.8,96.12747250480462 159.875,96.07013342985266 159.95,95.99884699551569 160.02499999999998,95.92271751185137 160.1,95.84658802818706 160.175,95.82644166944266 160.25,95.87041475848815 160.325,95.87680720307495 160.39999999999998,95.85607981678412 160.475,95.81113829083921 160.55,95.78982998078155 160.625,95.77239590262653 160.7,95.69084241127483 160.77499999999998,95.63912072005125 160.85,95.5771325944907 160.925,95.61761893017297 161.0,95.72881060345932 161.075,95.90044124919923 161.14999999999998,96.05270035490071 161.225,96.18210127098014 161.3,96.284769928123 161.375,96.31421424971172 161.45,96.32021914657271 161.52499999999998,96.31886312735426 161.6,96.32971096976297 161.675,96.3428837871877 161.75,96.33222956297246 161.825,96.38046443164637 161.89999999999998,96.3808519793722 161.975,96.3849198640615 162.05,96.39596132466367 162.125,96.4238560434337 162.2,96.42637446367713 162.27499999999998,96.36264287495196 162.35,96.35586264048686 162.425,96.36574190762332 162.5,96.4451644261371 162.575,96.50153465944908 162.64999999999998,96.54221432966048 162.725,96.56022955989751 162.8,96.57998814606022 162.875,96.68962996745675 162.95,96.78784292581679 163.02499999999998,96.8881866529148 163.1,96.95986044817424 163.175,97.01022542485586 163.25,97.05710385919282 163.325,97.11153727751442 163.39999999999998,97.26069658949392 163.475,97.38932237552851 163.55,97.4394942217809 163.625,97.45131101998719 163.7,97.53596395912876 163.77499999999998,97.683186328123 163.85,97.77442539923126 163.925,97.78004305970532 164.0,97.67756880256246 164.075,97.55630423356823 164.14999999999998,97.42031757296604 164.225,97.32442939590007 164.3,97.2455881782191 164.375,97.15628619538757 164.45,97.10127147277386 164.52499999999998,97.01719976873798 164.6,96.8953539888533 164.675,96.7549119269699 164.75,96.59122415887252 164.825,96.43605956950672 164.89999999999998,96.21251413324792 164.975,96.06432350032031 165.05,95.97870198590647 165.125,95.9004414913517 165.2,95.80900845611788 165.27499999999998,95.70963330429213 165.35,95.6863877053171 165.425,95.6805765304292 165.5,95.71002088661115 165.575,95.75166913901346 165.64999999999998,95.81675685073671 165.725,95.88281362203716 165.8,95.92988598590647 165.875,95.96921005893658 165.95,95.98761264317746 166.02499999999998,96.03875285714285 166.1,96.16272954413837 166.175,96.31092043651505 166.25,96.48390661716849 166.325,96.5966480662396 166.39999999999998,96.75956129237669 166.475,96.86726597014734 166.55,96.98756198808456 166.625,97.08364390096092 166.7,97.20452125778347 166.77499999999998,97.32985388789237 166.85,97.4154753331198 166.925,97.51310675195387 167.0,97.59892177732223 167.075,97.66497816463806 167.14999999999998,97.67795687956438 167.225,97.68589851185138 167.3,97.71437423741192 167.375,97.74672427098014 167.45,97.69887729596412 167.52499999999998,97.59214140102499 167.6,97.46719624253683 167.675,97.37460116950673 167.75,97.33101559359385 167.825,97.29634095169763 167.89999999999998,97.25798569609225 167.975,97.21691836745676 168.05,97.18863648148623 168.125,97.18108142831518 168.2,97.1826310657271 168.27499999999998,97.13672095067264 168.35,97.08112526969892 168.425,96.96392872722613 168.5,96.85971087546444 168.575,96.78842454836644 168.64999999999998,96.74406439590007 168.725,96.68498203074952 168.8,96.61795715464446 168.875,96.61543884509929 168.95,96.72914865842408 169.02499999999998,96.83743432914798 169.1,96.87850158859705 169.175,96.86416671607944 169.25,96.854675031262 169.325,96.92809240730301 169.39999999999998,97.0017031247918 169.475,97.09449166034594 169.55,97.14233880832799 169.625,97.19696625650224 169.7,97.21672516438181 169.77499999999998,97.2271858049968 169.85,97.23028539115951 169.925,97.2800700356182 170.0,97.36123616950672 170.075,97.45073146611146 170.14999999999998,97.57141467200512 170.225,97.65548628955797 170.3,97.68473702754645 170.375,97.65936122024344 170.45,97.6227493620756 170.52499999999998,97.6537435632287 170.6,97.70701506483023 170.675,97.7490510379244 170.75,97.7327791532351 170.825,97.65974904817425 170.89999999999998,97.60260390275464 170.975,97.53189870352338 171.05,97.43717284445869 171.125,97.28142702344651 171.2,97.12161321742472 171.27499999999998,96.95424455887252 171.35,96.7556879426009 171.425,96.56255505727098 171.5,96.41184553709161 171.575,96.31925058513774 171.64999999999998,96.17609632222934 171.725,96.01899456502242 171.8,95.89889216527867 171.875,95.78924978347213 171.95,95.68968122101217 172.02499999999998,95.5544693376041 172.1,95.45005744907111 172.175,95.36792289557975 172.25,95.35300692632927 172.325,95.38438846764895 172.39999999999998,95.39523627546444 172.475,95.43882147085202 172.55,95.51185154131967 172.625,95.65326244484305 172.7,95.70633994772581 172.77499999999998,95.7536059643818 172.85,95.73617171326073 172.925,95.79351096117873 173.0,95.8266361732223 173.075,95.88010105086482 173.14999999999998,95.88475023984626 173.225,95.877001776041 173.3,95.86828466777706 173.375,95.9153570662396 173.45,95.97443981191545 173.52499999999998,95.96920952620115 173.6,95.91671343139014 173.675,95.86053620397182 173.75,95.80978294964765 173.825,95.77045918795643 173.89999999999998,95.73694684330557 173.975,95.66914730070468 174.05,95.59747321486226 174.125,95.54304001793722 174.2,95.5680291838565 174.27499999999998,95.65035749391416 174.35,95.83438537732223 174.425,96.01202069506726 174.5,96.11255808187059 174.575,96.06994121960282 174.64999999999998,96.09822338231902 174.725,96.2072839409353 174.8,96.33959037527227 174.875,96.41668822664958 174.95,96.45465589993594 175.02499999999998,96.56662235733504 175.1,96.7291476206278 175.175,96.88489351428572 175.25,97.0288227827034 175.325,97.1326531247918 175.39999999999998,97.20878267764253 175.475,97.25856711454196 175.55,97.26844645086483 175.625,97.27696983715568 175.7,97.31764951428572 175.77499999999998,97.36724029839846 175.85,97.42186737296605 175.925,97.39435994247278 176.0,97.39455348456119 176.075,97.43465223792441 176.14999999999998,97.47533236476617 176.225,97.45983567930814 176.3,97.37092109891096 176.375,97.2823937203075 176.45,97.22582918731582 176.52499999999998,97.25023720461243 176.6,97.28142534913516 176.675,97.32714168686739 176.75,97.30660778039719 176.825,97.28975483356822 176.89999999999998,97.27755090275464 176.975,97.2727078880205 177.05,97.27696959846253 177.125,97.24810599308135 177.2,97.21963003920564 177.27499999999998,97.15396091941064 177.35,97.04044492491992 177.425,96.913175192697 177.5,96.75956027533633 177.575,96.63132172568866 177.64999999999998,96.52051708122998 177.725,96.47344437142857 177.8,96.45697893773222 177.875,96.39595962959642 177.95,96.30162100691864 178.025,96.08795468212685 178.1,95.88842975349135 178.17499999999998,95.71505634336964 178.25,95.65752368481742 178.325,95.57306436386932 178.4,95.46516547982063 178.475,95.35746080204997 178.54999999999998,95.32201106470211 178.625,95.3437070262652 178.7,95.3754761153107 178.775,95.43281581294042 178.85,95.48957392953236 178.92499999999998,95.53412801153107 179.0,95.55931079564382 179.075,95.57887595387572 179.15,95.61025759897501 179.225,95.59844128507368 179.29999999999998,95.59476042921204 179.375,95.58526839846252 179.45,95.62168671108263 179.525,95.7454698629084 179.6,95.87680758360025 179.67499999999998,96.01356917360667 179.75,96.05831715054453 179.825,96.1441325598975 179.9,96.24718870595773 179.975,96.33726561819347 180.04999999999998,96.3581870723895 180.125,96.30627172837924 180.2,96.22336225240231 180.275,96.13812790518898 180.35,96.12301838693145 180.42499999999998,96.14645791543882 180.5,96.24273372325432 180.575,96.3215751069827 180.65,96.40041673286355 180.725,96.49359271236386 180.79999999999998,96.622993528123 180.875,96.79675459320949 180.95,96.9201499482383 181.025,96.9647039264574 181.1,96.96567250172966 181.17499999999998,96.89186768174247 181.25,96.81302622882768 181.325,96.69447336271621 181.4,96.64643235438821 181.475,96.65204998026906 181.54999999999998,96.68033203920564 181.625,96.71423217373479 181.7,96.76653492709801 181.775,96.78919936015375 181.85,96.77292709493913 181.92499999999998,96.73031016348494 182.0,96.65650523971813 182.075,96.60788296169122 182.15,96.54744423139013 182.225,96.51335068622677 182.29999999999998,96.39964083139013 182.375,96.28496247738629 182.45,96.18655618449712 182.525,96.20030989109546 182.6,96.23304745163357 182.67499999999998,96.27392105829597 182.75,96.33261604868675 182.825,96.40080313901345 182.9,96.46221009865471 182.975,96.49533520691864 183.04999999999998,96.47693227674567 183.125,96.45097463933377 183.2,96.39925325944907 183.275,96.42656729660474 183.35,96.46531020371556 183.42499999999998,96.490686640615 183.5,96.51703175656631 183.575,96.5088959871877 183.65,96.52516773350416 183.725,96.48933079436259 183.79999999999998,96.48332562075592 183.875,96.38918061627162 183.95,96.2828319231262 184.025,96.07168420884048 184.1,95.90547788212685 184.17499999999998,95.78072598206278 184.25,95.70246569506726 184.325,95.60250955028827 184.4,95.45393147341447 184.475,95.32859868417681 184.54999999999998,95.25440648942985 184.625,95.20694668161435 184.7,95.1924179487508 184.775,95.1837005983344 184.85,95.20597793337605 184.92499999999998,95.23600352466367 185.0,95.27939568994235 185.075,95.34041579372197 185.15,95.3716037860346 185.225,95.43746642024344 185.29999999999998,95.51262739782192 185.375,95.68948829468289 185.45,95.82101991031391 185.525,95.97385990518899 185.6,96.0503768673927 185.67499999999998,96.08369621652787 185.75,96.07672239846252 185.825,96.12398855349136 185.9,96.20709137091607 185.975,96.28031519795003 186.04999999999998,96.32486927994876 186.125,96.34985837668161 186.2,96.33339308135811 186.275,96.24641558231903 186.35,96.17629116848174 186.42499999999998,96.14742783984626 186.5,96.15808161434978 186.575,96.14432763100577 186.65,96.103454128123 186.725,96.04359632158872 186.79999999999998,96.01589508263933 186.875,96.00853357847534 186.95,95.99594203074952 187.025,95.94499526201153 187.1,95.90082845099295 187.17499999999998,95.88087553747597 187.25,95.91690661370916 187.325,95.96320415887251 187.4,96.04146496476618 187.475,96.0614177053171 187.54999999999998,96.04824540679051 187.625,96.05734978603459 187.7,96.11042708135811 187.775,96.18829999359384 187.85,96.15672455733504 187.92499999999998,96.11371993978219 188.0,96.00369066752081 188.075,95.93414762716208 188.15,95.88126405381166 188.225,95.86402376681615 188.29999999999998,95.77840249455477 188.375,95.62711203331197 188.45,95.53626009481101 188.525,95.56996650736707 188.6,95.66934176297245 188.67499999999998,95.7851829019859 188.75,95.82760604228059 188.825,95.8367105598975 188.9,95.80261670339526 188.975,95.78498859192825 189.04999999999998,95.81249579756566 189.125,95.81598275848815 189.2,95.85530655477258 189.275,95.90489692376681 189.35,96.03642827303011 189.42499999999998,96.15110684497117 189.5,96.26656012491992 189.575,96.35063193273542 189.65,96.47267151761692 189.725,96.58173235297886 189.79999999999998,96.75529956809737 189.875,96.94165218436899 189.95,97.15434984740551 190.025,97.30137819346572 190.1,97.3933918930173 190.17499999999998,97.43329637091608 190.25,97.46448405188981 190.325,97.47029529596412 190.4,97.47785007238949 190.475,97.51329974055093 190.54999999999998,97.50923147533632 190.625,97.51155586226778 190.7,97.4121809871877 190.775,97.37421345227418 190.85,97.32927188135811 190.92499999999998,97.33721396335682 191.0,97.3614281376041 191.075,97.3643335866752 191.15,97.2860729883408 191.225,97.16132136502242 191.29999999999998,97.06136507495195 191.375,97.01952323894939 191.45,96.97167612556053 191.525,96.89477198577835 191.6,96.86397159308136 191.67499999999998,96.86552174247278 191.75,96.88276254836643 191.825,96.91491918513773 191.9,96.93952087251762 191.975,96.98446239846253 192.04999999999998,97.05148753747598 192.125,97.11967473158232 192.2,97.2382275976938 192.275,97.24481397181295 192.35,97.18398765919282 192.42499999999998,97.06892192005125 192.5,96.93119178936578 192.575,96.87191532171684 192.65,96.86532936271621 192.725,96.8877999008328 192.79999999999998,96.87869545240231 192.875,96.79307390339525 192.95,96.69641079000641 193.025,96.55344999308136 193.1,96.38065753440102 193.17499999999998,96.23420974887892 193.25,96.10713360025625 193.325,96.00911443305573 193.4,95.90818974759769 193.475,95.8541434272902 193.54999999999998,95.82586133376041 193.625,95.75806165278668 193.7,95.61277601921844 193.775,95.4862812094811 193.85,95.43475389750161 193.92499999999998,95.43920915695067 194.0,95.4438583805253 194.075,95.41790105445227 194.15,95.35959291992313 194.225,95.27745857399103 194.29999999999998,95.17207824855862 194.375,95.11454524407431 194.45,95.08781285714286 194.525,95.13081726713645 194.6,95.20597824471493 194.67499999999998,95.2900499487508 194.75,95.3898124061499 194.825,95.4364972222934 194.9,95.47892025880846 194.975,95.48589400768738 195.04999999999998,95.47233398846893 195.125,95.46845951441384 195.2,95.47427103523383 195.275,95.5341280807175 195.35,95.5548553632287 195.42499999999998,95.53141624983985 195.5,95.47814488661115 195.575,95.45199331966688 195.65,95.4297165381166 195.725,95.44928166175528 195.79999999999998,95.44347031390134 195.875,95.43765882767457 195.95,95.4093764919923 196.025,95.40472744138373 196.1,95.31251955285073 196.17499999999998,95.14476369250481 196.25,94.8619419961563 196.325,94.67055343882127 196.4,94.45921189878283 196.475,94.25755628443305 196.54999999999998,94.09444933632287 196.625,93.99120026393338 196.7,94.00592278795644 196.775,93.98422699935938 196.85,93.9410288673927 196.92499999999998,93.87962166559898 197.0,93.84339700576554 197.075,93.85560117873158 197.15,93.922238735426 197.225,93.99798074055093 197.29999999999998,94.09890584112749 197.375,94.19266333247919 197.45,94.26201265086483 197.525,94.3030799103139 197.6,94.41523998590647 197.67499999999998,94.5351485944907 197.75,94.71646443946189 197.825,94.83850381678411 197.9,95.04267785137732 197.975,95.23387303267137 198.04999999999998,95.361530623959 198.125,95.44289028955798 198.2,95.44947624855861 198.275,95.43707894170403 198.35,95.44366503907752 198.42499999999998,95.47039777194107 198.5,95.5564067648943 198.575,95.54691476873799 198.65,95.50836589493915 198.725,95.43843520307496 198.79999999999998,95.38400136963484 198.875,95.33073021396541 198.95,95.27784688276746 199.025,95.2292248122998 199.1,95.17324186034593 199.17499999999998,95.18350881358104 199.25,95.21450277258168 199.325,95.2241885253043 199.4,95.1467032991672 199.475,95.02853811915439 199.54999999999998,94.94679059449071 199.625,94.88732037027546 199.7,94.79976187828315 199.775,94.73738572069186 199.85,94.69651232158873 199.92499999999998,100.0" opacity="1" fill="#F28E2B" stroke="black" stroke-width="0"/>
<line x1="40" y1="100.0" x2="40" y2="70.0" stroke="black" stroke-width="1" />
<line x1="39.5" y1="100.0" x2="43.5" y2="100.0" stroke="black" stroke-width="1" />
<line x1="39.5" y1="70.0" x2="43.5" y2="70.0" stroke="black" stroke-width="1" />
<text text-anchor="end" font-family="Arial" x="36" y="104.0" font-size="8" >0</text>
<text text-anchor="end" font-family="Arial" x="36" y="74.0" font-size="8" >171.7</text>
<text text-anchor="start" font-family="Arial" x="39.5" y="66" font-size="7" >ChrIV: 230,000-280,000</text>
</svg>
