<svg viewBox="0 0 320 210" xmlns="http://www.w3.org/2000/svg">
<polygon points="50.0,100.0 50.075,91.27343831133888 50.15,91.26192915054452 50.225,91.28281563100576 50.3,91.34440987828316 50.375,91.38469107623318 50.45,91.4420227136451 50.525,91.49232110185778 50.6,91.51171550800768 50.675,91.51235458295965 50.75,91.50276354644458 50.825,91.48763126585521 50.9,91.44905471748879 50.975,91.43520103651505 51.05,91.46013699807816 51.125,91.53899484817424 51.2,91.57458731710442 51.275,91.59462100576553 51.35,91.58502996925048 51.425,91.64896866752082 51.5,91.74061417424727 51.575,91.97484282383088 51.65,92.19266083536195 51.725,92.43243079820628 51.8,92.67710258424087 51.875,92.92092171684817 51.95,93.15685505060858 52.025,93.41772486483023 52.1,93.75105872850736 52.175,94.1314940351057 52.25,94.53473406752082 52.325,94.92966197437539 52.4,95.3201142913517 52.475,95.61849469878283 52.55,95.83247611582318 52.625,95.91325143292761 52.7,96.01214324843049 52.775,96.05754026316464 52.85,96.14598908058936 52.925,96.20225490121717 53.0,96.2514872996797 53.075,96.18946682946829 53.15,95.9496966244715 53.225,95.61423167379884 53.3,95.26171645663037 53.375,94.9878460991672 53.45,94.69649904471493 53.525,94.3659357442665 53.6,93.94692432517617 53.675,93.4531045509289 53.75,92.91793781383728 53.825,92.34931003382447 53.9,91.7928304099936 53.975,91.31350364766175 54.05,90.90514859064702 54.125,90.54730532735425 54.2,90.24103887892376 54.275,90.03728753875721 54.35,89.89598292632928 54.425,89.72185676105062 54.5,89.52151568866111 54.575,89.32202713132608 54.65,89.11252134913518 54.725,88.93882144138372 54.8,88.74125118129405 54.875,88.58161773734786 54.95,88.42752557206919 55.025,88.34440545803972 55.1,88.24125099807816 55.175,88.08353588597053 55.25,87.93200105829597 55.325,87.96865896348494 55.4,88.05817307879565 55.475,88.18434565278667 55.55,88.26171153235106 55.625,88.42134490711082 55.7,88.54836971941063 55.775,88.67539422037156 55.85,88.78004023574631 55.925,88.86316041896221 56.0,88.93775527866752 56.075,89.11678375144139 56.15,89.47761081742473 56.225,89.81563327866752 56.3,90.10506203587444 56.375,90.32373221652787 56.45,90.59035664573992 56.525,90.82820841511851 56.6,91.13980263292761 56.675,91.56542070467648 56.75,92.01277839461883 56.825,92.36273599743754 56.9,92.6979879577194 56.975,93.02173065342728 57.05,93.36167110057656 57.125,93.68434829083921 57.2,94.06584929660474 57.275,94.422201087508 57.35,94.73166451582318 57.425,95.03153699756567 57.5,95.31798240179373 57.575,95.47271398795644 57.65,95.50468344087123 57.725,95.52279935118514 57.8,95.60485406354901 57.875,95.62744605842408 57.95,95.58823053888533 58.025,95.50404485022422 58.1,95.43904095784754 58.175,95.34398566764894 58.25,95.23571625573351 58.325,95.05924560486868 58.4,94.84782128327996 58.475,94.52002886431774 58.55,94.13128175733505 58.625,93.75169932556054 58.7,93.33993417373479 58.775,92.9430881253043 58.85,92.4886974144779 58.925,92.11870560409994 59.0,91.85314709545163 59.075,91.72548262011532 59.15,91.70672715054452 59.225,91.72121990647021 59.3,91.66538048174247 59.375,91.64683827930813 59.45,91.62786968097373 59.525,91.64342801153107 59.6,91.57927604612428 59.675,91.54794597950031 59.75,91.5762922434337 59.825,91.6506743549007 59.9,91.69138219090327 59.975,91.79219226905829 60.05,91.91602021909033 60.125,92.00297668545804 60.2,92.04901242921204 60.275,92.05732452017938 60.35,92.10442587315823 60.425,92.11295098910955 60.5,92.05561917873158 60.575,91.91665932863549 60.65,91.69052995259449 60.725,91.48571303779629 60.8,91.3565567303011 60.875,91.22761341319666 60.95,91.15024760281871 61.025,91.13660750032031 61.1,91.17497074695707 61.175,91.16346175912877 61.25,91.0456014144779 61.325,90.9825151620756 61.4,90.93562683408072 61.475,90.92710144138373 61.55,90.93882328122999 61.625,91.01896011146701 61.7,91.17454421268417 61.775,91.31712735554132 61.85,91.48741727226137 61.925,91.66154336835362 62.0,91.9392503894939 62.075,92.23997528251121 62.15,92.53707695195388 62.225,92.76086201537476 62.3,93.01896098270339 62.375,93.34632693657912 62.45,93.63319804484306 62.525,93.79773362331838 62.6,93.96290865727099 62.675,94.24061550544522 62.75,94.58226077514414 62.825,94.82096454067906 62.9,95.10549119795003 62.975,95.42220108033312 63.05,95.78132366623959 63.125,96.05263672069186 63.2,96.27365158757208 63.275,96.54389904317745 63.35,96.81776976040999 63.425,97.07267216297245 63.5,97.21504248840486 63.575,97.36359327123638 63.65,97.55647484381807 63.725,97.79645837475977 63.8,97.9394680172966 63.875,97.96312524087124 63.95,97.94181267584881 64.025,97.96078113581038 64.1,97.94927207879564 64.175,97.8390845771941 64.25,97.67284424535555 64.325,97.48912783920564 64.4,97.21419187251762 64.475,96.7996561297886 64.55,96.30285267392696 64.625,95.85059302242152 64.7,95.36956102934016 64.775,94.80178571595131 64.85,94.15813645547726 64.925,93.51192950454836 65.0,92.98209084471493 65.075,92.47527026431774 65.15,92.04453692235747 65.225,91.5737352863549 65.3,91.14939564125561 65.375,90.78451919795003 65.45,90.49018827162075 65.525,90.18264308520179 65.6,89.90237865727099 65.675,89.61593332222934 65.75,89.37680271108263 65.825,89.15344349007047 65.9,89.0494367226137 65.975,89.15195179628444 66.05,89.38298365278668 66.125,89.60357202690582 66.2,89.83503007174888 66.275,90.11337658295963 66.35,90.50084484817424 66.425,90.88788682126842 66.5,91.14726459577194 66.575,91.36870548494555 66.65,91.48997561306855 66.725,91.63277195387572 66.8,91.75318977450353 66.875,91.874460144779 66.95,92.03025723638693 67.025,92.22463063420884 67.1,92.46589211787315 67.175,92.73017199231262 67.25,92.95843296732863 67.325,93.1749721370916 67.4,93.34440978090967 67.475,93.4006757053171 67.55,93.37296896604741 67.625,93.3243758846893 67.7,93.24381300448431 67.775,93.18477592184497 67.85,93.10293458039718 67.925,93.09931135682255 68.0,93.10463957591287 68.075,93.14385492248559 68.15,93.239123376041 68.225,93.4243324099936 68.3,93.57117819730942 68.375,93.60570522998079 68.45,93.52706081998718 68.525,93.38255965663036 68.6,93.18648157463164 68.675,92.94031771428571 68.75,92.75255144650865 68.825,92.59718023190263 68.9,92.47612281742472 68.975,92.30583293529789 69.05,92.14449401153107 69.125,92.00510748878924 69.2,91.98038462139654 69.275,91.99615614990391 69.35,91.94969383728379 69.425,91.67902051505445 69.5,91.30796340679052 69.575,90.84526079180013 69.65,90.39236203074952 69.725,89.90557548494554 69.8,89.50276174119155 69.875,89.23400585137732 69.95,89.02982804612428 70.025,88.91239388981423 70.1,88.88767067648942 70.175,89.00233426265214 70.25,89.13937616143498 70.325,89.24615384497118 70.4,89.30241994234464 70.475,89.44031432158873 70.55,89.56883113901345 70.625,89.71589033183857 70.7,89.74977770147342 70.775,89.78153419859065 70.85,89.85208016527866 70.925,89.97910480461243 71.0,90.1809377091608 71.075,90.44457840486868 71.15,90.70949749263293 71.225,90.9317909314542 71.3,91.10613050224215 71.375,91.2676822434337 71.45,91.47995869955157 71.525,91.69905555285074 71.6,91.81542403074953 71.675,91.85442666367713 71.75,91.82096506726457 71.825,91.78771691095452 71.9,91.66943044714927 71.975,91.51917435746316 72.05,91.57778507879564 72.125,91.67667665214606 72.2,91.80625900960922 72.275,91.76469869314542 72.35,91.72249874823831 72.425,91.77450223574631 72.5,91.81520993337604 72.575,91.84312973222293 72.65,91.8386542011531 72.725,91.94287437411916 72.8,92.02514214606022 72.875,92.0357987226137 72.95,91.94180897245356 73.025,91.83630978475337 73.1,91.72953210121716 73.175,91.61508171300449 73.25,91.55881571941063 73.325,91.54240459705318 73.4,91.64406687892377 73.475,91.70225130813581 73.55,91.59334212940422 73.625,91.42411764894298 73.7,91.29709266367713 73.775,91.36486761050608 73.85,91.39342703779629 73.925,91.37786849967969 74.0,91.34014488148622 74.075,91.33034095836003 74.15,91.31435605893658 74.225,91.24935147469571 74.3,91.2559584317745 74.375,91.38255688276746 74.45,91.55604376553491 74.525,91.56691336707239 74.6,91.53046838308777 74.675,91.48699018449712 74.75,91.51000822934016 74.825,91.57330788725176 74.9,91.52407531582318 74.975,91.56478266752082 75.05,91.56734021268417 75.125,91.70203755669442 75.2,91.80476575912877 75.275,91.83566946444587 75.35,91.85591690454837 75.425,91.94138157335041 75.5,92.13596771941063 75.575,92.37275398334401 75.65,92.59994966047405 75.725,92.7864377091608 75.8,92.9375461409353 75.875,93.01533841639974 75.95,93.09462259320948 76.025,93.32778587572069 76.1,93.61657569634849 76.175,93.97655010890455 76.25,94.2610770429212 76.325,94.53260322613708 76.4,94.90003724919923 76.475,95.22697711851377 76.55,95.53558781037796 76.625,95.62915175272262 76.7,95.6570715515695 76.775,95.64087369634849 76.85,95.62616791543883 76.925,95.58546070211403 77.0,95.51768620499679 77.075,95.43968080076874 77.15,95.3280013632287 77.225,95.17689293145419 77.3,94.93008968481742 77.375,94.63980810121717 77.45,94.38234831262011 77.525,94.13682345803971 77.6,93.95417172709801 77.675,93.6606933158232 77.75,93.32245796796926 77.825,92.94330172453556 77.9,92.60378739654068 77.975,92.29922611659192 78.05,92.04283204099936 78.125,91.83588366559897 78.2,91.7146136066624 78.275,91.63426399359385 78.35,91.58524413581037 78.425,91.55689766431775 78.5,91.52343641383729 78.575,91.53558492632928 78.65,91.61401610377963 78.725,91.74913967072389 78.8,91.99636924407432 78.875,92.30689809481102 78.95,92.60613108648302 79.025,92.8610336066624 79.1,93.07117894811019 79.175,93.3062603549007 79.25,93.46269697117232 79.325,93.55242397309416 79.4,93.55306346316463 79.475,93.54965326457399 79.55,93.55540767200513 79.625,93.6730546111467 79.7,93.81798227418321 79.775,94.01086422037156 79.85,94.22015690839206 79.925,94.403661119795 80.0,94.56563915310699 80.075,94.62702037540038 80.15,94.70822260730301 80.225,94.73997906982703 80.3,94.71163270211403 80.375,94.60805163869314 80.45,94.45609083023703 80.525,94.27620987700192 80.6,94.07011391287637 80.675,93.7864392863549 80.75,93.50702726969891 80.825,93.21397528891737 80.9,92.88959317232543 80.975,92.51938830237027 81.05,92.12893606149903 81.125,91.66857786290839 81.2,91.09739243049327 81.275,90.43179022934017 81.35,89.78515794106342 81.425,89.22739941319666 81.5,88.65621377322229 81.575,88.0773557053171 81.65,87.47611901345292 81.725,86.98592237283792 81.8,86.47888904420243 81.875,85.91239192568867 81.95,85.30390850992953 82.025,84.7762017950032 82.1,84.37828997821909 82.175,84.13020785522102 82.25,84.05774390262653 82.32499999999999,84.08502424599615 82.4,84.23272258295964 82.475,84.48464102370275 82.55,84.81967968225496 82.625,85.13958616399744 82.69999999999999,85.5155453376041 82.775,85.94691868161435 82.85,86.37040480845612 82.925,86.6638834272902 83.0,86.96695277130044 83.07499999999999,87.31477884433056 83.15,87.66388386290839 83.225,87.87083213452914 83.3,88.13127534529148 83.375,88.49082464189622 83.44999999999999,89.00617037283793 83.525,89.55071443305573 83.6,90.0948329276105 83.675,90.6907411582319 83.75,91.24977842408713 83.82499999999999,91.77599323766816 83.9,92.25276197053171 83.975,92.59760475976938 84.05,92.85932740038437 84.125,93.06286568097373 84.19999999999999,93.24061534657271 84.275,93.40642942088405 84.35,93.49679632799487 84.425,93.6423632735426 84.5,93.76960138757207 84.57499999999999,93.81819481486227 84.65,93.68967837796285 84.725,93.4965833030109 84.8,93.23933674695708 84.875,93.06904658808456 84.94999999999999,92.84611400512492 85.025,92.58780156310058 85.1,92.19820180269058 85.175,91.70352980397182 85.25,91.10549011274824 85.32499999999999,90.47825198846893 85.4,89.85101389878282 85.475,89.31542079692505 85.55,88.74082499295324 85.625,88.15834339013453 85.69999999999999,87.5272686367713 85.775,87.03238344010249 85.85,86.68668799743755 85.925,86.48656008840487 86.0,86.2785460345932 86.07499999999999,86.21716522741832 86.15,86.36699440230622 86.225,86.81094206662397 86.3,87.39406291736067 86.375,87.94031214606022 86.44999999999999,88.43498411018578 86.525,88.8996049186419 86.6,89.36806218321588 86.675,89.84611031133889 86.75,90.40855711851377 86.82499999999999,91.06648633824472 86.9,91.74700720691864 86.975,92.29496167328635 87.05,92.87126250736708 87.125,93.50915745035233 87.19999999999999,94.2271887738629 87.275,94.783455504164 87.35,95.15898855861627 87.425,95.32373716207559 87.5,95.41857963484945 87.57499999999999,95.41836619474695 87.65,95.3751014362588 87.725,95.25106053042921 87.8,95.0270619231262 87.875,94.75617505701473 87.94999999999999,94.50489603715567 88.025,94.32821229212044 88.1,94.2239921537476 88.175,94.06755550288277 88.25,93.8017840384369 88.32499999999999,93.32757205509289 88.4,92.69010323126201 88.475,92.09739144778987 88.55,91.53750170147342 88.625,91.03302574503523 88.69999999999999,90.46162704548367 88.775,89.96354460602178 88.85,89.55582928122999 88.925,89.2163149186419 89.0,88.97633155028828 89.07499999999999,88.70118221268417 89.15,88.48506926585522 89.225,88.24700412556054 89.3,88.17283507367073 89.375,88.1129460986547 89.44999999999999,88.019169615631 89.525,87.78472783728378 89.6,87.51107050480461 89.675,87.23805245483663 89.75,86.98933111851377 89.82499999999999,86.88212741960282 89.9,86.9590671454196 89.975,87.13212808199872 90.05,87.24146310313901 90.125,87.1994765983344 90.19999999999999,87.13852215246636 90.275,87.08438723894939 90.35,87.08033793081358 90.425,87.0873711454196 90.5,87.011710607303 90.57499999999999,86.88532528507368 90.65,86.58012537988469 90.725,86.1913779615631 90.8,85.69159111467009 90.875,85.37871822805893 90.94999999999999,85.24018428955797 91.025,85.2126907136451 91.1,85.11742205253043 91.175,84.97419941960283 91.25,84.97675696476618 91.32499999999999,85.05092594746957 91.4,85.10442133632287 91.475,85.03195752210122 91.55,84.95203409737348 91.625,84.97803597950032 91.69999999999999,85.12275027162076 91.775,85.29197478667521 91.85,85.39235839974376 91.925,85.47633106342089 92.0,85.68924673286355 92.07499999999999,86.05561514670083 92.15,86.48357749647661 92.225,86.93839496989109 92.3,87.41345894939141 92.375,87.77066251505445 92.44999999999999,87.87211184112748 92.525,87.82096100704676 92.6,87.7086419064702 92.675,87.71141230365151 92.75,87.66473710442024 92.82499999999999,87.62871813581037 92.9,87.5807640256246 92.975,87.65919551441384 93.05,87.86998013837284 93.125,88.1012248122998 93.19999999999999,88.24551298526586 93.275,88.29261437283793 93.35,88.34056803331198 93.425,88.42155724023061 93.5,88.46077307110826 93.57499999999999,88.42006568481742 93.65,88.38617821140295 93.725,88.36209455733504 93.8,88.35548766944267 93.875,88.25403844714927 93.94999999999999,88.18988668930173 94.025,88.28643398462525 94.1,88.61209518513773 94.175,88.95544596925049 94.25,89.14172047405509 94.32499999999999,89.20352778090967 94.4,89.27684424855862 94.475,89.39001572581678 94.55,89.41218122101216 94.625,89.39470469698911 94.69999999999999,89.45928271236387 94.775,89.63468803074952 94.85,89.95885743369635 94.925,90.27641953363229 95.0,90.62040953106982 95.07499999999999,90.94308661755285 95.15,91.25659882126841 95.225,91.52023885970532 95.3,91.69202095451634 95.375,91.89364093786034 95.44999999999999,92.08971946957078 95.525,92.14598553235106 95.6,91.98230246893017 95.675,91.8147832261371 95.75,91.82266919795003 95.82499999999999,91.93093881742473 95.9,92.04453655221012 95.975,92.00830459320949 96.05,92.00617337475977 96.125,92.00659963228699 96.19999999999999,92.00063202690583 96.275,91.96013735426008 96.35,91.73571262780268 96.425,91.50595933632287 96.5,91.31670102882768 96.57499999999999,91.29283067648943 96.65,91.36508188084561 96.725,91.44862904804613 96.8,91.59163834465086 96.875,91.78345419730942 96.94999999999999,92.121903040615 97.025,92.55412847764254 97.1,93.07757316386932 97.175,93.51896307546444 97.25,93.90366059756566 97.32499999999999,94.22079643997438 97.4,94.47527249506726 97.475,94.71717350339526 97.55,94.92049799795004 97.625,95.09590272825112 97.69999999999999,95.270028928123 97.775,95.38511849506726 97.85,95.5899351331198 97.925,95.71653365329917 98.0,95.79198099346573 98.07499999999999,95.76427383907752 98.15,95.68051381985906 98.225,95.60059008379244 98.3,95.4545969153107 98.375,95.2329430011531 98.44999999999999,94.88191952620116 98.525,94.53963418526585 98.6,94.18818441127482 98.675,93.90450968097373 98.75,93.6470499615631 98.82499999999999,93.44713486995516 98.9,93.32309382575272 98.975,93.2374165470852 99.05,93.1681502178091 99.125,93.16559281101858 99.19999999999999,93.17731499679692 99.275,93.20267725048046 99.35,93.16196976040999 99.425,93.12659083536195 99.5,93.10250728507367 99.57499999999999,93.08801473670724 99.65,93.16154457527226 99.725,93.26491247533633 99.8,93.39577363997438 99.875,93.46227002178091 99.94999999999999,93.53366860730301 100.025,93.53302949775785 100.1,93.47335372069186 100.175,93.40451323382447 100.25,93.3019983331198 100.32499999999999,93.24104333376042 100.4,93.14236437027546 100.475,93.02429048174247 100.55,92.84142562203715 100.625,92.58801562588084 100.69999999999999,92.32394891479821 100.775,92.05327545419603 100.85,91.83567088276746 100.925,91.65664213324791 101.0,91.472711871877 101.07499999999999,91.22953195259448 101.15,90.82863616015375 101.225,90.33865264830237 101.3,89.87829410377962 101.375,89.51171221524663 101.44999999999999,89.25702285842408 101.525,89.09035602690582 101.6,89.02492528891736 101.675,89.01448222165278 101.75,88.97867645099295 101.82499999999999,88.96631505188981 101.9,88.92006624855861 101.975,88.93732998975015 102.05,89.00467867905189 102.125,89.17155870852018 102.19999999999999,89.34802984368994 102.275,89.43583882511211 102.35,89.45779119154389 102.425,89.43264217040358 102.5,89.46674273798847 102.57499999999999,89.5379276412556 102.65,89.68541281486226 102.725,89.91239498270339 102.8,90.11017864830237 102.875,90.30007641127483 102.94999999999999,90.37850793465726 103.025,90.35719509288917 103.1,90.27364872133248 103.175,90.09739085329917 103.25,89.97185804612428 103.32499999999999,89.77620597950032 103.4,89.63639333760409 103.475,89.56755253939782 103.55,89.59803009096733 103.625,89.64534478026906 103.69999999999999,89.72377599231262 103.775,89.91687061755285 103.85,90.16687044971172 103.925,90.48720336194746 104.0,90.75190980525304 104.07499999999999,91.05732311595132 104.15,91.37360627033952 104.225,91.71375988084561 104.3,92.09952318513773 104.375,92.48592604868674 104.44999999999999,92.93370992351058 104.525,93.380001831262 104.6,93.80476776848174 104.675,94.23571475118514 104.75,94.63106857309417 104.82499999999999,95.03196405419602 104.9,95.37552779410635 104.975,95.63106932005125 105.05,95.81308145714286 105.125,95.84632905996156 105.19999999999999,95.83886924189622 105.275,95.80370327264573 105.35,95.76043834119154 105.425,95.62403555195388 105.5,95.35229623997438 105.57499999999999,95.03324261921844 105.65,94.61018188507367 105.725,94.1442824078155 105.8,93.63703539692504 105.875,93.20821994401025 105.94999999999999,92.81904637540038 106.025,92.46269490967329 106.1,92.16196994746957 106.175,91.93306927482384 106.25,91.78750219090327 106.32499999999999,91.63404920435617 106.4,91.53963323126202 106.475,91.414953008328 106.55,91.30817549775784 106.625,91.19265967328636 106.69999999999999,91.06350367713004 106.775,90.86593303651506 106.85,90.68477344907112 106.925,90.61955618577835 107.0,90.78920647405509 107.07499999999999,90.93988861370916 107.15,91.10101413196669 107.225,91.19159389109545 107.3,91.31861873798847 107.375,91.35250617680974 107.44999999999999,91.39726318257527 107.525,91.45608689429852 107.6,91.57330781806535 107.675,91.62339307751441 107.75,91.61529432286996 107.82499999999999,91.61145779756566 107.9,91.54304336066625 107.975,91.4844328122998 108.05,91.35314500960922 108.125,91.30263359641256 108.19999999999999,91.20928312876362 108.275,91.20416831518257 108.35,91.09163632799488 108.425,90.97526767713005 108.5,90.66367314798207 108.57499999999999,90.48123509929532 108.65,90.41154202818706 108.725,90.45161027033953 108.8,90.48656345675849 108.875,90.44074091095452 108.94999999999999,90.3444066752082 109.025,90.29133757847534 109.1,90.2192999525945 109.175,90.1604764830237 109.25,90.04730538629084 109.32499999999999,89.89022966047405 109.4,89.83225874055093 109.475,89.79133805253043 109.55,89.80327360922486 109.625,89.81627449839846 109.69999999999999,89.86231058808455 109.775,89.95544765022422 109.85,90.12083553619475 109.925,90.18690569506727 110.0,90.28750281742472 110.07499999999999,90.33183325432415 110.15,90.40813349007047 110.225,90.45523470467649 110.3,90.38063942985266 110.375,90.35080098782831 110.44999999999999,90.29751872773863 110.525,90.29517417296604 110.6,90.26895930044843 110.675,90.3105190980141 110.75,90.37935941191543 110.82499999999999,90.4978589698911 110.9,90.54922300192185 110.975,90.59738996412557 111.05,90.61081693786033 111.125,90.63937598462525 111.19999999999999,90.6960681665599 111.275,90.73826766175529 111.35,90.71567587443946 111.425,90.70246178731583 111.5,90.66260657014735 111.57499999999999,90.64214631262011 111.65,90.52130206149904 111.725,90.45544530813581 111.8,90.44159186931454 111.875,90.52044999615632 111.94999999999999,90.56797771044202 112.025,90.49892392184498 112.1,90.41708233824471 112.175,90.20501942600896 112.25,90.05327164253683 112.32499999999999,89.91345920819987 112.4,89.8154198039718 112.475,89.74380857399103 112.55,89.68434564894298 112.625,89.6519504228059 112.69999999999999,89.48911994362588 112.775,89.3371592389494 112.85,89.3109448161435 112.925,89.45992196028187 113.0,89.56222383600256 113.07499999999999,89.57309343754004 113.15,89.65024611915439 113.225,89.7045939192825 113.3,89.78217303139013 113.375,89.75638438180653 113.44999999999999,89.80114176809737 113.525,89.92241189622037 113.6,90.11273612427931 113.675,90.37722926585522 113.75,90.59781760538117 113.82499999999999,90.72889193337605 113.9,90.87701628571429 113.975,91.0775705214606 114.05,91.39705074567584 114.125,91.72974471108265 114.2,92.16921597950032 114.27499999999999,92.5807677950032 114.35,92.91580583087764 114.425,93.08417779628444 114.5,93.32245609993593 114.575,93.58460485970532 114.64999999999999,93.83034263549007 114.725,94.00958437540038 114.8,94.11039428058936 114.875,94.2073678334401 114.95,94.30306261370916 115.02499999999999,94.40408606278027 115.1,94.46354919538757 115.175,94.48145204612428 115.25,94.50404407559257 115.325,94.58034424215246 115.39999999999999,94.61337951185138 115.475,94.57970540935298 115.55,94.44415551569507 115.625,94.28537444843049 115.7,94.07693514029468 115.77499999999999,93.74338859064702 115.85,93.35719937475977 115.925,93.02386574631646 116.0,92.78729247277386 116.075,92.53942340935298 116.14999999999999,92.27173337091608 116.225,92.01001100704677 116.3,91.84888566175529 116.375,91.72654964766176 116.45,91.62893670852017 116.52499999999999,91.44138308520179 116.6,91.15451131966688 116.675,90.73336812171685 116.75,90.3360954144779 116.825,89.97526796796924 116.89999999999999,89.71120125688661 116.975,89.41303366688021 117.05,89.13383467520819 117.125,88.86145614990392 117.2,88.66154105829597 117.27499999999999,88.53664729147982 117.35,88.55774731582319 117.425,88.56989575912877 117.5,88.55071427418322 117.575,88.42454194234465 117.64999999999999,88.28025394234466 117.725,88.185411504164 117.8,88.15706527482384 117.875,88.08012582575272 117.95,87.88063719923126 118.02499999999999,87.72079059192825 118.1,87.74316904292121 118.175,87.96844659577194 118.25,88.13276946060218 118.325,88.2710901665599 118.39999999999999,88.28814050224216 118.475,88.21162724151185 118.55,87.97953005253044 118.625,87.6704926880205 118.7,87.40003211402947 118.77499999999999,87.21674110057656 118.85,87.01085850736708 118.925,86.84568347341448 119.0,86.76256325560539 119.075,86.86976712748238 119.14999999999999,86.93370561819347 119.225,86.92177037283793 119.3,86.80604159256886 119.375,86.86102881358104 119.45,86.92667250736707 119.52499999999999,86.96205188212684 119.6,86.90237586290839 119.675,86.79709008071748 119.75,86.7691699013453 119.825,86.66239228699551 119.89999999999999,86.67922942472774 119.975,86.83971555669443 120.05,87.23997140935298 120.125,87.62850594106342 120.2,87.99082515054452 120.27499999999999,88.27386063292761 120.35,88.47057855092889 120.425,88.59163579244074 120.5,88.64342580525305 120.575,88.65386901089046 120.64999999999999,88.76128604612428 120.725,88.86529295195388 120.8,89.05646948750801 120.875,89.11188306982703 120.95,89.28068108520179 121.02499999999999,89.4580043203075 121.1,89.64427903267136 121.175,89.8518664484305 121.25,90.13468842152466 121.325,90.50830362844331 121.39999999999999,90.81115963613068 121.475,91.06414365150545 121.55,91.27578072133248 121.625,91.52599399359386 121.7,91.73379450352338 121.77499999999999,91.94116861755285 121.85,92.17028210762332 121.925,92.37019719923126 122.0,92.42646340038436 122.075,92.45502255092889 122.14999999999999,92.48464720691864 122.225,92.5965398078155 122.3,92.62211512107623 122.375,92.66303573991031 122.45,92.6395916796925 122.52499999999999,92.60570420627802 122.6,92.48400754388213 122.675,92.41815085970532 122.75,92.17518406918641 122.825,91.83460399359384 122.89999999999999,91.37232749775785 122.975,90.95523419602819 123.05,90.41900167328636 123.125,89.85463625752723 123.2,89.32181386418962 123.27499999999999,88.93391934144779 123.35,88.65386790390775 123.425,88.37701329404229 123.5,88.21588774119155 123.575,87.98080681870596 123.64999999999999,87.72185540550929 123.725,87.39235830237027 123.8,87.1707044573991 123.875,87.08715798206278 123.95,87.08289513004485 124.02499999999999,87.01767772837924 124.1,86.93540995643818 124.175,86.7964501755285 124.25,86.81669740807175 124.325,86.99188935554132 124.39999999999999,87.2397584189622 124.475,87.45118246380525 124.55,87.70864228699551 124.625,88.03707398846893 124.7,88.38767111595132 124.77499999999999,88.65045926201154 124.85,88.80242000128123 124.925,89.00126899935938 125.0,89.22015244714926 125.075,89.49380977962844 125.14999999999999,89.77386118257527 125.225,90.06520827162076 125.3,90.25915544650866 125.375,90.37488436515055 125.45,90.46930061499039 125.52499999999999,90.77940275848815 125.6,91.10975248046124 125.675,91.32693051761692 125.75,91.30966708776425 125.825,91.08737347597693 125.89999999999999,90.67773947341448 125.975,90.16132903267136 126.05,89.6368184189622 126.125,89.19883825624599 126.2,88.65408172453556 126.27499999999999,87.99551381037796 126.35,87.28813792184496 126.425,86.69095150672646 126.5,86.1078308289558 126.575,85.5430397091608 126.64999999999999,84.88702923638694 126.725,84.26085613324791 126.8,83.59909083792441 126.875,82.80348088661114 126.95,81.77747849967969 127.02499999999999,80.50531204484305 127.1,79.14107313388854 127.175,77.81008272517617 127.25,76.68241750288277 127.325,75.86741190006406 127.39999999999999,75.48761775784753 127.475,75.2823731326073 127.55,75.17623355541319 127.625,74.89532977578475 127.7,74.7734205381166 127.77499999999999,74.67005153106983 127.85,74.59652331838565 127.925,74.39724636771301 128.0,74.22461276105061 128.075,74.03769907751442 128.14999999999998,73.85952156310057 128.225,73.56327292761051 128.3,73.21097049327354 128.375,72.99443083920565 128.45,73.03172854580397 128.52499999999998,73.46182315182575 128.6,74.20010174247278 128.675,75.09140706213965 128.75,75.99017185393978 128.825,76.568603871877 128.89999999999998,76.82286638308777 128.975,76.89660941960283 129.05,76.98974852274183 129.125,77.20884565278668 129.2,77.36378898398462 129.27499999999998,77.517029983344 129.35,77.67730309032672 129.425,77.95010825368354 129.5,78.28727775016014 129.575,78.73676593209481 129.64999999999998,79.28408246508648 129.725,79.97312831133888 129.8,80.87061443433697 129.875,81.80198827290198 129.95,82.72952468673927 130.02499999999998,83.37189502242153 130.1,83.80710520307495 130.175,84.1025021191544 130.25,84.27193962459961 130.325,84.61870084945548 130.39999999999998,85.06200784753364 130.475,85.70288635105702 130.55,86.14448959897501 130.625,86.4467060128123 130.7,86.62679978347214 130.77499999999998,86.9675925727098 130.85,87.39917863036514 130.925,87.73975929404227 131.0,87.81776386803331 131.075,87.71738022037155 131.14999999999998,87.50830073030109 131.225,87.34504465086482 131.3,87.1555731108264 131.375,86.95629750928892 131.45,86.6598352953235 131.52499999999998,86.38425959641256 131.6,86.15322753235105 131.675,85.86635652786676 131.75,85.52535019474695 131.825,85.20139516591928 131.89999999999998,84.99913590006406 131.975,84.84717522998078 132.05,84.78643342857143 132.125,84.84909321588725 132.2,84.98080696476617 132.27499999999998,84.94691956053812 132.35,84.82586218065343 132.425,84.62999684689302 132.5,84.52044942344651 132.575,84.42560726201152 132.64999999999998,84.37317689429852 132.725,84.34525647277385 132.8,84.33651826265215 132.875,84.4028012389494 132.95,84.55177834849455 133.02499999999998,84.71247764381806 133.1,84.87296398334401 133.175,85.16963873798846 133.25,85.59951983472133 133.325,86.04581098142216 133.39999999999998,86.35932366944267 133.475,86.55689396412556 133.55,86.73911909160795 133.625,86.85506134657271 133.7,86.98528326329276 133.77499999999998,87.11230786803331 133.85,87.2069370044843 133.925,87.3942771877002 134.0,87.58566647149263 134.075,87.85335616399743 134.14999999999998,88.0647805893658 134.225,88.18114858295964 134.3,88.19009985265855 134.375,87.9087691582319 134.45,87.57202533119795 134.52499999999998,87.17837598590647 134.6,86.88404422934016 134.675,86.5764993888533 134.75,86.29389050992953 134.825,86.0381358206278 134.89999999999998,85.87658407943626 134.975,85.73165648558616 135.05,85.55475968097373 135.125,85.29644720435618 135.2,85.0306753247918 135.27499999999998,84.95586726713645 135.35,85.08097405893658 135.425,85.12359991543882 135.5,85.09610633952595 135.575,85.02300300064061 135.64999999999998,85.1572743638693 135.725,85.32926937988469 135.8,85.57671228955797 135.875,86.04559639974376 135.95,86.64981713645099 136.02499999999998,87.34951973222293 136.1,88.02002413709161 136.175,88.71589006918641 136.25,89.39470511210763 136.325,89.9799566969891 136.39999999999998,90.4716445816784 136.475,90.90344394106341 136.55,91.36550748110186 136.625,91.84291625752722 136.7,92.3333255426009 136.77499999999998,92.6525924996797 136.85,92.87744327610505 136.925,93.11465572837925 137.0,93.44671037668161 137.075,93.73315546957079 137.14999999999998,93.90216647533632 137.225,94.04815978219091 137.3,94.1798734272902 137.375,94.30242284689302 137.45,94.34057289557975 137.52499999999998,94.31648896476618 137.6,94.19095612299807 137.675,93.99125440230621 137.75,93.73102449327354 137.825,93.45182588212684 137.89999999999998,93.11145945419602 137.975,92.78238826265215 138.05,92.46418663805252 138.125,92.22974510185779 138.2,91.99956638308777 138.27499999999998,91.83353893786034 138.35,91.65642893529788 138.425,91.56606223574632 138.5,91.4882700640615 138.575,91.48081069570787 138.64999999999998,91.52791236002562 138.725,91.52194475464447 138.8,91.44713642024344 138.875,91.25936973734785 138.95,91.0549791838565 139.02499999999998,90.83460397309418 139.1,90.67241260345932 139.175,90.53963307238949 139.25,90.50020421652786 139.325,90.42901927866752 139.39999999999998,90.48038324151184 139.475,90.52982928763613 139.55,90.57522571428572 139.625,90.54197731582319 139.7,90.38895055221012 139.77499999999998,90.22910394490711 139.85,90.01576194875081 139.925,89.90536128379244 140.0,89.81968362459962 140.075,89.7981576194747 140.14999999999998,89.79325555413197 140.225,89.87317904804613 140.3,89.92091985650224 140.375,89.92411675336322 140.45,89.82714309673287 140.52499999999998,89.85080052786675 140.6,89.86763766559898 140.675,89.91367361691223 140.75,89.84099670852018 140.825,89.83289791928252 140.89999999999998,89.82224158488148 140.975,89.84184922357463 141.05,89.86934273030108 141.125,89.96738203074952 141.2,90.15173865342729 141.27499999999998,90.29474826137091 141.35,90.43477396284433 141.425,90.4801703203075 141.5,90.50936892632927 141.575,90.41601849327354 141.64999999999998,90.31691361819347 141.725,90.22100550160154 141.8,90.21695608968611 141.875,90.27855026777706 141.95,90.40685371428572 142.02499999999998,90.3731795426009 142.1,90.32884872517617 142.175,90.28110781294042 142.25,90.35676855861627 142.325,90.29773157975657 142.39999999999998,90.10037420627803 142.475,89.89704926201154 142.55,89.81819168866112 142.625,89.81371601921845 142.7,89.90919787828315 142.77499999999998,89.99615437924408 142.85,90.05391234336963 142.925,89.97143137347854 143.0,89.90877130941703 143.075,89.9290186111467 143.14999999999998,89.95779082126842 143.225,90.00403986675208 143.3,90.01917193978218 143.375,90.05199394234465 143.45,89.96205353491351 143.52499999999998,89.92177216399745 143.6,89.83055305317104 143.675,89.79091106854581 143.75,89.71056128251121 143.825,89.7958130301089 143.89999999999998,89.88724533888532 143.975,89.98315349007046 144.05,89.90770590775143 144.125,89.81030599359386 144.2,89.6268017475977 144.27499999999998,89.5108597693786 144.35,89.51853237027547 144.425,89.65152482254965 144.5,89.7791890211403 144.575,89.83481569762972 144.64999999999998,89.8409963971813 144.725,89.80433831902627 144.8,89.77066404356182 144.875,89.68988824215246 144.95,89.71248009865471 145.02499999999998,89.76682776041 145.1,89.89534443946188 145.175,89.82820891351697 145.25,89.74103911082639 145.325,89.64065539397822 145.39999999999998,89.70416790390775 145.475,89.70779105829597 145.55,89.77279526201153 145.625,89.84099660474055 145.7,89.98123557335042 145.77499999999998,90.04751854964766 145.85,90.09014444074312 145.925,90.12083505188981 146.0,90.1837085214606 146.075,90.24551575912876 146.14999999999998,90.29922448430493 146.225,90.27428810762332 146.3,90.27492735554132 146.375,90.28814147725816 146.45,90.31456944394618 146.52499999999998,90.3316200217809 146.6,90.33055444714927 146.675,90.44585717745035 146.75,90.54240488789237 146.825,90.60719610121717 146.89999999999998,90.6621831492633 146.975,90.74487717873158 147.05,90.86444241511852 147.125,90.92902036130685 147.2,90.96695745419603 147.27499999999998,91.08375232799487 147.35,91.17113512107623 147.425,91.27002683279949 147.5,91.28132258808456 147.575,91.31627598206278 147.64999999999998,91.30156985522102 147.725,91.34099871108265 147.8,91.35698357591288 147.875,91.47995897629724 147.95,91.58567067008327 148.02499999999998,91.69436609737348 148.1,91.80988192184498 148.175,91.9275290685458 148.25,92.01640365919282 148.325,92.00127127482384 148.39999999999998,91.93989039846252 148.475,92.0134196835362 148.55,92.07948994618835 148.625,92.0517833798847 148.7,91.84163814221652 148.77499999999998,91.50702546444586 148.85,91.194152128123 148.925,90.9422337219731 149.0,90.81179878026906 149.075,90.76725466111466 149.14999999999998,90.78323938757207 149.225,90.81627462267777 149.3,90.90451 149.375,90.86763837796285 149.45,90.85463762716208 149.52499999999998,90.79496157335042 149.6,90.73592490582959 149.675,90.69159391543882 149.75,90.70161065598975 149.825,90.8831967777066 149.89999999999998,91.11976942857143 149.975,91.21930056117873 150.05,91.26789371172325 150.125,91.30838796925048 150.2,91.4458559871877 150.27499999999998,91.6118837091608 150.35,91.7574509660474 150.425,91.7789772133248 150.5,91.71141525688661 150.575,91.59270218962203 150.64999999999998,91.53004226393338 150.725,91.53984601409353 150.8,91.48805568994234 150.875,91.52386163356823 150.95,91.56883207943626 151.02499999999998,91.7052347994875 151.1,91.90046074695708 151.175,92.09781836258809 151.25,92.25382910185779 151.325,92.31776773094171 151.39999999999998,92.30242256374119 151.475,92.33247399615631 151.55,92.3531475554132 151.625,92.45630208456117 151.7,92.61209917616912 151.77499999999998,92.81862077514414 151.85,93.01427277258168 151.925,93.28302803971813 152.0,93.589294384369 152.075,93.88192052274184 152.14999999999998,94.08652451633569 152.225,94.21653320051249 152.3,94.373609376041 152.375,94.52642276873799 152.45,94.6794493247918 152.52499999999998,94.813507247918 152.6,94.92966218193466 152.675,95.09526327623318 152.75,95.31776983689943 152.825,95.55839232863549 152.89999999999998,95.79880185419603 152.975,95.9863552768738 153.05,96.15984205586163 153.125,96.30178560486867 153.2,96.4068583966688 153.27499999999998,96.47846983420884 153.35,96.47378100140935 153.425,96.41858103215887 153.5,96.24253622370276 153.575,96.07970574452274 153.64999999999998,95.91303870544523 153.725,95.78132512953235 153.8,95.53281667982063 153.875,95.1794486016656 153.95,94.75041995080076 154.02499999999998,94.33545790211403 154.1,93.87318185598974 154.175,93.29048745996157 154.25,92.61039306329276 154.325,91.87403251390134 154.39999999999998,91.175182671877 154.475,90.56201086611146 154.55,90.01810615759129 154.625,89.5421895938501 154.7,89.03920540038436 154.77499999999998,88.57053486867393 154.85,88.14598212940423 154.925,87.76384187572069 155.0,87.50297233824472 155.075,87.30369677130045 155.14999999999998,87.26128418193466 155.225,87.34312562716207 155.3,87.64001413324792 155.375,88.04730351185138 155.45,88.4763321627162 155.52499999999998,88.75915437796284 155.6,88.90536057142857 155.675,89.0897170557335 155.75,89.32032268930173 155.825,89.56925743113389 155.89999999999998,89.7975184061499 155.975,90.02236939013453 156.05,90.26661491864189 156.125,90.33822635618193 156.2,90.23294029724535 156.27499999999998,90.06584751953876 156.35,89.90195032415119 156.425,89.81989571556694 156.5,89.7900576194747 156.575,89.69649412684177 156.64999999999998,89.45544559897502 156.725,88.96887228571428 156.8,88.38511201409354 156.875,87.77385844330557 156.95,87.2043778680333 157.02499999999998,86.75190508776426 157.1,86.48016581037797 157.175,86.27002078026905 157.25,86.10761635105702 157.325,85.98400166816143 157.39999999999998,85.83779557847534 157.475,85.48506705957719 157.55,85.03131633696349 157.625,84.66942283151826 157.7,84.58800819730942 157.77499999999998,84.61720728763613 157.85,84.75126659449072 157.925,84.87168427674567 158.0,84.9236877988469 158.075,84.98272446636771 158.14999999999998,85.1481122139654 158.225,85.42944238949391 158.3,85.75851351185138 158.375,86.07458367584881 158.45,86.39406379628443 158.52499999999998,86.62061987956437 158.6,86.78131900192184 158.675,86.92773870467649 158.75,87.10484874183216 158.825,87.28472934913516 158.89999999999998,87.50680931326073 158.975,87.90834418065343 159.05,88.33694581294043 159.125,88.74530125048047 159.2,89.05199350672646 159.27499999999998,89.23869381934657 159.35,89.3733914401025 159.425,89.39790135169763 159.5,89.41260716720052 159.575,89.42965746828956 159.64999999999998,89.42582111595131 159.725,89.50361301089046 159.8,89.48208704035875 159.875,89.50702286354901 159.95,89.51469563741192 160.02499999999998,89.64917999103139 160.1,89.75894165022422 160.175,89.8049772901986 160.25,89.79623939141575 160.325,89.81840474823831 160.39999999999998,89.7936818462524 160.475,89.6941507136451 160.55,89.6295725598975 160.625,89.69862638308777 160.7,89.839504495836 160.77499999999998,89.95800401921845 160.85,90.03238585393979 160.925,90.1176373247918 161.0,90.25126926713645 161.075,90.29837075848815 161.14999999999998,90.2124799359385 161.225,90.00318745547726 161.3,89.85122657783472 161.375,89.76299154644458 161.45,89.67539552081999 161.52499999999998,89.56542094042281 161.6,89.52727096092248 161.675,89.54048484048687 161.75,89.58033967713004 161.825,89.53259893786034 161.89999999999998,89.51022062524024 161.975,89.59014384240871 162.05,89.65173819346573 162.125,89.70629922613709 162.2,89.73976054580397 162.27499999999998,89.91047703139013 162.35,90.08183269570787 162.425,90.29517489942344 162.5,90.4835807610506 162.575,90.81648816655989 162.64999999999998,91.21951510826393 162.725,91.64619937732223 162.8,92.00532137860345 162.875,92.28771716335682 162.95,92.64342941575913 163.02499999999998,92.9426626149904 163.1,93.1447084061499 163.175,93.30775194490711 163.25,93.47868135169763 163.325,93.68243251889814 163.39999999999998,93.77791448174247 163.475,93.74828968737988 163.55,93.69330250096093 163.625,93.65877571044203 163.7,93.68371184497117 163.77499999999998,93.70481162716207 163.85,93.7020409186419 163.925,93.62637979244074 164.0,93.55391590903267 164.075,93.40302070980141 164.14999999999998,93.22697610890455 164.225,92.99061592953235 164.3,92.79197981806534 164.375,92.602720991672 164.45,92.29368390390775 164.52499999999998,91.82394765919283 164.6,91.37403263164637 164.675,90.9921059910314 164.75,90.67560967328636 164.825,90.3770161024984 164.89999999999998,90.15323041639974 164.975,90.00659761947469 165.05,89.81371605381166 165.125,89.43306773606662 165.2,89.06840411018578 165.27499999999998,88.82032184881487 165.35,88.79538595643818 165.425,88.79645170403587 165.5,88.72356159769379 165.575,88.61102954131967 165.64999999999998,88.53281121588725 165.725,88.55007454196029 165.8,88.65109781806534 165.875,88.82479817552851 165.95,89.07117506085842 166.02499999999998,89.51192548238309 166.1,89.95267586931455 166.175,90.33929120435619 166.25,90.5958985470852 166.325,90.86465416015375 166.39999999999998,91.18456050352339 166.475,91.49253184368995 166.55,91.84419458039719 166.625,92.28366650608584 166.7,92.66197051121077 166.77499999999998,92.84653998590647 166.85,92.82288213965407 166.925,92.81734099935939 167.0,92.89023131326073 167.075,92.91175718001281 167.14999999999998,92.83076818065342 167.225,92.63618151569507 167.3,92.4426605983344 167.375,92.2060877053171 167.45,92.02919096989109 167.52499999999998,91.85016270467649 167.6,91.76171454452275 167.675,91.67326624599616 167.75,91.64342821909032 167.825,91.58865398846893 167.89999999999998,91.54538902242152 167.975,91.56094724919923 168.05,91.6135898116592 168.125,91.64960867648944 168.2,91.62126230877642 168.27499999999998,91.57437408456119 168.35,91.53238813324792 168.425,91.51086185137731 168.5,91.48912244074312 168.575,91.54453612684176 168.64999999999998,91.67582327226137 168.725,91.88959176809738 168.8,92.0982449314542 168.875,92.25638647405509 168.95,92.3294897091608 169.02499999999998,92.36103290454837 169.1,92.32352193081358 169.175,92.25233716591929 169.25,92.14875641383728 169.325,92.07842409481101 169.39999999999998,92.02599428058936 169.475,91.87829604740551 169.55,91.76960041255606 169.625,91.71844926713645 169.7,91.82202991543882 169.77499999999998,91.92411883536195 169.85,92.02897825624599 169.925,92.11572211274824 170.0,92.15770875592568 170.075,92.19799019602819 170.14999999999998,92.20246610762332 170.225,92.26768368225497 170.3,92.27471672389494 170.375,92.34334394362588 170.45,92.41111871748879 170.52499999999998,92.4505475387572 170.6,92.48038570403587 170.675,92.42816898398462 170.75,92.43093948494555 170.825,92.38128041383729 170.89999999999998,92.31776824983984 170.975,92.15408522101217 171.05,91.92475842921205 171.125,91.68179143113389 171.2,91.39769075464446 171.27499999999998,91.14001762972454 171.35,90.83630893401666 171.425,90.50702461370916 171.5,90.20352897757847 171.575,89.97505442408712 171.64999999999998,89.79943632286995 171.725,89.53366423574631 171.8,89.2039540730301 171.875,88.85996421396541 171.95,88.61443991287636 172.02499999999998,88.52684385265854 172.1,88.44564193209482 172.175,88.40770483920564 172.25,88.2408249827034 172.325,88.05945223190263 172.39999999999998,87.80838630621396 172.475,87.70715010890454 172.55,87.6263743420884 172.625,87.55007438308776 172.7,87.51171096348494 172.77499999999998,87.43242730557336 172.85,87.40706487892376 172.925,87.3742428417681 173.0,87.39619506982703 173.075,87.42262338244714 173.14999999999998,87.40131043689942 173.225,87.46439672389494 173.3,87.60015978090968 173.375,87.71631488789238 173.45,87.71972491351697 173.52499999999998,87.60442218321589 173.6,87.58225682639333 173.675,87.64704817809097 173.75,87.77471216912235 173.825,87.88980187443946 173.89999999999998,88.03558198334402 173.975,88.13063751569507 174.05,88.28110649199232 174.125,88.37850623318386 174.2,88.4119677258168 174.27499999999998,88.49530086483024 174.35,88.67454236258808 174.425,88.95224962588084 174.5,89.10143976040999 174.575,89.18562576040999 174.64999999999998,89.32970080461243 174.725,89.43967528122998 174.8,89.50851590647021 174.875,89.55135471877001 174.95,89.65514825368354 175.02499999999998,89.74423628443306 175.1,89.73635034721332 175.175,89.75105633568225 175.25,89.9068537732223 175.325,90.18413412171685 175.39999999999998,90.46226726201154 175.475,90.75915590647021 175.55,90.95459536322869 175.625,91.13383682639333 175.7,91.30753669955158 175.77499999999998,91.60954033055734 175.85,91.90664206918642 175.925,92.10165485329917 176.0,92.27961754388213 176.075,92.43562783344011 176.14999999999998,92.53430672773862 176.225,92.54134001153108 176.3,92.46099039846253 176.375,92.26938777834721 176.45,91.98464781934658 176.52499999999998,91.7691744317745 176.6,91.6739060128123 176.675,91.63213256758488 176.75,91.55156968737988 176.825,91.46866304804612 176.89999999999998,91.46930226137091 176.975,91.48379487892376 177.05,91.56606240871237 177.125,91.66580667008328 177.2,91.77983048942986 177.27499999999998,91.78984750672646 177.35,91.7227114618834 177.425,91.67283926201154 177.5,91.61380262908392 177.575,91.49466347725817 177.64999999999998,91.28750207687379 177.725,91.01000832286995 177.8,90.787075359385 177.875,90.66601808327995 177.95,90.71205393081358 178.025,90.75915545675849 178.1,90.59355385393978 178.17499999999998,90.3714734401025 178.25,90.10165239077514 178.325,89.98677560666239 178.4,89.75297359513132 178.475,89.5679778975016 178.54999999999998,89.37147314285714 178.625,89.21205268930173 178.7,89.03409037924408 178.775,88.72484057783473 178.85,88.39854057911595 178.92499999999998,88.04368104932735 179.0,87.78110620499679 179.075,87.60868486226778 179.15,87.5692558334401 179.225,87.66196698398463 179.29999999999998,87.77513859961563 179.375,87.86934161691224 179.45,87.91665620243434 179.525,88.01554815631006 179.6,88.27002421140295 179.67499999999998,88.52812338629084 179.75,88.7634176450993 179.825,88.79517383087764 179.9,88.87872013324792 179.975,88.91367311210763 180.04999999999998,88.94329776809738 180.125,88.99146493786034 180.2,89.00681007046765 180.275,89.13831055221013 180.35,89.25936793209482 180.42499999999998,89.50190856886611 180.5,89.71866062524023 180.575,89.9891213376041 180.65,90.21077535554132 180.725,90.48528527226136 180.79999999999998,90.86188386675208 180.875,91.31925864317745 180.95,91.71418662267777 181.025,91.92539722741833 181.1,91.97974506213966 181.17499999999998,91.97079372325433 181.25,91.91282256117873 181.325,91.835669983344 181.4,91.79368382447149 181.475,91.81734129019858 181.54999999999998,91.82501378731583 181.625,91.79283134401025 181.7,91.72377755541319 181.775,91.69500517232544 181.85,91.6715606969891 181.92499999999998,91.57139021268418 182.0,91.47079336707239 182.075,91.3380139743754 182.15,91.22335087251761 182.225,91.10591675080077 182.29999999999998,90.87829530044843 182.375,90.6084739743754 182.45,90.39044276489429 182.525,90.35889963869315 182.6,90.48784278283152 182.67499999999998,90.61955660089686 182.75,90.71780896092248 182.825,90.78771502242152 182.9,90.75574563869314 182.975,90.69841396668802 183.04999999999998,90.62509774119154 183.125,90.63532799103139 183.2,90.64747646893017 183.275,90.58950547982063 183.35,90.49700759641256 183.42499999999998,90.4247568417681 183.5,90.39150865086484 183.575,90.35548971684817 183.65,90.31094580525304 183.725,90.19500386162716 183.79999999999998,90.04155087508008 183.875,89.84376724407431 183.95,89.57458561563101 184.025,89.32671665598976 184.1,89.05220656630365 184.17499999999998,88.89619582703395 184.25,88.79623857527226 184.325,88.8226666111467 184.4,88.97015175016014 184.475,89.15770509673285 184.54999999999998,89.35655433696348 184.625,89.50254729788597 184.7,89.69756015118514 184.775,90.03835335554132 184.85,90.44820045227418 184.92499999999998,90.8169136284433 185.0,91.11614630877642 185.075,91.31052012171685 185.15,91.49359776425368 185.225,91.64641115695068 185.29999999999998,91.89577191415759 185.375,92.15451026777707 185.45,92.31819329660475 185.525,92.27727271236387 185.6,92.195218 185.67499999999998,92.05860256630365 185.75,92.00489411787316 185.825,91.89278838821268 185.9,91.77343624599615 185.975,91.59696552594491 186.04999999999998,91.37893490454837 186.125,91.07117710826392 186.2,90.7333676028187 186.275,90.28473114029468 186.35,89.90919777450353 186.42499999999998,89.53579562716207 186.5,89.20352816143497 186.575,88.87147337475977 186.65,88.58012625112107 186.725,88.34845514670083 186.79999999999998,88.13063744650864 186.875,87.95778998462524 186.95,87.97547977578475 187.025,88.12573572709802 187.1,88.29496017296604 187.17499999999998,88.40408227290199 187.25,88.43946164766176 187.325,88.48421879180013 187.4,88.47739846380526 187.475,88.39939326713645 187.54999999999998,88.26640081486227 187.625,88.20906917745036 187.7,88.28238571428571 187.775,88.47974301857784 187.85,88.66260753235106 187.92499999999998,88.88255686611147 188.0,89.05668296220372 188.075,89.2137587226137 188.15,89.339504623959 188.225,89.50233520691864 188.29999999999998,89.6376722139654 188.375,89.6958564702114 188.45,89.73720348494554 188.525,89.85144050224216 188.6,90.01832060089686 188.67499999999998,90.12957367713004 188.75,90.15855918898143 188.825,90.14108249199231 188.9,90.04922416784113 188.975,89.98038354260089 189.04999999999998,90.03515749647661 189.125,90.22420274439462 189.2,90.37616365663037 189.275,90.44884056502242 189.35,90.46738311338885 189.42499999999998,90.44820114413837 189.5,90.42326507879564 189.575,90.50595903907751 189.65,90.64768980525304 189.725,90.81158575528508 189.79999999999998,90.91132994746957 189.875,91.12658972197309 189.95,91.33311142472773 190.025,91.50894279308136 190.1,91.65429674823831 190.17499999999998,91.88511561434977 190.25,92.22867928507367 190.325,92.58162062139654 190.4,92.97249894682896 190.475,93.35868871620757 190.54999999999998,93.7197291877002 190.625,93.93520247149263 190.7,94.040061615631 190.775,94.0939835387572 190.85,94.09291768737988 190.92499999999998,94.07075246893017 191.0,93.99082921716848 191.075,93.92454631005765 191.15,93.78132364253683 191.225,93.64364228827675 191.29999999999998,93.54048800128123 191.375,93.39918390775144 191.45,93.13703525176169 191.525,92.79389752722614 191.6,92.5257811966688 191.67499999999998,92.38106669698911 191.75,92.23358145419603 191.825,91.99530356566304 191.9,91.69202130044843 191.975,91.38660743625881 192.04999999999998,91.14960811274824 192.125,90.9501195554132 192.2,90.77599352850737 192.275,90.56350366688021 192.35,90.35357176553491 192.42499999999998,90.20992287508008 192.5,90.20246350672646 192.575,90.20800495836002 192.65,90.26150045099295 192.725,90.23763020243433 192.79999999999998,90.17198643946188 192.875,89.98315421652786 192.95,89.85378505701473 193.025,89.77258299807815 193.1,89.76171353491351 193.17499999999998,89.6649527648943 193.25,89.4865640935298 193.325,89.30519144650864 193.4,89.13021262780269 193.475,88.93818343882127 193.54999999999998,88.69031440999359 193.625,88.41708298910955 193.7,88.22484080973734 193.775,88.15088516335682 193.85,88.06307600896861 193.92499999999998,87.97462743369636 194.0,87.7994355554132 194.075,87.7122656835362 194.15,87.64491692504805 194.225,87.60761918385651 194.29999999999998,87.4607735003203 194.375,87.3205347738629 194.45,87.16218065598974 194.525,87.08950374759769 194.6,86.96887269442665 194.67499999999998,86.83737224727739 194.75,86.74061165022421 194.825,86.73869352594491 194.9,86.88276853555413 194.975,87.11934177450352 195.04999999999998,87.35207869570787 195.125,87.50254784497118 195.2,87.54453410762332 195.275,87.3799985983344 195.35,87.29879640102499 195.42499999999998,87.21183990006406 195.5,87.2397594913517 195.575,87.10975104932736 195.65,86.97164357591288 195.725,86.94542880717489 195.79999999999998,87.20651150800768 195.875,87.62467045355541 195.95,88.05540333888533 196.025,88.33055253811659 196.1,88.43669097373478 196.17499999999998,88.47718550800768 196.25,88.49466230877643 196.325,88.5040399743754 196.4,88.4275267828315 196.475,88.33801242536835 196.54999999999998,88.27236873158232 196.625,88.30817419090327 196.7,88.39683572197309 196.775,88.641507888533 196.85,88.80774860089686 196.92499999999998,88.91282125432416 197.0,88.90983776297246 197.075,89.02961605893658 197.15,89.12254016527866 197.225,89.10399775528508 197.29999999999998,88.93988864189622 197.375,88.70502053683536 197.45,88.53387800128124 197.525,88.42369053427291 197.6,88.49444907623318 197.67499999999998,88.52322142472774 197.75,88.54176331582319 197.825,88.55327206149904 197.9,88.64342532094811 197.975,88.81286282639334 198.04999999999998,88.92006649071108 198.125,88.97611959769378 198.2,88.97654592440743 198.275,89.01469593850096 198.35,89.1423597219731 198.42499999999998,89.368915632287 198.5,89.61209544778988 198.575,89.76789257399103 198.65,89.82799498910954 198.725,89.84589780525305 198.79999999999998,89.84483219602818 198.875,89.9362644356182 198.95,90.03643516207559 199.025,90.18008381037797 199.1,90.18392005893658 199.17499999999998,90.24466168737989 199.25,90.2930420896861 199.325,90.2836647008328 199.4,90.22036559641256 199.475,90.10037417168482 199.54999999999998,90.09440670467649 199.625,90.13319617424727 199.7,90.20225013581037 199.775,90.18605224599615 199.85,90.10271896860986 199.92499999999998,100.0" opacity="1" fill="#4E70A7" stroke="black" stroke-width="0"/>
<line x1="40" y1="100.0" x2="40" y2="70.0" stroke="black" stroke-width="1" />
<line x1="39.5" y1="100.0" x2="43.5" y2="100.0" stroke="black" stroke-width="1" />
<line x1="39.5" y1="70.0" x2="43.5" y2="70.0" stroke="black" stroke-width="1" />
<text text-anchor="end" font-family="Arial" x="36" y="104.0" font-size="8" >0</text>
<text text-anchor="end" font-family="Arial" x="36" y="74.0" font-size="8" >171.7</text>
<text text-anchor="start" font-family="Arial" x="39.5" y="66" font-size="7" >ChrIV: 230,000-280,000</text>
</svg>
