<svg viewBox="0 0 320 210" xmlns="http://www.w3.org/2000/svg">
<polygon points="50.0,100.0 50.075,97.52914541960283 50.15,97.57621864830237 50.225,97.62329187700192 50.3,97.68019606342088 50.375,97.73710024983984 50.45,97.8133473158232 50.525,97.88959438180653 50.6,97.89540777065983 50.675,97.90122115951313 50.75,97.8683835554132 50.825,97.83554595131326 50.9,97.84270761050608 50.975,97.84986926969891 51.05,97.86075661755285 51.125,97.87164396540679 51.2,97.87607622037156 51.275,97.88050847533633 51.35,97.89030613709161 51.425,97.9001037988469 51.5,97.89053877642537 51.575,97.88097375400385 51.65,97.97416811979501 51.725,98.06736248558616 51.8,98.16496670723895 51.875,98.26257092889173 51.95,98.29595026265214 52.025,98.32932959641255 52.1,98.47603472773864 52.175,98.62273985906471 52.25,98.79624486867392 52.325,98.96974987828315 52.4,99.01207008648302 52.475,99.05439029468289 52.55,98.99517363869315 52.625,98.9359569827034 52.7,98.84499413837284 52.775,98.75403129404228 52.85,98.63751790518899 52.925,98.52100451633568 53.0,98.46908789237668 53.075,98.41717126841768 53.15,98.05836366752082 53.225,97.69955606662396 53.3,97.35440102178092 53.375,97.00924597693786 53.45,96.79030503523383 53.525,96.5713640935298 53.6,96.23078910313902 53.675,95.89021411274824 53.75,95.54016611787316 53.825,95.19011812299807 53.9,94.87125547405509 53.975,94.55239282511211 54.05,94.33598376040999 54.125,94.11957469570788 54.2,94.03929509929532 54.275,93.95901550288276 54.35,93.89544529147982 54.425,93.83187508007687 54.5,93.64987847533632 54.575,93.46788187059578 54.65,93.3073702434337 54.725,93.14685861627162 54.8,93.00070317104421 54.875,92.85454772581679 54.95,92.71850733504164 55.025,92.5824669442665 55.1,92.50094458680333 55.175,92.41942222934017 55.25,92.34784282511211 55.325,92.27626342088405 55.4,92.4139392056374 55.475,92.55161499039077 55.55,92.72929436258808 55.625,92.9069737347854 55.7,92.9992269058296 55.775,93.0914800768738 55.85,93.2582963164638 55.925,93.4251125560538 56.0,93.66360073670724 56.075,93.90208891736066 56.15,94.29112847533632 56.225,94.68016803331199 56.3,94.93944759769379 56.375,95.19872716207558 56.45,95.36282524023062 56.525,95.52692331838566 56.6,95.73871851377322 56.675,95.95051370916079 56.75,96.22742283792441 56.825,96.50433196668801 56.9,96.63963119795004 56.975,96.77493042921205 57.05,96.9188216623959 57.125,97.06271289557975 57.2,97.22979005445228 57.275,97.3968672133248 57.35,97.49842621716849 57.425,97.59998522101218 57.5,97.65242999679693 57.575,97.70487477258168 57.65,97.63780632286995 57.725,97.57073787315824 57.8,97.54964379884689 57.875,97.52854972453555 57.95,97.50588252402306 58.025,97.48321532351056 58.1,97.44386554772582 58.175,97.40451577194106 58.25,97.30766775784754 58.325,97.210819743754 58.4,97.05492112107623 58.475,96.89902249839847 58.55,96.60599993914157 58.625,96.31297737988469 58.7,96.05773423766816 58.775,95.80249109545163 58.85,95.55272872837924 58.925,95.30296636130686 59.0,95.19691594811019 59.075,95.09086553491352 59.15,95.10423148622678 59.225,95.11759743754004 59.3,95.14065208199872 59.375,95.1637067264574 59.45,95.23474128763613 59.525,95.30577584881486 59.6,95.32128225496476 59.675,95.33678866111467 59.75,95.488690384369 59.825,95.64059210762332 59.9,95.74544412556054 59.975,95.85029614349776 60.05,95.99104121076233 60.125,96.13178627802691 60.2,96.11314659192826 60.275,96.09450690582959 60.35,96.01093490070468 60.425,95.92736289557976 60.5,95.74960049967969 60.575,95.57183810377963 60.65,95.37689844971172 60.725,95.18195879564382 60.8,95.06288464445868 60.875,94.94381049327355 60.95,94.85404370916079 61.025,94.76427692504805 61.1,94.73741183856502 61.175,94.710546752082 61.25,94.49938945547726 61.325,94.28823215887252 61.4,94.18865819987188 61.475,94.08908424087123 61.55,94.13075176169122 61.625,94.17241928251121 61.7,94.36886633568226 61.775,94.5653133888533 61.85,94.85113433376041 61.925,95.13695527866751 62.0,95.47082195387571 62.075,95.80468862908393 62.15,96.07510807174887 62.225,96.34552751441385 62.3,96.64823634529148 62.375,96.95094517616913 62.45,97.14168322549648 62.525,97.33242127482383 62.6,97.54756656310057 62.675,97.76271185137732 62.75,98.02770405188981 62.825,98.29269625240231 62.9,98.52967945547726 62.975,98.7666626585522 63.05,98.92361637411915 63.125,99.0805700896861 63.2,99.17578270980141 63.275,99.27099532991672 63.35,99.3175509577194 63.425,99.3641065855221 63.5,99.35508104420244 63.575,99.34605550288276 63.65,99.40780810057656 63.725,99.46956069827034 63.8,99.43453541960282 63.875,99.39951014093529 63.95,99.32308016335682 64.025,99.24665018577835 64.1,99.1230385297886 64.175,98.99942687379885 64.25,98.79035459641256 64.325,98.58128231902626 64.4,98.27926042280589 64.475,97.97723852658552 64.55,97.58522914157591 64.625,97.19321975656631 64.7,96.81739480461243 64.775,96.44156985265855 64.85,96.07936701473415 64.925,95.71716417680973 65.0,95.41492192184496 65.075,95.1126796668802 65.15,94.8600815214606 65.225,94.607483376041 65.3,94.32280763933376 65.375,94.03813190262652 65.45,93.86940352338245 65.525,93.70067514413837 65.6,93.58062114029468 65.675,93.46056713645099 65.75,93.38574634849455 65.825,93.31092556053812 65.9,93.45013728379244 65.975,93.58934900704676 66.05,93.90794814221653 66.125,94.22654727738629 66.2,94.43863824471492 66.275,94.65072921204356 66.35,94.86955028827674 66.425,95.08837136450992 66.5,95.24422501601538 66.575,95.40007866752082 66.65,95.45075166559897 66.725,95.50142466367713 66.8,95.5820735426009 66.875,95.66272242152466 66.95,95.76332466367712 67.025,95.8639269058296 67.1,96.00318100576554 67.175,96.14243510570148 67.25,96.22923552210122 67.325,96.31603593850096 67.4,96.24902543241512 67.475,96.18201492632927 67.55,96.01833802049968 67.625,95.85466111467008 67.7,95.75890365150545 67.775,95.6631461883408 67.85,95.60966249199231 67.925,95.55617879564382 68.0,95.63472440743114 68.075,95.71327001921846 68.15,95.89205784433055 68.225,96.07084566944266 68.3,96.20540806534272 68.375,96.33997046124279 68.45,96.34733795003203 68.525,96.35470543882127 68.6,96.27024957719411 68.675,96.18579371556694 68.75,96.17229544522742 68.825,96.1587971748879 68.9,96.18116946828955 68.975,96.20354176169123 69.05,96.17880242793082 69.125,96.1540630941704 69.2,96.16372843689942 69.275,96.17339377962844 69.35,96.09260220371557 69.425,96.01181062780269 69.5,95.7284957014734 69.575,95.44518077514414 69.65,95.03616389814222 69.725,94.62714702114029 69.8,94.28990906470212 69.875,93.95267110826393 69.95,93.7808232863549 70.025,93.60897546444586 70.1,93.5982532991672 70.175,93.58753113388853 70.25,93.62178532991672 70.325,93.6560395259449 70.4,93.65781329276105 70.475,93.65958705957719 70.55,93.75659852658552 70.625,93.85360999359385 70.7,93.93573254324151 70.775,94.01785509288918 70.85,94.11499368994234 70.925,94.21213228699551 71.0,94.31759919923127 71.075,94.42306611146701 71.15,94.6299637732223 71.225,94.83686143497758 71.3,94.98127078795643 71.375,95.1256801409353 71.45,95.33216614349776 71.525,95.53865214606022 71.6,95.72307373478539 71.675,95.90749532351057 71.75,95.93128593850096 71.825,95.95507655349135 71.9,95.9136901024984 71.975,95.87230365150545 72.05,95.90669449071109 72.125,95.94108532991672 72.2,95.95226153106982 72.275,95.96343773222293 72.35,96.01502399103138 72.425,96.06661024983984 72.5,96.17211434977578 72.575,96.27761844971172 72.65,96.39509698910955 72.725,96.51257552850737 72.8,96.64059115951314 72.875,96.7686067905189 72.95,96.73772716207559 73.025,96.70684753363228 73.1,96.52717472773863 73.175,96.34750192184497 73.25,96.30661101857784 73.325,96.2657201153107 73.4,96.31600566944266 73.475,96.36629122357463 73.55,96.30025451633568 73.625,96.23421780909673 73.7,96.27152053171044 73.775,96.30882325432415 73.85,96.25827565663036 73.925,96.20772805893658 74.0,96.15665032030749 74.075,96.10557258167842 74.15,96.05723289557976 74.225,96.0088932094811 74.3,96.03016716848174 74.375,96.05144112748238 74.45,96.05867543241511 74.525,96.06590973734785 74.6,95.94555650224216 74.675,95.82520326713644 74.75,95.7857436579116 74.825,95.74628404868673 74.9,95.70657190903268 74.975,95.6668597693786 75.05,95.75524541960282 75.125,95.84363106982704 75.2,95.92410404228059 75.275,96.00457701473414 75.35,96.11118809737349 75.425,96.21779918001282 75.5,96.4241871108264 75.575,96.63057504163997 75.65,96.79392763613069 75.725,96.9572802306214 75.8,97.07143998398462 75.875,97.18559973734786 75.95,97.26724403587444 76.025,97.34888833440102 76.1,97.55868923126201 76.175,97.76849012812299 76.25,97.95895809096733 76.325,98.14942605381165 76.4,98.36866518898142 76.475,98.58790432415118 76.55,98.62956579115951 76.625,98.67122725816785 76.7,98.53558071108264 76.775,98.39993416399744 76.85,98.24737983984625 76.925,98.09482551569506 77.0,97.93796122357463 77.075,97.7810969314542 77.15,97.6127041063421 77.225,97.44431128122999 77.3,97.14400027866752 77.375,96.84368927610507 77.45,96.69835196028187 77.525,96.55301464445868 77.6,96.46071909673286 77.675,96.36842354900705 77.75,96.13806269698911 77.825,95.90770184497117 77.9,95.69685588725176 77.975,95.48600992953234 78.05,95.37715288276746 78.125,95.26829583600257 78.2,95.28642613709161 78.275,95.30455643818065 78.35,95.36505390775145 78.425,95.42555137732224 78.5,95.36491639974375 78.575,95.30428142216527 78.65,95.35246024983985 78.725,95.40063907751441 78.8,95.63176755285073 78.875,95.86289602818705 78.95,96.02218599615631 79.025,96.18147596412555 79.1,96.31527142857142 79.175,96.44906689301729 79.25,96.46812515695068 79.325,96.48718342088405 79.4,96.44695843689942 79.475,96.40673345291479 79.55,96.36063281229981 79.625,96.31453217168482 79.7,96.3220734913517 79.775,96.32961481101857 79.85,96.36426250480461 79.925,96.39891019859064 80.0,96.4766904356182 80.075,96.55447067264573 80.15,96.60726942344651 80.225,96.66006817424727 80.3,96.62868175528507 80.375,96.59729533632287 80.45,96.48290216527867 80.525,96.36850899423446 80.6,96.19868816143497 80.675,96.02886732863549 80.75,95.80559151185138 80.825,95.58231569506727 80.9,95.31115163356823 80.975,95.0399875720692 81.05,94.73894622037156 81.125,94.43790486867393 81.2,93.95753231902627 81.275,93.4771597693786 81.35,93.07933267136451 81.425,92.68150557335042 81.5,92.34010172966047 81.575,91.99869788597053 81.65,91.55991069827034 81.725,91.12112351057014 81.8,90.71821467008328 81.875,90.31530582959641 81.95,89.801450512492 82.025,89.28759519538757 82.1,88.94987552850736 82.175,88.61215586162716 82.25,88.65271467008327 82.32499999999999,88.6932734785394 82.4,88.89434045483664 82.475,89.09540743113388 82.55,89.4312097693786 82.625,89.76701210762332 82.69999999999999,90.1855934016656 82.775,90.60417469570788 82.85,90.86909295323511 82.925,91.13401121076234 83.0,91.36047133247918 83.07499999999999,91.58693145419603 83.15,91.8331892696989 83.225,92.07944708520179 83.3,92.23854039077514 83.375,92.39763369634849 83.44999999999999,92.84302299807815 83.525,93.28841229980782 83.6,93.7346430813581 83.675,94.18087386290838 83.75,94.5798616495836 83.82499999999999,94.97884943625881 83.9,95.21947807174888 83.975,95.46010670723895 84.05,95.5210097821909 84.125,95.58191285714285 84.19999999999999,95.61005702754645 84.275,95.63820119795004 84.35,95.67965164638052 84.425,95.72110209481102 84.5,95.77269700192184 84.57499999999999,95.82429190903267 84.65,95.74600834080718 84.725,95.66772477258168 84.8,95.59885488148623 84.875,95.52998499039077 84.94999999999999,95.338953504164 85.025,95.14792201793722 85.1,94.86230664317745 85.175,94.57669126841768 85.25,94.19166616591929 85.32499999999999,93.80664106342088 85.4,93.53264900704677 85.475,93.25865695067264 85.55,92.90870080076874 85.625,92.55874465086482 85.69999999999999,92.19490192184497 85.775,91.83105919282511 85.85,91.66924253683537 85.925,91.50742588084562 86.0,91.43771969891095 86.07499999999999,91.3680135169763 86.15,91.5857699871877 86.225,91.8035264573991 86.3,92.2104314189622 86.375,92.6173363805253 86.44999999999999,93.04109610506086 86.525,93.46485582959642 86.6,93.83050051889815 86.675,94.19614520819988 86.75,94.60767951953876 86.82499999999999,95.01921383087765 86.9,95.38394845932095 86.975,95.74868308776425 87.05,96.21398207879564 87.125,96.67928106982703 87.19999999999999,97.24698353683536 87.275,97.81468600384369 87.35,98.13383603587444 87.425,98.45298606790519 87.5,98.54369205765535 87.57499999999999,98.63439804740551 87.65,98.60934305060859 87.725,98.58428805381166 87.8,98.48832934465086 87.875,98.39237063549007 87.94999999999999,98.29597337091607 88.025,98.19957610634209 88.1,98.31051799935939 88.175,98.42145989237667 88.25,98.27385101345291 88.32499999999999,98.12624213452915 88.4,97.67358108071748 88.475,97.22092002690583 88.55,96.81920335490071 88.625,96.41748668289559 88.69999999999999,96.00081470916079 88.775,95.58414273542601 88.85,95.33876618193466 88.925,95.0933896284433 89.0,94.99156884048686 89.07499999999999,94.88974805253042 89.15,94.80164866111467 89.225,94.71354926969892 89.3,94.7735961627162 89.375,94.8336430557335 89.44999999999999,94.88068151825753 89.525,94.92771998078155 89.6,94.67995191223575 89.675,94.43218384368994 89.75,94.31223880845612 89.82499999999999,94.19229377322229 89.9,94.44175491992313 89.975,94.69121606662395 90.05,94.83307935938501 90.125,94.97494265214605 90.19999999999999,94.94664886611147 90.275,94.91835508007688 90.35,94.8296736579116 90.425,94.74099223574632 90.5,94.66437692504805 90.57499999999999,94.58776161434977 90.65,94.31885475976938 90.725,94.04994790518899 90.8,93.63829130685458 90.875,93.22663470852018 90.94999999999999,93.01780380525304 91.025,92.80897290198591 91.1,92.65582789878283 91.175,92.50268289557975 91.25,92.42927351057016 91.32499999999999,92.35586412556054 91.4,92.18801873798847 91.475,92.0201733504164 91.55,91.86662101217169 91.625,91.71306867392697 91.69999999999999,91.81637869955156 91.775,91.91968872517617 91.85,92.13574666880206 91.925,92.35180461242793 92.0,92.572000768738 92.07499999999999,92.79219692504805 92.15,93.12636646380525 92.225,93.46053600256246 92.3,93.84189759769379 92.375,94.22325919282511 92.44999999999999,94.24240393978219 92.525,94.26154868673927 92.6,94.1505970211403 92.675,94.03964535554132 92.75,94.02396511851377 92.82499999999999,94.00828488148623 92.9,94.0995564702114 92.975,94.19082805893657 93.05,94.44041547085202 93.125,94.69000288276746 93.19999999999999,94.7478271620756 93.275,94.80565144138373 93.35,94.7124400384369 93.425,94.61922863549007 93.5,94.49896101857783 93.57499999999999,94.3786934016656 93.65,94.34360550928892 93.725,94.30851761691224 93.8,94.30659855861627 93.875,94.3046795003203 93.94999999999999,94.32988497757847 94.025,94.35509045483664 94.1,94.69550493273543 94.175,95.03591941063421 94.25,95.15879881486227 94.32499999999999,95.28167821909032 94.4,95.37598709160794 94.475,95.47029596412555 94.55,95.42256511851377 94.625,95.37483427290198 94.69999999999999,95.41811556694427 94.775,95.46139686098655 94.85,95.59465076873799 94.925,95.72790467648943 95.0,95.84621691223575 95.07499999999999,95.96452914798206 95.15,95.97822632927611 95.225,95.99192351057015 95.3,95.85560723894939 95.375,95.71929096732863 95.44999999999999,95.61048840486868 95.525,95.5016858424087 95.6,95.18285752722613 95.675,94.86402921204356 95.75,94.81430493273542 95.82499999999999,94.76458065342729 95.9,94.61352075592569 95.975,94.46246085842408 96.05,94.38199186418962 96.125,94.30152286995516 96.19999999999999,94.19228270339526 96.275,94.08304253683536 96.35,93.89760217809096 96.425,93.71216181934658 96.5,93.70894292120435 96.57499999999999,93.70572402306215 96.65,93.86837229980782 96.725,94.03102057655349 96.8,94.19601202434337 96.875,94.36100347213325 96.94999999999999,94.71767099871877 97.025,95.07433852530428 97.1,95.47558974567585 97.175,95.87684096604741 97.25,96.07452991543882 97.32499999999999,96.27221886483024 97.4,96.47013958872517 97.475,96.66806031262011 97.55,96.82197587956438 97.625,96.97589144650865 97.69999999999999,97.16282536707239 97.775,97.34975928763613 97.85,97.56970637283793 97.925,97.78965345803972 98.0,97.85710935169763 98.07499999999999,97.92456524535554 98.15,97.84127033183856 98.225,97.75797541832159 98.3,97.63081337475977 98.375,97.50365133119794 98.44999999999999,97.21840408007688 98.525,96.9331568289558 98.6,96.67525813901345 98.675,96.41735944907111 98.75,96.25608504163998 98.82499999999999,96.09481063420884 98.9,96.06249625240231 98.975,96.03018187059577 99.05,96.01548148622678 99.125,96.00078110185778 99.19999999999999,95.98058126201153 99.275,95.96038142216528 99.35,95.89996438180653 99.425,95.83954734144778 99.5,95.80970204996797 99.57499999999999,95.77985675848815 99.65,95.89804108584241 99.725,96.01622541319666 99.8,96.06918761691223 99.875,96.1221498206278 99.94999999999999,96.10125552210121 100.025,96.08036122357463 100.1,95.95769889173607 100.175,95.8350365598975 100.25,95.72133819346573 100.32499999999999,95.60763982703395 100.4,95.43543569506727 100.475,95.26323156310058 100.55,95.0294999487508 100.625,94.79576833440103 100.69999999999999,94.56665664317745 100.775,94.33754495195387 100.85,94.07704597693785 100.925,93.81654700192185 101.0,93.50497288276746 101.07499999999999,93.19339876361308 101.15,92.6912981326073 101.225,92.18919750160154 101.3,91.87442437540038 101.375,91.55965124919923 101.44999999999999,91.3978864830237 101.525,91.23612171684817 101.6,91.31015118513773 101.675,91.3841806534273 101.75,91.52436617552851 101.82499999999999,91.66455169762972 101.9,91.75940973734785 101.975,91.85426777706599 102.05,91.98436159513133 102.125,92.11445541319667 102.19999999999999,92.20794961563101 102.275,92.30144381806534 102.35,92.35437661755284 102.425,92.40730941704035 102.5,92.61656893017296 102.57499999999999,92.82582844330557 102.65,93.04376566303651 102.725,93.26170288276745 102.8,93.41864103139014 102.875,93.57557918001281 102.94999999999999,93.65082286995515 103.025,93.7260665598975 103.1,93.5584866752082 103.175,93.3909067905189 103.25,93.16009311338885 103.32499999999999,92.92927943625881 103.4,92.8674734785394 103.475,92.80566752081998 103.55,92.88117498398462 103.625,92.95668244714926 103.69999999999999,93.11840224215247 103.775,93.28012203715566 103.85,93.58746800128122 103.925,93.8948139654068 104.0,94.03226489429852 104.07499999999999,94.16971582319026 104.15,94.39700929532351 104.225,94.62430276745675 104.3,94.95101263776425 104.375,95.27772250807175 104.44999999999999,95.66993969449071 104.525,96.06215688090967 104.6,96.51083798597053 104.675,96.9595190910314 104.75,97.40849389244075 104.82499999999999,97.8574686938501 104.9,98.07062513203076 104.975,98.2837815702114 105.05,98.33068217879564 105.125,98.37758278737988 105.19999999999999,98.38358384439462 105.275,98.38958490140935 105.35,98.2831882966688 105.425,98.17679169192824 105.5,97.97098717559257 105.57499999999999,97.7651826592569 105.65,97.47441410704677 105.725,97.18364555483664 105.8,96.86700144365791 105.875,96.55035733247918 105.94999999999999,96.2745480256246 106.025,95.99873871877001 106.1,95.7947518161435 106.175,95.59076491351698 106.25,95.46072307174887 106.32499999999999,95.33068122998078 106.4,95.31024096732864 106.475,95.2898007046765 106.55,95.3073766495836 106.625,95.32495259449071 106.69999999999999,95.29999791800128 106.775,95.27504324151185 106.85,95.30614772581679 106.925,95.33725221012172 107.0,95.56357205637411 107.07499999999999,95.78989190262652 107.15,95.93395359385009 107.225,96.07801528507368 107.3,96.21493866752081 107.375,96.35186204996796 107.44999999999999,96.48849917360666 107.525,96.62513629724536 107.6,96.74307665598975 107.675,96.86101701473414 107.75,96.82589539397821 107.82499999999999,96.7907737732223 107.9,96.76949116591928 107.975,96.74820855861627 108.05,96.70612505445227 108.125,96.66404155028827 108.19999999999999,96.60318604099936 108.275,96.54233053171045 108.35,96.43436944907111 108.425,96.32640836643178 108.5,96.15668387572069 108.57499999999999,95.98695938500961 108.65,96.01166499039077 108.725,96.03637059577194 108.8,95.88661918641895 108.875,95.73686777706598 108.94999999999999,95.52182081998718 109.025,95.30677386290839 109.1,95.16937914798206 109.175,95.03198443305573 109.25,94.86664186418962 109.32499999999999,94.70129929532351 109.4,94.60177809096733 109.475,94.50225688661115 109.55,94.46474660474055 109.625,94.42723632286996 109.69999999999999,94.42650467648943 109.775,94.4257730301089 109.85,94.46275836002562 109.925,94.49974368994235 110.0,94.43050624599616 110.07499999999999,94.36126880204996 110.15,94.41018446508649 110.225,94.459100128123 110.3,94.44979109545163 110.375,94.44048206278026 110.44999999999999,94.38273994234466 110.525,94.32499782190904 110.6,94.30554951953876 110.675,94.28610121716848 110.75,94.41754503523383 110.82499999999999,94.54898885329916 110.9,94.62432508007687 110.975,94.69966130685458 111.05,94.70031511851377 111.125,94.70096893017296 111.19999999999999,94.76000397181294 111.275,94.81903901345291 111.35,94.79367786675208 111.425,94.76831672005125 111.5,94.79055755925688 111.57499999999999,94.81279839846252 111.65,94.70269080717489 111.725,94.59258321588726 111.8,94.68581450992953 111.875,94.77904580397181 111.94999999999999,94.91289039077515 112.025,95.04673497757847 112.1,94.97707463164637 112.175,94.90741428571428 112.25,94.73809782190904 112.32499999999999,94.56878135810378 112.4,94.44569698910955 112.475,94.32261262011531 112.55,94.30515948110185 112.625,94.2877063420884 112.69999999999999,94.13776812940422 112.775,93.98782991672005 112.85,94.0484363549007 112.925,94.10904279308136 113.0,94.10402850736708 113.07499999999999,94.09901422165278 113.15,94.16098795643818 113.225,94.22296169122357 113.3,94.17398721973095 113.375,94.1250127482383 113.44999999999999,94.06487158872517 113.525,94.00473042921205 113.6,94.16782616912235 113.675,94.33092190903267 113.75,94.49852081998719 113.82499999999999,94.6661197309417 113.9,94.7315925688661 113.975,94.79706540679052 114.05,94.9579145771941 114.125,95.1187637475977 114.2,95.4479032607303 114.27499999999999,95.7770427738629 114.35,95.92356136130685 114.425,96.0700799487508 114.5,96.30159958680333 114.575,96.53311922485587 114.64999999999999,96.67238491351698 114.725,96.81165060217809 114.8,96.85775470211404 114.875,96.90385880204997 114.95,96.94555659192825 115.02499999999999,96.98725438180654 115.1,96.93343945547726 115.175,96.87962452914799 115.25,96.95415646380525 115.325,97.02868839846252 115.39999999999999,97.11486181294042 115.475,97.20103522741832 115.55,97.13048298206277 115.625,97.05993073670724 115.7,96.83823773222294 115.77499999999999,96.61654472773863 115.85,96.47287056694427 115.925,96.3291964061499 116.0,96.27206892056374 116.075,96.21494143497758 116.14999999999999,96.1549901921845 116.225,96.09503894939141 116.3,96.1712365470852 116.375,96.24743414477899 116.45,96.28655474055093 116.52499999999999,96.32567533632287 116.6,96.21991178731582 116.675,96.11414823830877 116.75,95.7800401024984 116.825,95.44593196668802 116.89999999999999,95.19464689301729 116.975,94.94336181934658 117.05,94.70108568225497 117.125,94.45880954516336 117.2,94.2413903587444 117.27499999999999,94.02397117232543 117.35,93.92998488148622 117.425,93.83599859064702 117.5,93.719832863549 117.575,93.603667136451 117.64999999999999,93.39819039077514 117.725,93.19271364509929 117.8,93.13270912876361 117.875,93.07270461242793 117.95,92.99647934016656 118.02499999999999,92.92025406790519 118.1,93.03168484945547 118.175,93.14311563100577 118.25,93.34257488789237 118.325,93.54203414477898 118.39999999999999,93.60015160153748 118.475,93.65826905829596 118.55,93.49918440102499 118.625,93.34009974375401 118.7,93.31478270339525 118.77499999999999,93.28946566303652 118.85,93.20147178090967 118.925,93.11347789878283 119.0,93.19060691864189 119.075,93.26773593850096 119.14999999999999,93.38187709801409 119.225,93.49601825752723 119.3,93.46225787956438 119.375,93.42849750160154 119.45,93.55688241511851 119.52499999999999,93.68526732863549 119.6,93.74371255605381 119.675,93.80215778347214 119.75,93.80241463805253 119.825,93.80267149263292 119.89999999999999,93.89162360666239 119.975,93.98057572069186 120.05,94.29370739910314 120.125,94.60683907751441 120.2,94.82684843049327 120.27499999999999,95.04685778347213 120.35,95.12235140935297 120.425,95.19784503523383 120.5,95.0906501921845 120.575,94.98345534913517 120.64999999999999,94.89274157591288 120.725,94.80202780269057 120.8,94.78778577834721 120.875,94.77354375400384 120.95,94.72160550928892 121.02499999999999,94.66966726457399 121.1,94.59859551569507 121.175,94.52752376681615 121.25,94.65389276105061 121.325,94.78026175528507 121.39999999999999,94.86417796284432 121.475,94.94809417040358 121.55,95.06434119154387 121.625,95.18058821268417 121.7,95.23330221012172 121.77499999999999,95.28601620755926 121.85,95.36861181934657 121.925,95.4512074311339 122.0,95.45119705317104 122.075,95.4511866752082 122.14999999999999,95.54586915438821 122.225,95.64055163356822 122.3,95.7145767777066 122.375,95.78860192184497 122.45,95.78492552850737 122.52499999999999,95.78124913516976 122.6,95.75769375400384 122.675,95.73413837283792 122.75,95.46967934016656 122.825,95.2052203074952 122.89999999999999,94.80844311338885 122.975,94.41166591928251 123.05,93.99328613068546 123.125,93.57490634208841 123.2,93.36995887251761 123.27499999999999,93.16501140294683 123.35,93.18923616271621 123.425,93.21346092248558 123.5,93.14156239590007 123.575,93.06966386931454 123.64999999999999,92.79790999359385 123.725,92.52615611787316 123.8,92.36445188981422 123.875,92.20274766175528 123.95,92.19774288917361 124.02499999999999,92.19273811659193 124.1,92.06875778347214 124.175,91.94477745035233 124.25,92.08356367713004 124.325,92.22234990390776 124.39999999999999,92.53732713004484 124.475,92.85230435618193 124.55,93.12558811659193 124.625,93.39887187700192 124.7,93.55572700192184 124.77499999999999,93.71258212684177 124.85,93.69059295323511 124.925,93.66860377962844 125.0,93.80252014734145 125.075,93.93643651505445 125.14999999999999,94.18252136450992 125.225,94.42860621396541 125.3,94.56116652786675 125.375,94.6937268417681 125.45,94.80716835361947 125.52499999999999,94.92060986547085 125.6,95.15601925048045 125.675,95.39142863549007 125.75,95.30128824471493 125.825,95.21114785393978 125.89999999999999,94.79287357463164 125.975,94.3745992953235 126.05,93.98895160153748 126.125,93.60330390775144 126.2,93.18547588084562 126.27499999999999,92.76764785393978 126.35,92.30133139013454 126.425,91.83501492632928 126.5,91.36760185778347 126.575,90.90018878923767 126.64999999999999,90.3795869314542 126.725,89.85898507367072 126.8,89.18366422165279 126.875,88.50834336963484 126.95,87.41853187059577 127.02499999999999,86.3287203715567 127.1,85.05529849455476 127.175,83.78187661755285 127.25,82.81219176809736 127.325,81.84250691864189 127.39999999999999,81.45400096092249 127.475,81.06549500320307 127.55,80.81734234465087 127.625,80.56918968609865 127.7,80.39446543882127 127.77499999999999,80.21974119154387 127.85,79.89408158231902 127.925,79.56842197309417 128.0,79.33014654067905 128.075,79.09187110826393 128.14999999999998,78.76099397821909 128.225,78.43011684817424 128.3,78.12729654067905 128.375,77.82447623318386 128.45,78.04199833440103 128.52499999999998,78.25952043561819 128.6,78.98171595131326 128.675,79.70391146700833 128.75,80.43785656630365 128.825,81.17180166559898 128.89999999999998,81.45271149903908 128.975,81.73362133247917 129.05,81.79753574631646 129.125,81.86145016015375 129.2,81.90473837283793 129.27499999999998,81.9480265855221 129.35,82.1810300128123 129.425,82.41403344010249 129.5,82.74159654067904 129.575,83.0691596412556 129.64999999999998,83.61818846893017 129.725,84.16721729660473 129.8,84.98498260730301 129.875,85.80274791800127 129.95,86.51825743113389 130.02499999999998,87.23376694426649 130.1,87.55984426649583 130.175,87.88592158872518 130.25,88.0790303971813 130.325,88.27213920563742 130.39999999999998,88.66342645739911 130.475,89.0547137091608 130.55,89.46236354900705 130.625,89.8700133888533 130.7,90.207650896861 130.77499999999998,90.54528840486867 130.85,91.04217661755285 130.925,91.53906483023702 131.0,91.66734942344651 131.075,91.795634016656 131.14999999999998,91.78758590647021 131.225,91.77953779628443 131.3,91.64230912876361 131.375,91.50508046124278 131.45,91.25092674567586 131.52499999999998,90.9967730301089 131.6,90.80833257527226 131.675,90.61989212043562 131.75,90.30193987828315 131.825,89.98398763613068 131.89999999999998,89.84106752081999 131.975,89.69814740550929 132.05,89.73416844971172 132.125,89.77018949391416 132.2,89.80496172325432 132.27499999999998,89.83973395259449 132.35,89.60417408712364 132.425,89.36861422165279 132.5,89.21915339525945 132.575,89.06969256886612 132.64999999999998,88.91348260730301 132.725,88.75727264573992 132.8,88.82691828955798 132.875,88.89656393337604 132.95,89.16152889173607 133.02499999999998,89.4264938500961 133.1,89.72113113388853 133.175,90.01576841768097 133.25,90.56107501601537 133.325,91.10638161434977 133.39999999999998,91.42517101217169 133.475,91.74396040999359 133.55,91.86456790518898 133.625,91.98517540038436 133.7,92.04706438180654 133.77499999999998,92.1089533632287 133.85,92.17661768097373 133.925,92.24428199871876 134.0,92.37628622677771 134.075,92.50829045483664 134.14999999999998,92.62404884689302 134.225,92.7398072389494 134.3,92.45649231262011 134.375,92.17317738629083 134.45,91.64196752081999 134.52499999999998,91.11075765534913 134.6,90.72671595131327 134.675,90.34267424727739 134.75,89.87948846893018 134.825,89.41630269058295 134.89999999999998,89.12707578475336 134.975,88.83784887892377 135.05,88.54779519538758 135.125,88.25774151185138 135.2,88.06827363869314 135.27499999999998,87.8788057655349 135.35,87.96402786675208 135.425,88.04924996796925 135.5,88.00970301089046 135.575,87.97015605381165 135.64999999999998,88.13074811018578 135.725,88.29134016655989 135.8,88.69260496476618 135.875,89.09386976297245 135.95,89.70050320307494 136.02499999999998,90.30713664317744 136.1,90.82401886611146 136.175,91.34090108904547 136.25,91.89728962203715 136.325,92.45367815502883 136.39999999999998,92.90641427610505 136.475,93.3591503971813 136.55,93.83731330557335 136.625,94.31547621396541 136.7,94.76477178090967 136.77499999999998,95.21406734785394 136.85,95.4963358295964 136.925,95.77860431133888 137.0,96.12233454836642 137.075,96.46606478539398 137.14999999999998,96.71083422805894 137.225,96.95560367072389 137.3,97.17426475336323 137.375,97.39292583600256 137.45,97.52257945547726 137.52499999999998,97.65223307495195 137.6,97.70366885329916 137.675,97.75510463164638 137.75,97.61372477898783 137.825,97.47234492632927 137.89999999999998,97.2424253971813 137.975,97.01250586803332 138.05,96.78742169122357 138.125,96.56233751441384 138.2,96.35871340807175 138.27499999999998,96.15508930172966 138.35,96.10329202434338 138.425,96.05149474695708 138.5,96.0547793721973 138.575,96.05806399743754 138.64999999999998,96.10139285714286 138.725,96.14472171684818 138.8,96.04113581037797 138.875,95.93754990390775 138.95,95.80904477898783 139.02499999999998,95.6805396540679 139.1,95.60472863549008 139.175,95.52891761691224 139.25,95.5750199871877 139.325,95.62112235746316 139.39999999999998,95.74368523382446 139.475,95.86624811018578 139.55,95.98516053811659 139.625,96.1040729660474 139.7,96.01911723254324 139.77499999999998,95.93416149903908 139.85,95.721149487508 139.925,95.50813747597694 140.0,95.44058818065342 140.075,95.37303888532992 140.14999999999998,95.36657600896861 140.225,95.3601131326073 140.3,95.39875461242794 140.375,95.43739609224856 140.45,95.45972341447789 140.52499999999998,95.48205073670724 140.6,95.50312319026266 140.675,95.52419564381806 140.75,95.5204197950032 140.825,95.51664394618834 140.89999999999998,95.51656784112748 140.975,95.51649173606663 141.05,95.53383244714927 141.125,95.5511731582319 141.2,95.71107853939782 141.27499999999998,95.87098392056375 141.35,95.94345237027547 141.425,96.01592081998719 141.5,95.94239035874439 141.575,95.86885989750161 141.64999999999998,95.73590435618193 141.725,95.60294881486226 141.8,95.59142841127482 141.875,95.57990800768738 141.95,95.51283523382448 142.02499999999998,95.44576245996156 142.1,95.36340554131966 142.175,95.28104862267777 142.25,95.28974795003202 142.325,95.29844727738629 142.39999999999998,95.12009247277386 142.475,94.94173766816144 142.55,94.91246835361947 142.625,94.88319903907751 142.7,94.95804923126201 142.77499999999998,95.03289942344651 142.85,95.0150173286355 142.925,94.99713523382447 143.0,95.07385086483023 143.075,95.150566495836 143.14999999999998,95.30614513132608 143.225,95.46172376681614 143.3,95.51068959000641 143.375,95.55965541319667 143.45,95.54394144778988 143.52499999999998,95.52822748238309 143.6,95.50531726457399 143.675,95.48240704676489 143.75,95.40504798206278 143.825,95.32768891736066 143.89999999999998,95.33796569506727 143.975,95.34824247277386 144.05,95.17329163997438 144.125,94.99834080717488 144.2,94.8256627482383 144.27499999999998,94.65298468930173 144.35,94.85988494554772 144.425,95.06678520179372 144.5,95.18148244714926 144.575,95.29617969250481 144.64999999999998,95.27745438821269 144.725,95.25872908392056 144.8,95.262233376041 144.875,95.26573766816144 144.95,95.30536937860346 145.02499999999998,95.34500108904548 145.1,95.363100256246 145.175,95.3811994234465 145.25,95.37895259449071 145.325,95.37670576553491 145.39999999999998,95.51739634849456 145.475,95.65808693145419 145.55,95.81118263933377 145.625,95.96427834721332 145.7,96.04555249839846 145.77499999999998,96.1268266495836 145.85,96.01045076873798 145.925,95.89407488789237 146.0,95.83001691223575 146.075,95.76595893657911 146.14999999999998,95.68164750160153 146.225,95.59733606662395 146.3,95.5063403587444 146.375,95.41534465086482 146.45,95.35640214606022 146.52499999999998,95.2974596412556 146.6,95.20377258167841 146.675,95.11008552210122 146.75,94.98977725816783 146.825,94.86946899423447 146.89999999999998,94.7611593850096 146.975,94.65284977578474 147.05,94.6323740550929 147.125,94.61189833440102 147.2,94.65429923126202 147.27499999999998,94.696700128123 147.35,94.74896441383729 147.425,94.80122869955157 147.5,94.76333356822549 147.575,94.72543843689942 147.64999999999998,94.65527821909032 147.725,94.58511800128123 147.8,94.5860234785394 147.875,94.58692895579756 147.95,94.6705969570788 148.02499999999998,94.75426495836003 148.1,94.93070416399743 148.175,95.10714336963485 148.25,95.24842549647661 148.325,95.38970762331839 148.39999999999998,95.45399218449711 148.475,95.51827674567585 148.55,95.58472424727739 148.625,95.65117174887892 148.7,95.37588763613068 148.77499999999998,95.10060352338245 148.85,94.79467155669442 148.925,94.4887395900064 149.0,94.42265531710441 149.075,94.35657104420244 149.14999999999998,94.45411092248558 149.225,94.55165080076874 149.3,94.65210602178091 149.375,94.75256124279308 149.45,94.7659098975016 149.52499999999998,94.77925855221012 149.6,94.78491367713005 149.675,94.79056880204998 149.75,94.86021963484946 149.825,94.92987046764894 149.89999999999998,95.0934669442665 149.975,95.25706342088405 150.05,95.28669163997438 150.125,95.3163198590647 150.2,95.50119202434337 150.27499999999998,95.68606418962203 150.35,95.82753139013452 150.425,95.96899859064702 150.5,95.86259160794363 150.575,95.75618462524022 150.64999999999998,95.73091860986547 150.725,95.70565259449072 150.8,95.69543289557976 150.875,95.6852131966688 150.95,95.68359596412556 151.02499999999998,95.68197873158232 151.1,95.74867616912236 151.175,95.81537360666239 151.25,95.89725919282512 151.325,95.97914477898783 151.39999999999998,95.95966880204996 151.475,95.9401928251121 151.55,95.93023862908392 151.625,95.92028443305573 151.7,96.08885281870596 151.77499999999998,96.25742120435618 151.85,96.46260131326073 151.925,96.66778142216528 152.0,96.93158491351697 152.075,97.19538840486868 152.14999999999998,97.3026437860346 152.225,97.4098991672005 152.3,97.44009298526585 152.375,97.47028680333119 152.45,97.5600734785394 152.52499999999998,97.6498601537476 152.6,97.72429427610506 152.675,97.79872839846253 152.75,97.88907600256246 152.825,97.9794236066624 152.89999999999998,98.06419807174888 152.975,98.14897253683536 153.05,98.24256904868673 153.125,98.33616556053812 153.2,98.36271308135811 153.27499999999998,98.3892606021781 153.35,98.30672293401666 153.425,98.22418526585523 153.5,98.07973699551569 153.575,97.93528872517616 153.64999999999998,97.8224197309417 153.725,97.70955073670724 153.8,97.52425912876362 153.875,97.33896752081999 153.95,97.03378103779629 154.02499999999998,96.72859455477258 154.1,96.31429858103779 154.175,95.90000260730301 154.25,95.52002249199231 154.325,95.14004237668162 154.39999999999998,94.84675993593851 154.475,94.55347749519538 154.55,94.3636781326073 154.625,94.17387877001921 154.7,93.86713922485586 154.77499999999998,93.56039967969251 154.85,93.28684176809737 154.925,93.01328385650224 155.0,92.93430755925688 155.075,92.85533126201153 155.14999999999998,92.85625576553491 155.225,92.85718026905829 155.3,93.07570384368994 155.375,93.29422741832158 155.45,93.59688167841128 155.52499999999998,93.89953593850096 155.6,94.05706822549648 155.675,94.21460051249198 155.75,94.26336915438822 155.825,94.31213779628443 155.89999999999998,94.32183167841127 155.975,94.33152556053811 156.05,94.25854772581678 156.125,94.18556989109545 156.2,93.98477706598334 156.27499999999998,93.78398424087123 156.35,93.63011105060858 156.425,93.47623786034593 156.5,93.3164206918642 156.575,93.15660352338244 156.64999999999998,92.82465832799488 156.725,92.4927131326073 156.8,92.00707636130686 156.875,91.52143959000641 156.95,91.02876915438821 157.02499999999998,90.53609871877002 157.1,90.34077594490711 157.175,90.14545317104421 157.25,90.01551934657272 157.325,89.88558552210122 157.39999999999998,89.59756937860345 157.475,89.30955323510571 157.55,88.95451793721973 157.625,88.59948263933376 157.7,88.5756998078155 157.77499999999998,88.55191697629725 157.85,88.76865035233824 157.925,88.98538372837925 158.0,89.09398219090326 158.075,89.20258065342729 158.14999999999998,89.39697978859705 158.225,89.59137892376681 158.3,89.87878968609866 158.375,90.16620044843049 158.45,90.40270297885971 158.52499999999998,90.63920550928891 158.6,90.70540048046124 158.675,90.77159545163357 158.75,90.98941505445228 158.825,91.20723465727097 158.89999999999998,91.59052222934017 158.975,91.97380980140936 159.05,92.3642970852018 159.125,92.75478436899424 159.2,92.89968408071749 159.27499999999998,93.04458379244075 159.35,92.9873294362588 159.425,92.93007508007688 159.5,92.99660906470211 159.575,93.06314304932735 159.64999999999998,93.19920506085842 159.725,93.3352670723895 159.8,93.38607844330558 159.875,93.43688981422166 159.95,93.58167623318386 160.02499999999998,93.72646265214605 160.1,93.85249868673927 160.175,93.97853472133248 160.25,93.96006540679052 160.325,93.94159609224856 160.39999999999998,93.9123034272902 160.475,93.88301076233184 160.55,93.90461941063421 160.625,93.92622805893657 160.7,94.12255403587443 160.77499999999998,94.3188800128123 160.85,94.40944762972454 160.925,94.50001524663676 161.0,94.4489703715567 161.075,94.39792549647662 161.14999999999998,94.10950374759769 161.225,93.82108199871877 161.3,93.63492815502883 161.375,93.44877431133888 161.45,93.34766527866752 161.52499999999998,93.24655624599616 161.6,93.22207809096733 161.675,93.1975999359385 161.75,93.174867008328 161.825,93.15213408071749 161.89999999999998,93.17867918001281 161.975,93.20522427930814 162.05,93.24383376041 162.125,93.28244324151186 162.2,93.41513933376041 162.27499999999998,93.54783542600897 162.35,93.73863513773222 162.425,93.92943484945548 162.5,94.12219513132607 162.575,94.31495541319667 162.64999999999998,94.70046386931455 162.725,95.08597232543242 162.8,95.34203039718129 162.875,95.59808846893017 162.95,95.82628257527226 163.02499999999998,96.05447668161435 163.1,96.17600176169123 163.175,96.2975268417681 163.25,96.4342106662396 163.325,96.57089449071108 163.39999999999998,96.46493030108904 163.475,96.35896611146701 163.55,96.28321476617553 163.625,96.20746342088405 163.7,96.1145434657271 163.77499999999998,96.02162351057015 163.85,95.93397901985907 163.925,95.84633452914798 164.0,95.84652479180012 164.075,95.84671505445228 164.14999999999998,95.75645012812299 164.225,95.66618520179372 164.3,95.55630938500961 164.375,95.4464335682255 164.45,95.12658994234465 164.52499999999998,94.8067463164638 164.6,94.52196982703396 164.675,94.2371933376041 164.75,94.08907472773863 164.825,93.94095611787316 164.89999999999998,93.94161511851377 164.975,93.94227411915439 165.05,93.73745032030749 165.125,93.5326265214606 165.2,93.3216572389494 165.27499999999998,93.11068795643818 165.35,93.11328071748879 165.425,93.1158734785394 165.5,92.98761569506726 165.575,92.85935791159513 165.64999999999998,92.76330813581038 165.725,92.66725836002563 165.8,92.76142194106342 165.875,92.85558552210122 165.95,93.16437834721333 166.02499999999998,93.47317117232544 166.1,93.7507704356182 166.175,94.02836969891095 166.25,94.14818760409993 166.325,94.26800550928891 166.39999999999998,94.44663532991672 166.475,94.62526515054452 166.55,94.9126439141576 166.625,95.20002267777066 166.7,95.35835493273542 166.77499999999998,95.5166871877002 166.85,95.41046181934658 166.925,95.30423645099296 167.0,95.27550938500961 167.075,95.24678231902627 167.14999999999998,95.09853398462523 167.225,94.95028565022422 167.3,94.7048260730301 167.375,94.45936649583601 167.45,94.35869506726458 167.52499999999998,94.25802363869315 167.6,94.27834541960281 167.675,94.29866720051248 167.75,94.2954906790519 167.825,94.29231415759129 167.89999999999998,94.31817171684817 167.975,94.34402927610506 168.05,94.40627802690582 168.125,94.4685267777066 168.2,94.45308955797566 168.27499999999998,94.43765233824472 168.35,94.49229231262012 168.425,94.54693228699551 168.5,94.65152139654067 168.575,94.75611050608585 168.64999999999998,94.98036012171684 168.725,95.20460973734785 168.8,95.42277873158231 168.875,95.64094772581679 168.95,95.58227331838565 169.02499999999998,95.52359891095452 169.1,95.45588443305573 169.175,95.38816995515695 169.25,95.26925060858424 169.325,95.15033126201153 169.39999999999998,94.96706768097373 169.475,94.78380409993594 169.55,94.65264394618833 169.625,94.52148379244075 169.7,94.60920871236387 169.77499999999998,94.696933632287 169.85,94.7662930172966 169.925,94.83565240230621 170.0,94.79145525304293 170.075,94.74725810377963 170.14999999999998,94.67972696989109 170.225,94.61219583600256 170.3,94.64808888532991 170.375,94.68398193465727 170.45,94.74039221652787 170.52499999999998,94.79680249839846 170.6,94.73795944907111 170.675,94.67911639974375 170.75,94.70032376681614 170.825,94.72153113388853 170.89999999999998,94.67185874439463 170.975,94.6221863549007 171.05,94.51127533632287 171.125,94.40036431774504 171.2,94.2930691543882 171.27499999999998,94.1857739910314 171.35,94.06512238949392 171.425,93.94447078795643 171.5,93.80013840486868 171.575,93.6558060217809 171.64999999999998,93.58523933376041 171.725,93.5146726457399 171.8,93.29269493914158 171.875,93.07071723254325 171.95,93.02154730941704 172.02499999999998,92.97237738629084 172.1,93.00608155028827 172.175,93.03978571428571 172.25,92.85742588084561 172.325,92.67506604740551 172.39999999999998,92.47169862267778 172.475,92.26833119795003 172.55,92.08257258167842 172.625,91.89681396540679 172.7,91.78781854580397 172.77499999999998,91.67882312620115 172.85,91.62977860345931 172.925,91.58073408071749 173.0,91.56162911595132 173.075,91.54252415118513 173.14999999999998,91.56496044202434 173.225,91.58739673286355 173.3,91.69417818705958 173.375,91.8009596412556 173.45,91.71808728379244 173.52499999999998,91.63521492632928 173.6,91.71086422165278 173.675,91.7865135169763 173.75,91.95292934016656 173.825,92.11934516335683 173.89999999999998,92.29041896220372 173.975,92.46149276105061 174.05,92.64848116591928 174.125,92.83546957078796 174.2,92.84020797565663 174.27499999999998,92.8449463805253 174.35,92.89258901345292 174.425,92.94023164638052 174.5,93.02795916079437 174.575,93.1156866752082 174.64999999999998,93.1740402306214 174.725,93.23239378603459 174.8,93.18353087764254 174.875,93.13466796925049 174.95,93.15614170403587 175.02499999999998,93.17761543882126 175.1,93.0218897821909 175.175,92.86616412556054 175.25,92.95882290198591 175.325,93.05148167841128 175.39999999999998,93.27603571428571 175.475,93.50058975016016 175.55,93.67872834721332 175.625,93.8568669442665 175.7,94.049583119795 175.77499999999998,94.2422992953235 175.85,94.47479679692505 175.925,94.70729429852659 176.0,94.85413468930173 176.075,95.00097508007687 176.14999999999998,95.04123898142217 176.225,95.08150288276745 176.3,95.03424769378603 176.375,94.98699250480462 176.45,94.75296425368353 176.52499999999998,94.51893600256246 176.6,94.41196342088405 176.675,94.30499083920563 176.75,94.24194990390775 176.825,94.17890896860986 176.89999999999998,94.19499827033952 176.975,94.21108757206919 177.05,94.31439413837283 177.125,94.41770070467649 177.2,94.5267938500961 177.27499999999998,94.63588699551569 177.35,94.69777545803971 177.425,94.75966392056374 177.5,94.81150270980142 177.575,94.86334149903908 177.64999999999998,94.69995258167842 177.725,94.53656366431774 177.8,94.40331148622678 177.875,94.27005930813581 177.95,94.47062987187701 178.025,94.67120043561819 178.1,94.66380786675208 178.17499999999998,94.65641529788597 178.25,94.53506231902627 178.325,94.41370934016656 178.4,94.31211254324151 178.475,94.21051574631646 178.54999999999998,94.03943070467649 178.625,93.86834566303652 178.7,93.58018509288918 178.775,93.29202452274183 178.85,92.90078881486227 178.92499999999998,92.50955310698271 179.0,92.26968119795004 179.075,92.02980928891736 179.15,92.04666742472774 179.225,92.06352556053811 179.29999999999998,92.17379919923127 179.375,92.28407283792441 179.45,92.27707549647661 179.525,92.27007815502883 179.6,92.39231672005126 179.67499999999998,92.51455528507367 179.75,92.58279903907751 179.825,92.65104279308136 179.9,92.61372536835361 179.975,92.57640794362588 180.04999999999998,92.6308005765535 180.125,92.6851932094811 180.2,92.84268830877643 180.275,93.00018340807175 180.35,93.1778169442665 180.42499999999998,93.35545048046124 180.5,93.51149871877001 180.575,93.6675469570788 180.65,93.82962046764895 180.725,93.99169397821909 180.79999999999998,94.25709913516977 180.875,94.52250429212043 180.95,94.74159951953875 181.025,94.96069474695707 181.1,95.01981108263934 181.17499999999998,95.07892741832158 181.25,95.11006217168482 181.325,95.14119692504805 181.4,95.15324401024984 181.475,95.16529109545164 181.54999999999998,95.12194493914157 181.625,95.07859878283152 181.7,94.99220224215247 181.775,94.90580570147341 181.85,94.8734428891736 181.92499999999998,94.8410800768738 182.0,94.78560554131967 182.075,94.73013100576553 182.15,94.66134846252402 182.225,94.5925659192825 182.29999999999998,94.45803898142216 182.375,94.32351204356182 182.45,94.24105048046124 182.525,94.15858891736066 182.6,94.25211165919282 182.67499999999998,94.34563440102498 182.75,94.36627270980141 182.825,94.38691101857783 182.9,94.29499513132608 182.975,94.2030792440743 183.04999999999998,94.19371659192825 183.125,94.18435393978218 183.2,94.17364561178732 183.275,94.16293728379244 183.35,94.04850381165919 183.42499999999998,93.93407033952595 183.5,93.89033155028828 183.575,93.84659276105062 183.65,93.77613244714927 183.725,93.70567213324792 183.79999999999998,93.58012905188981 183.875,93.45458597053171 183.95,93.35480877642537 184.025,93.25503158231902 184.1,93.18525016015374 184.17499999999998,93.11546873798846 184.25,93.16781258808456 184.325,93.22015643818065 184.4,93.5246308199872 184.475,93.82910520179372 184.54999999999998,94.0623522517617 184.625,94.29559930172965 184.7,94.57512583920564 184.775,94.85465237668161 184.85,95.21778075592569 184.92499999999998,95.58090913516976 185.0,95.7755063164638 185.075,95.97010349775785 185.15,96.0895235810378 185.225,96.20894366431774 185.29999999999998,96.33698264573991 185.375,96.46502162716207 185.45,96.38421707879564 185.525,96.30341253042921 185.6,96.13915964766176 185.67499999999998,95.9749067648943 185.75,95.87185359385009 185.825,95.7688004228059 185.9,95.54272549647662 185.975,95.31665057014735 186.04999999999998,95.0189849103139 186.125,94.72131925048046 186.2,94.37981724855862 186.275,94.03831524663677 186.35,93.71334144778987 186.42499999999998,93.38836764894299 186.5,93.05775688661114 186.575,92.7271461242793 186.65,92.51600301089046 186.725,92.3048598975016 186.79999999999998,92.12705858424087 186.875,91.94925727098014 186.95,92.06500009609225 187.025,92.18074292120436 187.1,92.35197584881486 187.17499999999998,92.52320877642536 187.25,92.52211217168481 187.325,92.52101556694427 187.4,92.42949577194106 187.475,92.33797597693786 187.54999999999998,92.24484759769378 187.625,92.15171921844971 187.7,92.22158106982704 187.775,92.29144292120435 187.85,92.5301395259449 187.92499999999998,92.76883613068546 188.0,93.0242230941704 188.075,93.27961005765535 188.15,93.45896028187059 188.225,93.63831050608584 188.29999999999998,93.85352696989109 188.375,94.06874343369634 188.45,94.17510803971813 188.525,94.28147264573991 188.6,94.31293084561179 188.67499999999998,94.34438904548367 188.75,94.32438033311979 188.825,94.30437162075593 188.9,94.24988385650224 188.975,94.19539609224856 189.04999999999998,94.30180912876361 189.125,94.40822216527867 189.2,94.47608452914798 189.275,94.54394689301729 189.35,94.42052264573991 189.42499999999998,94.29709839846252 189.5,94.22621518257527 189.575,94.15533196668802 189.65,94.19259490711083 189.725,94.22985784753364 189.79999999999998,94.2073999359385 189.875,94.18494202434337 189.95,94.19625486867393 190.025,94.2075677130045 190.1,94.32969471492633 190.17499999999998,94.45182171684817 190.25,94.78157430813582 190.325,95.11132689942345 190.4,95.47835843049327 190.475,95.8453899615631 190.54999999999998,96.1345183632287 190.625,96.4236467648943 190.7,96.57170829596413 190.775,96.71976982703396 190.85,96.72665387572069 190.92499999999998,96.73353792440743 191.0,96.64687501601537 191.075,96.56021210762331 191.15,96.52126620755925 191.225,96.4823203074952 191.29999999999998,96.4309900384369 191.375,96.3796597693786 191.45,96.13939263292761 191.525,95.89912549647661 191.6,95.70733555413197 191.67499999999998,95.51554561178732 191.75,95.2979649615631 191.825,95.08038431133889 191.9,94.74126431133888 191.975,94.40214431133889 192.04999999999998,94.11629448110186 192.125,93.83044465086483 192.2,93.57456732863548 192.275,93.31869000640614 192.35,93.22984599615631 192.42499999999998,93.14100198590647 192.5,93.2385461883408 192.575,93.33609039077514 192.65,93.3429606021781 192.725,93.34983081358104 192.79999999999998,93.26995595771942 192.875,93.19008110185779 192.95,93.20460765534914 193.025,93.21913420884049 193.1,93.32493926969892 193.17499999999998,93.43074433055733 193.25,93.36341210762332 193.325,93.2960798846893 193.4,93.19006207559256 193.475,93.08404426649584 193.54999999999998,92.87153472133248 193.625,92.65902517616912 193.7,92.66181598334401 193.775,92.6646067905189 193.85,92.60001348494555 193.92499999999998,92.5354201793722 194.0,92.41489311338886 194.075,92.2943660474055 194.15,92.31226457399103 194.225,92.33016310057656 194.29999999999998,92.26807693786034 194.375,92.20599077514413 194.45,92.0823390775144 194.525,91.9586873798847 194.6,91.75300566944266 194.67499999999998,91.54732395900064 194.75,91.4247602178091 194.825,91.30219647661755 194.9,91.46782184497117 194.975,91.63344721332479 195.04999999999998,91.83376784112748 195.125,92.03408846893018 195.2,91.93998023702754 195.275,91.84587200512492 195.35,91.76314839846252 195.42499999999998,91.68042479180014 195.5,91.66909205637413 195.575,91.6577593209481 195.65,91.57695390775143 195.725,91.49614849455477 195.79999999999998,91.8415807174888 195.875,92.1870129404228 195.95,92.5564199871877 196.025,92.9258270339526 196.1,93.12912527226138 196.17499999999998,93.33242351057015 196.25,93.58295618193466 196.325,93.83348885329917 196.4,93.95697363869314 196.475,94.08045842408713 196.54999999999998,94.19871704035874 196.625,94.31697565663036 196.7,94.48712841127482 196.775,94.65728116591929 196.85,94.84524077514413 196.92499999999998,95.033200384369 197.0,95.10360794362587 197.075,95.17401550288277 197.15,95.1400164317745 197.225,95.10601736066624 197.29999999999998,94.80918773222294 197.375,94.51235810377963 197.45,94.31648443305573 197.525,94.12061076233184 197.6,94.05434141575913 197.67499999999998,93.98807206918642 197.75,93.8514202434337 197.825,93.71476841768097 197.9,93.64687924407431 197.975,93.57899007046765 198.04999999999998,93.55611012171684 198.125,93.53323017296604 198.2,93.55542431133888 198.275,93.57761844971172 198.35,93.73806867392697 198.42499999999998,93.89851889814221 198.5,94.05974919923126 198.575,94.22097950032031 198.65,94.31422203715567 198.725,94.40746457399104 198.79999999999998,94.50650060858423 198.875,94.60553664317744 198.95,94.77819913516976 199.025,94.95086162716207 199.1,95.00600839205637 199.17499999999998,95.06115515695068 199.25,95.06031627162075 199.325,95.05947738629084 199.4,95.06565746316464 199.475,95.07183754003843 199.54999999999998,95.15885675848816 199.625,95.24587597693787 199.7,95.34727126841769 199.775,95.4486665598975 199.85,95.35402559256886 199.92499999999998,100.0" opacity="1" fill="#E15759" stroke="black" stroke-width="0"/>
<line x1="40" y1="100.0" x2="40" y2="70.0" stroke="black" stroke-width="1" />
<line x1="39.5" y1="100.0" x2="43.5" y2="100.0" stroke="black" stroke-width="1" />
<line x1="39.5" y1="70.0" x2="43.5" y2="70.0" stroke="black" stroke-width="1" />
<text text-anchor="end" font-family="Arial" x="36" y="104.0" font-size="8" >0</text>
<text text-anchor="end" font-family="Arial" x="36" y="74.0" font-size="8" >171.7</text>
<text text-anchor="start" font-family="Arial" x="39.5" y="66" font-size="7" >ChrIV: 230,000-280,000</text>
</svg>
