<svg viewBox="0 0 320 210" xmlns="http://www.w3.org/2000/svg">
<polygon points="50.0,100.0 50.075,99.52983821428748 50.15,99.53651825770876 50.225,99.54277874859672 50.3,99.54797800281892 50.375,99.55325129957221 50.45,99.55631984580006 50.525,99.56045786736233 50.6,99.56369916925892 50.675,99.5655830750476 50.75,99.56331252466556 50.825,99.55877141588981 50.9,99.55544785015208 50.975,99.55460873039736 51.05,99.5535228137781 51.125,99.55214896570313 51.2,99.54804386409832 51.275,99.54188210103608 51.35,99.53613990118939 51.425,99.52612808807893 51.5,99.51417475858658 51.575,99.49264562315471 51.65,99.46997301125096 51.725,99.44536708424619 51.8,99.42124652832521 51.875,99.39414788595732 51.95,99.37097339225043 52.025,99.34874495942236 52.1,99.33074507336613 52.175,99.3151226694691 52.25,99.30446912148562 52.325,99.2956501500952 52.4,99.2854079627111 52.475,99.27071517173165 52.55,99.2586878077199 52.625,99.2459940649341 52.7,99.23167971593185 52.775,99.21265963032566 52.85,99.19157470468089 52.925,99.17481698286393 53.0,99.16374387032961 53.075,99.15313968892956 53.15,99.14601533691057 53.225,99.1406021844168 53.3,99.14059395910091 53.375,99.14022376647462 53.45,99.13444046141292 53.525,99.128435019411 53.6,99.12161509754952 53.675,99.11740304146782 53.75,99.11031994955614 53.825,99.1036975153928 53.9,99.09342242674514 53.975,99.08329532701961 54.05,99.06964729803911 54.125,99.06047456195445 54.2,99.05358885091863 54.275,99.05531646101728 54.35,99.05772685245172 54.425,99.06595351697534 54.5,99.067862124082 54.575,99.07195078707252 54.65,99.0734151202987 54.725,99.07799739571227 54.8,99.08158428772781 54.875,99.08962175663312 54.95,99.10664270057615 55.025,99.12841040889197 55.1,99.15165893044188 55.175,99.17185537375435 55.25,99.1920764623031 55.325,99.21174636255286 55.4,99.2383595937786 55.475,99.26739154056527 55.55,99.29648922177988 55.625,99.32007507208031 55.7,99.34530620320962 55.775,99.36898256670212 55.85,99.39041303038995 55.925,99.40506470413689 56.0,99.42449609025493 56.075,99.44961204960313 56.15,99.47358455918499 56.225,99.49439798397665 56.3,99.51063732395342 56.375,99.52267292129275 56.45,99.5271070702505 56.525,99.52699189846938 56.6,99.52632553705398 56.675,99.5232323001904 56.75,99.51864182216067 56.825,99.51423234514478 56.9,99.50488685606192 56.975,99.49438963581514 57.05,99.4824610303405 57.125,99.47527916386835 57.2,99.4709930692614 57.275,99.47068045785218 57.35,99.47812558517346 57.425,99.48258442877278 57.5,99.48237874780544 57.575,99.4759290532875 57.65,99.47271242733859 57.725,99.47038427704557 57.8,99.4709601506392 57.875,99.4750241163176 57.95,99.48434492277639 58.025,99.49096738898642 58.1,99.49684944857941 58.175,99.50456605138349 58.25,99.51583657016394 58.325,99.52525609243095 58.4,99.53746445612126 58.475,99.55243697193443 58.55,99.57282258816548 58.625,99.59350439187953 58.7,99.61058293039243 58.775,99.6228488646176 58.85,99.63136344190302 58.925,99.64576008545782 59.0,99.6653724285255 59.075,99.6876419652333 59.15,99.7082579677555 59.225,99.72954033623303 59.3,99.74915268424124 59.375,99.7689048922628 59.45,99.78583534584703 59.525,99.80188555323063 59.6,99.81342754348805 59.675,99.82414686862838 59.75,99.83449599980713 59.825,99.84638351876066 59.9,99.8560416219233 59.975,99.86331399758166 60.05,99.8680114220766 60.125,99.8688505551841 60.2,99.87150777552978 60.275,99.87601598971835 60.35,99.87952878445637 60.425,99.87929844222943 60.5,99.87609005361391 60.575,99.87436247956776 60.65,99.8671394718281 60.725,99.85649418601419 60.8,99.8452565809154 60.875,99.83443852407704 60.95,99.82198337006503 61.025,99.81031796508493 61.1,99.79929425919241 61.175,99.78864897791846 61.25,99.77806127786158 61.325,99.76968654162854 61.4,99.76119661892633 61.475,99.750584229569 61.55,99.73514279063326 61.625,99.72090244276848 61.7,99.70200581167627 61.775,99.68147208634801 61.85,99.66190909517569 61.925,99.64633603249177 62.0,99.63066425667022 62.075,99.61047604267947 62.15,99.59343040943597 62.225,99.58023484226403 62.3,99.56415995919983 62.375,99.547895855147 62.45,99.53005224074577 62.525,99.51444627279247 62.6,99.49842898429812 62.675,99.48340712059543 62.75,99.4729674909127 62.825,99.46600774001632 62.9,99.46266772498207 62.975,99.4600763271927 63.05,99.46185328518088 63.125,99.46719238312603 63.2,99.47927734037239 63.275,99.49225077193937 63.35,99.50568491065998 63.425,99.51828814693009 63.5,99.53155774328033 63.575,99.54428437664747 63.65,99.55502017111347 63.725,99.56443145871764 63.8,99.57898440330358 63.875,99.59319184589896 63.95,99.61133984372296 64.025,99.62802351633243 64.1,99.6494292546673 64.175,99.67215126920699 64.25,99.69142633560001 64.325,99.70645643797137 64.4,99.71889514789446 64.475,99.73328357280977 64.55,99.74621587245618 64.625,99.75273138018348 64.7,99.75399004980095 64.775,99.7513986506763 64.85,99.74582096515913 64.925,99.73929723745704 65.0,99.73412266719419 65.075,99.73481370455725 65.15,99.73367019603867 65.225,99.7285614443263 65.3,99.71467484379714 65.375,99.70305057100467 65.45,99.69236414445736 65.525,99.6825168283178 65.6,99.66923078934744 65.675,99.65412665245667 65.75,99.63801885210553 65.825,99.61728766845528 65.9,99.59477129615983 65.975,99.57173666219926 66.05,99.55321846907842 66.125,99.53517742172548 66.2,99.51885573378502 66.275,99.5048539641453 66.35,99.48762736326995 66.425,99.47021150802404 66.5,99.44981764911847 66.575,99.43107734843352 66.65,99.41814504478128 66.725,99.40837178051977 66.8,99.40731876649934 66.875,99.4028681495512 66.95,99.39668993185134 67.025,99.38843037541109 67.1,99.38254831047699 67.175,99.37796606043372 67.25,99.37108858005489 67.325,99.36367633663856 67.4,99.35873212729656 67.475,99.35732536326995 67.55,99.3562476572785 67.625,99.35613247615044 67.7,99.3549807529982 67.775,99.35363158220618 67.85,99.35732533255855 67.925,99.3637997257239 68.0,99.3693855964986 68.075,99.36693403842635 68.15,99.35720191009125 68.225,99.34752734694987 68.3,99.33970387512673 68.375,99.33599364209589 68.45,99.33582910373136 68.525,99.33763895497144 68.6,99.33628156286936 68.675,99.33197904166563 68.75,99.32872129581365 68.825,99.33140320011869 68.9,99.33216829870676 68.975,99.33164182240795 69.05,99.32668115175194 69.125,99.32369486936526 69.2,99.32147367889023 69.275,99.3205934499147 69.35,99.32195907801488 69.425,99.32102123711086 69.5,99.32265834202913 69.575,99.32725703335724 69.65,99.33980267238694 69.725,99.35528526060186 69.8,99.36727965391557 69.875,99.3744039538587 69.95,99.37772753161396 70.025,99.37985000761603 70.1,99.38142951929972 70.175,99.38200536618778 70.25,99.38778046195692 70.325,99.39160586943943 70.4,99.39881239850646 70.475,99.40182332078831 70.55,99.40827301931209 70.625,99.41733880893153 70.7,99.42971168695136 70.775,99.44278381830321 70.85,99.4521951099132 70.925,99.46086600959423 71.0,99.46747202250192 71.075,99.47439064948938 71.15,99.47982846991914 71.225,99.48638511357287 71.3,99.4903010048713 71.375,99.49300757711234 71.45,99.49308161430231 71.525,99.49443901708662 71.6,99.49550025508766 71.675,99.49930096792859 71.75,99.49902125911822 71.825,99.50229546361366 71.9,99.50802121950495 71.975,99.51995809435968 72.05,99.53330996256274 72.125,99.54581446967187 72.2,99.55643507499815 72.275,99.56435734541678 72.35,99.57337376311169 72.425,99.58365707173414 72.5,99.59733800464875 72.575,99.6124503748671 72.65,99.62825379580129 72.725,99.64081590415667 72.8,99.6542171295962 72.875,99.66802144625504 72.95,99.68203144121065 73.025,99.69155791261343 73.1,99.70008073390866 73.175,99.70087049108578 73.25,99.69730835513464 73.325,99.68628460517792 73.4,99.67362380104349 73.475,99.65793558660765 73.55,99.63853711110012 73.625,99.61511580450532 73.7,99.58809947404862 73.775,99.5668088674365 73.85,99.54754204638857 73.925,99.52853847817809 74.0,99.50133294676195 74.075,99.47463743433644 74.15,99.45064850216365 74.225,99.43542918147425 74.3,99.42793469024011 74.375,99.42946485670483 74.45,99.43709095165796 74.525,99.44945560836774 74.6,99.46278279261146 74.675,99.47939241467817 74.75,99.49369857041121 74.825,99.50874516347271 74.9,99.51569666635345 74.975,99.52106043089934 75.05,99.52824231873593 75.125,99.53489770356816 75.2,99.53793334986771 75.275,99.52886754288964 75.35,99.5145284818872 75.425,99.49822324991963 75.5,99.4826994883905 75.575,99.46851675245419 75.65,99.4530671175787 75.725,99.43459828169432 75.8,99.41173644746668 75.875,99.3808535896244 75.95,99.34659782616652 76.025,99.30414007279741 76.1,99.26117228574961 76.175,99.21936437773546 76.25,99.18589008204545 76.325,99.1520621017779 76.4,99.11993696352711 76.475,99.08483384565169 76.55,99.05199298073737 76.625,99.02326550016073 76.7,99.00771703864889 76.775,99.00322530847407 76.85,99.00875362874311 76.925,99.01637979179546 77.0,99.03318686283723 77.075,99.04626721149329 77.15,99.0593393508568 77.225,99.06105876234514 77.3,99.06004682149305 77.375,99.05885389698574 77.45,99.06655402111718 77.525,99.08443052743503 77.6,99.10894592121856 77.675,99.13689191266289 77.75,99.1640316842808 77.825,99.19606624791672 77.9,99.23055243638882 77.975,99.27371767641749 78.05,99.3142998187483 78.125,99.35703730629807 78.2,99.39053632199995 78.275,99.4201852142133 78.35,99.44376279780421 78.425,99.46908439405554 78.5,99.49169127420193 78.575,99.5104398415964 78.65,99.5235448875646 78.725,99.54029431196064 78.8,99.55838475393783 78.875,99.57613792191093 78.95,99.58016898499048 79.025,99.57494502544448 79.1,99.56386372231151 79.175,99.55323487831656 79.25,99.54515628683761 79.325,99.53851736866052 79.4,99.53362250053164 79.475,99.52623496377439 79.55,99.51868290067011 79.625,99.5103821922801 79.7,99.50774967191711 79.775,99.50783194644049 79.85,99.50855588373186 79.925,99.50714090240103 80.0,99.50362811700997 80.075,99.50531458450583 80.15,99.50962535372518 80.225,99.51838674790436 80.3,99.52865360990084 80.375,99.54442411488341 80.45,99.5673435757276 80.525,99.59799612592666 80.6,99.6294137067481 80.675,99.65953971268267 80.75,99.68680286003314 80.825,99.71083291477956 80.9,99.73111984724908 80.975,99.74473496561905 81.05,99.74233277680077 81.125,99.71638589897876 81.2,99.66408079875869 81.275,99.59593942307559 81.35,99.52448262017754 81.425,99.44671607597735 81.5,99.37479864203655 81.575,99.29769845791647 81.65,99.22154428393462 81.725,99.11781427641749 81.8,99.00103688293069 81.875,98.87043867274795 81.95,98.74580479134048 82.025,98.62212528572488 82.1,98.50614588941916 82.175,98.38255686080957 82.25,98.24721187557182 82.32499999999999,98.10945649756435 82.4,97.99030161657724 82.475,97.88886691417126 82.55,97.804321584036 82.625,97.73685481911922 82.69999999999999,97.68204885833684 82.775,97.6431038836824 82.85,97.59682077891249 82.925,97.5703884725897 83.0,97.54614444746667 83.07499999999999,97.53851837788383 83.15,97.5378519937687 83.225,97.571597834376 83.3,97.62417436067358 83.375,97.68992184762988 83.44999999999999,97.74228458247818 83.525,97.79534645582453 83.6,97.84096331000717 83.675,97.89172997304715 83.75,97.95152956850721 83.82499999999999,97.99213636408595 83.9,98.00720750624366 83.975,97.9951884102767 84.05,97.98244533963057 84.125,97.95686861304122 84.19999999999999,97.92896374817636 84.275,97.88005619346703 84.35,97.84209020498999 84.425,97.79213795504562 84.5,97.73738146633367 84.57499999999999,97.6698487520091 84.65,97.59900899334833 84.725,97.5223282856507 84.8,97.42879943374298 84.875,97.34324215474395 84.94999999999999,97.25685401201751 85.025,97.16446040058356 85.1,97.04794619717613 85.175,96.9371084631933 85.25,96.83235015899706 85.32499999999999,96.75877922158206 85.4,96.72280403995944 85.475,96.73368784204149 85.55,96.7645048693158 85.625,96.81323133354763 85.69999999999999,96.87921735466482 85.775,96.9815898926337 85.85,97.06701545975619 85.925,97.15385604826784 86.0,97.2255924331248 86.07499999999999,97.28697972819663 86.15,97.3362574354739 86.225,97.38725450082836 86.3,97.45688496313147 86.375,97.50714985519646 86.44999999999999,97.57427938216166 86.525,97.64854968507208 86.6,97.73030624054796 86.675,97.76958033466038 86.75,97.76687383185381 86.82499999999999,97.71545710180263 86.9,97.68413833813703 86.975,97.53851830698054 87.05,97.3673955904305 87.125,97.19843653254371 87.19999999999999,97.03967031014564 87.275,96.86010706818823 87.35,96.6967339211345 87.425,96.5451906877822 87.5,96.40675249238645 87.57499999999999,96.26830609838036 87.65,96.11524095459063 87.725,95.96698018309637 87.8,95.82128607202097 87.875,95.70226282679954 87.94999999999999,95.59225595654411 88.025,95.50047940403552 88.1,95.4297712637818 88.175,95.39397702575604 88.25,95.39588553939319 88.32499999999999,95.4624886461413 88.4,95.50497105956826 88.475,95.65056641477709 88.55,95.81786370515071 88.625,95.99774773175737 88.69999999999999,96.17378172300388 88.775,96.36023900546475 88.85,96.53856819366484 88.925,96.68620384115131 89.0,96.82080834499641 89.07499999999999,96.9822317850696 89.15,97.15462959916916 89.225,97.29255775821568 89.3,97.40253172720753 89.375,97.5445813103039 89.44999999999999,97.7512596112114 89.525,97.93598916339853 89.6,98.11663833399273 89.675,98.30136793825574 89.75,98.48667344949432 89.82499999999999,98.6474881280631 89.9,98.78562194230608 89.975,98.90005477292353 90.05,98.99587066763928 90.125,99.07378540051927 90.19999999999999,99.14197616241438 90.275,99.20400507071537 90.35,99.27476257394723 90.425,99.36096963954897 90.5,99.43422808840039 90.57499999999999,99.39470723481121 90.65,99.33937472028387 90.725,99.29824958292328 90.8,99.26155867864296 90.875,99.19953800086546 90.94999999999999,99.0757761585025 91.025,98.96604898904577 91.1,98.87912615805742 91.175,98.81958160747756 91.25,98.79966486896961 91.32499999999999,98.78767040622141 91.4,98.7805214427487 91.475,98.77797940686926 91.55,98.77688526186296 91.625,98.77393187593285 91.69999999999999,98.76640446781236 91.775,98.75422901086027 91.85,98.73796490507159 91.925,98.71818802230409 92.0,98.7234366190747 92.07499999999999,98.8230532329072 92.15,98.94870721104819 92.225,99.08149369708958 92.3,99.22573167621968 92.375,99.34550357740906 92.44999999999999,99.44288252743503 92.525,99.52199831052644 92.6,99.56884909562078 92.675,99.58663516085161 92.75,99.56740126510225 92.82499999999999,99.5435192847358 92.9,99.51479177478302 92.975,99.4829051960634 93.05,99.45254878380851 93.125,99.42687340416903 93.19999999999999,99.40621629643184 93.275,99.38652170020524 93.35,99.36533805474642 93.425,99.34602189382063 93.5,99.32995523740757 93.57499999999999,99.31552569659505 93.65,99.29907240092975 93.725,99.28410810375608 93.8,99.26724348087338 93.875,99.24911195504562 93.94999999999999,99.22702339398136 94.025,99.20559291293489 94.1,99.19192847338097 94.175,99.1821551690611 94.25,99.17369814228135 94.32499999999999,99.16332426972627 94.4,99.15393762201725 94.475,99.14603185163571 94.55,99.13490946465221 94.625,99.11849726752553 94.69999999999999,99.10584464330753 94.775,99.09394064835192 94.85,99.08981907074504 94.925,99.08207776662299 95.0,99.07360428921145 95.07499999999999,99.06680080462897 95.15,99.06470298855122 95.225,99.06879167824732 95.3,99.07505217180584 95.375,99.07842511213867 95.44999999999999,99.0786472490789 95.525,99.07980719220593 95.6,99.084356499592 95.675,99.08693971612966 95.75,99.08119752429465 95.82499999999999,99.07423778541579 95.9,99.07622869909251 95.975,99.08702208946366 96.05,99.10852656497119 96.125,99.13778056991667 96.19999999999999,99.16650806918722 96.275,99.19906096659331 96.35,99.22821627976559 96.425,99.26422434395786 96.5,99.29733665898469 96.57499999999999,99.32817019564304 96.65,99.3520850812789 96.725,99.3674359869934 96.8,99.37609862130016 96.875,99.38641480982172 96.94999999999999,99.40193846719913 97.025,99.41753624321852 97.1,99.42610015904651 97.175,99.42888892836478 97.25,99.43581577933286 97.32499999999999,99.4461649358819 97.4,99.4462800903044 97.475,99.43561829163473 97.55,99.41177745253579 97.625,99.38357647496353 97.69999999999999,99.34980601582552 97.775,99.31478510971539 97.85,99.27789679785366 97.925,99.23521690754433 98.0,99.19159920837764 98.07499999999999,99.14815419277465 98.15,99.10939015504067 98.225,99.07371114220716 98.3,99.04730361731906 98.375,99.0231254614871 98.44999999999999,98.99980282930689 98.525,98.97896472589699 98.6,98.96549774733562 98.675,98.95717241907964 98.75,98.94090836576741 98.82499999999999,98.91798891026434 98.9,98.89013349076433 98.975,98.86199006503301 99.05,98.83124709230731 99.125,98.80135142058802 99.19999999999999,98.76787717563859 99.275,98.73743856630647 99.35,98.7134660700774 99.425,98.69429794614376 99.5,98.67902922281843 99.57499999999999,98.66507689720828 99.65,98.6603713622314 99.725,98.65754139956974 99.8,98.64630378872926 99.875,98.63117496253801 99.94999999999999,98.61709100516802 100.025,98.60589453425979 100.1,98.59660659034148 100.175,98.59265778442669 100.25,98.59871248485447 100.32499999999999,98.61140621695804 100.4,98.6292580099404 100.475,98.64833570881036 100.55,98.66795615835414 100.625,98.68398994287975 100.69999999999999,98.7041288143221 100.775,98.71388566801019 100.85,98.70972296382384 100.925,98.70204747558171 101.0,98.69386199104869 101.07499999999999,98.68788107811379 101.15,98.6740684092876 101.225,98.66180244702159 101.3,98.65739288988897 101.375,98.65959770183724 101.44999999999999,98.66337377611829 101.525,98.66422109047748 101.6,98.6630776513934 101.675,98.65828154447219 101.75,98.6510256942212 101.82499999999999,98.63631646596276 101.9,98.6148284290695 101.975,98.59367768353898 102.05,98.57890269281175 102.125,98.56701514848793 102.19999999999999,98.55151610296481 102.275,98.53336809178803 102.35,98.5253142123093 102.425,98.52364425953859 102.5,98.52441755940754 102.57499999999999,98.52445054078781 102.65,98.52490302663139 102.725,98.5265648475557 102.8,98.52106946860859 102.875,98.50970835785465 102.94999999999999,98.49722021859004 103.025,98.49265443386662 103.1,98.48433721075146 103.175,98.4755510912193 103.25,98.46837745406889 103.32499999999999,98.47075489082862 103.4,98.4796150382038 103.475,98.48748802749685 103.55,98.49613420983655 103.625,98.50779957716179 103.69999999999999,98.52152170074923 103.775,98.53561389678791 103.85,98.5371769338048 103.925,98.5309164268935 104.0,98.52906539699809 104.07499999999999,98.538246398457 104.15,98.5493935041171 104.225,98.55179567023565 104.3,98.5540826819317 104.375,98.5610095996637 104.44999999999999,98.57091453574343 104.525,98.5737033851784 104.6,98.58446392769714 104.675,98.6013943784773 104.75,98.62670773472466 104.82499999999999,98.64922410969066 104.9,98.67235746346529 104.975,98.69767084641823 105.05,98.7276734619322 105.125,98.7653844829752 105.19999999999999,98.8112891898321 105.275,98.86851384481096 105.35,98.93081433421527 105.425,98.9913625228852 105.5,99.03424810217354 105.57499999999999,99.05849200712149 105.65,99.06706420167652 105.725,99.07389232214831 105.8,99.08174056872976 105.875,99.08386300734404 105.94999999999999,99.08025150614475 106.025,99.07265008580401 106.1,99.06173327563612 106.175,99.04823330234169 106.25,99.03949666823273 106.32499999999999,99.0441776607898 106.4,99.06037594629213 106.475,99.0790997776514 106.55,99.0921555051062 106.625,99.09240229796494 106.69999999999999,99.08355041996984 106.775,99.0715312786034 106.85,99.06322235557974 106.925,99.05436223891596 107.0,99.04835675952623 107.07499999999999,99.04476993427463 107.15,99.05399202225465 107.225,99.0704782258599 107.3,99.08981906807448 107.375,99.10590221784823 107.44999999999999,99.11112620142924 107.525,99.10812344036992 107.6,99.09978980668134 107.675,99.09037854978858 107.75,99.07600658618729 107.82499999999999,99.04361000450038 107.9,98.9935014655424 107.975,98.93441758472837 108.05,98.87762897297297 108.125,98.82963469805395 108.19999999999999,98.78764583843129 108.275,98.74392934734551 108.35,98.70344597957518 108.425,98.66614630844934 108.5,98.64032282238323 108.57499999999999,98.62168941074653 108.65,98.60916019831359 108.725,98.60227446057219 108.8,98.59170319378848 108.875,98.59109441359017 108.94999999999999,98.60080180856062 109.025,98.63234285057244 109.1,98.66897620434708 109.175,98.70955011201504 109.25,98.73787446799041 109.32499999999999,98.76450415518904 109.4,98.79305887342053 109.475,98.82953581266537 109.55,98.86070663534532 109.625,98.87283270047723 109.69999999999999,98.87380344798595 109.775,98.8629854083727 109.85,98.83714543161643 109.925,98.77575809648624 110.0,98.67494039959448 110.07499999999999,98.54471245814891 110.15,98.40056499888726 110.225,98.25444314334463 110.3,98.11162014688064 110.375,97.95955859845206 110.44999999999999,97.79940199055414 110.525,97.63560098019337 110.6,97.48533285774337 110.675,97.36348778170668 110.75,97.26568924309488 110.82499999999999,97.19794269726268 110.9,97.14529208971094 110.975,97.10499797631117 111.05,97.07779237011943 111.125,97.06608583615638 111.19999999999999,97.06287741549417 111.275,97.05915070646127 111.35,97.05971010805865 111.425,97.07905917558912 111.5,97.12170621003438 111.57499999999999,97.16232944289212 111.65,97.19111445661581 111.725,97.1973502341683 111.8,97.20426063450459 111.875,97.20696720407507 111.94999999999999,97.20047642837714 112.025,97.15980383027126 112.1,97.08740098118247 112.175,96.97175068964664 112.25,96.82534910659973 112.32499999999999,96.64853361687396 112.4,96.45556913478895 112.475,96.26082774412106 112.55,96.06952505625479 112.625,95.8943301406988 112.69999999999999,95.71983456393264 112.775,95.55152542617641 112.85,95.38124194555031 112.925,95.23323618555426 113.0,95.10021936796815 113.07499999999999,95.00401678098959 113.15,94.9332264543409 113.225,94.88528158205781 113.3,94.83325621868896 113.375,94.79370247718899 113.44999999999999,94.78058918721099 113.525,94.7977829282164 113.6,94.84335869587794 113.675,94.92052471056601 113.75,95.02365404169036 113.82499999999999,95.12429074157414 113.9,95.23062034816152 113.975,95.32456049256942 114.05,95.40318269528449 114.125,95.4530362814965 114.2,95.49828284958335 114.27499999999999,95.54765100862986 114.35,95.61327496896713 114.425,95.67501604609184 114.5,95.73536677777503 114.575,95.7794123562721 114.64999999999999,95.82132720407508 114.725,95.87425744566158 114.8,95.93203323953414 114.875,95.99704024776835 114.95,96.06221181573156 115.02499999999999,96.1488960831829 115.1,96.22074756905121 115.175,96.27246854232091 115.25,96.30535880319478 115.325,96.34825259711678 115.39999999999999,96.37393618604881 115.475,96.37735029301946 115.55,96.37698824559234 115.625,96.38922127988923 115.7,96.41592495487252 115.77499999999999,96.45357014267698 115.85,96.50896847308425 115.925,96.57062727034445 116.0,96.6243720051433 116.075,96.68155545609653 116.14999999999999,96.74754968917682 116.225,96.80990778516852 116.3,96.87134448554684 116.375,96.91754541727455 116.45,96.96231481021735 116.52499999999999,96.98560449840508 116.6,97.00770959422368 116.675,97.01717842832768 116.75,97.01695626468188 116.825,97.00106229717366 116.89999999999999,96.99203764348063 116.975,97.00695263816424 117.05,97.02219669889469 117.125,97.02265735664301 117.2,97.01019398679558 117.27499999999999,96.99600298014391 117.35,96.97407890803888 117.425,96.93803789718355 117.5,96.90667789223808 117.575,96.8827712385945 117.64999999999999,96.85261227664994 117.725,96.81556760366955 117.8,96.7770503587943 117.875,96.75309433990257 117.95,96.73235499369451 118.02499999999999,96.71345010657501 118.1,96.6957956811157 118.175,96.68050240201775 118.25,96.6673068989392 118.325,96.66492942212112 118.39999999999999,96.67759021290274 118.475,96.70810278331396 118.55,96.7605641952474 118.625,96.8301205909844 118.7,96.90634887960239 118.77499999999999,96.99082846863332 118.85,97.08068004352019 118.925,97.18214766054251 119.0,97.2738749145669 119.075,97.34672205088894 119.14999999999999,97.40417704408893 119.225,97.44736705620534 119.3,97.48233037709255 119.375,97.49662004747657 119.45,97.49675167923641 119.52499999999999,97.4844692796914 119.6,97.46657632007121 119.675,97.44211846344056 119.75,97.41509382755125 119.825,97.39547328453797 119.89999999999999,97.37858398704286 119.975,97.35347623698722 120.05,97.31767381370392 120.125,97.29461454118345 120.2,97.27262462649291 120.27499999999999,97.23882954081255 120.35,97.16868902747211 120.425,97.10211066343562 120.5,97.0570203229396 120.575,97.04044354739003 120.64999999999999,97.03391976360624 120.725,97.03357419351649 120.8,97.04885108874657 120.875,97.08933450458693 120.95,97.15027757918944 121.02499999999999,97.23421421725476 121.1,97.33643039143443 121.175,97.45820139956975 121.25,97.60009480181004 121.325,97.73561251601097 121.39999999999999,97.86801232808288 121.475,97.98095621028165 121.55,98.07565324398506 121.625,98.12134411265795 121.7,98.12920061126084 121.77499999999999,98.11090449098687 121.85,98.10149334091639 121.925,98.07655838925842 122.0,98.03210159837788 122.075,97.95497667021093 122.14999999999999,97.85959681511338 122.225,97.7360160104844 122.3,97.60207785069608 122.375,97.4427685972157 122.45,97.27978208006726 122.52499999999999,97.10236596869514 122.6,96.9174554328528 122.675,96.71897085581465 122.75,96.51661156746866 122.825,96.31681075294874 122.89999999999999,96.12832155040677 122.975,95.93884509631314 123.05,95.7460369753468 123.125,95.56355322815953 123.2,95.41115441507381 123.27499999999999,95.28235789223808 123.35,95.16402553349323 123.425,95.0393670121906 123.5,94.93280709675824 123.575,94.87701395118815 123.64999999999999,94.8699390578868 123.725,94.91117097747336 123.8,94.95373569199575 123.875,95.01551792240548 123.95,95.08497560099899 124.02499999999999,95.1629971820677 124.1,95.2466540659232 124.175,95.32681461635468 124.25,95.39032437674638 124.325,95.41650157810143 124.39999999999999,95.3976543349571 124.475,95.35836381691847 124.55,95.31916379070745 124.625,95.27353048589303 124.7,95.21769606686283 124.77499999999999,95.16234700823422 124.85,95.11803828639252 124.925,95.09612251972008 125.0,95.05217571177765 125.075,94.96880658045053 125.14999999999999,94.85123956331446 125.225,94.73124555723152 125.3,94.60791145866818 125.375,94.47745298138028 125.45,94.32414101134987 125.52499999999999,94.18873026631388 125.6,94.05983495957074 125.675,93.95939569397393 125.75,93.90282099651344 125.825,93.89892979451547 125.89999999999999,93.92487670037833 125.975,93.96543411735615 126.05,94.0336084196731 126.125,94.14479165698178 126.2,94.27465768452808 126.27499999999999,94.40111792388912 126.35,94.50645200019783 126.425,94.59193511782597 126.5,94.68358831730175 126.575,94.77701037363072 126.64999999999999,94.88639183946985 126.725,94.98846002472737 126.8,95.1128718399644 126.875,95.25630373680175 126.95,95.41696214238026 127.02499999999999,95.60197963403476 127.1,95.81189926955318 127.175,96.05097416483272 127.25,96.26723651902772 127.325,96.47166893415098 127.39999999999999,96.6770967567073 127.475,96.88939389708464 127.55,97.07276601844663 127.625,97.22272153883435 127.7,97.33722844469722 127.77499999999999,97.42433235013971 127.85,97.47811823822359 127.925,97.5013667597735 128.0,97.49035128587325 128.075,97.45596389733191 128.14999999999998,97.39478224851018 128.225,97.31822498731485 128.3,97.22510740120175 128.375,97.11790583101308 128.45,97.00902596256275 128.52499999999998,96.86158788289113 128.6,96.652071314557 128.675,96.39192790020029 128.75,96.11433578808635 128.825,95.84288904047872 128.89999999999998,95.54937019445612 128.975,95.23509564105734 129.05,94.92033544818378 129.125,94.62591145421726 129.2,94.37180658341782 129.27499999999998,94.14969500012364 129.35,93.95049463366385 129.425,93.78866801958408 129.5,93.67367544620558 129.575,93.59473242946514 129.64999999999998,93.53225114067406 129.725,93.49505028016122 129.8,93.47488675947677 129.875,93.46330357854653 129.95,93.4324371726713 130.02499999999998,93.3803377013427 130.1,93.35153625034 130.175,93.32733347197151 130.25,93.33638285502337 130.325,93.34811405158132 130.39999999999998,93.39201967953315 130.475,93.4544926762444 130.55,93.5177722212606 130.625,93.56012323780323 130.7,93.58527194085211 130.77499999999998,93.60082853688088 130.85,93.63478827575975 130.925,93.68993986004303 131.0,93.74955056699883 131.075,93.80347631215845 131.14999999999998,93.86155636260231 131.225,93.91238878811107 131.3,93.92444910412699 131.375,93.9142809846443 131.45,93.8989053856235 131.52499999999998,93.90692640389703 131.6,93.90658088721841 131.675,93.91717681659702 131.75,93.92569132711851 131.825,93.92716388566059 131.89999999999998,93.90464749734181 131.975,93.8872399782399 132.05,93.87490824015232 132.125,93.8764137667219 132.2,93.88389186073539 132.27499999999998,93.9166833644074 132.35,93.93955345466235 132.425,93.92590551915136 132.5,93.88542249054177 132.575,93.84034880096931 132.64999999999998,93.79399146806459 132.725,93.75280060829357 132.8,93.76327306446429 132.875,93.81399041566726 132.95,93.89485842338222 133.02499999999998,93.97530685986993 133.1,94.07233203184887 133.175,94.15100355975372 133.25,94.22735517469894 133.325,94.30561537004525 133.39999999999998,94.41674926881136 133.475,94.51813453920526 133.55,94.62229220840237 133.625,94.73377982245741 133.7,94.85991098241884 133.77499999999998,94.98714446823767 133.85,95.12094282436142 133.925,95.26929406097773 134.0,95.43116955960535 134.075,95.60944931579338 134.14999999999998,95.78601815286467 134.225,95.9491856670211 134.3,96.07016691130289 134.375,96.15959066294107 134.45,96.22425219455504 134.52499999999998,96.27491200860513 134.6,96.30748134863134 134.675,96.3483596063401 134.75,96.35325453722707 134.825,96.35242366014688 134.89999999999998,96.32627108132836 134.975,96.32366322890137 135.05,96.33323907222868 135.125,96.35508904972676 135.2,96.37376349447344 135.27499999999998,96.38013095719691 135.35,96.38687677109864 135.425,96.40407868400881 135.5,96.4170439450063 135.575,96.41669836156376 135.64999999999998,96.39590963675478 135.725,96.38072320664672 135.8,96.37403490319231 135.875,96.38398916446181 135.95,96.38455676466953 136.02499999999998,96.36969114858682 136.1,96.35364090007666 136.175,96.35627340174575 136.25,96.41312780000494 136.325,96.50262557948616 136.39999999999998,96.63037743379243 136.475,96.76732657995599 136.55,96.90959013476423 136.625,97.04578248510175 136.7,97.18152233891348 136.77499999999998,97.31666160179026 136.85,97.44894631285082 136.925,97.57559571311293 137.0,97.70676153819144 137.075,97.83283508088326 137.14999999999998,97.96137652545684 137.225,98.07250225231819 137.3,98.17624043040479 137.375,98.25499419811577 137.45,98.34403134655425 137.52499999999998,98.44404281560793 137.6,98.54018779866966 137.675,98.60762999446106 137.75,98.64392599010905 137.825,98.65504844652703 137.89999999999998,98.63518927588339 137.975,98.59394906421701 138.05,98.54131492064984 138.125,98.477533644717 138.2,98.40634012803838 138.27499999999998,98.34136598768576 138.35,98.2849064045894 138.425,98.22670278212705 138.5,98.16983192255384 138.575,98.12224073885413 138.64999999999998,98.09657362725946 138.725,98.0807125743676 138.8,98.08798498207265 138.875,98.1081732588215 138.95,98.1371228189214 139.02499999999998,98.16640151183205 139.1,98.2048281714102 139.175,98.24943309809352 139.25,98.28383699067777 139.325,98.30748042086002 139.39999999999998,98.33012018891719 139.475,98.36393172522935 139.55,98.41213995450163 139.625,98.4772539692886 139.7,98.54472906634356 139.77499999999998,98.60181383620584 139.85,98.65040870873618 139.925,98.69187929601148 140.0,98.72234260799684 140.075,98.73844219504957 140.14999999999998,98.73566151751935 140.225,98.71359764174971 140.3,98.66009144111175 140.375,98.60299021661186 140.45,98.54899047031478 140.52499999999998,98.5062940706214 140.6,98.46650174154942 140.675,98.42568925966222 140.75,98.3722241989565 140.825,98.30177936228085 140.89999999999998,98.23823660715611 140.975,98.1812258878366 141.05,98.122018688707 141.125,98.03282527528992 141.2,97.92707157434288 141.27499999999998,97.81747604065181 141.35,97.71720954674711 141.425,97.6377318577681 141.5,97.5851634900225 141.575,97.55410780841225 141.64999999999998,97.54112627036918 141.725,97.54755956232536 141.8,97.57544796320566 141.875,97.60915259711679 141.95,97.64628772186643 142.02499999999998,97.6863927197646 142.1,97.7362297885809 142.175,97.7955686595287 142.25,97.87137731015554 142.325,97.96358980440642 142.39999999999998,98.0456836645978 142.475,98.11125014119334 142.55,98.16200042036547 142.625,98.22488494992706 142.7,98.2968763863406 142.77499999999998,98.3780653149032 142.85,98.45325694666305 142.925,98.52341380381296 143.0,98.5836823090428 143.075,98.64613913553077 143.14999999999998,98.71205103934126 143.225,98.7850296805717 143.3,98.86000738601913 143.375,98.92814874033778 143.45,98.9879154318637 143.52499999999998,99.03394357053486 143.6,99.0631894142578 143.675,99.07451754363146 143.75,99.07733925427165 143.825,99.07705959353132 143.89999999999998,99.0755705442991 143.975,99.07139964150244 144.05,99.07023963161149 144.125,99.06932650137237 144.2,99.06340335258773 144.27499999999998,99.04583937889765 144.35,99.02379192705423 144.425,98.9960105754556 144.5,98.958916603991 144.575,98.9052211409708 144.64999999999998,98.84589050468584 144.725,98.7859428735689 144.8,98.72770638322494 144.875,98.67428248248065 144.95,98.6218868890977 145.02499999999998,98.57005071600604 145.1,98.52311763902969 145.175,98.48562057367523 145.25,98.459336416508 145.325,98.43265737741402 145.39999999999998,98.40664473578794 145.475,98.39041349026978 145.55,98.37554790089266 145.625,98.35689802527138 145.7,98.34306077396701 145.77499999999998,98.33414308943894 145.85,98.3340444123538 145.925,98.32863119309611 146.0,98.326862456418 146.075,98.33334507356396 146.14999999999998,98.34021430726243 146.225,98.3412837185035 146.3,98.33998383818403 146.375,98.33322153359215 146.45,98.33115664548355 146.52499999999998,98.33644644494449 146.6,98.35273528102668 146.675,98.37270139412972 146.75,98.38981290868179 146.825,98.4095486595287 146.89999999999998,98.43296172745481 146.975,98.45372581637447 147.05,98.47398801414406 147.125,98.49234997700354 147.2,98.50476403501398 147.27499999999998,98.51396964565663 147.35,98.52626850918622 147.425,98.55086624959819 147.5,98.58471066046833 147.575,98.60607530427042 147.64999999999998,98.61217954353255 147.725,98.61468049355852 147.8,98.62442095002596 147.875,98.64041356791375 147.95,98.65313200267056 148.02499999999998,98.66105429044781 148.1,98.66997190821196 148.175,98.68369393832991 148.25,98.70149636606415 148.325,98.71637011399322 148.39999999999998,98.726488854875 148.475,98.73061040577632 148.55,98.73611401003932 148.625,98.7410499206251 148.7,98.75126743206152 148.77499999999998,98.76166590044757 148.85,98.76981032516505 148.925,98.76832954130708 149.0,98.76445477658811 149.075,98.77079755001112 149.14999999999998,98.78703690067012 149.225,98.80182021018274 149.3,98.8114370999728 149.375,98.82394982171559 149.45,98.83978606513192 149.52499999999998,98.85493124848544 149.6,98.86457293439825 149.675,98.86791294676195 149.75,98.8644330906753 149.825,98.86265610197572 149.89999999999998,98.86472099008432 149.975,98.8743379466383 150.05,98.88080417991642 150.125,98.89070086397467 150.2,98.89185252837467 150.27499999999998,98.8975537138053 150.35,98.8984010148117 150.425,98.89989826265423 150.5,98.88827403526125 150.575,98.87985814841375 150.64999999999998,98.87901908607601 150.725,98.88583898123191 150.8,98.88509860933212 150.875,98.87829517816078 150.95,98.86847252194555 151.02499999999998,98.86115081575629 151.1,98.84629354516456 151.175,98.82665651146114 151.25,98.80744728765362 151.325,98.78868235107934 151.39999999999998,98.77240175366583 151.475,98.75196677085137 151.55,98.73645950001236 151.625,98.73274926831681 151.7,98.73822827674884 151.77499999999998,98.74796034766698 151.85,98.75872082342177 151.925,98.78086699240869 152.0,98.80918310971539 152.075,98.83428264780792 152.14999999999998,98.84786480749734 152.225,98.86401370638708 152.3,98.88521383051854 152.375,98.91277312262308 152.45,98.93644953151505 152.52499999999998,98.95914689547736 152.6,98.98911650958186 152.675,99.02894997591554 152.75,99.07459967528004 152.825,99.1237704040454 152.89999999999998,99.17425745174452 152.975,99.22848756697411 153.05,99.28141791137706 153.125,99.32639308276254 153.2,99.36852177409065 153.27499999999998,99.40100062763038 153.35,99.43404709740115 153.425,99.45706526737716 153.5,99.48348109235677 153.575,99.50417113607477 153.64999999999998,99.52551110793502 153.725,99.53437943255607 153.8,99.53776064894538 153.875,99.53151666210034 153.95,99.51806608343018 154.02499999999998,99.50190895388343 154.1,99.48484687668456 154.175,99.47234238292822 154.25,99.45593019648376 154.325,99.43765060295244 154.39999999999998,99.4152329664944 154.475,99.3931937626666 154.55,99.36971488553695 154.625,99.34536394866596 154.7,99.32026441190871 154.77499999999998,99.3014500913924 154.85,99.28298124482579 154.925,99.26850228802454 155.0,99.25042833540219 155.075,99.23495403659652 155.14999999999998,99.2198499090527 155.225,99.20915528389506 155.3,99.2041533731609 155.375,99.20159485927648 155.45,99.20518989649119 155.52499999999998,99.20590555238496 155.6,99.20112588274276 155.675,99.19057103988527 155.75,99.18282151044731 155.825,99.17680777636556 155.89999999999998,99.16625293350808 155.975,99.15016982112213 156.05,99.13460498375412 156.125,99.12416537276526 156.2,99.11984636087139 156.27499999999998,99.11598798002028 156.35,99.1109862134962 156.425,99.10741590564031 156.5,99.10705391162435 156.575,99.11123297297297 156.64999999999998,99.11795412427982 156.725,99.12690469671868 156.8,99.13286078682525 156.875,99.13684253406197 156.95,99.1379860265572 157.02499999999998,99.1360692475458 157.1,99.12650164288716 157.175,99.11360231794465 157.25,99.09972400682476 157.325,99.09005769837542 157.39999999999998,99.08669298335847 157.475,99.08045719245321 157.55,99.07274874953636 157.625,99.05337501941099 157.7,99.0421456338864 157.77499999999998,99.03237236962488 157.85,99.03365567913751 157.925,99.0308338883806 158.0,99.01813195766672 158.075,98.99973720036597 158.14999999999998,98.98268332978907 158.225,98.9716925318365 158.3,98.95881784278332 158.375,98.94049708662001 158.45,98.92955561385722 158.52499999999998,98.92424940382286 158.6,98.93575846344056 158.675,98.94925010459681 158.75,98.96975915531267 158.825,98.98197576568334 158.89999999999998,98.98771805098787 158.975,98.99388799930763 159.05,99.00678743107242 159.125,99.03065294478375 159.2,99.04912181004426 159.27499999999998,99.06788681338246 159.35,99.07803027961722 159.425,99.0893831009619 159.5,99.10491497831408 159.575,99.12433812442818 159.64999999999998,99.1428892615415 159.725,99.15587093578299 159.8,99.1677419627111 159.875,99.18035336153903 159.95,99.19350783150763 160.02499999999998,99.21624630202022 160.1,99.23807986093321 160.175,99.2500743303578 160.25,99.2442827332163 160.325,99.24064651601098 160.39999999999998,99.23999659588041 160.475,99.24020226883609 160.55,99.23190157646943 160.625,99.22247384223931 160.7,99.21155699201306 160.77499999999998,99.19876458282437 160.85,99.18918877020845 160.925,99.18421984886625 161.0,99.18208094893797 161.075,99.17763034801315 161.14999999999998,99.16875375801786 161.225,99.16150610370663 161.3,99.15775474543162 161.375,99.16308561806088 161.45,99.16937072881481 161.52499999999998,99.17384604441038 161.6,99.17409284261022 161.675,99.17940728063104 161.75,99.19368876442225 161.825,99.21027371321183 161.89999999999998,99.22680104339655 161.975,99.2423987846987 162.05,99.26530181093445 162.125,99.29764899399125 162.2,99.33521199540071 162.27499999999998,99.37356466318835 162.35,99.40516325036472 162.425,99.43059184916298 162.5,99.45506616176652 162.575,99.47736036106922 162.64999999999998,99.49947364615119 162.725,99.51009423545412 162.8,99.51648640083084 162.875,99.5176216546574 162.95,99.52059975846295 163.02499999999998,99.52088770060088 163.1,99.51969482816943 163.175,99.5162807946391 163.25,99.5108511768255 163.325,99.50439325565638 163.39999999999998,99.49859345990455 163.475,99.49179006345045 163.55,99.48088156405628 163.625,99.45946753497688 163.7,99.43000791182216 163.77499999999998,99.39594134131204 163.85,99.36487746643257 163.925,99.33363263460349 164.0,99.30400845973146 164.075,99.2737508060137 164.14999999999998,99.24845382962835 164.225,99.23138348438466 164.3,99.21667420271507 164.375,99.20376651892882 164.45,99.18567604490492 164.52499999999998,99.16305269009173 164.6,99.1352301024208 164.675,99.10860039652827 164.75,99.0879597434287 164.825,99.07726510224772 164.89999999999998,99.07663165945452 164.975,99.08467730026459 165.05,99.09109406948394 165.125,99.09617823070646 165.2,99.10336827575975 165.27499999999998,99.11882613995698 165.35,99.13868530793007 165.425,99.1645581418857 165.5,99.19089987225836 165.575,99.21856612952202 165.64999999999998,99.24151028233723 165.725,99.26276799436216 165.8,99.27974782374324 165.875,99.28321133602037 165.95,99.27328179075691 166.02499999999998,99.25907441359017 166.1,99.2490379392201 166.175,99.24610925941495 166.25,99.23525009322222 166.325,99.21002710862739 166.39999999999998,99.16422929749511 166.475,99.10312171657476 166.55,99.03783506629411 166.625,98.9701543817413 166.7,98.89447736554487 166.77499999999998,98.80431317657822 166.85,98.70579893133207 166.925,98.60262021225984 167.0,98.49265445923692 167.075,98.38205527944413 167.14999999999998,98.27857217160802 167.225,98.19688971340966 167.3,98.1313973180683 167.375,98.08519642639895 167.45,98.05412436092085 167.52499999999998,98.0285723770431 167.6,98.00838412699983 167.675,97.98173793575826 167.75,97.96454412798892 167.825,97.95395645063178 167.89999999999998,97.95897466778764 167.975,97.96981739670137 168.05,97.98207505353479 168.125,98.00482172399298 168.2,98.04444130807843 168.27499999999998,98.10053071190129 168.35,98.15823255804753 168.425,98.21654303751144 168.5,98.28309675230582 168.575,98.35037441507382 168.64999999999998,98.41726531440864 168.725,98.46649357632106 168.8,98.51108203901981 168.875,98.54337173165847 168.95,98.57583406246137 169.02499999999998,98.60864192329566 169.1,98.64226433075345 169.175,98.6802797111842 169.25,98.71510320170124 169.325,98.74857747335625 169.39999999999998,98.77441742340694 169.475,98.79892461858016 169.55,98.8305478202814 169.625,98.85719390470068 169.7,98.87362254444747 169.77499999999998,98.87865718552953 169.85,98.88473666872729 169.925,98.88949994114884 170.0,98.88934364679409 170.075,98.88583079597439 170.14999999999998,98.88026960114735 170.225,98.87539947973592 170.3,98.86869475235528 170.375,98.86810239608319 170.45,98.86291140723523 170.52499999999998,98.85312995771618 170.6,98.83512181696793 170.675,98.80778468583863 170.75,98.77703342103311 170.825,98.74773827749067 170.89999999999998,98.72713881506392 170.975,98.71328515318612 171.05,98.68862980885734 171.125,98.65863543334734 171.2,98.62788415518904 171.27499999999998,98.60767957468906 171.35,98.59167870477981 171.425,98.5787217625677 171.5,98.5710215850251 171.575,98.56550151677753 171.64999999999998,98.5513598887268 171.725,98.53004455676171 171.8,98.50464885388591 171.875,98.48464981281373 171.95,98.46622208748548 172.02499999999998,98.44946432828071 172.1,98.43501825671967 172.175,98.43555294231102 172.25,98.43925497539625 172.325,98.44186284117603 172.39999999999998,98.43199903167577 172.475,98.42112337479291 172.55,98.41855670235653 172.625,98.42330348408792 172.7,98.43501828342524 172.77499999999998,98.44526043075098 172.85,98.4504185717465 172.925,98.4554862342672 173.0,98.46391853168814 173.075,98.4890674350288 173.14999999999998,98.53239726416261 173.225,98.58863472767736 173.3,98.65495803882199 173.375,98.72433341752182 173.45,98.79916312202963 173.52499999999998,98.87738218946119 173.6,98.9583160597908 173.675,99.03263570257907 173.75,99.10710339691403 173.825,99.17986818607353 173.89999999999998,99.2597819316288 173.975,99.34032088037388 174.05,99.4200207564996 174.125,99.49397018743355 174.2,99.55733190549195 174.27499999999998,99.61210498904578 174.35,99.66394112207908 174.425,99.70444088707005 174.5,99.73367844004846 174.575,99.74004582265523 174.64999999999998,99.73515918384807 174.725,99.71942162686382 174.8,99.6996529894414 174.875,99.67122172438862 174.95,99.64057741539527 175.02499999999998,99.60912693331025 175.1,99.58034185148735 175.175,99.55457595732054 175.25,99.52904041085532 175.325,99.50769223958359 175.39999999999998,99.48912467053238 175.475,99.47388067616528 175.55,99.45825825677902 175.625,99.44055448262901 175.7,99.42341012957148 175.77499999999998,99.40844583640364 175.85,99.39447696669222 175.925,99.3912603407433 176.0,99.39382705323806 176.075,99.40315611038302 176.14999999999998,99.40926851086769 176.225,99.41110303672016 176.3,99.40799334655424 176.375,99.40174107831162 176.45,99.39532433045672 176.52499999999998,99.38574855389332 176.6,99.37265169585322 176.675,99.35845250127346 176.75,99.34640045330234 176.825,99.3302680103855 176.89999999999998,99.30706881936648 176.975,99.27622705605697 177.05,99.24139539096461 177.125,99.21335067035929 177.2,99.18591474597562 177.27499999999998,99.16476401646844 177.35,99.14534087569545 177.425,99.12896977443684 177.5,99.11283732617888 177.575,99.09816098583121 177.64999999999998,99.08813269404811 177.725,99.08827248435993 177.8,99.09227065552287 177.875,99.10373853514997 177.95,99.11281251403278 178.025,99.12165614401226 178.1,99.12971827551247 178.17499999999998,99.13430874953636 178.25,99.14063503226923 178.325,99.14314412482382 178.4,99.14812950748004 178.475,99.15651247971118 178.54999999999998,99.169485939319 178.625,99.17869159002002 178.7,99.18554439979229 178.775,99.18853892218293 178.85,99.19111385999356 178.92499999999998,99.18867060735393 179.0,99.18832506396973 179.075,99.19187898795776 179.15,99.19712762078089 179.225,99.19334346806458 179.29999999999998,99.18913966400436 179.375,99.18162876219678 179.45,99.17436461986598 179.525,99.16741303953908 179.6,99.16502732405232 179.67499999999998,99.16911598704286 179.75,99.16762693781064 179.825,99.16775857224104 179.9,99.16755291263816 179.975,99.16974943517717 180.04999999999998,99.17780330263841 180.125,99.18885996187038 180.2,99.20945952978413 180.275,99.22612671170347 180.35,99.24260472070424 180.42499999999998,99.25538895798817 180.5,99.2652774007072 180.575,99.27414570663436 180.65,99.28147563546895 180.725,99.29407882767488 180.79999999999998,99.29936032170322 180.875,99.30506142701714 180.95,99.30941335352736 181.025,99.31578081625084 181.1,99.3140037741401 181.17499999999998,99.30850835513463 181.25,99.30724148290102 181.325,99.31033469572958 181.4,99.31092698523776 181.475,99.30521771870131 181.54999999999998,99.2975258051977 181.625,99.28759624124032 181.7,99.27455696708786 181.775,99.25364480111767 181.85,99.23135870428526 181.92499999999998,99.2101091882001 182.0,99.19484871956678 182.075,99.18231950713385 182.15,99.17635520773473 182.225,99.17532682960362 182.29999999999998,99.18138983679928 182.375,99.18297753641107 182.45,99.18386596399694 182.525,99.18297748299993 182.6,99.1876749929527 182.67499999999998,99.19117129967113 182.75,99.19177184921243 182.825,99.19210092327094 182.9,99.1956301766524 182.975,99.20288605360896 183.04999999999998,99.20263104211072 183.125,99.20081294018446 183.2,99.19428923651739 183.275,99.19981755678643 183.35,99.20850506599737 183.42499999999998,99.22402057550505 183.5,99.23147396686531 183.575,99.23889443025642 183.65,99.23888619158774 183.725,99.23774269375139 183.79999999999998,99.2319840499493 183.875,99.23096396389802 183.95,99.23043747691699 184.025,99.23304530263842 184.1,99.23492919373902 184.17499999999998,99.23772624712544 184.25,99.2404821418857 184.325,99.23804703978635 184.4,99.23639349224797 184.475,99.2316714131698 184.54999999999998,99.2320826923172 184.625,99.23677181672065 184.7,99.24606791117925 184.775,99.2530770179768 184.85,99.25614551479934 184.92499999999998,99.25909069864741 185.0,99.26803305511733 185.075,99.2778310100146 185.15,99.28600005860389 185.225,99.28670751588734 185.29999999999998,99.28855032046685 185.375,99.28615633960584 185.45,99.28714355109913 185.525,99.27990412477436 185.6,99.27647364728864 185.67499999999998,99.26956328166959 185.75,99.26081838752751 185.825,99.25294550505674 185.9,99.24536870725254 185.975,99.25046099498034 186.04999999999998,99.25591530610025 186.125,99.26298207556688 186.2,99.26708720521253 186.275,99.27120878014885 186.35,99.27666300581093 186.42499999999998,99.2807104928167 186.5,99.28117119997033 186.575,99.27702498647412 186.65,99.27180104161619 186.725,99.26791818510917 186.79999999999998,99.2576019298237 186.875,99.25097124363889 186.95,99.24480128196632 187.025,99.25471438728023 187.1,99.26354978793799 187.17499999999998,99.27700036527287 187.25,99.29045094127247 187.325,99.30072602992013 187.4,99.30728271496749 187.475,99.30451036690488 187.54999999999998,99.2983321879281 187.625,99.28787613431913 187.7,99.2795590100146 187.775,99.27296949046759 187.85,99.26623191523454 187.92499999999998,99.25190929952277 188.0,99.23837644632923 188.075,99.22888285482554 188.15,99.22589661116194 188.225,99.22620093449717 188.29999999999998,99.23398333849312 188.375,99.24444763344131 188.45,99.25302799723053 188.525,99.24836352473974 188.6,99.23859846309439 188.67499999999998,99.23016618303207 188.75,99.22541118533172 188.825,99.22773931559556 188.9,99.23432885517173 188.975,99.24470264093371 189.04999999999998,99.25431132410178 189.125,99.26128750293019 189.2,99.2657545104226 189.275,99.26786052511065 189.35,99.27277179980713 189.42499999999998,99.28680645869291 189.5,99.30612263964788 189.575,99.32280631225736 189.65,99.33778703469251 189.725,99.35159958200836 189.79999999999998,99.36298528725798 189.875,99.36855475814149 189.95,99.37294778986671 190.025,99.38552631814248 190.1,99.40131329512128 190.17499999999998,99.41454172349843 190.25,99.4252692833016 190.325,99.43510836077249 190.4,99.44617322796172 190.475,99.45391451472516 190.54999999999998,99.4577810501224 190.625,99.46212472594644 190.7,99.46731576553498 190.775,99.47597839850647 190.85,99.4778376083183 190.92499999999998,99.46834407156103 191.0,99.45027835226627 191.075,99.43459010311318 191.15,99.42219251709898 191.225,99.40428302806558 191.29999999999998,99.38670265849015 191.375,99.36921278474816 191.45,99.35727593926956 191.525,99.34333172814718 191.6,99.33367362631982 191.67499999999998,99.32962610593209 191.75,99.32789849983928 191.825,99.32339852164883 191.9,99.31320567948369 191.975,99.30332545807472 192.04999999999998,99.30329255681116 192.125,99.30697809920625 192.2,99.3132468220865 192.275,99.31423402423283 192.35,99.32216453999654 192.42499999999998,99.33429062115181 192.5,99.34717354887367 192.575,99.35661775109419 192.65,99.36634990346431 192.725,99.39158934403204 192.79999999999998,99.42404350560075 192.875,99.46225633634184 192.95,99.49698924556762 193.025,99.53035658143963 193.1,99.55891952231646 193.17499999999998,99.58175669394922 193.25,99.60220816331446 193.325,99.62305450272248 193.4,99.64684599660245 193.475,99.66951865390568 193.54999999999998,99.68880192291486 193.625,99.70597918124182 193.7,99.72306593705892 193.775,99.74316365121041 193.85,99.7620438330061 193.92499999999998,99.78091578147425 194.0,99.80061038571252 194.075,99.81914505617071 194.15,99.83268613868599 194.225,99.83786070360773 194.29999999999998,99.83771262255136 194.375,99.8343067849608 194.45,99.82718251439381 194.525,99.81944124098317 194.6,99.80899339533147 194.67499999999998,99.79641485904403 194.75,99.7808006699142 194.825,99.76570475967459 194.9,99.75009056907594 194.975,99.73617107529488 195.04999999999998,99.72229271343438 195.125,99.70762458638511 195.2,99.6910807868747 195.275,99.6776466548305 195.35,99.66951870611508 195.42499999999998,99.66336517370985 195.5,99.65522079439182 195.575,99.64443564268934 195.65,99.63479400484657 195.725,99.62488911149576 195.79999999999998,99.61472919596449 195.875,99.6016817165253 195.95,99.58608397121733 196.025,99.55956944111175 196.1,99.52514084720951 196.17499999999998,99.48897640587522 196.25,99.45987047130387 196.325,99.43993729418165 196.4,99.42682405227369 196.475,99.41731403684379 196.54999999999998,99.41066690403304 196.625,99.40551701906482 196.7,99.40683328191686 196.775,99.40788630261369 196.85,99.41160475428401 196.92499999999998,99.4168122218046 197.0,99.42605074305779 197.075,99.43643279285874 197.15,99.44604974807744 197.225,99.45787144180412 197.29999999999998,99.46769407131377 197.375,99.47624156455083 197.45,99.48615468855864 197.525,99.50639227447392 197.6,99.53393516802255 197.67499999999998,99.56147808427092 197.75,99.58204474958582 197.825,99.59460685260008 197.9,99.60045595618308 197.975,99.59845688528968 198.04999999999998,99.5919249202542 198.125,99.58217630122896 198.2,99.56828970470562 198.275,99.5503061678 198.35,99.52879345095324 198.42499999999998,99.50371037818056 198.5,99.4785038629114 198.575,99.45465477446156 198.65,99.43487789837046 198.725,99.4102226341584 198.79999999999998,99.38708924433125 198.875,99.36630046344057 198.95,99.35015156588611 199.025,99.3331470765807 199.1,99.31998443871319 199.17499999999998,99.3105978390742 199.25,99.3052093518459 199.325,99.30269198724068 199.4,99.3038437184046 199.475,99.30881261170595 199.54999999999998,99.31827326455824 199.625,99.33303190880542 199.7,99.34809491911673 199.775,99.36256565994906 199.85,99.37129416087633 199.92499999999998,100.0" opacity="1" fill="#4E70A7" stroke="black" stroke-width="0"/>
<line x1="40" y1="100.0" x2="40" y2="70.0" stroke="black" stroke-width="1" />
<line x1="39.5" y1="100.0" x2="43.5" y2="100.0" stroke="black" stroke-width="1" />
<line x1="39.5" y1="70.0" x2="43.5" y2="70.0" stroke="black" stroke-width="1" />
<text text-anchor="end" font-family="Arial" x="36" y="104.0" font-size="8" >0</text>
<text text-anchor="end" font-family="Arial" x="36" y="74.0" font-size="8" >4448.5</text>
<text text-anchor="start" font-family="Arial" x="39.5" y="66" font-size="7" >ChrIV: 424,000-474,000</text>
</svg>
