<svg viewBox="0 0 320 210" xmlns="http://www.w3.org/2000/svg">
<polygon points="50.0,100.0 50.075,100.16455372023441 50.15,100.16424570485398 50.225,100.16393768947356 50.3,100.16889714769664 50.375,100.17385660591974 50.45,100.18318352661902 50.525,100.19251044731831 50.6,100.20595222917336 50.675,100.21939401102841 50.75,100.22957788012165 50.825,100.2397617492149 50.9,100.2471501792735 50.975,100.25453860933212 51.05,100.26097648797013 51.125,100.26741436660815 51.2,100.26820645384635 51.275,100.26899854108454 51.35,100.2705950335056 51.425,100.27219152592666 51.5,100.26791486239213 51.575,100.26363819885759 51.65,100.26080056502065 51.725,100.2579629311837 51.8,100.25707310155535 51.875,100.256183271927 51.95,100.24269378724561 52.025,100.22920430256423 52.1,100.2106771056601 52.175,100.19214990875597 52.25,100.17740389357336 52.325,100.16265787839075 52.4,100.1570880977226 52.475,100.15151831705447 52.55,100.14654520560816 52.625,100.14157209416186 52.7,100.14713469770777 52.775,100.15269730125368 52.85,100.15644315818105 52.925,100.16018901510843 53.0,100.16754246086892 53.075,100.17489590662942 53.15,100.175465102495 53.225,100.17603429836058 53.3,100.17691424692762 53.375,100.17779419549467 53.45,100.18237914146535 53.525,100.18696408743602 53.6,100.1954156395737 53.675,100.20386719171138 53.75,100.20488427338591 53.825,100.20590135506046 53.9,100.19944635147499 53.975,100.19299134788952 54.05,100.18634027200119 54.125,100.17968919611286 54.2,100.16791320763582 54.275,100.15613721915878 54.35,100.15031847580426 54.425,100.14449973244975 54.5,100.139247247348 54.575,100.13399476224623 54.65,100.13029601394624 54.725,100.12659726564625 54.8,100.11922332335996 54.875,100.11184938107367 54.95,100.11679765633886 55.025,100.12174593160407 55.1,100.12745968868228 55.175,100.13317344576049 55.25,100.14044493879973 55.325,100.14771643183897 55.4,100.1589507645706 55.475,100.17018509730224 55.55,100.1807759793279 55.625,100.19136686135357 55.7,100.20255589476027 55.775,100.21374492816696 55.85,100.21968034148513 55.925,100.2256157548033 56.0,100.22663537350708 56.075,100.22765499221087 56.15,100.23254003536016 56.225,100.23742507850943 56.3,100.23776337133107 56.375,100.23810166415272 56.45,100.22692181078608 56.525,100.21574195741945 56.6,100.20900938280458 56.675,100.20227680818971 56.75,100.20271561410449 56.825,100.20315442001929 56.9,100.19795868425608 56.975,100.19276294849287 57.05,100.18042248769812 57.125,100.16808202690339 57.2,100.1638684886625 57.275,100.1596549504216 57.35,100.15395738359585 57.425,100.1482598167701 57.5,100.14273757869489 57.575,100.13721534061966 57.65,100.13800959768551 57.725,100.13880385475137 57.8,100.14169206226354 57.875,100.14458026977572 57.95,100.15376321406494 58.025,100.16294615835415 58.1,100.16509839370936 58.175,100.16725062906457 58.25,100.16524697683045 58.325,100.16324332459632 58.4,100.16312054573329 58.475,100.16299776687026 58.55,100.17206889827156 58.625,100.18114002967286 58.7,100.17929884745679 58.775,100.17745766524072 58.85,100.17253066096288 58.925,100.16760365668505 59.0,100.16717466172943 59.075,100.16674566677382 59.15,100.16053754284019 59.225,100.15432941890656 59.3,100.14813297532207 59.375,100.1419365317376 59.45,100.13207335649464 59.525,100.1222101812517 59.6,100.11281582230905 59.675,100.10342146336639 59.75,100.09703933260799 59.825,100.09065720184961 59.9,100.08625038203803 59.975,100.08184356222645 60.05,100.07421849744071 60.125,100.06659343265498 60.2,100.0601678886526 60.275,100.05374234465023 60.35,100.05089349313815 60.425,100.04804464162608 60.5,100.04530374538216 60.575,100.04256284913825 60.65,100.03746079651839 60.725,100.03235874389851 60.8,100.02849410392918 60.875,100.02462946395984 60.95,100.0192650558097 61.025,100.01390064765955 61.1,100.00901803805544 61.175,100.00413542845132 61.25,99.99977610115971 61.325,99.9954167738681 61.4,99.98929018204298 61.475,99.98316359021784 61.55,99.97578496444203 61.625,99.9684063386662 61.7,99.9612080355827 61.775,99.9540097324992 61.85,99.95038301045969 61.925,99.94675628842016 62.0,99.94889891310798 62.075,99.9510415377958 62.15,99.95580289409263 62.225,99.96056425038945 62.3,99.95700135332955 62.375,99.95343845626962 62.45,99.96021085556737 62.525,99.96698325486511 62.6,99.97079228715907 62.675,99.97460131945303 62.75,99.98073272829554 62.825,99.98686413713806 62.9,99.991547626666 62.975,99.99623111619397 63.05,99.99925826945427 63.125,100.00228542271458 63.2,100.00700839642937 63.275,100.01173137014416 63.35,100.01848414084716 63.425,100.02523691155017 63.5,100.02397969338048 63.575,100.0227224752108 63.65,100.01858178976781 63.725,100.01444110432482 63.8,100.01959066949384 63.875,100.02474023466284 63.95,100.03046540837269 64.025,100.03619058208254 64.1,100.04556188744097 64.175,100.05493319279938 64.25,100.05413292698005 64.325,100.05333266116071 64.4,100.05409851017532 64.475,100.05486435918993 64.55,100.06447611817215 64.625,100.07408787715437 64.7,100.08818902623575 64.775,100.10229017531712 64.85,100.11358666526544 64.925,100.12488315521377 65.0,100.14592923159665 65.075,100.16697530797953 65.15,100.2034410308845 65.225,100.23990675378947 65.3,100.27509541962365 65.375,100.31028408545782 65.45,100.34245812294454 65.525,100.37463216043125 65.6,100.39963658663238 65.675,100.4246410128335 65.75,100.45383651121386 65.825,100.48303200959423 65.9,100.51504601394625 65.975,100.54706001829827 66.05,100.56893688830642 66.125,100.59081375831458 66.2,100.6084733513019 66.275,100.62613294428921 66.35,100.63735232190105 66.425,100.64857169951287 66.5,100.65424406295591 66.575,100.65991642639895 66.65,100.64981247372715 66.725,100.63970852105537 66.8,100.63660897233007 66.875,100.63350942360476 66.95,100.62920648846467 67.025,100.6249035533246 67.1,100.63019559605351 67.175,100.63548763878242 67.25,100.65120453500161 67.325,100.66692143122079 67.4,100.67612817685023 67.475,100.68533492247967 67.55,100.69888916817092 67.625,100.71244341386218 67.7,100.71385116465963 67.775,100.71525891545708 67.85,100.73020916149453 67.925,100.74515940753196 68.0,100.76258566059197 68.075,100.78001191365199 68.15,100.79310288444896 68.225,100.80619385524591 68.3,100.8243016010979 68.375,100.84240934694988 68.45,100.8604746643258 68.525,100.87853998170173 68.6,100.8728687198635 68.675,100.86719745802527 68.75,100.8457526507752 68.825,100.82430784352513 68.9,100.81323738285404 68.975,100.80216692218293 69.05,100.78334360055389 69.125,100.76452027892485 69.2,100.75633351920081 69.275,100.74814675947677 69.35,100.74661853317178 69.425,100.7450903068668 69.5,100.73997585618555 69.575,100.73486140550432 69.65,100.73642969016592 69.725,100.73799797482752 69.8,100.72226572290498 69.875,100.70653347098242 69.95,100.69528508444401 70.025,100.6840366979056 70.1,100.6872937761183 70.175,100.69055085433101 70.25,100.69277519472813 70.325,100.69499953512525 70.4,100.6871353119359 70.475,100.67927108874657 70.55,100.68486417002546 70.625,100.69045725130437 70.7,100.68778038500531 70.775,100.68510351870626 70.85,100.66530490962143 70.925,100.64550630053658 71.0,100.63250255681116 71.075,100.61949881308573 71.15,100.60952094409139 71.225,100.59954307509706 71.3,100.58525659602878 71.375,100.57097011696051 71.45,100.54377339704754 71.525,100.5165766771346 71.6,100.49431411191613 71.675,100.47205154669766 71.75,100.45974571969042 71.825,100.44743989268316 71.9,100.4403484953389 71.975,100.43325709799461 72.05,100.4300083318909 72.125,100.4267595657872 72.2,100.42749567147202 72.275,100.42823177715684 72.35,100.43295031774684 72.425,100.43766885833683 72.5,100.43222836601468 72.575,100.42678787369255 72.65,100.41072894587177 72.725,100.39467001805099 72.8,100.39379317400657 72.875,100.39291632996216 72.95,100.41039355728098 73.025,100.42787078459979 73.1,100.45985651442842 73.175,100.49184224425707 73.25,100.53114753715289 73.325,100.57045283004871 73.4,100.60812921663658 73.475,100.64580560322445 73.55,100.69964269924087 73.625,100.75347979525729 73.7,100.81878763507332 73.775,100.88409547488935 73.85,100.94471989194135 73.925,101.00534430899334 74.0,101.07908977399174 74.075,101.15283523899014 74.15,101.21648249301451 74.225,101.2801297470389 74.3,101.29897743750155 74.375,101.3178251279642 74.45,101.30753093148043 74.525,101.29723673499666 74.6,101.26877724215524 74.675,101.24031774931382 74.75,101.22479713904207 74.825,101.2092765287703 74.9,101.19895449172868 74.975,101.18863245468708 75.05,101.17048368240152 75.125,101.15233491011597 75.2,101.1324138893697 75.275,101.11249286862342 75.35,101.085797979773 75.425,101.05910309092258 75.5,101.04644431641157 75.575,101.03378554190054 75.65,101.01733491011598 75.725,101.0008842783314 75.8,101.01979482703197 75.875,101.03870537573255 75.95,101.07944258796766 76.025,101.12017980020276 76.1,101.16701406122499 76.175,101.21384832224723 76.25,101.24217225093346 76.325,101.2704961796197 76.4,101.30203078558888 76.475,101.33356539155807 76.55,101.34476236987216 76.625,101.35595934818625 76.7,101.35211174303306 76.775,101.34826413787988 76.85,101.35594432630252 76.925,101.36362451472516 77.0,101.36244746667985 77.075,101.36127041863455 77.15,101.36530129076927 77.225,101.36933216290399 77.3,101.37508287381618 77.375,101.38083358472836 77.45,101.37331763556786 77.525,101.36580168640737 77.6,101.3440957320541 77.675,101.32238977770085 77.75,101.28675686802997 77.825,101.25112395835909 77.9,101.20863873296902 77.975,101.16615350757894 78.05,101.1239933891348 78.125,101.08183327069064 78.2,101.05067317697386 78.275,101.0195130832571 78.35,100.99201068470117 78.425,100.96450828614525 78.5,100.93159266833165 78.575,100.89867705051805 78.65,100.8874526989936 78.725,100.87622834746915 78.8,100.88394358695383 78.875,100.89165882643852 78.95,100.91464564674465 79.025,100.93763246705076 79.1,100.97442973962069 79.175,101.0112270121906 79.25,101.06438511906234 79.325,101.11754322593407 79.4,101.1585309364259 79.475,101.19951864691774 79.55,101.23663141242798 79.625,101.27374417793823 79.7,101.29753653841398 79.775,101.32132889888975 79.85,101.32970176306223 79.925,101.33807462723473 80.0,101.32566521599367 80.075,101.3132558047526 80.15,101.28430876832917 80.225,101.25536173190574 80.3,101.19963478276996 80.375,101.14390783363419 80.45,101.07590490096685 80.525,101.00790196829949 80.6,100.93198500655275 80.675,100.85606804480601 80.75,100.77621104324818 80.825,100.69635404169037 80.9,100.63773644815905 80.975,100.57911885462772 81.05,100.58274013006603 81.125,100.58636140550432 81.2,100.65862367646695 81.275,100.73088594742958 81.35,100.83068099453524 81.425,100.93047604164092 81.5,101.07809342251676 81.575,101.2257108033926 81.65,101.39803637892238 81.725,101.57036195445217 81.8,101.77232961227467 81.875,101.97429727009718 81.95,102.21636043866373 82.025,102.45842360723029 82.1,102.69198655943227 82.175,102.92554951163423 82.25,103.12065507282213 82.32499999999999,103.31576063401003 82.4,103.47154310971538 82.475,103.62732558542073 82.55,103.70791131524938 82.625,103.78849704507802 82.69999999999999,103.8241776909572 82.775,103.85985833683638 82.85,103.87661508122945 82.925,103.89337182562251 83.0,103.87944086446923 83.07499999999999,103.86550990331594 83.15,103.84394181647338 83.225,103.82237372963083 83.3,103.78738676096042 83.375,103.75239979229 83.44999999999999,103.64198126900918 83.525,103.53156274572835 83.6,103.45183860438664 83.675,103.37211446304492 83.75,103.35930012858238 83.82499999999999,103.34648579411983 83.9,103.3819694864123 83.975,103.41745317870478 84.05,103.5145155782498 84.125,103.61157797779481 84.19999999999999,103.73115417521822 84.275,103.85073037264162 84.35,103.9866096535694 84.425,104.12248893449717 84.5,104.25948350683713 84.57499999999999,104.39647807917707 84.65,104.54761058084617 84.725,104.69874308251526 84.8,104.80681919339284 84.875,104.91489530427042 84.94999999999999,105.06405426423679 85.025,105.21321322420316 85.1,105.3777315595559 85.175,105.54224989490864 85.25,105.65879901585025 85.32499999999999,105.77534813679188 85.4,105.78923069409757 85.475,105.80311325140327 85.55,105.72308132835488 85.625,105.6430494053065 85.69999999999999,105.4975020400089 85.775,105.35195467471131 85.85,105.19565364357953 85.925,105.03935261244776 86.0,104.89460407754507 86.07499999999999,104.74985554264236 86.15,104.59153890853342 86.225,104.43322227442447 86.3,104.30291210652555 86.375,104.17260193862664 86.44999999999999,104.02699315051557 86.525,103.88138436240449 86.6,103.75529000272002 86.675,103.62919564303553 86.75,103.60394752849831 86.82499999999999,103.57869941396108 86.9,103.64501635716229 86.975,103.71133330036349 87.05,103.8913341905492 87.125,104.0713350807349 87.19999999999999,104.25004475655894 87.275,104.42875443238297 87.35,104.59734870552163 87.425,104.76594297866028 87.5,104.9588863900497 87.57499999999999,105.15182980143913 87.65,105.32713184639351 87.725,105.50243389134789 87.8,105.65249015850252 87.875,105.80254642565713 87.94999999999999,105.93675760985138 88.025,106.07096879404564 88.1,106.17907661778888 88.175,106.2871844415321 88.25,106.28358252763284 88.32499999999999,106.27998061373358 88.4,106.2313871565985 88.475,106.18279369946342 88.55,106.05590551667862 88.625,105.92901733389382 88.69999999999999,105.78895896491184 88.775,105.64890059592987 88.85,105.5142738062857 88.925,105.37964701664153 89.0,105.21591415889814 89.07499999999999,105.05218130115477 89.15,104.9037327093791 89.225,104.75528411760342 89.3,104.6781914764719 89.375,104.60109883534037 89.44999999999999,104.32077220160234 89.525,104.0404455678643 89.6,103.73255348705521 89.675,103.42466140624613 89.75,103.1454350820949 89.82499999999999,102.86620875794367 89.9,102.62396597438243 89.975,102.38172319082119 90.05,102.15598394278084 90.125,101.93024469474048 90.19999999999999,101.75126771951732 90.275,101.57229074429415 90.35,101.39495458272545 90.425,101.21761842115674 90.5,101.17013057466433 90.57499999999999,101.12264272817191 90.65,101.2218829670384 90.725,101.3211232059049 90.8,101.4246727224846 90.875,101.52822223906432 90.94999999999999,101.85367728208996 91.025,102.1791323251156 91.1,102.3566885339136 91.175,102.5342447427116 91.25,102.5717215552286 91.32499999999999,102.6091983677456 91.4,102.63039606834649 91.475,102.65159376894735 91.55,102.67396822383225 91.625,102.69634267871714 91.69999999999999,102.72145851054623 91.775,102.74657434237531 91.85,102.78635644988996 91.925,102.82613855740462 92.0,102.73868715907123 92.07499999999999,102.65123576073786 92.15,102.42725079498528 92.225,102.2032658292327 92.3,101.95472509087313 92.375,101.70618435251353 92.44999999999999,101.48790269528449 92.525,101.26962103805543 92.6,101.2017972330061 92.675,101.13397342795678 92.75,101.20858745827255 92.82499999999999,101.28320148858832 92.9,101.37533777849212 92.975,101.46747406839593 93.05,101.55895920971291 93.125,101.65044435102989 93.19999999999999,101.74092783313964 93.275,101.83141131524937 93.35,101.92530142676986 93.425,102.01919153829034 93.5,102.12834221458421 93.57499999999999,102.23749289087807 93.65,102.32843537499073 93.725,102.41937785910339 93.8,102.46892437130634 93.875,102.51847088350931 93.94999999999999,102.54813609950298 94.025,102.57780131549664 94.1,102.59117212729656 94.175,102.60454293909646 94.25,102.63151189387008 94.32499999999999,102.6584808486437 94.4,102.6673203926708 94.475,102.6761599366979 94.55,102.69178570015578 94.625,102.70741146361365 94.69999999999999,102.72872451225241 94.775,102.75003756089117 94.85,102.7666838109839 94.925,102.78333006107663 95.0,102.76406065626468 95.07499999999999,102.74479125145274 95.15,102.7238487426127 95.225,102.70290623377265 95.3,102.7154992458149 95.375,102.72809225785713 95.44999999999999,102.75748474320615 95.525,102.78687722855518 95.6,102.83736310922085 95.675,102.8878489898865 95.75,102.90629986894488 95.82499999999999,102.92475074800326 95.9,102.95499881308572 95.975,102.9852468781682 96.05,102.96553082267995 96.125,102.9458147671917 96.19999999999999,102.87629015108429 96.275,102.80676553497688 96.35,102.70400917385821 96.425,102.60125281273955 96.5,102.51459957716179 96.57499999999999,102.42794634158403 96.65,102.37922603298632 96.725,102.33050572438862 96.8,102.29101953463069 96.875,102.25153334487278 96.94999999999999,102.20675277564847 97.025,102.16197220642417 97.1,102.15480643406444 97.175,102.1476406617047 97.25,102.17926005786207 97.32499999999999,102.21087945401943 97.4,102.25916546326748 97.475,102.30745147251551 97.55,102.41887345762963 97.625,102.53029544274375 97.69999999999999,102.68218371207438 97.775,102.834071981405 97.85,103.01588317549022 97.925,103.19769436957543 98.0,103.36051222768972 98.07499999999999,103.523330085804 98.15,103.64920178778962 98.225,103.77507348977522 98.3,103.89127210009643 98.375,104.00747071041765 98.44999999999999,104.1186309809352 98.525,104.22979125145274 98.6,104.27118722336243 98.675,104.31258319527213 98.75,104.33693867609604 98.82499999999999,104.36129415691995 98.9,104.40390990578868 98.975,104.4465256546574 99.05,104.4846975964986 99.125,104.5228695383398 99.19999999999999,104.53831871120892 99.275,104.55376788407804 99.35,104.56958025271383 99.425,104.58539262134963 99.5,104.56329376128187 99.57499999999999,104.54119490121411 99.65,104.51981842684404 99.725,104.49844195247397 99.8,104.49063491258872 99.875,104.48282787270344 99.94999999999999,104.46618729754458 100.025,104.4495467223857 100.1,104.4382439232462 100.175,104.42694112410672 100.25,104.42534246185801 100.32499999999999,104.42374379960931 100.4,104.38916509235676 100.475,104.35458638510423 100.55,104.31510820701763 100.625,104.27563002893103 100.69999999999999,104.24720261615687 100.775,104.2187752033827 100.85,104.19429353873544 100.925,104.16981187408818 101.0,104.17437418708737 101.07499999999999,104.17893650008655 101.15,104.19155888825696 101.225,104.20418127642739 101.3,104.19291352834995 101.375,104.1816457802725 101.44999999999999,104.16923102791722 101.525,104.15681627556194 101.6,104.14190154793403 101.675,104.12698682030613 101.75,104.0853104399001 101.82499999999999,104.04363405949408 101.9,104.001733352291 101.975,103.95983264508791 102.05,103.93089248534903 102.125,103.90195232561015 102.19999999999999,103.92298229519547 102.275,103.9440122647808 102.35,103.97092914369081 102.425,103.99784602260083 102.5,104.04608863529586 102.57499999999999,104.09433124799091 102.65,104.1562868376153 102.725,104.21824242723969 102.8,104.28230208204545 102.875,104.34636173685122 102.94999999999999,104.40162257362577 103.025,104.45688341040034 103.1,104.48130999480725 103.175,104.50573657921416 103.25,104.54041810291535 103.32499999999999,104.57509962661655 103.4,104.61412681437156 103.475,104.65315400212656 103.55,104.67642857496105 103.625,104.69970314779556 103.69999999999999,104.7342020721545 103.775,104.76870099651345 103.85,104.83155756534211 103.925,104.89441413417077 104.0,104.95766193961573 104.07499999999999,105.0209097450607 104.15,105.0782976805717 104.225,105.13568561608268 104.3,105.20695243688336 104.375,105.27821925768403 104.44999999999999,105.33257410795974 104.525,105.38692895823546 104.6,105.41779625874732 104.675,105.44866355925917 104.75,105.43289291807818 104.82499999999999,105.4171222768972 104.9,105.36735444227394 104.975,105.31758660765065 105.05,105.22025548329665 105.125,105.12292435894265 105.19999999999999,104.97837277762666 105.275,104.83382119631068 105.35,104.68268602408448 105.425,104.53155085185827 105.5,104.47862575109419 105.57499999999999,104.42570065033011 105.65,104.50315682104795 105.725,104.58061299176578 105.8,104.76678420414926 105.875,104.95295541653273 105.94999999999999,105.17514510026953 106.025,105.39733478400633 106.1,105.63364036497615 106.175,105.86994594594594 106.25,106.03316371998714 106.32499999999999,106.19638149402834 106.4,106.24385264953884 106.475,106.29132380504933 106.55,106.31866096288421 106.625,106.34599812071907 106.69999999999999,106.36546047328207 106.775,106.38492282584505 106.85,106.41796395984274 106.925,106.45100509384041 107.0,106.39922599589525 107.07499999999999,106.3474468979501 107.15,106.1566392646077 107.225,105.9658316312653 107.3,105.67492717786405 107.375,105.3840227244628 107.44999999999999,105.13896506021118 107.525,104.89390739595954 107.6,104.71557026285205 107.675,104.53723312974456 107.75,104.46697477807176 107.82499999999999,104.39671642639895 107.9,104.50235765683341 107.975,104.60799888726787 108.05,104.79215416285453 108.125,104.97630943844119 108.19999999999999,105.14843051606043 108.275,105.32055159367968 108.35,105.4301502559284 108.425,105.5397489181771 108.5,105.62751010113499 108.57499999999999,105.71527128409288 108.65,105.75505924680398 108.725,105.7948472095151 108.8,105.81009976261714 108.875,105.8253523157192 108.94999999999999,105.75337913256348 109.025,105.68140594940778 109.1,105.58382679706239 109.175,105.486247644717 109.25,105.41332474468979 109.32499999999999,105.3404018446626 109.4,105.24701580079622 109.475,105.15362975692985 109.55,105.02242795677654 109.625,104.89122615662323 109.69999999999999,104.82360197571771 109.775,104.7559777948122 109.85,104.81574987018125 109.925,104.8755219455503 110.0,105.11961186666997 110.07499999999999,105.36370178778962 110.15,105.75658046289657 110.225,106.14945913800351 110.3,106.59817315348285 110.375,107.04688716896219 110.44999999999999,107.58103430924062 110.525,108.11518144951906 110.6,108.57630420860018 110.675,109.03742696768131 110.75,109.33205217477312 110.82499999999999,109.62667738186494 110.9,109.72757737197398 110.975,109.82847736208304 111.05,109.8487028263396 111.125,109.86892829059617 111.19999999999999,109.87446368784154 111.275,109.87999908508692 111.35,109.86765109665933 111.425,109.85530310823174 111.5,109.73479088054202 111.57499999999999,109.6142786528523 111.65,109.54102193318661 111.725,109.46776521352093 111.8,109.42832108503745 111.875,109.38887695655399 111.94999999999999,109.35592895823545 112.025,109.32298095991692 112.1,109.4577439479736 112.175,109.59250693603026 112.25,109.88505979080635 112.32499999999999,110.17761264558246 112.4,110.64681217081674 112.475,111.11601169605103 112.55,111.58979790311813 112.625,112.0635841101852 112.69999999999999,112.51489323953413 112.775,112.96620236888306 112.85,113.37794886377685 112.925,113.78969535867066 113.0,114.11219851141169 113.07499999999999,114.43470166415271 113.15,114.59678778961944 113.225,114.75887391508618 113.3,114.79564081006899 113.375,114.8324077050518 113.44999999999999,114.75113931406247 113.525,114.66987092307312 113.6,114.48179693875028 113.675,114.29372295442744 113.75,114.12884275858659 113.82499999999999,113.96396256274573 113.9,113.75791906728321 113.975,113.55187557182069 114.05,113.47508704037982 114.125,113.39829850893895 114.2,113.34815546104201 114.27499999999999,113.29801241314507 114.35,113.21173672757845 114.425,113.12546104201182 114.5,113.0521876313642 114.575,112.9789142207166 114.64999999999999,112.85020672090205 114.725,112.72149922108751 114.8,112.60529326673426 114.875,112.489087312381 114.95,112.44515664795628 115.02499999999999,112.40122598353156 115.1,112.3366051779135 115.175,112.27198437229545 115.25,112.16837677109864 115.325,112.06476916990184 115.39999999999999,112.0767032219777 115.475,112.08863727405357 115.55,112.08315261739324 115.625,112.07766796073292 115.7,112.01944313938824 115.77499999999999,111.96121831804356 115.85,111.9052401028659 115.925,111.84926188768824 116.0,111.80099490615959 116.075,111.75272792463095 116.14999999999999,111.6565144284266 116.225,111.56030093222225 116.3,111.47059024257561 116.375,111.38087955292896 116.45,111.24064192280112 116.52499999999999,111.10040429267328 116.6,111.0226710516555 116.675,110.94493781063773 116.75,110.99407606142282 116.825,111.04321431220791 116.89999999999999,111.0479779184491 116.975,111.05274152469029 117.05,111.08055203877254 117.125,111.10836255285477 117.2,111.17767018619718 117.27499999999999,111.24697781953958 117.35,111.27994918523281 117.425,111.31292055092604 117.5,111.37069137756238 117.575,111.42846220419871 117.64999999999999,111.58995413070893 117.725,111.75144605721916 117.8,111.91486746123984 117.875,112.0782888652605 117.95,112.2741541999456 118.02499999999999,112.4700195346307 118.1,112.69164239262135 118.175,112.913265250612 118.25,113.11607069558121 118.325,113.31887614055043 118.39999999999999,113.41242241784329 118.475,113.50596869513613 118.55,113.42219331866175 118.625,113.33841794218739 118.7,113.13287851437897 118.77499999999999,112.92733908657056 118.85,112.64960114735047 118.925,112.37186320813036 119.0,112.13301191859746 119.075,111.89416062906457 119.14999999999999,111.75738470858782 119.225,111.62060878811107 119.3,111.63739323953413 119.375,111.6541776909572 119.45,111.73954872530354 119.52499999999999,111.82491975964986 119.6,111.92187099725527 119.675,112.01882223486066 119.75,112.09608812838457 119.825,112.17335402190847 119.89999999999999,112.30713224203161 119.975,112.44091046215475 120.05,112.6232494250884 120.125,112.80558838802206 120.2,112.98406839593483 120.27499999999999,113.16254840384758 120.35,113.44856507010213 120.425,113.73458173635667 120.5,113.9397205805989 120.575,114.14485942484113 120.64999999999999,114.29157649415198 120.725,114.43829356346282 120.8,114.42960090007665 120.875,114.4209082366905 120.95,114.21165005810936 121.02499999999999,114.0023918795282 121.1,113.54888554931877 121.175,113.09537921910932 121.25,112.4389385895502 121.325,111.7824979599911 121.39999999999999,111.16201771716823 121.475,110.54153747434535 121.55,110.15425328255978 121.625,109.76696909077421 121.7,109.68713612423036 121.77499999999999,109.6073031576865 121.85,109.65894505576024 121.925,109.71058695383398 122.0,109.89790984397023 122.075,110.08523273410648 122.14999999999999,110.4652730397369 122.225,110.84531334536733 122.3,111.3835140575159 122.375,111.92171476966445 122.45,112.53404680893154 122.52499999999999,113.14637884819861 122.6,113.87458869711432 122.675,114.60279854603002 122.75,115.50176915753813 122.825,116.40073976904627 122.89999999999999,117.21195120051433 122.975,118.0231626319824 123.05,118.76329418164734 123.125,119.50342573131229 123.2,120.06390556613339 123.27499999999999,120.62438540095448 123.35,121.01936079721075 123.425,121.41433619346702 123.5,121.64549627852921 123.575,121.87665636359141 123.64999999999999,121.70234910115971 123.725,121.52804183872803 123.8,121.22421923295666 123.875,120.92039662718528 123.95,120.53842350584803 124.02499999999999,120.15645038451078 124.1,119.81016592072402 124.175,119.46388145693727 124.25,119.16450866694692 124.325,118.86513587695656 124.39999999999999,118.80722484607206 124.475,118.74931381518756 124.55,118.71912316708291 124.625,118.68893251897828 124.7,118.66420649835564 124.77499999999999,118.63948047773299 124.85,118.5728166959274 124.925,118.5061529141218 125.0,118.51460522736826 125.075,118.52305754061473 125.14999999999999,118.70643134442768 125.225,118.88980514824065 125.3,119.10661432704434 125.375,119.32342350584803 125.45,119.65446576494152 125.52499999999999,119.98550802403501 125.6,120.2824506070572 125.675,120.57939319007937 125.75,120.63814878464925 125.825,120.6969043792191 125.89999999999999,120.55739781409955 125.975,120.41789124898 126.05,120.08788049256943 126.125,119.75786973615885 126.2,119.29834363640859 126.27499999999999,118.83881753665834 126.35,118.40476187532454 126.425,117.97070621399075 126.5,117.51005848025518 126.575,117.04941074651961 126.64999999999999,116.5820098414975 126.725,116.11460893647535 126.8,115.47446972132242 126.875,114.83433050616948 126.95,114.14094372048169 127.02499999999999,113.4475569347939 127.1,112.6068368487426 127.175,111.76611676269133 127.25,110.96057692688113 127.325,110.15503709107094 127.39999999999999,109.3969376993645 127.475,108.63883830765806 127.55,108.0478884176949 127.625,107.45693852773175 127.7,107.15133933384436 127.77499999999999,106.84574013995697 127.85,106.86061848124429 127.925,106.87549682253159 128.0,107.05645043396552 128.075,107.23740404539947 128.14999999999998,107.52866501817462 128.225,107.81992599094978 128.3,108.26085833683638 128.375,108.70179068272299 128.45,109.11695215251848 128.52499999999998,109.53211362231399 128.6,110.193629311837 128.675,110.85514500136 128.75,111.68622537771074 128.825,112.51730575406147 128.89999999999998,113.3943150391929 128.975,114.27132432432433 129.05,115.09725319601394 129.125,115.92318206770358 129.2,116.5916432086249 129.27499999999998,117.26010434954625 129.35,117.64228443905937 129.425,118.02446452857248 129.5,118.18922788753987 129.575,118.35399124650726 129.64999999999998,118.40658786874707 129.725,118.45918449098687 129.8,118.45649056650429 129.875,118.45379664202171 129.95,118.52923654212309 130.02499999999998,118.60467644222447 130.1,118.76336094557503 130.175,118.92204544892559 130.25,118.95155176677135 130.325,118.9810580846171 130.39999999999998,118.8565300066764 130.475,118.73200192873568 130.55,118.61424371306347 130.625,118.49648549739126 130.7,118.35765992433421 130.77499999999998,118.21883435127717 130.85,118.11313370094706 130.925,118.00743305061695 131.0,117.87299052941322 131.075,117.73854800820949 131.14999999999998,117.5881589228753 131.225,117.43776983754111 131.3,117.39734427932049 131.375,117.35691872109987 131.45,117.33679607329196 131.52499999999998,117.31667342548404 131.6,117.134331124354 131.675,116.95198882322396 131.75,116.82145532998689 131.825,116.69092183674984 131.89999999999998,116.68675910585793 131.975,116.682596374966 132.05,116.67528572488317 132.125,116.66797507480032 132.2,116.61478425360403 132.27499999999998,116.5615934324077 132.35,116.62243206152172 132.425,116.68327069063574 132.5,116.92257931307337 132.575,117.16188793551099 132.64999999999998,117.45790583813456 132.725,117.75392374075814 132.8,117.8400592220766 132.875,117.92619470339507 132.95,117.89280272495733 133.02499999999998,117.85941074651961 133.1,117.83673104028091 133.175,117.81405133404219 133.25,117.72513179693875 133.325,117.6362122598353 133.39999999999998,117.45106921193837 133.475,117.26592616404145 133.55,117.0480253950199 133.625,116.83012462599837 133.7,116.63359832842906 133.77499999999998,116.43707203085977 133.85,116.03887861328849 133.925,115.64068519571721 134.0,115.14276649934472 134.075,114.64484780297222 134.14999999999998,114.17219591503671 134.225,113.69954402710121 134.3,113.3952440592468 134.375,113.0909440913924 134.45,112.95751304369328 134.52499999999998,112.82408199599416 134.6,112.81254852748448 134.675,112.8010150589748 134.75,112.91309166439999 134.825,113.02516826982517 134.89999999999998,113.24549924581488 134.975,113.4658302218046 135.05,113.68482591924037 135.125,113.90382161667614 135.2,114.00323644321357 135.27499999999998,114.102651269751 135.35,114.198280581588 135.425,114.293909893425 135.5,114.44282349595707 135.575,114.59173709848915 135.64999999999998,114.68775697930319 135.725,114.7837768601172 135.8,114.85298100937167 135.875,114.92218515862615 135.95,114.94073217774041 136.02499999999998,114.95927919685468 136.1,114.94279518310626 136.175,114.92631116935783 136.25,114.6423875522366 136.325,114.35846393511535 136.39999999999998,113.77404789693628 136.475,113.1896318587572 136.55,112.52899545016196 136.625,111.86835904156672 136.7,111.28174847308425 136.77499999999998,110.69513790460176 136.85,110.16411464850029 136.925,109.6330913923988 137.0,109.10395722163152 137.075,108.57482305086423 137.14999999999998,108.0934521277911 137.225,107.61208120471798 137.3,107.25697722608244 137.375,106.9018732474469 137.45,106.63490432976435 137.52499999999998,106.36793541208179 137.6,106.10383734329022 137.675,105.83973927449865 137.75,105.77357956034717 137.825,105.70741984619569 137.89999999999998,105.85103372814717 137.975,105.99464761009867 138.05,106.21074975890804 138.125,106.42685190771742 138.2,106.69296557948617 138.27499999999998,106.95907925125492 138.35,107.28225638584605 138.425,107.60543352043719 138.5,107.86442081056354 138.575,108.1234081006899 138.64999999999998,108.28204219727505 138.725,108.4406762938602 138.8,108.39238394203902 138.875,108.34409159021784 138.95,108.21814945228851 139.02499999999998,108.0922073143592 139.1,107.96146351474988 139.175,107.83071971514057 139.25,107.78304693256844 139.325,107.73537414999629 139.39999999999998,107.73029341509854 139.475,107.72521268020078 139.55,107.6151797186024 139.625,107.50514675700403 139.7,107.32307918943647 139.77499999999998,107.1410116218689 139.85,106.97350426547315 139.925,106.80599690907742 140.0,106.74150629311836 140.075,106.67701567715932 140.14999999999998,106.78388135802774 140.225,106.89074703889617 140.3,107.20344791177271 140.375,107.51614878464925 140.45,107.8267065354467 140.52499999999998,108.13726428624416 140.6,108.37611557577706 140.675,108.61496686530995 140.75,108.88034012512054 140.825,109.14571338493113 140.89999999999998,109.42960362008853 140.975,109.71349385524591 141.05,110.1084251873099 141.125,110.50335651937391 141.2,111.01816882619124 141.27499999999998,111.53298113300858 141.35,111.94103558270072 141.425,112.34909003239287 141.5,112.62159701787789 141.575,112.89410400336293 141.64999999999998,112.99720086051285 141.725,113.10029771766277 141.8,113.0246107910289 141.875,112.94892386439504 141.95,112.87747978536633 142.02499999999998,112.80603570633762 142.1,112.7582260577137 142.175,112.71041640908979 142.25,112.55833819638485 142.325,112.40625998367993 142.39999999999998,112.25035285972157 142.475,112.0944457357632 142.55,111.98527669938923 142.625,111.87610766301526 142.7,111.68049269305902 142.77499999999998,111.48487772310278 142.85,111.26311799906036 142.925,111.04135827501793 143.0,110.75692057565342 143.075,110.47248287628891 143.14999999999998,110.11764328280705 143.225,109.76280368932518 143.3,109.36177514156425 143.375,108.96074659380332 143.45,108.56215025592839 143.52499999999998,108.16355391805347 143.6,107.87953616379417 143.675,107.59551840953488 143.75,107.41311602086991 143.825,107.23071363220494 143.89999999999998,107.05958767092801 143.975,106.8884617096511 144.05,106.75307447887046 144.125,106.61768724808981 144.2,106.58171818204298 144.27499999999998,106.54574911599614 144.35,106.62369933977894 144.425,106.70164956356173 144.5,106.92857681560793 144.575,107.1555040676541 144.64999999999998,107.50433490764323 144.725,107.85316574763236 144.8,108.309895440271 144.875,108.76662513290967 144.95,109.15952316955565 145.02499999999998,109.55242120620163 145.1,109.78945050814767 145.175,110.02647981009372 145.25,110.15515392794441 145.325,110.2838280457951 145.39999999999998,110.40066158106872 145.475,110.51749511634233 145.55,110.5617228802453 145.625,110.60595064414827 145.7,110.60491914146534 145.77499999999998,110.60388763878242 145.85,110.5835446700131 145.925,110.56320170124378 146.0,110.53235676664771 146.075,110.50151183205163 146.14999999999998,110.44868153606488 146.225,110.39585124007814 146.3,110.28696928859326 146.375,110.17808733710838 146.45,110.07075097054968 146.52499999999998,109.963414603991 146.6,109.81037499072723 146.675,109.65733537746347 146.75,109.51418684008803 146.825,109.37103830271259 146.89999999999998,109.24577582156722 146.975,109.12051334042185 147.05,109.03597351697535 147.125,108.95143369352884 147.2,108.93705274350287 147.27499999999998,108.92267179347692 147.35,108.88517049528943 147.425,108.84766919710195 147.5,108.74534680151332 147.575,108.64302440592468 147.64999999999998,108.51805902425755 147.725,108.39309364259044 147.8,108.24450718330408 147.875,108.0959207240177 147.95,107.98457852179719 148.02499999999998,107.87323631957666 148.1,107.83213511040775 148.175,107.79103390123885 148.25,107.75273978140996 148.325,107.71444566158107 148.39999999999998,107.63876274078287 148.475,107.56307981998467 148.55,107.48233752874557 148.625,107.4015952375065 148.7,107.26190907742144 148.77499999999998,107.12222291733636 148.85,106.98961640414431 148.925,106.85700989095226 149.0,106.75607284686333 149.075,106.65513580277441 149.14999999999998,106.64151262332781 149.225,106.62788944388122 149.3,106.62225790657996 149.375,106.6166263692787 149.45,106.61919010410227 149.52499999999998,106.62175383892584 149.6,106.61074847308424 149.675,106.59974310724265 149.75,106.59394399248288 149.825,106.5881448777231 149.89999999999998,106.59327167973098 149.975,106.59839848173883 150.05,106.57695524344106 150.125,106.5555120051433 150.2,106.54899317524294 150.27499999999998,106.5424743453426 150.35,106.55682858979749 150.425,106.57118283425237 150.5,106.61955329986894 150.575,106.66792376548553 150.64999999999998,106.62588585841102 150.725,106.58384795133652 150.8,106.5757394723177 150.875,106.56763099329888 150.95,106.5422480156277 151.02499999999998,106.51686503795653 151.1,106.57416918473825 151.175,106.63147333152 151.25,106.76860209935461 151.325,106.90573086718923 151.39999999999998,107.0208118493608 151.475,107.13589283153236 151.55,107.19093968991865 151.625,107.24598654830494 151.7,107.2556072302861 151.77499999999998,107.26522791226725 151.85,107.2458430058604 151.925,107.22645809945352 152.0,107.17399500506912 152.075,107.1215319106847 152.14999999999998,107.01865403921762 152.225,106.91577616775055 152.3,106.78231741302143 152.375,106.64885865829233 152.45,106.51293431171335 152.52499999999998,106.37700996513439 152.6,106.17292465567122 152.675,105.96883934620806 152.75,105.65675303528597 152.825,105.34466672436389 152.89999999999998,105.02845373507084 152.975,104.7122407457778 153.05,104.44338507949853 153.125,104.17452941321926 153.2,103.94461180485152 153.27499999999998,103.71469419648376 153.35,103.48184999134541 153.425,103.24900578620706 153.5,103.01127646447912 153.575,102.77354714275117 153.64999999999998,102.67206630647115 153.725,102.57058547019115 153.8,102.5210643282807 153.875,102.47154318637027 153.95,102.4701348013155 154.02499999999998,102.46872641626072 154.1,102.47963130239114 154.175,102.49053618852155 154.25,102.53221156746866 154.325,102.57388694641577 154.39999999999998,102.63205001112732 154.475,102.69021307583888 154.55,102.73846837368018 154.625,102.78672367152147 154.7,102.81934686333177 154.77499999999998,102.85197005514206 154.85,102.86704635147498 154.925,102.88212264780792 155.0,102.88702846121511 155.075,102.89193427462229 155.14999999999998,102.85004558492619 155.225,102.80815689523008 155.3,102.75457083158182 155.375,102.70098476793353 155.45,102.62981809302441 155.52499999999998,102.55865141811528 155.6,102.50327174154941 155.675,102.44789206498356 155.75,102.39664440790287 155.825,102.34539675082219 155.89999999999998,102.29597742390149 155.975,102.24655809698079 156.05,102.2009813679187 156.125,102.15540463885661 156.2,102.09687804455874 156.27499999999998,102.03835145026088 156.35,101.9822109987389 156.425,101.92607054721694 156.5,101.87719768304443 156.575,101.82832481887193 156.64999999999998,101.7809488019584 156.725,101.73357278504488 156.8,101.70609041566726 156.875,101.67860804628965 156.95,101.66317723350066 157.02499999999998,101.64774642071166 157.1,101.64049852872085 157.175,101.63325063673005 157.25,101.63199146905369 157.325,101.63073230137732 157.39999999999998,101.65781876066369 157.475,101.68490521995005 157.55,101.71435044880195 157.625,101.74379567765386 157.7,101.76256769120447 157.77499999999998,101.78133970475507 157.85,101.8011475606439 157.925,101.82095541653273 158.0,101.8438551099132 158.075,101.86675480329369 158.14999999999998,101.88237589327663 158.225,101.89799698325956 158.3,101.91757984471205 158.375,101.93716270616454 158.45,101.93007437996093 158.52499999999998,101.92298605375733 158.6,101.92074879454019 158.675,101.91851153532306 158.75,101.91231550901313 158.825,101.9061194827032 158.89999999999998,101.87723173264756 158.975,101.84834398259193 159.05,101.80524519670631 159.125,101.7621464108207 159.2,101.74128735689028 159.27499999999998,101.72042830295987 159.35,101.69657188249549 159.425,101.6727154620311 159.5,101.64398360574664 159.575,101.61525174946217 159.64999999999998,101.59847364061226 159.725,101.58169553176232 159.8,101.55592999678544 159.875,101.53016446180857 159.95,101.51038464676937 160.02499999999998,101.49060483173018 160.1,101.44881495264707 160.175,101.40702507356396 160.25,101.38629120199798 160.325,101.36555733043198 160.39999999999998,101.36399672362207 160.475,101.36243611681215 160.55,101.37966721891151 160.625,101.39689832101085 160.7,101.3971042877278 160.77499999999998,101.39731025444475 160.85,101.40156044608194 160.925,101.40581063771914 161.0,101.40421297692936 161.075,101.40261531613956 161.14999999999998,101.39800393165352 161.225,101.39339254716748 161.3,101.38705264459335 161.375,101.38071274201924 161.45,101.37432777379392 161.52499999999998,101.3679428055686 161.6,101.3659268687718 161.675,101.36391093197497 161.75,101.34960342226948 161.825,101.33529591256398 161.89999999999998,101.302278145941 161.975,101.26926037931801 162.05,101.22439769046265 162.125,101.17953500160728 162.2,101.13170652555574 162.27499999999998,101.08387804950422 162.35,101.03333855740462 162.425,100.98279906530502 162.5,100.95520753690562 162.575,100.92761600850622 162.64999999999998,100.9287329690166 162.725,100.92984992952697 162.8,100.95364893301353 162.875,100.97744793650008 162.95,100.99389322717045 163.02499999999998,101.01033851784081 163.1,101.02069760886229 163.175,101.03105669988378 163.25,101.01797564353008 163.325,101.00489458717638 163.39999999999998,101.00254816893747 163.475,101.00020175069855 163.55,101.01803573106501 163.625,101.03586971143147 163.7,101.05913907667961 163.77499999999998,101.08240844192775 163.85,101.1222803936599 163.925,101.16215234539206 164.0,101.18315360648846 164.075,101.20415486758488 164.14999999999998,101.20321950495784 164.225,101.2022841423308 164.3,101.17957038648896 164.375,101.15685663064711 164.45,101.15564152716303 164.52499999999998,101.15442642367894 164.6,101.16407447887045 164.675,101.17372253406197 164.75,101.21461644123538 164.825,101.25551034840879 164.89999999999998,101.28170050196583 164.975,101.30789065552285 165.05,101.31206707301996 165.125,101.31624349051705 165.2,101.31323744467248 165.27499999999998,101.31023139882792 165.35,101.27636386093322 165.425,101.2424963230385 165.5,101.21118170421107 165.575,101.17986708538365 165.64999999999998,101.14607572513043 165.725,101.11228436487723 165.8,101.1083626517643 165.875,101.10444093865136 165.95,101.13162787764892 166.02499999999998,101.15881481664647 166.1,101.19819752231646 166.175,101.23758022798646 166.25,101.28979162236344 166.325,101.34200301674043 166.39999999999998,101.4098835711283 166.475,101.47776412551619 166.55,101.56793582008358 166.625,101.65810751465098 166.7,101.78118848445884 166.77499999999998,101.90426945426671 166.85,102.04266827229792 166.925,102.18106709032912 167.0,102.3167781261591 167.075,102.45248916198906 167.14999999999998,102.54649323953413 167.225,102.6404973170792 167.3,102.70239081625084 167.375,102.76428431542247 167.45,102.80488980242824 167.52499999999998,102.84549528943398 167.6,102.8822101085532 167.675,102.9189249276724 167.75,102.92978007467669 167.825,102.94063522168096 167.89999999999998,102.933760540046 167.975,102.92688585841101 168.05,102.91353707870725 168.125,102.90018829900349 168.2,102.83470657253777 168.27499999999998,102.76922484607205 168.35,102.69651392151529 168.425,102.62380299695853 168.5,102.55029624638362 168.575,102.4767894958087 168.64999999999998,102.44267346257512 168.725,102.40855742934151 168.8,102.36317698622685 168.875,102.3177965431122 168.95,102.24289409262877 169.02499999999998,102.16799164214535 169.1,102.08567772804827 169.175,102.00336381395118 169.25,101.94015172720754 169.325,101.87693964046389 169.39999999999998,101.82294798595485 169.475,101.7689563314458 169.55,101.70630038821987 169.625,101.64364444499394 169.7,101.61243998664722 169.77499999999998,101.58123552830048 169.85,101.54325152691575 169.925,101.50526752553102 170.0,101.47276884844588 170.075,101.44027017136075 170.14999999999998,101.40145562671546 170.225,101.36264108207018 170.3,101.33257928834598 170.375,101.3025174946218 170.45,101.29519582849089 170.52499999999998,101.28787416235998 170.6,101.29125942731386 170.675,101.29464469226775 170.75,101.29397705299078 170.825,101.2933094137138 170.89999999999998,101.30347221878786 170.975,101.31363502386192 171.05,101.31406197917954 171.125,101.31448893449716 171.2,101.31662805074059 171.27499999999998,101.318767166984 171.35,101.31752302119136 171.425,101.31627887539872 171.5,101.31940409485424 171.575,101.32252931430973 171.64999999999998,101.33607805197695 171.725,101.34962678964418 171.8,101.36341053633689 171.875,101.3771942830296 171.95,101.37701235132663 172.02499999999998,101.37683041962364 172.1,101.37099258178581 172.175,101.36515474394797 172.25,101.35011383249672 172.325,101.33507292104548 172.39999999999998,101.31885229099181 172.475,101.30263166093816 172.55,101.27650092727677 172.625,101.2503701936154 172.7,101.22973479884276 172.77499999999998,101.20909940407013 172.85,101.19770246779258 172.925,101.18630553151505 173.0,101.15755604955368 173.075,101.12880656759229 173.14999999999998,101.08116566479563 173.225,101.03352476199896 173.3,100.97660537573255 173.375,100.91968598946613 173.45,100.86334367053239 173.52499999999998,100.80700135159863 173.6,100.74249348384066 173.675,100.6779856160827 173.75,100.61305624828763 173.825,100.54812688049257 173.89999999999998,100.48040106485992 173.975,100.41267524922726 174.05,100.3679312232388 174.125,100.32318719725032 174.2,100.27851188135803 174.27499999999998,100.23383656546574 174.35,100.20149748754976 174.425,100.16915840963378 174.5,100.15101407714943 174.575,100.13286974466507 174.64999999999998,100.13950110516555 174.725,100.14613246566603 174.8,100.16793522771445 174.875,100.18973798976286 174.95,100.22334986187285 175.02499999999998,100.25696173398283 175.1,100.29897015810687 175.175,100.3409785822309 175.25,100.37993411159466 175.325,100.41888964095844 175.39999999999998,100.45067176083677 175.475,100.48245388071511 175.55,100.50532657810143 175.625,100.52819927548775 175.7,100.5469514935338 175.77499999999998,100.56570371157983 175.85,100.58579361168121 175.925,100.6058835117826 176.0,100.62708489775228 176.075,100.64828628372196 176.14999999999998,100.64755274844836 176.225,100.64681921317475 176.3,100.62808108231745 176.375,100.60934295146015 176.45,100.58834386019139 176.52499999999998,100.56734476892262 176.6,100.54611871368166 176.675,100.52489265844069 176.75,100.51589628594743 176.825,100.50689991345416 176.89999999999998,100.5035076049059 176.975,100.50011529635766 177.05,100.49880295121288 177.125,100.4974906060681 177.2,100.50299405677407 177.27499999999998,100.50849750748003 177.35,100.50419771024455 177.425,100.49989791300908 177.5,100.49715625231819 177.575,100.4944145916273 177.64999999999998,100.502248937959 177.725,100.5100832842907 177.8,100.5348980675552 177.875,100.55971285081971 177.95,100.58157353057541 178.025,100.6034342103311 178.1,100.61992937365545 178.17499999999998,100.6364245369798 178.25,100.6561482035558 178.325,100.6758718701318 178.4,100.70272569051211 178.475,100.7295795108924 178.54999999999998,100.75512262184417 178.625,100.78066573279592 178.7,100.78342465196212 178.775,100.7861835711283 178.85,100.77918714547118 178.92499999999998,100.77219071981405 179.0,100.76422030859771 179.075,100.75624989738137 179.15,100.7445250834549 179.225,100.73280026952845 179.29999999999998,100.71574946341585 179.375,100.69869865730323 179.45,100.68794205385623 179.525,100.67718545040924 179.6,100.67138606859375 179.67499999999998,100.66558668677827 179.75,100.64738126530007 179.825,100.62917584382187 179.9,100.59819881679483 179.975,100.56722178976781 180.04999999999998,100.5483223572612 180.125,100.52942292475458 180.2,100.53918481244281 180.275,100.54894670013105 180.35,100.56026171706931 180.42499999999998,100.57157673400756 180.5,100.57724268811354 180.575,100.58290864221954 180.65,100.60144404441037 180.725,100.61997944660122 180.79999999999998,100.63836886946416 180.875,100.6567582923271 180.95,100.6641443188843 181.025,100.67153034544151 181.1,100.66088794169283 181.17499999999998,100.65024553794416 181.25,100.65296807076976 181.325,100.65569060359536 181.4,100.66581358398655 181.475,100.67593656437774 181.54999999999998,100.68045037338345 181.625,100.68496418238917 181.7,100.68180257659306 181.775,100.67864097079696 181.85,100.6874363504859 181.92499999999998,100.69623173017482 182.0,100.70341128928563 182.075,100.71059084839644 182.15,100.71604112163399 182.225,100.72149139487153 182.29999999999998,100.72480455478352 182.375,100.72811771469549 182.45,100.72692497712717 182.525,100.72573223955887 182.6,100.74010668010187 182.67499999999998,100.7544811206449 182.75,100.75721910931975 182.825,100.75995709799462 182.9,100.75317294824559 182.975,100.74638879849658 183.04999999999998,100.74088447985955 183.125,100.73538016122252 183.2,100.72075795974382 183.275,100.70613575826513 183.35,100.6844962674019 183.42499999999998,100.66285677653866 183.5,100.64523016493163 183.575,100.62760355332459 183.65,100.61067118641972 183.725,100.59373881951485 183.79999999999998,100.58055437921911 183.875,100.56736993892336 183.95,100.56655632031848 184.025,100.5657427017136 184.1,100.55133411142158 184.17499999999998,100.53692552112955 184.25,100.51457202344156 184.325,100.49221852575357 184.4,100.47848027867758 184.475,100.46474203160159 184.54999999999998,100.45029645409362 184.625,100.43585087658565 184.7,100.42984152221756 184.775,100.42383216784945 184.85,100.42520897356643 184.92499999999998,100.4265857792834 185.0,100.43416892633714 185.075,100.44175207339086 185.15,100.4482727726812 185.225,100.45479347197151 185.29999999999998,100.45580027200118 185.375,100.45680707203086 185.45,100.44362032837961 185.525,100.43043358472838 185.6,100.42754000272001 185.67499999999998,100.42464642071165 185.75,100.4219566355926 185.825,100.41926685047353 185.9,100.41264470339507 185.975,100.40602255631661 186.04999999999998,100.40986799164214 186.125,100.41371342696767 186.2,100.41559857323014 186.275,100.4174837194926 186.35,100.42264577285428 186.42499999999998,100.42780782621597 186.5,100.42108242872332 186.575,100.41435703123068 186.65,100.39892424890581 186.725,100.38349146658095 186.79999999999998,100.36841930961154 186.875,100.35334715264212 186.95,100.34901637694419 187.025,100.34468560124625 187.1,100.3527741178507 187.17499999999998,100.36086263445513 187.25,100.38065136247867 187.325,100.40044009050222 187.4,100.41856910066517 187.475,100.43669811082812 187.54999999999998,100.44153712692564 187.625,100.44637614302317 187.7,100.45592231646101 187.775,100.46546848989887 187.85,100.46471492544694 187.92499999999998,100.46396136099503 188.0,100.46537625553275 188.075,100.46679115007048 188.15,100.4750172671299 188.225,100.48324338418931 188.29999999999998,100.49896912662892 188.375,100.51469486906852 188.45,100.53120725748622 188.525,100.54771964590391 188.6,100.54206053510052 188.67499999999998,100.53640142429713 188.75,100.52439833832003 188.825,100.51239525234291 188.9,100.5134034210331 188.975,100.5144115897233 189.04999999999998,100.52186661679978 189.125,100.52932164387626 189.2,100.5165881271482 189.275,100.50385461042012 189.35,100.482536354195 189.42499999999998,100.46121809796988 189.5,100.45219909250513 189.575,100.44318008704037 189.65,100.43360850992805 189.725,100.42403693281571 189.79999999999998,100.41443080537078 189.875,100.40482467792587 189.95,100.39175360277936 190.025,100.37868252763285 190.1,100.38543256101481 190.17499999999998,100.39218259439677 190.25,100.39553437724092 190.325,100.39888616008506 190.4,100.40263271803367 190.475,100.40637927598229 190.54999999999998,100.41920649588289 190.625,100.43203371578349 190.7,100.45938102173537 190.775,100.48672832768725 190.85,100.52571075022873 190.92499999999998,100.5646931727702 191.0,100.59787631364209 191.075,100.63105945451399 191.15,100.66354341015307 191.225,100.69602736579215 191.29999999999998,100.73230227739175 191.375,100.76857718899137 191.45,100.79420065033011 191.525,100.81982411166885 191.6,100.83865177295318 191.67499999999998,100.85747943423753 191.75,100.87150346430603 191.825,100.88552749437451 191.9,100.88881154521401 191.975,100.89209559605351 192.04999999999998,100.89298355629188 192.125,100.89387151653025 192.2,100.8832403625034 192.275,100.87260920847655 192.35,100.86054232956653 192.42499999999998,100.84847545065651 192.5,100.8209666761455 192.575,100.79345790163448 192.65,100.76049845330235 192.725,100.7275390049702 192.79999999999998,100.6810415679632 192.875,100.63454413095621 192.95,100.5928983083999 193.025,100.55125248584358 193.1,100.50964258228036 193.17499999999998,100.46803267871714 193.25,100.436109273015 193.325,100.40418586731288 193.4,100.37440448208501 193.475,100.34462309685715 193.54999999999998,100.30202614203408 193.625,100.259429187211 193.7,100.22957633119853 193.775,100.19972347518608 193.85,100.17275288469622 193.92499999999998,100.14578229420637 194.0,100.12708081340719 194.075,100.108379332608 194.15,100.09226972428971 194.225,100.07616011597142 194.29999999999998,100.06856213397295 194.375,100.06096415197449 194.45,100.05977486610124 194.525,100.05858558022798 194.6,100.06246802279864 194.67499999999998,100.0663504653693 194.75,100.06717987364308 194.825,100.06800928191687 194.9,100.06482839136025 194.975,100.06164750080364 195.04999999999998,100.06303906134863 195.125,100.06443062189362 195.2,100.06019767537894 195.275,100.05596472886427 195.35,100.05501140674069 195.42499999999998,100.0540580846171 195.5,100.05156210182736 195.575,100.0490661190376 195.65,100.05200789458718 195.725,100.05494967013674 195.79999999999998,100.05714146645731 195.875,100.05933326277787 195.95,100.06206217823495 196.025,100.06479109369205 196.1,100.05332448925596 196.17499999999998,100.04185788481986 196.25,100.03873440122648 196.325,100.0356109176331 196.4,100.04248398691922 196.475,100.04935705620534 196.54999999999998,100.05222934052075 196.625,100.05510162483618 196.7,100.06307184911353 196.775,100.07104207339087 196.85,100.07609947429589 196.92499999999998,100.0811568752009 197.0,100.08786035743428 197.075,100.09456383966766 197.15,100.09808258240399 197.225,100.10160132514032 197.29999999999998,100.11272674253851 197.375,100.1238521599367 197.45,100.14295028189214 197.525,100.16204840384758 197.6,100.19275053040232 197.67499999999998,100.22345265695705 197.75,100.26189929897876 197.825,100.30034594100047 197.9,100.34200482925743 197.975,100.38366371751441 198.04999999999998,100.43847783684875 198.125,100.49329195618309 198.2,100.53939531910684 198.275,100.58549868203062 198.35,100.63259512499691 198.42499999999998,100.6796915679632 198.5,100.7378955923444 198.575,100.7960996167256 198.65,100.84569500012364 198.725,100.89529038352167 198.79999999999998,100.9433348408793 198.875,100.99137929823694 198.95,101.03494957097995 199.025,101.07851984372296 199.1,101.10980942607749 199.17499999999998,101.14109900843204 199.25,101.14932999925819 199.325,101.15756099008432 199.4,101.15079613511041 199.475,101.1440312801365 199.54999999999998,101.12549928290596 199.625,101.10696728567542 199.7,101.08682694542667 199.775,101.0666866051779 199.85,101.04351912168345 199.92499999999998,100.0" opacity="1" fill="#E15759" stroke="black" stroke-width="0"/>
<line x1="40" y1="100.0" x2="40" y2="70.0" stroke="black" stroke-width="1" />
<line x1="39.5" y1="100.0" x2="43.5" y2="100.0" stroke="black" stroke-width="1" />
<line x1="39.5" y1="70.0" x2="43.5" y2="70.0" stroke="black" stroke-width="1" />
<text text-anchor="end" font-family="Arial" x="36" y="104.0" font-size="8" >0</text>
<text text-anchor="end" font-family="Arial" x="36" y="74.0" font-size="8" >4448.5</text>
<text text-anchor="start" font-family="Arial" x="39.5" y="66" font-size="7" >ChrIV: 424,000-474,000</text>
</svg>
