<svg viewBox="0 0 320 210" xmlns="http://www.w3.org/2000/svg">
<polygon points="50.0,100.0 50.075,99.372151481813 50.15,99.38095219593977 50.225,99.38494505002349 50.3,99.38644799282906 50.375,99.38473567300512 50.45,99.38098959976261 50.525,99.3725253798373 50.6,99.3604572163893 50.675,99.35000404564674 50.75,99.33576738982715 50.825,99.32206164076061 50.9,99.31052430394897 50.975,99.30235910630302 51.05,99.29384996760713 51.125,99.28626056877921 51.2,99.28056296590094 51.275,99.27364652075863 51.35,99.26471113444276 51.425,99.25393649538834 51.5,99.24371514235553 51.575,99.22900736821542 51.65,99.20825060062808 51.725,99.18740409163968 51.8,99.16124867936006 51.875,99.13796458866003 51.95,99.12265867115056 52.025,99.11954067555205 52.1,99.1200566138325 52.175,99.12297275537202 52.25,99.12996398011919 52.325,99.13299227170445 52.4,99.13044258401128 52.475,99.1191968413244 52.55,99.115435855691 52.625,99.10442195741945 52.7,99.08611762518237 52.775,99.0599623090428 52.85,99.03655869488885 52.925,99.01462794639104 53.0,98.99553105956826 53.075,98.97824375559458 53.15,98.97007103632453 53.225,98.96456783264509 53.3,98.96559969585321 53.375,98.96242946415767 53.45,98.95544577038154 53.525,98.94147082515269 53.6,98.9285276229569 53.675,98.91353575628693 53.75,98.90336668875646 53.825,98.8977960935684 53.9,98.89498453104522 53.975,98.89030392571895 54.05,98.8832902549393 54.125,98.88078532578324 54.2,98.88711851190624 54.275,98.89917921515294 54.35,98.90949774041196 54.425,98.92145375782003 54.5,98.92869172869118 54.575,98.93795603817908 54.65,98.9423826601716 54.725,98.95140017012437 54.8,98.9625637931802 54.875,98.97777244232338 54.95,98.99139600900077 55.025,99.00666450532876 55.1,99.02287510744047 55.175,99.03868197472862 55.25,99.05220834648006 55.325,99.0640299227022 55.4,99.07914147706535 55.475,99.0972064072105 55.55,99.11225071026928 55.625,99.12870816532727 55.7,99.14311689448827 55.775,99.15523756509484 55.85,99.16753012610964 55.925,99.17944890259885 56.0,99.1999963812962 56.075,99.22195700131056 56.15,99.24145012536782 56.225,99.25697283870329 56.3,99.26869705576024 56.375,99.28457117835859 56.45,99.29900216127197 56.525,99.31124987695655 56.6,99.31822616661309 56.675,99.32095539986648 56.75,99.31750833822112 56.825,99.31107786904379 56.9,99.30131259642442 56.975,99.3016266539403 57.05,99.3035408117999 57.125,99.30719711426522 57.2,99.30641954951658 57.275,99.31102548606611 57.35,99.32106745243688 57.425,99.33432457995599 57.5,99.34129333196509 57.575,99.33871367528003 57.65,99.33398056546574 57.725,99.3315803662125 57.8,99.33303843297644 57.875,99.33044382651269 57.95,99.32849973971959 58.025,99.32802118923864 58.1,99.33108688998789 58.175,99.33731538760169 58.25,99.34779850196583 58.325,99.36201274112905 58.4,99.37718403986054 58.475,99.38943918637027 58.55,99.40043812284563 58.625,99.41236431547192 58.7,99.42825332642616 58.775,99.44539115130684 58.85,99.4620205208081 58.925,99.4781563900497 59.0,99.49657281491555 59.075,99.52089626107168 59.15,99.54782179525729 59.225,99.57521090611013 59.3,99.60091763408423 59.375,99.6269683231374 59.45,99.65461914137633 59.525,99.67967535368561 59.6,99.70135185179397 59.675,99.72072537361589 59.75,99.7380052480997 59.825,99.75572629594718 59.9,99.77053869183254 59.975,99.78147040905021 60.05,99.79160206608145 60.125,99.80225712560026 60.2,99.81289722465814 60.275,99.8222736775154 60.35,99.82763485295615 60.425,99.83125383438589 60.5,99.83205389190178 60.575,99.83179966688262 60.65,99.82922750244553 60.725,99.82413551382014 60.8,99.81675549334587 60.875,99.80980913262283 60.95,99.80237675240474 61.025,99.7964173975421 61.1,99.79063001587498 61.175,99.78451363091912 61.25,99.77886832823125 61.325,99.77426982384215 61.4,99.77038166761454 61.475,99.76742068208007 61.55,99.76102016720655 61.625,99.75249612413145 61.7,99.74108587379145 61.775,99.72746235384882 61.85,99.7130985915284 61.925,99.69957975608912 62.0,99.68206060903539 62.075,99.65943451156005 62.15,99.6361952635197 62.225,99.6196705665043 62.3,99.60962864286245 62.375,99.59445735214263 62.45,99.5728481640909 62.525,99.5474629658515 62.6,99.5269977990653 62.675,99.5088057517371 62.75,99.49451676234514 62.825,99.47914356816102 62.9,99.47050736302268 62.975,99.46384514824065 63.05,99.46281329037363 63.125,99.464906915012 63.2,99.47183082836725 63.275,99.48051937776019 63.35,99.48767508746074 63.425,99.49305122202715 63.5,99.50541108241636 63.575,99.52156189075443 63.65,99.53933528152123 63.725,99.54999034638115 63.8,99.55805079142455 63.875,99.5684516245889 63.95,99.57986935649464 64.025,99.59183292223238 64.1,99.60182996449149 64.175,99.6172180456962 64.25,99.6341091124354 64.325,99.65312371805841 64.4,99.6678239465394 64.475,99.67841918424371 64.55,99.68281579050964 64.625,99.67864348834104 64.7,99.66756222660172 64.775,99.64910844464775 64.85,99.63135747988427 64.925,99.61441400746767 65.0,99.59403853401251 65.075,99.56783833515492 65.15,99.5311475617319 65.225,99.48865450226255 65.3,99.44001517430331 65.375,99.39276654296383 65.45,99.34937617230038 65.525,99.30788499102395 65.6,99.26785937276526 65.675,99.2294861403526 65.75,99.185205854603 65.825,99.13425592591676 65.9,99.07630001097895 65.975,99.02467719403576 66.05,98.98087556158355 66.125,98.94436422155734 66.2,98.9068584808981 66.275,98.87872159936698 66.35,98.84930617126184 66.425,98.82164043609208 66.5,98.79177636507505 66.575,98.77116156029771 66.65,98.76692195741946 66.725,98.76866404193764 66.8,98.77210347914246 66.875,98.7693592947751 66.95,98.76448408595238 67.025,98.76352703840162 67.1,98.75834530303405 67.175,98.74247866867783 67.25,98.71872356915011 67.325,98.69675549961673 67.4,98.68420858139018 67.475,98.67199078262159 67.55,98.65687926164041 67.625,98.64368942014292 67.7,98.6389786642269 67.775,98.63837302193319 67.85,98.63376705867807 67.925,98.6186405692243 68.0,98.60239257931308 68.075,98.58692221557331 68.15,98.56767581761083 68.225,98.54133357582651 68.3,98.51392956059445 68.375,98.49358405479587 68.45,98.47573593382953 68.525,98.45909908409782 68.6,98.45240692168838 68.675,98.46478173586212 68.75,98.48497029301946 68.825,98.50709541801638 68.9,98.51720467842041 68.975,98.5294748201083 69.05,98.54180482233377 69.125,98.55917449964146 69.2,98.57212508592765 69.275,98.57244662100344 69.35,98.57175867213967 69.425,98.57593103038995 69.5,98.58583830320714 69.575,98.5923958161272 69.65,98.59872906901411 69.725,98.6172875181128 69.8,98.64409339531663 69.875,98.66787098093519 69.95,98.68625748621449 70.025,98.69581334042185 70.1,98.7001726376697 70.175,98.69145419005464 70.25,98.68989143344625 70.325,98.69660597512426 70.4,98.71379611087758 70.475,98.72255195964492 70.55,98.72566995524345 70.625,98.72688127988923 70.7,98.73569697584135 70.775,98.75767998714176 70.85,98.78668414678174 70.925,98.81535933384437 71.0,98.83737985311936 71.075,98.85489151059568 71.15,98.87113199624144 71.225,98.88684168195643 71.3,98.90159434682624 71.375,98.92203712766747 71.45,98.9466223298138 71.525,98.97786225315892 71.6,99.00451861922306 71.675,99.02724947998318 71.75,99.04292188472095 71.825,99.0548556697411 71.9,99.06927169753467 71.975,99.08670110185209 72.05,99.10549134195495 72.125,99.11905498133083 72.2,99.12982223763012 72.275,99.13612562701219 72.35,99.14085878756707 72.425,99.14598822007369 72.5,99.16032956573774 72.575,99.18566249983927 72.65,99.21731365159121 72.725,99.24614588610568 72.8,99.26539218792809 72.875,99.27510510427537 72.95,99.27601728646671 73.025,99.26368729759403 73.1,99.24420151089241 73.175,99.20902851121387 73.25,99.1672830167899 73.325,99.1158321303133 73.4,99.06522631492793 73.475,99.01213048544794 73.55,98.94345220894637 73.625,98.86163632704434 73.7,98.76857457159814 73.775,98.6827134966989 73.85,98.60260989723301 73.925,98.52319417853168 74.0,98.42556389837047 74.075,98.32180231018026 74.15,98.22374585984521 74.225,98.15529931559556 74.3,98.1208891098143 74.375,98.11163977547538 74.45,98.12422396132638 74.525,98.15221873984324 74.6,98.19253604169036 74.675,98.23907439830865 74.75,98.27471089987884 74.825,98.299468019139 74.9,98.31560376553497 74.975,98.33242748750031 75.05,98.36179800751712 75.125,98.38256229672857 75.2,98.40225738834351 75.275,98.41637430038821 75.35,98.43429722365916 75.425,98.43911999609307 75.5,98.43701147108133 75.575,98.43473097554462 75.65,98.44105677757722 75.725,98.43371408080908 75.8,98.39777850354838 75.875,98.34214791478945 75.95,98.27002253658416 76.025,98.18395964501373 76.1,98.09213174303306 76.175,98.0055154412601 76.25,97.94254968670408 76.325,97.88156536534704 76.4,97.81635654311219 76.475,97.7512673217774 76.55,97.69430580747262 76.625,97.66730548700576 76.7,97.65483349125887 76.775,97.65496068989393 76.85,97.64992104151727 76.925,97.65275498330902 77.0,97.6655335456591 77.075,97.68499675280037 77.15,97.69549479290819 77.225,97.69172636977325 77.3,97.68217792636186 77.375,97.67802060334809 77.45,97.68723256991667 77.525,97.71862937513909 77.6,97.75614263742241 77.675,97.81450253554561 77.75,97.86995374298361 77.825,97.94494291980911 77.9,98.02287805494424 77.975,98.10756515961525 78.05,98.1936579787839 78.125,98.27520473529339 78.2,98.34867608763383 78.275,98.40067276921936 78.35,98.44926726787172 78.425,98.50457644172992 78.5,98.5663608486437 78.575,98.61176257609851 78.65,98.64182101827353 78.725,98.66406569075937 78.8,98.6843888039366 78.875,98.68447842783314 78.95,98.66880612991766 79.025,98.63731206300537 79.1,98.6013765525086 79.175,98.54200727726811 79.25,98.48076118790337 79.325,98.42097324942509 79.4,98.3740985094335 79.475,98.32671532207414 79.55,98.27903293884918 79.625,98.2366370168888 79.7,98.20689243193789 79.775,98.18650200736876 79.85,98.1750020276452 79.925,98.16906497861082 80.0,98.17376060582083 80.075,98.19205742043965 80.15,98.22074005835661 80.225,98.26302381691848 80.3,98.32175747686753 80.375,98.4005152116911 80.45,98.4918196924903 80.525,98.5900929613511 80.6,98.6914243626023 80.675,98.80347067456294 80.75,98.91377481654756 80.825,99.01447814149007 80.9,99.0994942814965 80.975,99.16561543146807 81.05,99.1867461344675 81.125,99.13002379525729 81.2,99.01343887549764 81.275,98.86505314863628 81.35,98.70679003249178 81.425,98.51624022808537 81.5,98.30329611987834 81.575,98.07198797913009 81.65,97.82909014129226 81.725,97.547452667936 81.8,97.24050499893673 81.875,96.89614150560075 81.95,96.53663629930021 82.025,96.16370155965481 82.1,95.8041517216686 82.175,95.45700725437057 82.25,95.11515657100468 82.32499999999999,94.7936958088079 82.4,94.50885061314013 82.475,94.2615411498232 82.55,94.07713767265894 82.625,93.94835734675206 82.69999999999999,93.852536582676 82.775,93.78324511955688 82.85,93.71026736628669 82.925,93.67701613956133 83.0,93.66365432753888 83.07499999999999,93.67300831433447 83.15,93.69072177245864 83.225,93.74922365075048 83.3,93.81254806112608 83.375,93.93752206869266 83.44999999999999,94.07905849756435 83.525,94.2637837902129 83.6,94.41084558838803 83.675,94.51961587052743 83.75,94.60301602037536 83.82499999999999,94.64565075690513 83.9,94.64022235553028 83.975,94.57773539180535 84.05,94.47942565515196 84.125,94.34529111594668 84.19999999999999,94.20679793378008 84.275,94.02932615464503 84.35,93.85603367720877 84.425,93.66964922084024 84.5,93.48596385648229 84.57499999999999,93.2733709799461 84.65,93.04984639153335 84.725,92.82358553695506 84.8,92.61919574392324 84.875,92.42834723770432 84.94999999999999,92.21351162730892 85.025,91.95124791078361 85.1,91.65459592443312 85.175,91.39485891545709 85.25,91.157052895329 85.32499999999999,90.98343165895996 85.4,90.8932789654064 85.475,90.93057529833584 85.55,91.02478749239633 85.625,91.17018274276106 85.69999999999999,91.3541673831013 85.775,91.62963576805717 85.85,91.87094861689869 85.925,92.11450398595485 86.0,92.32187723191811 86.07499999999999,92.5371245754556 86.15,92.74437874127742 86.225,92.95403269642195 86.3,93.17029641260108 86.375,93.33454838658787 86.44999999999999,93.53536411963107 86.525,93.76716559239385 86.6,94.00451564160134 86.675,94.14038490793996 86.75,94.20201963012784 86.82499999999999,94.13675789080389 86.9,94.1244427649168 86.975,93.82718510956703 87.05,93.46914537415 87.125,93.12709924472689 87.19999999999999,92.79447473395811 87.275,92.43135065305012 87.35,92.10743667169457 87.425,91.7792460067753 87.5,91.45868173190574 87.57499999999999,91.11647129645657 87.65,90.78830258351672 87.725,90.4645382601815 87.8,90.16366915837887 87.875,89.89970819598922 87.94999999999999,89.66482563472714 88.025,89.42950249830618 88.1,89.23055586147721 88.175,89.10678461942088 88.25,89.07495411572414 88.32499999999999,89.18249998748794 88.4,89.21460687915729 88.475,89.46776487722856 88.55,89.76321225538439 88.625,90.06872458940184 88.69999999999999,90.38018108948839 88.775,90.71133249425088 88.85,91.03111158527237 88.925,91.30655032170323 89.0,91.57616476002077 89.07499999999999,91.93004709230732 89.15,92.28207563067184 89.225,92.53727353378996 89.3,92.68672899235924 89.375,92.94348200494548 89.44999999999999,93.42657133537746 89.525,93.89554306209045 89.6,94.3796938348211 89.675,94.87670601058332 89.75,95.3556976675651 89.82499999999999,95.78127885002844 89.9,96.16531711317722 89.975,96.51833098396429 90.05,96.84623051075641 90.125,97.14354025198438 90.19999999999999,97.40744168832373 90.275,97.63171383276872 90.35,97.86425576589352 90.425,98.14335100307856 90.5,98.3738142644816 90.57499999999999,98.2720640624589 90.65,98.09632754456864 90.725,97.97712602630746 90.8,97.87944973244727 90.875,97.67131381142653 90.94999999999999,97.20568444983803 91.025,96.7869143897505 91.1,96.47411958002769 91.175,96.2853344530526 91.25,96.22027506184071 91.32499999999999,96.17846989381816 91.4,96.15047513933632 91.475,96.12638348852403 91.55,96.10496869633293 91.625,96.07758707038401 91.69999999999999,96.04734914607452 91.775,96.00765252275907 91.85,95.95576798287382 91.925,95.89204699410004 92.0,95.89265261823397 92.07499999999999,96.17181512608491 92.15,96.5161407762914 92.225,96.87822541762073 92.3,97.2773385350016 92.375,97.63931839702282 92.44999999999999,97.97797684463787 92.525,98.25237653406197 92.6,98.41496121248238 92.675,98.45266136035212 92.75,98.36817609638733 92.82499999999999,98.26031695492199 92.9,98.13716690981924 92.975,98.01543008882075 93.05,97.89192862911402 93.125,97.77642784204149 93.19999999999999,97.66394784228876 93.275,97.55510920056378 93.35,97.44335442397566 93.425,97.32682923122573 93.5,97.20433722608244 93.57499999999999,97.0780317455058 93.65,96.95796990727233 93.725,96.8647287945402 93.8,96.78736937810638 93.875,96.73063962810019 93.94999999999999,96.66877307484978 94.025,96.62779033159417 94.1,96.59992272100096 94.175,96.57761067035929 94.25,96.54082270468089 94.32499999999999,96.50484228876635 94.4,96.48333776118295 94.475,96.4698712366163 94.55,96.4465273227665 94.625,96.41108526445933 94.69999999999999,96.37701897035187 94.775,96.34390235305754 94.85,96.31852464973666 94.925,96.29874742513785 95.0,96.30078871887441 95.07499999999999,96.32200915259267 95.15,96.35048990974506 95.225,96.36588549788581 95.3,96.36433020548453 95.375,96.35033286763434 95.44999999999999,96.33020409089785 95.525,96.29293012388418 95.6,96.24510572043224 95.675,96.19909084641824 95.75,96.17327198041592 95.82499999999999,96.1494868771791 95.9,96.12103600356075 95.975,96.10177477065355 96.05,96.1245055112386 96.125,96.19196506565119 96.19999999999999,96.28101894512994 96.275,96.39229515788432 96.35,96.51943811181721 96.425,96.6629710091244 96.5,96.79764346529512 96.57499999999999,96.90022359635024 96.65,96.98421530130314 96.725,97.03692984199203 96.8,97.09003313567914 96.875,97.13488155040676 96.94999999999999,97.19460225760984 97.025,97.25556407952325 97.1,97.28355137113326 97.175,97.28124841621127 97.25,97.25404617492148 97.32499999999999,97.23528587176381 97.4,97.1987670848891 97.475,97.12816695531762 97.55,97.00724518434262 97.625,96.85328145149724 97.69999999999999,96.67413444524122 97.775,96.48071337800747 97.85,96.26064347568062 97.925,96.03752291585272 98.0,95.81773705397987 98.07499999999999,95.62482456764175 98.15,95.44697121930714 98.225,95.29863790212903 98.3,95.15659287900893 98.375,95.01565450804877 98.44999999999999,94.86874932469523 98.525,94.74917336762196 98.6,94.67804999579634 98.675,94.64458931727702 98.75,94.60917719591504 98.82499999999999,94.55669444623031 98.9,94.48592985039934 98.975,94.41546439702282 99.05,94.33891318463935 99.125,94.2784820691872 99.19999999999999,94.22822748547266 99.275,94.18367061546451 99.35,94.14031737889765 99.425,94.10890540491086 99.5,94.10609405603225 99.57499999999999,94.12388228975544 99.65,94.1515553903217 99.725,94.15909994114884 99.8,94.15419486214485 99.875,94.14834767735714 99.94999999999999,94.1537238025766 100.025,94.15634837269108 100.1,94.16325723745703 100.175,94.16571726119533 100.25,94.17121305407878 100.32499999999999,94.1876630048713 100.4,94.23430610073935 100.475,94.29375007146213 100.55,94.36114170025469 100.625,94.40836060829356 100.69999999999999,94.46002831730175 100.775,94.49511150614475 100.85,94.5167882045449 100.925,94.53223625578002 101.0,94.52380187532455 101.07499999999999,94.50894461808561 101.15,94.47122207759452 101.225,94.45762094359685 101.3,94.45648444796123 101.375,94.4779516010979 101.44999999999999,94.49855139734427 101.525,94.50740438762642 101.6,94.52135690017556 101.675,94.53129417670186 101.75,94.56740917534185 101.82499999999999,94.59268221952968 101.9,94.61332680101877 101.975,94.63384434410622 102.05,94.65733025147746 102.125,94.66506171459658 102.19999999999999,94.64150097821518 102.275,94.58935473207883 102.35,94.56236887267872 102.425,94.5257972755372 102.5,94.4954771187656 102.57499999999999,94.43011835810192 102.65,94.36985229643184 102.725,94.30832165920724 102.8,94.2467171944314 102.875,94.16334642071166 102.94999999999999,94.08453711876561 103.025,94.03577067629386 103.1,94.0030428387033 103.175,93.96981403130486 103.25,93.92872664226898 103.32499999999999,93.89565481021735 103.4,93.86608239608319 103.475,93.83433411883979 103.55,93.81359231571919 103.625,93.80809653618851 103.69999999999999,93.79308227689721 103.775,93.76691274004105 103.85,93.7144379619693 103.925,93.63650207907817 104.0,93.5604504077545 104.07499999999999,93.51733704062708 104.15,93.48659038253258 104.225,93.41611064167553 104.3,93.33949099626616 104.375,93.28279026186296 104.44999999999999,93.23732028832126 104.525,93.18677472070424 104.6,93.14459587497836 104.675,93.15273100615711 104.75,93.1832305976608 104.82499999999999,93.2321017927351 104.9,93.29295896886823 104.975,93.38008370465617 105.05,93.49450035904157 105.125,93.642459771519 105.19999999999999,93.82165909398877 105.275,94.03469223856976 105.35,94.25742411216339 105.425,94.45981148141738 105.5,94.59464167404367 105.57499999999999,94.6327905956826 105.65,94.58357529932493 105.725,94.49327949061596 105.8,94.33610785786702 105.875,94.13091092900768 105.94999999999999,93.90162891323162 106.025,93.67531535520882 106.1,93.44638498503994 106.175,93.17828930590242 106.25,92.97692747063624 106.32499999999999,92.84779577953067 106.4,92.81103020647363 106.475,92.7877759699315 106.55,92.77241022526644 106.625,92.74640442026656 106.69999999999999,92.7170188917188 106.775,92.68660887070052 106.85,92.63878448060137 106.925,92.60335732400287 107.0,92.61041582008357 107.07499999999999,92.69732354640092 107.15,92.86997283351054 107.225,93.10464641032615 107.3,93.40739226082441 107.375,93.72187678544051 107.44999999999999,93.99437095225143 107.525,94.21421642095893 107.6,94.38289495017433 107.675,94.5531443010806 107.75,94.64625167231276 107.82499999999999,94.64689518310625 107.9,94.51824220271507 107.975,94.32642049207487 108.05,94.09410926337134 108.125,93.85332684058258 108.19999999999999,93.63216550827131 108.275,93.42337893672263 108.35,93.26576704928166 108.425,93.12639889913702 108.5,93.01124996463984 108.57499999999999,92.90641984916297 108.65,92.83884779753221 108.725,92.80742846616057 108.8,92.77007975025346 108.875,92.76574309932988 108.94999999999999,92.82148478326451 109.025,92.95093786256521 109.1,93.08868351573898 109.175,93.2233028678816 109.25,93.32289873148537 109.32499999999999,93.42410247075988 109.4,93.52285403773398 109.475,93.67590624267451 109.55,93.83992789446354 109.625,93.98160711802379 109.69999999999999,94.0745114868574 109.775,94.10700818773027 109.85,94.05853971266784 109.925,93.90023963601296 110.0,93.59332158749784 110.07499999999999,93.18101160505428 110.15,92.66075407235232 110.225,92.10498655572314 110.3,91.53187888479513 110.375,90.91267411339976 110.44999999999999,90.23763664548355 110.525,89.52041971761331 110.6,88.86275959150367 110.675,88.32605849064069 110.75,87.87643751390915 110.82499999999999,87.57126187037908 110.9,87.37195635073317 110.975,87.27651692885932 111.05,87.21977222373334 111.125,87.19715352637175 111.19999999999999,87.1903492673277 111.275,87.17914786924162 111.35,87.17197715635123 111.425,87.22374924408398 111.5,87.37730868128878 111.57499999999999,87.54804353947726 111.65,87.6783932983853 111.725,87.7295739912465 111.8,87.7551168017606 111.875,87.81807571969041 111.94999999999999,87.86679816473381 112.025,87.83680807546797 112.1,87.68795869983433 112.175,87.37923148240647 112.25,86.99385513661878 112.32499999999999,86.47091158428327 112.4,85.83808315274104 112.475,85.14480981231918 112.55,84.4506536391286 112.625,83.83073894018446 112.69999999999999,83.20108925941494 112.775,82.58531619396157 112.85,81.96611214361663 112.925,81.44353552582774 113.0,80.95777734477386 113.07499999999999,80.56931276674662 113.15,80.28140961895106 113.225,80.12640768032442 113.3,80.04289415197448 113.375,79.96129514601517 113.44999999999999,79.9925719096956 113.525,80.1279173462575 113.6,80.36424268934991 113.675,80.62680545486016 113.75,80.88434370069979 113.82499999999999,81.16032841917855 113.9,81.48351697040133 113.975,81.77268262406963 114.05,81.96774852748449 114.125,82.05473845354962 114.2,82.12041052397319 114.27499999999999,82.24964011770233 114.35,82.41763124551817 114.425,82.54955209317278 114.5,82.67002506367301 114.575,82.80049513117875 114.64999999999999,82.97226242674513 114.725,83.15275469943869 114.8,83.31783692292476 114.875,83.50795214757301 114.95,83.61439828391978 115.02499999999999,83.74766429118964 115.1,83.84868959719097 115.175,84.00047765386613 115.25,84.15079236418487 115.325,84.28347632353305 115.39999999999999,84.33088205039441 115.475,84.28870367201603 115.55,84.2812558888257 115.625,84.31153880467842 115.7,84.41206952350338 115.77499999999999,84.49233712321653 115.85,84.6152329566529 115.925,84.72135048094755 116.0,84.82067771321184 116.075,84.92881337751292 116.14999999999999,85.08260488613041 116.225,85.24959428797507 116.3,85.40993667317821 116.375,85.53665407383596 116.45,85.72072088721842 116.52499999999999,85.88519061843179 116.6,86.02840244801068 116.675,86.07223390123885 116.75,86.04755167775278 116.825,85.957840186939 116.89999999999999,85.91654362651764 116.975,85.95420609282658 117.05,85.97347576469424 117.125,85.91429328157068 117.2,85.8085440271012 117.27499999999999,85.74902585494918 117.35,85.69436702851067 117.425,85.62512001681462 117.5,85.55660674068396 117.575,85.45431091713854 117.64999999999999,85.26974284018694 117.725,85.06411902277391 117.8,84.85957103929181 117.875,84.6748012017507 117.95,84.47209296506021 118.02499999999999,84.2434238421404 118.1,84.02738338320022 118.175,83.76722785786701 118.25,83.52846469671869 118.325,83.34605002349102 118.39999999999999,83.23333128260924 118.475,83.20212929452784 118.55,83.29785274350289 118.625,83.4917000717094 118.7,83.75759008432037 118.77499999999999,84.06348330654534 118.85,84.42522522192824 118.925,84.81028043322371 119.0,85.16175445711036 119.075,85.45255903167578 119.14999999999999,85.68890667392003 119.225,85.82675709304914 119.3,85.85623269948815 119.375,85.84244421255656 119.45,85.75198509928043 119.52499999999999,85.65955164313444 119.6,85.51174912588709 119.675,85.42330120916891 119.75,85.31481409955244 119.825,85.22211866175417 119.89999999999999,85.09582000445093 119.975,84.91256771098638 120.05,84.69090519522267 120.125,84.48902710120917 120.2,84.31634727627902 120.27499999999999,84.076283687347 120.35,83.7201124205633 120.425,83.36753051606044 120.5,83.09747576963971 120.575,82.89558285403427 120.64999999999999,82.74134269182265 120.725,82.5952815113375 120.8,82.58135896243911 120.875,82.66842419821468 120.95,82.89039342746223 121.02499999999999,83.23182602309537 121.1,83.72190690141193 121.175,84.36282558542074 121.25,85.15237646200637 121.325,85.95312088524022 121.39999999999999,86.74719547192205 121.475,87.4394228886526 121.55,88.00242832274176 121.625,88.35437490170867 121.7,88.49437899161742 121.77499999999999,88.50359775475384 121.85,88.48143520189906 121.925,88.36596471897332 122.0,88.18093276625207 122.075,87.86973768700082 122.14999999999999,87.44725915778541 122.225,86.89069956727084 122.3,86.23955965975125 122.375,85.52104987512672 122.45,84.7681075294874 122.52499999999999,83.95598350189164 122.6,83.09863626023096 122.675,82.11616520610272 122.75,81.03405987240671 122.825,79.9160642140402 122.89999999999999,78.88060985435573 122.975,77.91567315743923 123.05,76.96440450532874 123.125,76.06012208896911 123.2,75.25924310971538 123.27499999999999,74.6579685121535 123.35,74.12213498182538 123.425,73.62503320887218 123.5,73.18344337182563 123.575,73.00036319576667 123.64999999999999,73.09809824188324 123.725,73.38313054078782 123.8,73.71895496649441 123.875,74.0951268366262 123.95,74.5415175341856 124.02499999999999,75.00654872035805 124.1,75.45237125689275 124.175,75.86293870082342 124.25,76.24431535323063 124.325,76.55136799782399 124.39999999999999,76.67074924457852 124.475,76.60905403427215 124.55,76.58313053584233 124.625,76.5846037486709 124.7,76.60930106080463 124.77499999999999,76.52287208526002 124.85,76.51117758215672 124.925,76.58997317079202 125.0,76.60308053213323 125.075,76.44575307237704 125.14999999999999,76.13347388046785 125.225,75.84144298607848 125.3,75.51376910066517 125.375,75.15403250661457 125.45,74.69104963774387 125.52499999999999,74.20322751662917 125.6,73.73940676046587 125.675,73.3800053213323 125.75,73.21088534902697 125.825,73.20203245221433 125.89999999999999,73.3034680893153 125.975,73.54754766202616 126.05,73.88326780247769 126.125,74.38692699488143 126.2,74.95690199549962 126.27499999999999,75.56230367201603 126.35,76.09691836008012 126.425,76.62122897059915 126.5,77.17272785539427 126.575,77.72759818501027 126.64999999999999,78.28021776909573 126.725,78.87385003338197 126.8,79.61628640735887 126.875,80.42197225587893 126.95,81.24522302613684 127.02499999999999,82.1544168640736 127.1,83.15558149749018 127.175,84.28485365000866 127.25,85.32910128631835 127.325,86.31662655671225 127.39999999999999,87.28807655547588 127.475,88.25055357582652 127.55,89.09174980885734 127.625,89.76577737889765 127.7,90.24922463341659 127.77499999999999,90.57858978264632 127.85,90.68623206152172 127.925,90.62586879157291 128.0,90.445218021315 128.075,90.21856009495315 128.14999999999998,89.91621056848248 128.225,89.49830029425583 128.3,88.98279744813432 128.375,88.41611284092876 128.45,87.90831148092282 128.52499999999998,87.32947637298781 128.6,86.54879386909325 128.675,85.536787748572 128.75,84.43492083974185 128.825,83.32559132612943 128.89999999999998,82.15565150268293 128.975,80.9637805702134 129.05,79.80100359486659 129.125,78.7027402690339 129.2,77.71557333399272 129.27499999999998,76.88960059840261 129.35,76.25031248979995 129.425,75.76421661679979 129.5,75.45187052743502 129.575,75.24075150466112 129.64999999999998,75.1088082243268 129.725,75.03587490912687 129.8,74.98439391211889 129.875,75.00951797927846 129.95,74.94851911673797 130.02499999999998,74.77566810909721 130.1,74.58337544571103 130.175,74.40529014613881 130.25,74.35921515788432 130.325,74.36705177418956 130.39999999999998,74.53615679137509 130.475,74.7224826290151 130.55,74.91648658539602 130.625,75.0636306767884 130.7,75.24624764471699 130.77499999999998,75.381989124898 130.85,75.51728195148488 130.925,75.6824990381049 131.0,75.86452487821765 131.075,76.06492121361984 131.14999999999998,76.26024896515912 131.225,76.47461364951411 131.3,76.5759001360006 131.375,76.55735685566628 131.45,76.5152293514008 131.52499999999998,76.59024863875769 131.6,76.75986974110432 131.675,76.96518724561707 131.75,77.11808131351846 131.825,77.23624291684182 131.89999999999998,77.21994223683885 131.975,77.20465022625552 132.05,77.16907399915927 132.125,77.20844215029302 132.2,77.27458637521327 132.27499999999998,77.35509405801044 132.35,77.387014292426 132.425,77.24263663114166 132.5,77.00041189387008 132.575,76.67846488464677 132.64999999999998,76.33647908310873 132.725,75.99888354392819 132.8,75.8543264212062 132.875,75.88780158749783 132.95,76.01801808560619 133.02499999999998,76.1159024158651 133.1,76.23348197126678 133.175,76.33695911574887 133.25,76.49355470932963 133.325,76.66941263074602 133.39999999999998,76.95831830567988 133.475,77.25221151306842 133.55,77.58330317746841 133.625,77.90365746643258 133.7,78.20100357063376 133.77499999999998,78.55007008728765 133.85,79.01306003313469 133.925,79.62860929254964 134.0,80.29297606884103 134.075,80.96459581118172 134.14999999999998,81.62585192255385 134.225,82.24963170544744 134.3,82.75126421206201 134.375,83.06863535520883 134.45,83.28984948443411 134.52499999999998,83.45081931702975 134.6,83.52172621349621 134.675,83.54732844390593 134.75,83.44572830048713 134.825,83.32723554808238 134.89999999999998,83.09515692490295 134.975,82.85781423308029 135.05,82.6146028584852 135.125,82.45124795133651 135.2,82.33644991469053 135.27499999999998,82.27746224870799 135.35,82.19858440691377 135.425,82.11014984298113 135.5,81.96287062139908 135.575,81.82494636136595 135.64999999999998,81.71136756756756 135.725,81.59693606488464 135.8,81.48906278281942 135.875,81.46179359066294 135.95,81.45685145767908 136.02499999999998,81.41040312554091 136.1,81.34642752652012 136.175,81.42995547587844 136.25,81.70502045448924 136.325,82.14415912069434 136.39999999999998,82.78755262332781 136.475,83.57769440073193 136.55,84.41274381246754 136.625,85.1774252995722 136.7,85.92604618975791 136.77499999999998,86.62152617145966 136.85,87.29532281842685 136.925,87.94250779110308 137.0,88.61023229890458 137.075,89.258014541678 137.14999999999998,89.8802848455775 137.225,90.4604206617047 137.3,90.98091811725723 137.375,91.35311913602531 137.45,91.69520201231424 137.52499999999998,92.07610757844762 137.6,92.48826760910957 137.675,92.76789443337208 137.75,92.9253651685171 137.825,92.9476324072105 137.89999999999998,92.83683478499542 137.975,92.59930551470043 138.05,92.32539943769936 138.125,92.0506861314013 138.2,91.72866430652061 138.27499999999998,91.38228956455083 138.35,90.99799693083752 138.425,90.62127156103953 138.5,90.28149867659059 138.575,89.99883687099725 138.64999999999998,89.78015771469548 138.725,89.6400423827304 138.8,89.63760469820232 138.875,89.7640902945031 138.95,89.92203184886625 139.02499999999998,90.07420019287356 139.1,90.23923795158379 139.175,90.41871394376993 139.25,90.54074892312258 139.325,90.57210807348977 139.39999999999998,90.58206791622364 139.475,90.63872351821172 139.55,90.77972960114735 139.625,90.97211119408522 139.7,91.21906156227591 139.77499999999998,91.46080736183576 139.85,91.7132839138498 139.925,91.88588812195545 140.0,92.01018292673277 140.075,92.06143145174451 140.14999999999998,92.01581272817191 140.225,91.82285496253802 140.3,91.46130038673623 140.375,91.0868480883262 140.45,90.70424605079003 140.52499999999998,90.36903491852328 140.6,90.06956411908706 140.675,89.81073198832868 140.75,89.50925025939023 140.825,89.15607068420663 140.89999999999998,88.79773185974629 140.975,88.46773071734131 141.05,88.06601603669543 141.125,87.52946492767241 141.2,86.91909860537574 141.27499999999998,86.2844911555105 141.35,85.74130723720977 141.425,85.28863569644668 141.5,84.94975174698945 141.575,84.6599946984496 141.64999999999998,84.48419032170322 141.725,84.44725264459336 141.8,84.5570555376969 141.875,84.66021849113523 141.95,84.77923307039885 142.02499999999998,84.88034730595189 142.1,84.9786207363814 142.175,85.08514111421577 142.25,85.2671586756015 142.325,85.5573205805989 142.39999999999998,85.83225790657995 142.475,86.01679607329196 142.55,86.15890843450953 142.625,86.34877089092753 142.7,86.58491690611014 142.77499999999998,86.89318024776836 142.85,87.1646047229297 142.925,87.48205024109197 143.0,87.79018766598254 143.075,88.17364987661037 143.14999999999998,88.58781362627036 143.225,89.02221854306273 143.3,89.48588224376252 143.375,89.96739375831459 143.45,90.44414981182463 143.52499999999998,90.87038208946366 143.6,91.22611128557652 143.675,91.47899154570857 143.75,91.68190915407631 143.825,91.84633989515591 143.89999999999998,92.01281975470438 143.975,92.18293477658811 144.05,92.33506680101877 144.125,92.4516359511387 144.2,92.51036257016395 144.27499999999998,92.50008907049776 144.35,92.44047929823694 144.425,92.29435949902327 144.5,92.05730055389333 144.575,91.74971755001113 144.64999999999998,91.36141721124602 144.725,90.93277722608244 144.8,90.41820936870997 144.875,89.90765634677679 144.95,89.43425758413491 145.02499999999998,89.01762676046587 145.1,88.70034557503524 145.175,88.45913711827106 145.25,88.31010841472762 145.325,88.14882519225539 145.39999999999998,88.00600366459781 145.475,87.8729156499592 145.55,87.80393796394748 145.625,87.75094716747854 145.7,87.73615708810365 145.77499999999998,87.73025675922949 145.85,87.73649331124354 145.925,87.76542999925817 146.0,87.79164512252417 146.075,87.83183487055216 146.14999999999998,87.88047439479736 146.225,87.94543689819737 146.3,88.06170734650479 146.375,88.15514279567765 146.45,88.25328163002894 146.52499999999998,88.37304396528276 146.6,88.5170330605079 146.675,88.71538174624762 146.75,88.86703507331669 146.825,89.03852516505526 146.89999999999998,89.17697245369799 146.975,89.3332239459954 147.05,89.44033531811775 147.125,89.54092665858906 147.2,89.5798972972973 147.27499999999998,89.5913085878193 147.35,89.62625763457876 147.425,89.70320653297397 147.5,89.84421128063104 147.575,89.96306108652111 147.64999999999998,90.08579962414382 147.725,90.22159344724413 147.8,90.38061283845602 147.875,90.54449891941347 147.95,90.6898554734057 148.02499999999998,90.78782112212853 148.1,90.8566118691427 148.175,90.89266039761628 148.25,90.94110501125095 148.325,91.00192510669865 148.39999999999998,91.08746558789348 148.475,91.16753256200391 148.55,91.25203288791079 148.625,91.33945611186667 148.7,91.47744847110604 148.77499999999998,91.63944179471328 148.85,91.79401003486561 148.925,91.9113210657501 149.0,92.02213463119112 149.075,92.11566101283351 149.14999999999998,92.17242116713237 149.225,92.17393163423259 149.3,92.18633517024801 149.375,92.20732307855889 149.45,92.21944420316015 149.52499999999998,92.23318048070028 149.6,92.25594911649068 149.675,92.26817300412947 149.75,92.27691437847729 149.825,92.27451388145694 149.89999999999998,92.28024899631562 149.975,92.27594209539824 150.05,92.29445530525952 150.125,92.33519184985535 150.2,92.34770167404366 150.27499999999998,92.35508202566702 150.35,92.34549672856754 150.425,92.32871721767513 150.5,92.25503708117999 150.575,92.21193789471081 150.64999999999998,92.23726372245989 150.725,92.3019936203358 150.8,92.31368745579981 150.875,92.31066652159937 150.95,92.32220439652828 151.02499999999998,92.34428563091912 151.1,92.30082658687965 151.175,92.19518179125146 151.25,92.03961808758439 151.325,91.88294815904652 151.39999999999998,91.72856609678297 151.475,91.6160711752924 151.55,91.52347374693998 151.625,91.48676012957148 151.7,91.46808879602384 151.77499999999998,91.48272985831211 151.85,91.5037554214782 151.925,91.55440507405851 152.0,91.624959189931 152.075,91.71274908137781 152.14999999999998,91.81143997329443 152.225,91.94823641700255 152.3,92.10242527781212 152.375,92.26391194332484 152.45,92.41836143715537 152.52499999999998,92.582134687075 152.6,92.78792357162285 152.675,93.06010946267402 152.75,93.40181902178482 152.825,93.77910496822531 152.89999999999998,94.16145282213596 152.975,94.5162475502584 153.05,94.85500313938824 153.125,95.15186424371306 153.2,95.43963343636409 153.27499999999998,95.68630716154398 153.35,95.9423058312109 153.425,96.20806231596647 153.5,96.49918897307188 153.575,96.73062451274697 153.64999999999998,96.8820688153112 153.725,96.96379491308326 153.8,97.02433808511165 153.875,97.05997453327069 153.95,97.0543964872283 154.02499999999998,97.03318355777553 154.1,97.0047999688435 154.175,96.98180747360352 154.25,96.93709362824856 154.325,96.86376441631018 154.39999999999998,96.78161952177246 154.475,96.70298144259539 154.55,96.62927829925076 154.625,96.55864091540764 154.7,96.49324499394179 154.77499999999998,96.44948067851932 154.85,96.41414331940358 154.925,96.38638035459064 155.0,96.35321879182018 155.075,96.34301988081403 155.14999999999998,96.36247562374818 155.225,96.40099830320715 155.3,96.4498097045078 155.375,96.50061002992013 155.45,96.5798463673005 155.52499999999998,96.64725359214658 155.6,96.70377401053386 155.675,96.74267803219504 155.75,96.78532815113375 155.825,96.83141033653965 155.89999999999998,96.86967142157711 155.975,96.90361062387181 156.05,96.9339682752652 156.125,96.96875978586088 156.2,97.01767580623624 156.27499999999998,97.07763574194506 156.35,97.13576371553621 156.425,97.18134493113425 156.5,97.2268962899038 156.575,97.28290819415939 156.64999999999998,97.33965292599095 156.725,97.39333201849608 156.8,97.42613457827453 156.875,97.45823434089166 156.95,97.47556653693034 157.02499999999998,97.4883227867758 157.1,97.4869096214238 157.175,97.48035210850375 157.25,97.47166351771716 157.325,97.45932610469573 157.39999999999998,97.43498018446626 157.475,97.395552666848 157.55,97.3544128547761 157.625,97.30957951534334 157.7,97.28051556192972 157.77499999999998,97.25103283845603 157.85,97.23534559877352 157.925,97.20987816473381 158.0,97.17318736727579 158.075,97.13298225019163 158.14999999999998,97.10259475532257 158.225,97.0736952147573 158.3,97.03850739348681 158.375,97.00333450063054 158.45,96.99320298113301 158.52499999999998,97.00126339012388 158.6,97.01394471748968 158.675,97.03073855592098 158.75,97.05320771543731 158.825,97.075856229569 158.89999999999998,97.1024528018595 158.975,97.14554411018521 159.05,97.20261782794688 159.125,97.26850710813284 159.2,97.30794954081254 159.27499999999998,97.34745921812022 159.35,97.37307621671076 159.425,97.4166684414332 159.5,97.46309460794738 159.575,97.50908706263445 159.64999999999998,97.54226352711358 159.725,97.57417639079152 159.8,97.61144293365643 159.875,97.65018987314853 159.95,97.68049495462526 160.02499999999998,97.72564243169062 160.1,97.7912551222769 160.175,97.843049976509 160.25,97.86443476966446 160.325,97.87508981182464 160.39999999999998,97.88229777898667 160.475,97.87776663138894 160.55,97.85514812096635 160.625,97.82557562671546 160.7,97.81690950866695 160.77499999999998,97.80145414010534 160.85,97.79288523033556 160.925,97.77840932865162 161.0,97.77538847456789 161.075,97.77501470339507 161.14999999999998,97.77301823495957 161.225,97.76811316930838 161.3,97.76976558987167 161.375,97.78237231522465 161.45,97.79710993150516 161.52499999999998,97.80590323483594 161.6,97.80426570262853 161.675,97.81549645013723 161.75,97.83884796172201 161.825,97.87497803565688 161.89999999999998,97.91935541752183 161.975,97.97313907569051 162.05,98.03907326129423 162.125,98.11811511535323 162.2,98.19970670651072 162.27499999999998,98.2896876925892 162.35,98.37287936139067 162.425,98.44779376261715 162.5,98.5060862959373 162.575,98.5497457652877 162.64999999999998,98.57578906490937 162.725,98.5802455170248 162.8,98.56358623461338 162.875,98.54017508948839 162.95,98.52628994174229 163.02499999999998,98.51055039919883 163.1,98.49937944546376 163.175,98.48522507885562 163.25,98.49140871378057 163.325,98.49949908642219 163.39999999999998,98.50477056586138 163.475,98.49158820192379 163.55,98.46416174065924 163.625,98.42359774075814 163.7,98.37314137375436 163.77499999999998,98.313532874014 163.85,98.24087657970871 163.925,98.17148029722311 164.0,98.11447382408942 164.075,98.0695955792389 164.14999999999998,98.03952214188571 164.225,98.02909886402414 164.3,98.04208685146263 164.375,98.04690954377983 164.45,98.0364637798274 164.52499999999998,98.00862595929873 164.6,97.97741601295715 164.675,97.9348780307114 164.75,97.87952411166886 164.825,97.82175495413071 164.89999999999998,97.78821214262753 164.975,97.77678699191415 165.05,97.782394894785 165.125,97.77993497786899 165.2,97.78670180905516 165.27499999999998,97.80859510298954 165.35,97.8631863910388 165.425,97.92206216067852 165.5,97.98245587497837 165.575,98.03869953017977 165.64999999999998,98.09859959199822 165.725,98.15048419030192 165.8,98.1764675626221 165.875,98.17877055760243 165.95,98.14326862540491 166.02499999999998,98.1002595969437 166.1,98.04852460324918 166.175,98.00852887119507 166.25,97.95111111891397 166.325,97.86802410523973 166.39999999999998,97.75445236171213 166.475,97.62535789817265 166.55,97.47642630943844 166.625,97.31204673623303 166.7,97.11929866274326 166.77499999999998,96.90004377438738 166.85,96.66213325535966 166.925,96.42155328750525 167.0,96.16832182240795 167.075,95.92956639252245 167.14999999999998,95.71532874656907 167.225,95.5563926366806 167.3,95.427148688707 167.375,95.32091217774041 167.45,95.2464539610791 167.52499999999998,95.1830769140229 167.6,95.12910621003437 167.675,95.0628130481442 167.75,95.01787490269776 167.825,95.01332132242031 167.89999999999998,95.02313144036992 167.975,95.0429312044707 168.05,95.0507225281274 168.125,95.10463335822556 168.2,95.19687245122525 168.27499999999998,95.33130563883188 168.35,95.46189541405998 168.425,95.59273951979426 168.5,95.73813435622264 168.575,95.87358437180089 168.64999999999998,95.98591482703198 168.725,96.05793551939863 168.8,96.13463696397221 168.875,96.22557510842957 168.95,96.32892538809624 169.02499999999998,96.4406502143864 169.1,96.55695109369205 169.175,96.6769158171163 169.25,96.78822190005192 169.325,96.87163787295071 169.39999999999998,96.95044039168171 169.475,97.02996820701763 169.55,97.13384938008457 169.625,97.21354928612053 169.7,97.26820780544497 169.77499999999998,97.2974213367622 169.85,97.34031080438169 169.925,97.38423206844539 170.0,97.41753558467892 170.075,97.44556026408843 170.14999999999998,97.476613248436 170.225,97.51275814396281 170.3,97.54500740436686 170.375,97.56558472787518 170.45,97.57513317128657 170.52499999999998,97.5652557953562 170.6,97.54073802477683 170.675,97.51313959298732 170.75,97.4820044756559 170.825,97.4544284498405 170.89999999999998,97.42494576642517 170.975,97.39965024949927 171.05,97.37474360574664 171.125,97.34414669914196 171.2,97.31140402660667 171.27499999999998,97.2889126347024 171.35,97.27203648970105 171.425,97.26244324769416 171.5,97.2510405296605 171.575,97.24297261640415 171.64999999999998,97.21681723350065 171.725,97.1804181543483 171.8,97.13479956430355 171.875,97.10745530278678 171.95,97.08580870156524 172.02499999999998,97.07263373507084 172.1,97.06336941223016 172.175,97.07039798471848 172.25,97.09027244430158 172.325,97.10678963972207 172.39999999999998,97.11118621794714 172.475,97.1184914735046 172.55,97.13959969041319 172.625,97.17293321035582 172.7,97.20786679458965 172.77499999999998,97.23616059939171 172.85,97.25199741697782 172.925,97.26918003511288 173.0,97.30175081723993 173.075,97.36026011968052 173.14999999999998,97.44888771148092 173.225,97.55510926732771 173.3,97.6800987213966 173.375,97.80464699809599 173.45,97.93306847723845 173.52499999999998,98.07038042259093 173.6,98.21453399021784 173.675,98.35464986030019 173.75,98.49076535494177 173.825,98.63174109300462 173.89999999999998,98.78471035885364 173.975,98.92764516753789 174.05,99.0548702854331 174.125,99.17078236901165 174.2,99.28257449200564 174.27499999999998,99.37826806946416 174.35,99.46690317621226 174.425,99.53528247316338 174.5,99.59021021134987 174.575,99.60717603365892 174.64999999999998,99.59839027465196 174.725,99.5732891075196 174.8,99.53313637608368 174.875,99.48148371967063 174.95,99.42002835610396 175.02499999999998,99.35216499609803 175.1,99.28398757643976 175.175,99.21359689465642 175.25,99.1491506470661 175.325,99.08880185888084 175.39999999999998,99.03707441445069 175.475,98.99142589146658 175.55,98.95190879909003 175.625,98.91235428579907 175.7,98.87474381657229 175.77499999999998,98.84274125021636 175.85,98.8124584171509 175.925,98.78537594767687 176.0,98.76375173907668 176.075,98.75486882520215 176.14999999999998,98.75810659528696 176.225,98.76428281941594 176.3,98.77635105363369 176.375,98.792397122722 176.45,98.80626736875942 176.52499999999998,98.81840295442744 176.6,98.82636622190351 176.675,98.83355930070968 176.75,98.83403785119063 176.825,98.82336782720506 176.89999999999998,98.80320168937465 176.975,98.77611165154175 177.05,98.745918519819 177.125,98.7158599708217 177.2,98.68214510867683 177.27499999999998,98.65626640884251 177.35,98.6358536183576 177.425,98.62907173858213 177.5,98.61351909497787 177.575,98.60374635147498 177.64999999999998,98.5893302435647 177.725,98.57818916001088 177.8,98.56091671768749 177.875,98.5440256442719 177.95,98.52781498874904 178.025,98.5182216265671 178.1,98.50696087534928 178.17499999999998,98.49788357162286 178.25,98.48286928562598 178.325,98.46727184342623 178.4,98.44487753962562 178.475,98.42693229049726 178.54999999999998,98.40683349076433 178.625,98.39802540589996 178.7,98.3975019900596 178.775,98.4023547795554 178.85,98.41295005464751 178.92499999999998,98.41647930268786 179.0,98.42802416112362 179.075,98.43562857248831 179.15,98.45015675032764 179.225,98.46054272050641 179.29999999999998,98.47552710961648 179.375,98.48292958680547 179.45,98.49168542222003 179.525,98.49022735145026 179.6,98.49539414505081 179.67499999999998,98.50352936969907 179.75,98.5168313612423 179.825,98.53858256818575 179.9,98.56794563734823 179.975,98.60252777626665 180.04999999999998,98.63668381444573 180.125,98.6594369743577 180.2,98.67193890704978 180.275,98.67718036942706 180.35,98.67793546944932 180.42499999999998,98.68381259118222 180.5,98.6875512376054 180.575,98.69123746099255 180.65,98.68243670680745 180.725,98.67409957468905 180.79999999999998,98.65724590242576 180.875,98.64830314136644 180.95,98.63958472045697 181.025,98.64425053089685 181.1,98.65071835315645 181.17499999999998,98.658262877278 181.25,98.66165001162187 181.325,98.65464395192997 181.4,98.6469872510571 181.475,98.6292812037289 181.54999999999998,98.61767649810835 181.625,98.60263227516629 181.7,98.59475875176183 181.775,98.57500390643159 181.85,98.54521465641305 181.92499999999998,98.51387759155313 182.0,98.49027948072501 182.075,98.47172842906951 182.15,98.46280823421775 182.225,98.45383556291883 182.29999999999998,98.45594412798893 182.375,98.45485994856705 182.45,98.45750697806682 182.525,98.4572453035286 182.6,98.44974564476645 182.67499999999998,98.43669033258327 182.75,98.42752328478524 182.825,98.43214417645459 182.9,98.4451844133429 182.975,98.45649736059939 183.04999999999998,98.46158935189536 183.125,98.46543268415716 183.2,98.47260327687248 183.275,98.49368154348309 183.35,98.5271870339507 183.42499999999998,98.56116346381148 183.5,98.58781978981726 183.575,98.61129084889097 183.65,98.62868289211444 183.725,98.6440036779506 183.79999999999998,98.65374652456666 183.875,98.66359405702134 183.95,98.66755689671373 184.025,98.66730267302985 184.1,98.67876527830667 184.17499999999998,98.70080073934868 184.25,98.72751689918647 184.325,98.74582854875003 184.4,98.75391151059569 184.475,98.76692942162657 184.54999999999998,98.78172681832794 184.625,98.8009209534878 184.7,98.81849253826562 184.775,98.82924486882125 184.85,98.83524909571969 184.92499999999998,98.83250496476349 185.0,98.83672205484532 185.075,98.8360790381049 185.15,98.83687895007542 185.225,98.83191413070894 185.29999999999998,98.82882599193887 185.375,98.82934931430974 185.45,98.83850142034075 185.525,98.84947054672239 185.6,98.85184082638906 185.67499999999998,98.8449168195643 185.75,98.83517397294824 185.825,98.83367856779012 185.9,98.83782097574245 185.975,98.84443840261122 186.04999999999998,98.8461058717638 186.125,98.84926861254667 186.2,98.8506817378403 186.275,98.85372503795652 186.35,98.85151184045894 186.42499999999998,98.85290266660073 186.5,98.8551309260404 186.575,98.8626679325437 186.65,98.87262019089538 186.725,98.8844266704582 186.79999999999998,98.89108143171534 186.875,98.89762408298509 186.95,98.90325443188843 187.025,98.91002876734008 187.1,98.91538989738137 187.17499999999998,98.91613776019386 187.25,98.91375993620336 187.325,98.90028597413516 187.4,98.88413517914988 187.475,98.86781229346455 187.54999999999998,98.85676845824781 187.625,98.84150002868377 187.7,98.82350986078485 187.775,98.80750101926263 187.85,98.79713748176356 187.92499999999998,98.78794794787468 188.0,98.77651526619026 188.075,98.76209170742564 188.15,98.75261815978834 188.225,98.74295759303676 188.29999999999998,98.73854601963355 188.375,98.7297527697139 188.45,98.71363192502658 188.525,98.70064389752973 188.6,98.69025803417324 188.67499999999998,98.69376472935882 188.75,98.70155603966272 188.825,98.7153440592468 188.9,98.72775616775056 188.975,98.73029099379343 189.04999999999998,98.73020123636903 189.125,98.73196584703642 189.2,98.74569408619965 189.275,98.76400588264386 189.35,98.7955373907668 189.42499999999998,98.82558834202914 189.5,98.85385972750427 189.575,98.87962623723449 189.65,98.9028279439183 189.725,98.92756267055711 189.79999999999998,98.9432574011523 189.875,98.9637301189387 189.95,98.98904057763161 190.025,99.00684384659134 190.1,99.0195252807794 190.17499999999998,99.0223591825128 190.25,99.02838594891323 190.325,99.03622220469326 190.4,99.04189000816004 190.475,99.04753527212482 190.54999999999998,99.03903367374694 190.625,99.03009081921812 190.7,99.00967048440938 190.775,98.9892501095423 190.85,98.94908995128706 190.92499999999998,98.90365091614945 191.0,98.84864849583343 191.075,98.80353095571326 191.15,98.7583610459682 191.225,98.70825602680448 191.29999999999998,98.65668559283895 191.375,98.60063618060879 191.45,98.56026649044287 191.525,98.52350848841522 191.6,98.49693434880443 191.67499999999998,98.4721473860686 191.75,98.45402996612349 191.825,98.4378716001088 191.9,98.42548177740412 191.975,98.41123018916446 192.04999999999998,98.40919635963502 192.125,98.4131069498776 192.2,98.42902596721149 192.275,98.44162514824065 192.35,98.46025088202566 192.42499999999998,98.48581547093296 192.5,98.52520541381271 192.575,98.56315985213027 192.65,98.60590720605326 192.725,98.66405025360402 192.79999999999998,98.74082644172992 192.875,98.82771188892461 192.95,98.9032843261047 193.025,98.9791034827032 193.1,99.04733325916767 193.17499999999998,99.11372359061349 193.25,99.16809054251873 193.325,99.21886840453995 193.4,99.26807609648624 193.475,99.32489559323459 193.54999999999998,99.3865752608986 193.625,99.44655019445612 193.7,99.49721593313717 193.775,99.54344016146979 193.85,99.58977656655375 193.92499999999998,99.63513347404862 194.0,99.67524140688904 194.075,99.71076568897901 194.15,99.73945582448505 194.225,99.76170055839371 194.29999999999998,99.77180978408052 194.375,99.77334262110234 194.45,99.76851234039712 194.525,99.7608556542123 194.6,99.74809949249524 194.67499999999998,99.73006439914938 194.75,99.71166292806805 194.825,99.69769545505798 194.9,99.68666655226131 194.975,99.67452352909176 195.04999999999998,99.6586792806805 195.125,99.64319393511535 195.2,99.6314397143493 195.275,99.62168192062511 195.35,99.6150271887441 195.42499999999998,99.60930710912193 195.5,99.60452168042333 195.575,99.59536954368092 195.65,99.58357045622017 195.725,99.56993946539403 195.79999999999998,99.55716834989244 195.875,99.54234847778245 195.95,99.52049254494202 196.025,99.49477837946638 196.1,99.46949036547069 196.17499999999998,99.44711853974927 196.25,99.42538222783809 196.325,99.40432640325412 196.4,99.38384621057837 196.475,99.36795703404961 196.54999999999998,99.35677856937266 196.625,99.35041544763978 196.7,99.34257930535843 196.775,99.33684427061645 196.85,99.33313556113845 196.92499999999998,99.33565538799733 197.0,99.33724055592097 197.075,99.34186896787914 197.15,99.34977989243589 197.225,99.35627012868129 197.29999999999998,99.35952272836973 197.375,99.35238944467248 197.45,99.34857598926831 197.525,99.34434389065552 197.6,99.34274374624762 197.67499999999998,99.33802543265497 197.75,99.32467858910512 197.825,99.29426117064365 197.9,99.25960424277342 197.975,99.2147932291981 198.04999999999998,99.15941683741747 198.125,99.08888409534877 198.2,99.02227694404193 198.275,98.96480696501075 198.35,98.90442830063549 198.42499999999998,98.82401813189585 198.5,98.74217236779506 198.575,98.65855442466804 198.65,98.5876552848347 198.725,98.51493178061868 198.79999999999998,98.44593187156599 198.875,98.37492058702802 198.95,98.31050422590936 199.025,98.25462681090973 199.1,98.20464904379219 199.17499999999998,98.16949873049627 199.25,98.14281252095645 199.325,98.14513039093988 199.4,98.14926534803789 199.475,98.16478071066491 199.54999999999998,98.18836395984273 199.625,98.22606417447639 199.7,98.26333816819565 199.775,98.29587908014145 199.85,98.3237391731164 199.92499999999998,100.0" opacity="1" fill="#F28E2B" stroke="black" stroke-width="0"/>
<line x1="40" y1="100.0" x2="40" y2="70.0" stroke="black" stroke-width="1" />
<line x1="39.5" y1="100.0" x2="43.5" y2="100.0" stroke="black" stroke-width="1" />
<line x1="39.5" y1="70.0" x2="43.5" y2="70.0" stroke="black" stroke-width="1" />
<text text-anchor="end" font-family="Arial" x="36" y="104.0" font-size="8" >0</text>
<text text-anchor="end" font-family="Arial" x="36" y="74.0" font-size="8" >4448.5</text>
<text text-anchor="start" font-family="Arial" x="39.5" y="66" font-size="7" >ChrIV: 424,000-474,000</text>
</svg>
