<svg viewBox="0 0 320 210" xmlns="http://www.w3.org/2000/svg">
<polygon points="50.0,100.0 50.075,98.90137251778913 50.15,98.88106587404933 50.225,98.86326086997151 50.3,98.84979055821162 50.375,98.83979429080439 50.45,98.82648603443526 50.525,98.81425144928946 50.6,98.80326261070041 50.675,98.795474275646 50.75,98.78626791974943 50.825,98.77084297761749 50.9,98.75560032971359 50.975,98.73561772440912 51.05,98.71327535025571 51.125,98.68525118026223 51.2,98.66110595797328 51.275,98.64942842014663 51.35,98.65875637546318 51.425,98.6848360797196 51.5,98.72471014683181 51.575,98.78034324881844 51.65,98.84888969482657 51.725,98.91418503116354 51.8,98.97526720225643 51.875,99.03269303657726 51.95,99.09002783230329 52.025,99.14022227217829 52.1,99.18139265942804 52.175,99.21196908788062 52.25,99.23796774092916 52.325,99.26119128765247 52.4,99.27019509239713 52.475,99.26875690506384 52.55,99.26824033541929 52.625,99.27207878736266 52.7,99.28163960325341 52.775,99.27825684166382 52.85,99.26009742823413 52.925,99.22407208079356 53.0,99.17554875936356 53.075,99.12401741315719 53.15,99.06445456922951 53.225,99.0067756192193 53.3,98.94566309891373 53.375,98.88988809536691 53.45,98.83483218548676 53.525,98.77965466895199 53.6,98.72830561154773 53.675,98.67650075888774 53.75,98.63073221632163 53.825,98.5892883443221 53.9,98.56140593662245 53.975,98.54828002874099 54.05,98.53287536161942 54.125,98.52280815880566 54.2,98.4989568789509 54.275,98.47884260364145 54.35,98.4468379119396 54.425,98.41404332681363 54.5,98.37954719625786 54.575,98.34651976502691 54.65,98.31980189532327 54.725,98.2872908528715 54.8,98.25525588430311 54.875,98.22154982803687 54.95,98.20000749385605 55.025,98.19040625455031 55.1,98.1924319107616 55.175,98.20352208822948 55.25,98.21416655911317 55.325,98.23032078667657 55.4,98.2503439420018 55.475,98.27732515171542 55.55,98.30568361521193 55.625,98.32927182635481 55.7,98.35853165061621 55.775,98.38990826915966 55.85,98.43383352751466 55.925,98.4794299097406 56.0,98.52347665537904 56.075,98.56212503933236 56.15,98.59831255068292 56.225,98.64242010326596 56.3,98.68678079505091 56.375,98.72728270562246 56.45,98.75566151647553 56.525,98.7801104841029 56.6,98.80129823168376 56.675,98.82875535973655 56.75,98.85624286594047 56.825,98.88292007529547 56.9,98.90775390458069 56.975,98.93274975489223 57.05,98.9630223909814 57.125,98.99300128901425 57.2,99.01685269185747 57.275,99.03315879209008 57.35,99.04119026810756 57.425,99.04931292379483 57.5,99.05561271316502 57.575,99.06306708570007 57.65,99.07567651436968 57.725,99.08738445205131 57.8,99.1043794016398 57.875,99.12216424103512 57.95,99.1424809842984 58.025,99.15897954158541 58.1,99.16110646975534 58.175,99.15270011042368 58.25,99.14352404948019 58.325,99.14199470779826 58.4,99.14556991378167 58.475,99.13930068161936 58.55,99.1273900842666 58.625,99.11559094340265 58.7,99.11322100630142 58.775,99.11404137735265 58.85,99.1098889430897 58.925,99.10006470579957 59.0,99.09152672529657 59.075,99.08530793468329 59.15,99.07736754609427 59.225,99.07113886033541 59.3,99.0612033763603 59.375,99.0512374129494 59.45,99.0464873741119 59.525,99.05286803563324 59.6,99.07826907506397 59.675,99.10715426017946 59.75,99.13408478417577 59.825,99.15542452198835 59.9,99.17255100412413 59.975,99.19980548335771 60.05,99.2310707286104 60.125,99.26238654925251 60.2,99.28657224198147 60.275,99.30344551799517 60.35,99.32220258483305 60.425,99.33840748907049 60.5,99.35104720545856 60.575,99.35882566345394 60.65,99.36799148922493 60.725,99.3682446645999 60.8,99.35047997541785 60.875,99.31204424213988 60.95,99.25258253813911 61.025,99.19170297607504 61.1,99.12700528952895 61.175,99.06584221553781 61.25,99.00389920837965 61.325,98.93621363641853 61.4,98.86798115826076 61.475,98.79576833926001 61.55,98.72566219150535 61.625,98.65740947993623 61.7,98.60190792858344 61.775,98.5603323992395 61.85,98.53473885211207 61.925,98.52004308870099 62.0,98.51111019042439 62.075,98.50893265792658 62.15,98.50771730218155 62.225,98.51298383650878 62.3,98.53893185809963 62.375,98.58274556410713 62.45,98.6479701133472 62.525,98.70636831075964 62.6,98.75588409846952 62.675,98.79643658262185 62.75,98.84333947855878 62.825,98.89476957089305 62.9,98.95029137916968 62.975,99.00089102082443 63.05,99.05414415129789 63.125,99.09973035984557 63.2,99.1292028673381 63.275,99.14274402407182 63.35,99.14681559341824 63.425,99.14946916000908 63.5,99.15392556569218 63.575,99.15606263317596 63.65,99.1604987240583 63.725,99.1624939605194 63.8,99.16217998905175 63.875,99.15989104528146 63.95,99.15483717067285 64.025,99.1492768783941 64.1,99.14685627004478 64.175,99.14666393055289 64.25,99.13792345134897 64.325,99.12848417157531 64.4,99.11218817810078 64.475,99.10405544097658 64.55,99.08886343176499 64.625,99.0822396491758 64.7,99.08019382285606 64.775,99.08592631707401 64.85,99.08869131844982 64.925,99.08738478303498 65.0,99.0792215049808 65.075,99.06715902048958 65.15,99.05298985028304 65.225,99.04324674378155 65.3,99.03961076883526 65.375,99.03653196600527 65.45,99.03017167535297 65.525,99.0232341148221 65.6,99.01538497101441 65.675,99.01184014499081 65.75,99.0142607858959 65.825,99.01859563375805 65.9,99.02274823079986 65.975,99.02132017735445 66.05,99.01921364899204 66.125,99.01845411563251 66.2,99.01575002067727 66.275,99.0167223277006 66.35,99.02115828112525 66.425,99.0343753415467 66.5,99.05335528157188 66.575,99.0663596081199 66.65,99.0649720992693 66.725,99.06026243682179 66.8,99.05663663736243 66.875,99.05939137100998 66.95,99.05855070867047 67.025,99.05220030773778 67.1,99.04217356451208 67.175,99.0366233247318 67.25,99.02849050260087 67.325,99.02362895663224 67.4,99.01682281108614 67.475,99.00520603860508 67.55,98.99451083497908 67.625,98.97475107573209 67.7,98.96421794015741 67.775,98.94798270841115 67.85,98.93149437001874 67.925,98.90657956910643 68.0,98.88098612326361 68.075,98.86729304321837 68.15,98.86841724823208 68.225,98.87076701522487 68.3,98.86671578780901 68.375,98.86114539600682 68.45,98.86077066100225 68.525,98.8629380071612 68.6,98.86742468066758 68.675,98.8678399114333 68.75,98.87549666691544 68.825,98.8823836990819 68.9,98.89105331160815 68.975,98.90137374405649 69.05,98.90760229597494 69.125,98.91898607223277 69.2,98.92372579450834 69.275,98.93176735919735 69.35,98.93545377569265 69.425,98.94338380069475 69.5,98.95352188465543 69.575,98.96298157870581 69.65,98.96178638402596 69.725,98.96124957554409 69.8,98.96315365042194 69.875,98.9765833633274 69.95,98.99320336991613 70.025,99.01908052121199 70.1,99.04743895938735 70.175,99.07891695298272 70.25,99.11025305044387 70.325,99.13917871504263 70.4,99.17012992733345 70.475,99.20321806241571 70.55,99.2416539638985 70.625,99.2765552148446 70.7,99.30356675568437 70.775,99.31643953521586 70.85,99.32273928117837 70.925,99.31778682502937 71.0,99.30360764754073 71.075,99.2814271117396 71.15,99.27135996318545 71.225,99.26760252085091 71.3,99.26541484903926 71.375,99.24926059796336 71.45,99.22430526511681 71.525,99.18770259715535 71.6,99.1486084415063 71.675,99.11501376214812 71.75,99.08836692732697 71.825,99.06966046843426 71.9,99.05326321747032 71.975,99.04414799783586 72.05,99.03785849247183 72.125,99.04103868844028 72.2,99.05587623042307 72.275,99.08321175543855 72.35,99.11652279445524 72.425,99.1579159481817 72.5,99.20666205779224 72.575,99.26063429821023 72.65,99.30759796311004 72.725,99.34583122300823 72.8,99.3798208834429 72.875,99.41497530795532 72.95,99.45512266629135 73.025,99.50100258576552 73.1,99.5522301142873 73.175,99.5952640824624 73.25,99.6267116002393 73.325,99.64710942726623 73.4,99.66377000738822 73.475,99.67541722494063 73.55,99.68006599001083 73.625,99.67692631150737 73.7,99.66916824970217 73.775,99.66092404885453 73.85,99.65153537702606 73.925,99.63870317826245 74.0,99.62806876711183 74.075,99.61993597572803 74.15,99.61581387259122 74.225,99.60982821385022 74.3,99.60414638183708 74.375,99.59629715663996 74.45,99.5883871697146 74.525,99.58245215690052 74.6,99.57666904931142 74.675,99.57153414519878 74.75,99.56565988506969 74.825,99.56078831734972 74.9,99.55667634448349 74.975,99.55132875713971 75.05,99.54865495713754 75.125,99.55057928713057 75.2,99.55799299389102 75.275,99.57417755619788 75.35,99.59404873395198 75.425,99.61399080913087 75.5,99.62639763238896 75.575,99.63344674345868 75.65,99.63898675891838 75.725,99.64714993930527 75.8,99.65649810452065 75.875,99.66795291023502 75.95,99.67718964790004 76.025,99.68582884067608 76.1,99.69558212085585 76.175,99.70343133339239 76.25,99.71205028913978 76.325,99.71166541663003 76.4,99.70874855162828 76.475,99.70288442357841 76.55,99.70235776887964 76.625,99.69782040061268 76.7,99.68465397707489 76.775,99.66192671955979 76.85,99.64007045551035 76.925,99.62573931491981 77.0,99.61091188512106 77.075,99.59883927940254 77.15,99.5846499336616 77.225,99.57097710692288 77.3,99.55505586653945 77.375,99.54112984091329 77.45,99.53104235042856 77.525,99.51638712437767 77.6,99.4979136110659 77.675,99.48124289524736 77.75,99.4671649408837 77.825,99.46049058652241 77.9,99.45585194810549 77.975,99.45140575227373 78.05,99.4406396638835 78.125,99.43156496171405 78.2,99.42599454639935 78.275,99.42049501584887 78.35,99.41165325021707 78.425,99.4016264979481 78.5,99.40161636767753 78.575,99.40438131660238 78.65,99.41170388167475 78.725,99.41817569754473 78.8,99.42201420917368 78.875,99.42382712065961 78.95,99.42376634084481 79.025,99.43083569798644 79.1,99.43537306263607 79.175,99.4338842438451 79.25,99.4250627369458 79.325,99.41380037200796 79.4,99.40297352369814 79.475,99.39461790253473 79.55,99.39229858242194 79.625,99.39205551199639 79.7,99.39029323558546 79.775,99.39147821498801 79.85,99.39601557059437 79.925,99.4015758592558 80.0,99.40211265145977 80.075,99.4006238254342 80.15,99.3977778397707 80.225,99.39729169349364 80.3,99.39811206454489 80.375,99.39554966677193 80.45,99.38967542292073 80.525,99.38170466160652 80.6,99.37858523098363 80.675,99.37693436765383 80.75,99.37762307955201 80.825,99.38154262972826 80.9,99.38880441679449 80.975,99.39579275890132 81.05,99.39482046815587 81.125,99.38503681163361 81.2,99.37926385059296 81.275,99.37725851279976 81.35,99.37941577028718 81.425,99.37815988803388 81.5,99.37578992561147 81.575,99.37270088399166 81.65,99.3660163830819 81.725,99.35350827339593 81.8,99.34327898806161 81.875,99.33958226404765 81.95,99.34091915410114 82.025,99.34218516481637 82.1,99.3377693489444 82.175,99.33859984122296 82.25,99.34158760726683 82.32499999999999,99.34755300365802 82.4,99.3372629385089 82.475,99.329423845391 82.55,99.32537263787036 82.625,99.33989621381146 82.69999999999999,99.35491606810885 82.775,99.37052334425923 82.85,99.38605973383675 82.925,99.40708550199032 83.0,99.43101801210969 83.07499999999999,99.45793829912485 83.15,99.48485860422655 83.225,99.51611367326885 83.3,99.5479865361659 83.375,99.57729702480249 83.44999999999999,99.6054124176926 83.525,99.63096540376648 83.6,99.65966820584902 83.675,99.68583901471608 83.75,99.71414682577453 83.82499999999999,99.74116838040756 83.9,99.78065752346338 83.975,99.81633853683958 84.05,99.85242468091543 84.125,99.87658000128093 84.19999999999999,99.89762601568728 84.275,99.91257496622958 84.35,99.92343220299989 84.425,99.93179795361996 84.5,99.9392926887088 84.57499999999999,99.94313120033776 84.65,99.94702033836016 84.725,99.95027143066822 84.8,99.95351240156812 84.875,99.95584184688725 84.94999999999999,99.95751297184339 85.025,99.95893089664601 85.1,99.95975126606946 85.175,99.95897140597206 85.25,99.95468725576431 85.32499999999999,99.94787110365958 85.4,99.93598080392536 85.475,99.92303719461272 85.55,99.90457381464624 85.625,99.88089450666992 85.69999999999999,99.84612501055467 85.775,99.79788528515415 85.85,99.73228611358866 85.925,99.6556777708181 86.0,99.57616264122716 86.07499999999999,99.50376755151085 86.15,99.43945465572337 86.225,99.37637737839246 86.3,99.31627775582571 86.375,99.25951020388614 86.44999999999999,99.21251623227701 86.525,99.16745678188312 86.6,99.12617494537915 86.675,99.07400562381508 86.75,99.00488185909472 86.82499999999999,98.9185303420886 86.9,98.82469424440974 86.975,98.73851493838609 87.05,98.65416878268569 87.125,98.56981250756662 87.19999999999999,98.48560817565428 87.275,98.40639682097323 87.35,98.34784675089158 87.425,98.31025150993965 87.5,98.26939512128736 87.57499999999999,98.21415694973491 87.65,98.11827497871131 87.725,98.0077478486045 87.8,97.85228274055628 87.875,97.6526898772608 87.94999999999999,97.40613333097896 88.025,97.1541379417201 88.1,96.90731817479944 88.175,96.63556304076282 88.25,96.3660159837713 88.32499999999999,96.10597915462056 88.4,95.82883607674536 88.475,95.49744727189376 88.55,95.14714944252832 88.625,94.82009561937926 88.69999999999999,94.54301323992945 88.775,94.31056512925568 88.85,94.12879759930802 88.925,93.98191108146914 89.0,93.83894404326901 89.07499999999999,93.7020537204912 89.15,93.5892073172966 89.225,93.51125203658617 89.3,93.45554788343917 89.375,93.41458004553266 89.44999999999999,93.39134640290321 89.525,93.39124508211091 89.6,93.4279084503064 89.675,93.54434020241557 89.75,93.71050053217633 89.82499999999999,93.93399549850156 89.9,94.21608106684269 89.975,94.58036563292025 90.05,94.9692106520525 90.125,95.34306610822311 90.19999999999999,95.66355710403721 90.275,95.91329381192308 90.35,96.06535584719825 90.425,96.14146789253121 90.5,96.20814064542994 90.57499999999999,96.26031011005853 90.65,96.30812449883959 90.725,96.32301266866276 90.8,96.34177984045006 90.875,96.3521609351507 90.94999999999999,96.37041168198577 91.025,96.3835478268484 91.1,96.37988152258461 91.175,96.33994671544798 91.25,96.26733886472843 91.32499999999999,96.13616075934955 91.4,95.9892741149049 91.475,95.83091244761242 91.55,95.69877226495673 91.625,95.57572691659723 91.69999999999999,95.46801546273161 91.775,95.3967344766969 91.85,95.36149914928623 91.925,95.35172558143552 92.0,95.35094565369445 92.07499999999999,95.35554374028196 92.15,95.33693853345271 92.225,95.31575071352569 92.3,95.28574141925515 92.375,95.29652790564421 92.44999999999999,95.30250340879348 92.525,95.29237538094857 92.6,95.23330886782813 92.675,95.15432041165553 92.75,95.06316823339749 92.82499999999999,94.98356197722073 92.9,94.84419034405093 92.975,94.67431308580333 93.05,94.48368347723174 93.125,94.33295825423794 93.19999999999999,94.17999485819789 93.275,94.02310167319176 93.35,93.88003325993972 93.425,93.78188260387832 93.5,93.70230682352 93.57499999999999,93.64350357806339 93.65,93.59885934360426 93.725,93.56669277737706 93.8,93.55216932261577 93.875,93.54193997397856 93.94999999999999,93.5561799041522 94.025,93.57784370752992 94.1,93.62886860170173 94.175,93.68431954330069 94.25,93.74899711580659 94.32499999999999,93.80541018894198 94.4,93.90044138725068 94.475,93.98389633235197 94.55,94.03619743081248 94.625,94.01921279597725 94.69999999999999,94.00609699847118 94.775,94.00354469841302 94.85,93.9958980713928 94.925,93.94663536681655 95.0,93.86810258291119 95.07499999999999,93.7947554268175 95.15,93.75366601119485 95.225,93.72857880577409 95.3,93.71315370086329 95.375,93.66999827796052 95.44999999999999,93.6073564358682 95.525,93.54891786930038 95.6,93.49278835692574 95.675,93.45896077720298 95.75,93.41712198200388 95.82499999999999,93.38642398849574 95.9,93.35108728603315 95.975,93.33545964805698 96.05,93.35282925487793 96.125,93.42540661169248 96.19999999999999,93.50530657517844 96.275,93.57507861933871 96.35,93.64825346497395 96.425,93.74676872757802 96.5,93.86502353048695 96.57499999999999,93.96294121383761 96.65,94.03586297453059 96.725,94.10594889249121 96.8,94.15285181013199 96.875,94.19591607687747 96.94999999999999,94.22376824388367 97.025,94.24703219955272 97.1,94.28084961464049 97.175,94.31050446700338 97.25,94.33892370127144 97.32499999999999,94.36940901516577 97.4,94.43994053119134 97.475,94.52814552598204 97.55,94.5840825614071 97.625,94.5764562274838 97.69999999999999,94.56981219158808 97.775,94.58285701751456 97.85,94.59735024966893 97.925,94.5553493086464 98.0,94.49748790162927 98.07499999999999,94.4088171061094 98.15,94.31219572119241 98.225,94.15813848743787 98.3,94.02262554504874 98.375,93.90184902641936 98.44999999999999,93.80777994156051 98.525,93.71447054560544 98.6,93.61633018078481 98.675,93.53048508144882 98.75,93.44236111435347 98.82499999999999,93.35326495960595 98.9,93.25397997006893 98.975,93.14513401994883 99.05,93.05506555094334 99.125,92.99961451891168 99.19999999999999,92.95457523826452 99.275,92.90442131947185 99.35,92.83839680622265 99.425,92.79431969328499 99.5,92.76540430907508 99.57499999999999,92.76459417681365 99.65,92.80102471699071 99.725,92.89231865754257 99.8,92.99307227405828 99.875,93.07793489450131 99.94999999999999,93.14520519048037 100.025,93.20221584286912 100.1,93.24419632801589 100.175,93.23903102947422 100.25,93.23729909865867 100.32499999999999,93.24780180724852 100.4,93.25918567393904 100.475,93.24978694961213 100.55,93.22179309265826 100.625,93.16588658731129 100.69999999999999,93.113129798497 100.775,93.0757372172162 100.85,93.0857132276996 100.925,93.08769831580358 101.0,93.07149346401711 101.07499999999999,93.0521589717564 101.15,93.04141318008041 101.225,93.03444506957626 101.3,93.02176477784629 101.375,93.01820986857712 101.44999999999999,93.01694391935611 101.525,93.00303815607975 101.6,92.98305565929451 101.675,92.97827531465202 101.75,92.98816033175697 101.82499999999999,92.98803884447352 101.9,92.97334318777303 101.975,92.97557137704968 102.05,93.00357530820585 102.125,93.0773984296637 102.19999999999999,93.16492472707296 102.275,93.23320777881149 102.35,93.25028371449632 102.425,93.27235274678361 102.5,93.30883385692412 102.57499999999999,93.35213109638035 102.65,93.33449814954943 102.725,93.24236367326382 102.8,93.1328189858769 102.875,93.07391434728183 102.94999999999999,93.0695998033685 103.025,93.06223661050325 103.1,93.01813918638213 103.175,92.9437988441643 103.25,92.83898467300452 103.32499999999999,92.67450514341316 103.4,92.4661721952003 103.475,92.2297145158363 103.55,91.98241956308134 103.625,91.70110417383667 103.69999999999999,91.39249424367422 103.775,91.07511344530478 103.85,90.80363150844195 103.925,90.53779217388886 104.0,90.26813437301817 104.07499999999999,90.0052422219324 104.15,89.77626793857283 104.225,89.58328903325847 104.3,89.38700841213644 104.375,89.14116110597472 104.44999999999999,88.8276996425517 104.525,88.48260764366216 104.6,88.17907049939366 104.675,87.93037693265305 104.75,87.73312278547493 104.82499999999999,87.56136143435795 104.9,87.44782553611802 104.975,87.31565453399962 105.05,87.19403612314605 105.125,87.03717283518914 105.19999999999999,86.89454980296357 105.275,86.78259358305266 105.35,86.70461817202417 105.425,86.71321524667651 105.5,86.74274658606359 105.57499999999999,86.77643059483862 105.65,86.82924799164557 105.725,86.98004377022858 105.8,87.20884543565855 105.875,87.45853128419633 105.94999999999999,87.71931696841389 106.025,88.01972427325623 106.1,88.29809332910091 106.175,88.49671481863847 106.25,88.55324990356692 106.32499999999999,88.58904334540257 106.4,88.58661269540671 106.475,88.64774465512457 106.55,88.6738853110179 106.625,88.66988420682799 106.69999999999999,88.5884242431676 106.775,88.46870130161655 106.85,88.27719071580968 106.925,87.97734103705577 107.0,87.6376584688133 107.07499999999999,87.25656260929168 107.15,86.86477037051904 107.225,86.37497840785416 107.3,85.90651689556398 107.375,85.48596063882755 107.44999999999999,85.09815789268669 107.525,84.69900224401032 107.6,84.30574098035513 107.675,84.01701144846444 107.75,83.83787603447217 107.82499999999999,83.73556192944547 107.9,83.56427770123115 107.975,83.33463454148088 108.05,83.09738635375042 108.125,82.97256843412191 108.19999999999999,82.88265156648755 108.275,82.78982819201241 108.35,82.71247007456498 108.425,82.68907368925629 108.5,82.7091376297273 108.57499999999999,82.7794763613321 108.65,82.84604857115973 108.725,82.94094900379041 108.8,82.92656767305374 108.875,82.88277473581914 108.94999999999999,82.82034669470607 109.025,82.79717476334818 109.1,82.8007204484824 109.175,82.78730023643594 109.25,82.80591689204448 109.32499999999999,82.76822074629067 109.4,82.77502689183676 109.475,82.78445612815521 109.55,82.86921724694056 109.625,82.95131566543282 109.69999999999999,83.09427275603642 109.775,83.3030511033623 109.85,83.59321996203823 109.925,83.95031389892054 110.0,84.34559937186388 110.07499999999999,84.71350128194375 110.15,85.05191887763834 110.225,85.29154815824738 110.3,85.48723167036604 110.375,85.52519115612984 110.44999999999999,85.51607590213095 110.525,85.41634419316354 110.6,85.35292103066666 110.675,85.25112456239033 110.75,85.16593623955035 110.82499999999999,85.09633652393505 110.9,85.03550660942093 110.975,84.97968105942319 111.05,84.89599301500537 111.125,84.82437737373685 111.19999999999999,84.75291402112794 111.275,84.66487109981452 111.35,84.51633304582658 111.425,84.27695751936176 111.5,83.9840565080824 111.57499999999999,83.66539737121263 111.65,83.33845351422158 111.725,83.04838684449183 111.8,82.82616748559948 111.875,82.77221570105726 111.94999999999999,82.79475152883339 112.025,82.89281095639134 112.1,82.96284746192703 112.175,83.0480739473646 112.25,83.1034346733063 112.32499999999999,83.14395738339788 112.4,83.18907769174041 112.475,83.23003538309845 112.55,83.28112117464757 112.625,83.27133726129645 112.69999999999999,83.24848853639311 112.775,83.16619966664365 112.85,83.10665715198596 112.925,83.06894111103908 113.0,83.03190223011784 113.07499999999999,83.0468514781837 113.15,83.10369114043138 113.225,83.24300198474313 113.3,83.39766757732838 113.375,83.51732034310754 113.44999999999999,83.59918381745628 113.525,83.64467869802453 113.6,83.67458569482967 113.675,83.67643034095718 113.75,83.66077336661454 113.82499999999999,83.6938719141174 113.9,83.80806489632451 113.975,83.98179080732356 114.05,84.07140382110026 114.125,84.18576012475586 114.2,84.26669268493474 114.27499999999999,84.40443307505242 114.35,84.44297042574193 114.425,84.49837039947357 114.5,84.60238536264157 114.575,84.70631839378724 114.64999999999999,84.74957524600154 114.725,84.71577873895303 114.8,84.69081280377725 114.875,84.67260182924176 114.95,84.70386712513677 115.02499999999999,84.76430202963591 115.1,84.8128361722423 115.175,84.83836857782414 115.25,84.8590796546658 115.325,84.81383762391482 115.39999999999999,84.6355947806294 115.475,84.40244843911191 115.55,84.21201038507643 115.625,84.0203677675338 115.7,83.74907908534175 115.77499999999999,83.43469560632613 115.85,83.19892490797854 115.925,82.96225386171224 116.0,82.59202403317886 116.075,82.23690568896748 116.14999999999999,81.96964723029338 116.225,81.8340421369873 116.3,81.67281312021129 116.375,81.56208389111606 116.45,81.50641967304749 116.52499999999999,81.54517840297615 116.6,81.64972945116443 116.675,81.90337507615018 116.75,82.24744437168371 116.825,82.68934985262251 116.89999999999999,83.23093618318063 116.975,83.81303350375296 117.05,84.41436484586106 117.125,84.93419567428799 117.2,85.42314554577676 117.27499999999999,85.7212028485013 117.35,85.85788011184796 117.425,85.83455498750351 117.5,85.89574807972367 117.575,85.83351121332939 117.64999999999999,85.7309343108889 117.725,85.50570752226733 117.8,85.33406897875113 117.875,85.02939742866084 117.95,84.57269477127733 118.02499999999999,83.9336778097812 118.1,83.22759342901563 118.175,82.46234092495271 118.25,81.6217959489917 118.325,80.65263620049882 118.39999999999999,79.6025128191528 118.475,78.62186757570595 118.55,77.69160828326248 118.625,76.91598405332618 118.7,76.31543281982455 118.77499999999999,76.02949928602047 118.85,75.9459333257419 118.925,75.99199558104317 119.0,76.1029385930311 119.075,76.33625766099745 119.14999999999999,76.59567723274021 119.225,76.88565202285112 119.3,77.09297223339104 119.375,77.40016540876908 119.45,77.76554497009963 119.52499999999999,78.28926530876994 119.6,78.82419785478776 119.675,79.25523571312286 119.75,79.63183634420508 119.825,80.07513958906218 119.89999999999999,80.57234469961344 119.975,80.96329645691196 120.05,81.24101725502055 120.125,81.39405234610179 120.2,81.37607486878667 120.27499999999999,81.18989022616219 120.35,80.82803645477279 120.425,80.34956845618078 120.5,79.65670063303088 120.575,78.9212851308666 120.64999999999999,78.20686448334317 120.725,77.55548139330203 120.8,76.92825359975215 120.875,76.3271355341137 120.95,75.79292228975773 121.02499999999999,75.22072025944458 121.1,74.70504155780942 121.175,74.33023420708355 121.25,74.14850626857006 121.325,74.04619288700493 121.39999999999999,73.92402880526532 121.475,73.82200878736515 121.55,73.74114622209275 121.625,73.6952252226622 121.7,73.65470395949376 121.77499999999999,73.55090259835308 121.85,73.49988770603741 121.925,73.55049800247238 122.0,73.7595507225971 122.075,73.97150922610103 122.14999999999999,74.12780423499797 122.225,74.22523605964756 122.3,74.3350944218829 122.375,74.42235781335913 122.45,74.47213703332032 122.52499999999999,74.45423027437327 122.6,74.34978955407377 122.675,74.24854978947235 122.75,74.07315358658316 122.825,73.7721794676905 122.89999999999999,73.46685987690262 122.975,73.20204255841706 123.05,73.06853604624811 123.125,73.0 123.2,73.060353515073 123.27499999999999,73.27085297746402 123.35,73.5303125204583 123.425,73.76167589094678 123.5,73.97353365242766 123.575,74.23018797320039 123.64999999999999,74.57960471681132 123.725,75.07773133653208 123.8,75.67078805080772 123.875,76.34474693987647 123.95,77.04191990193934 124.02499999999999,77.86328209553 124.1,78.72560071442098 124.175,79.48899048581724 124.25,80.1275004816211 124.325,80.75149675322172 124.39999999999999,81.38778915846086 124.475,82.09021824966499 124.55,82.84926222360829 124.625,83.69778748706368 124.7,84.6129240453578 124.77499999999999,85.57152167097972 124.85,86.59324627393346 124.925,87.67418989570571 125.0,88.74610862382866 125.075,89.7207484489905 125.14999999999999,90.52671633904654 125.225,91.0673496175109 125.3,91.42238689785381 125.375,91.52093339591097 125.45,91.4357660534564 125.52499999999999,91.08451551564144 125.6,90.62809790211486 125.675,90.0725155926231 125.75,89.4956544698259 125.825,88.87949744688738 125.89999999999999,88.18152542152505 125.975,87.30667753350596 126.05,86.24493742127792 126.125,85.10769311612454 126.2,84.04498088859046 126.27499999999999,83.04740098341604 126.35,82.06478038242327 126.425,81.04165797937814 126.5,80.02119871070306 126.575,79.0856136921157 126.64999999999999,78.2173280888354 126.725,77.45054633171459 126.8,76.69153227290704 126.875,76.07733745860051 126.95,75.60089605671982 127.02499999999999,75.39866991993041 127.1,75.28277445179347 127.175,75.2764340346304 127.25,75.35166517507425 127.325,75.5618824874546 127.39999999999999,75.80921862325921 127.475,76.03347289867088 127.55,76.23720781455584 127.625,76.4241303879775 127.7,76.48544429827916 127.77499999999999,76.47662385486835 127.85,76.46945435075082 127.925,76.56929638760701 128.0,76.70366544682784 128.075,76.86562154247753 128.14999999999998,77.18577878738476 128.225,77.66882503163085 128.3,78.33650427430806 128.375,78.97914867209533 128.45,79.59677558807026 128.52499999999998,80.09609808975935 128.6,80.4873542435117 128.675,80.69448255587128 128.75,80.69652868604489 128.825,80.57621720851002 128.89999999999998,80.60757347969692 128.975,80.80086631307125 129.05,81.09671615369301 129.125,81.29718952397374 129.2,81.47036849802902 129.27499999999998,81.60499963120206 129.35,81.63973754261315 129.425,81.59138553145597 129.5,81.53517509990519 129.575,81.46977797252589 129.64999999999998,81.19487342942774 129.725,80.7488237436013 129.8,80.20027058668333 129.875,79.750837994575 129.95,79.33323843482546 130.02499999999998,78.89381348655749 130.1,78.53942384900832 130.175,78.36114989687557 130.25,78.4109900684737 130.325,78.48025590657636 130.39999999999998,78.45184737953949 130.475,78.32843785871427 130.55,78.22936558496413 130.625,78.14758187225303 130.7,78.07755748469857 130.77499999999998,77.9222650126665 130.85,77.77514620940538 130.925,77.54416753960454 131.0,77.35371989970331 131.075,77.15619445443801 131.14999999999998,77.14413181801987 131.225,77.14253206363239 131.3,77.08565261099858 131.375,76.95107175840435 131.45,76.81584340770868 131.52499999999998,76.80138068754584 131.6,76.77721562432345 131.675,76.85042143411371 131.75,76.90942659769335 131.825,77.13575666520283 131.89999999999998,77.37210360068764 131.975,77.63463224850965 132.05,77.84857629228105 132.125,78.12924356848195 132.2,78.40645703916749 132.27499999999998,78.65400551094169 132.35,78.84434083343481 132.425,78.98249757568365 132.5,78.9952484049163 132.575,78.89636893367346 132.64999999999998,78.74257475054425 132.725,78.63387030950643 132.8,78.57055946441766 132.875,78.5432943683856 132.95,78.5533009270336 133.02499999999998,78.55673375216355 133.1,78.58146619011896 133.175,78.5780528984513 133.25,78.62605981844156 133.325,78.66182233229526 133.39999999999998,78.75771408813655 133.475,78.88975269678839 133.55,79.09144238682671 133.625,79.283986256615 133.7,79.54155250069145 133.77499999999998,79.98757011908398 133.85,80.62825842148953 133.925,81.47662124973685 134.0,82.40965537901613 134.075,83.40324344030867 134.14999999999998,84.29120754182424 134.225,85.05344286751334 134.3,85.74117592219964 134.375,86.32407541695619 134.45,86.79603099539784 134.52499999999998,87.1646513028126 134.6,87.54995047403177 134.675,87.8479171631952 134.75,88.01223373306885 134.825,88.00418214843715 134.89999999999998,87.88589690588283 134.975,87.70863579994227 135.05,87.43564499355118 135.125,87.17322866313728 135.2,86.76919093303573 135.27499999999998,86.24035613708527 135.35,85.51741785098943 135.425,84.77593597890322 135.5,84.01529188884166 135.575,83.33964149237232 135.64999999999998,82.71483382245253 135.725,82.16593627974265 135.8,81.63839986217789 135.875,81.1458026592049 135.95,80.77761841824895 136.02499999999998,80.50419154539905 136.1,80.26882779418224 136.175,80.07424828441306 136.25,79.96219258853685 136.325,79.92391966304966 136.39999999999998,79.94555423858012 136.475,79.9836367128101 136.55,80.01340263460989 136.625,79.9490686340016 136.7,79.9437220721646 136.77499999999998,80.0588072633478 136.85,80.2747873088309 136.925,80.43221688632846 137.0,80.58210112142505 137.075,80.6671458371442 137.14999999999998,80.74980095931137 137.225,80.84023365504218 137.3,81.04034203896295 137.375,81.33460134933219 137.45,81.56500287766886 137.52499999999998,81.70810176673936 137.6,81.73614512655088 137.675,81.7507691786429 137.75,81.6714868342957 137.825,81.54839979646347 137.89999999999998,81.3695184983462 137.975,81.27099261894367 138.05,81.22478910777166 138.125,81.29452085512273 138.2,81.3687688112986 138.27499999999998,81.39813990394882 138.35,81.40480479362418 138.425,81.437235224371 138.5,81.51714480989577 138.575,81.56400757541965 138.64999999999998,81.56468509717607 138.725,81.51530106809521 138.8,81.41522716180715 138.875,81.24604911107642 138.95,81.09795797547078 139.02499999999998,80.91556228193203 139.1,80.73600291946217 139.175,80.50914617193274 139.25,80.37790753090734 139.325,80.39514544963676 139.39999999999998,80.52247450436033 139.475,80.57984934730135 139.55,80.59885902340554 139.625,80.56307751868573 139.7,80.64879089375712 139.77499999999998,80.70067665293267 139.85,80.76158687168058 139.925,80.74740666325921 140.0,80.69444764885073 140.075,80.60139168148217 140.14999999999998,80.45757548026913 140.225,80.35269941697237 140.3,80.21885631430992 140.375,80.07843025399443 140.45,79.86416191857613 140.52499999999998,79.75147807719537 140.6,79.78724059104907 140.675,79.85980686081513 140.75,79.91362715621774 140.825,79.87592070113661 140.89999999999998,79.8035761723405 140.975,79.68954488379335 141.05,79.40760232571725 141.125,79.1019787002063 141.2,78.67705789027582 141.27499999999998,78.32930239528545 141.35,77.97283750823465 141.425,77.69107653901158 141.5,77.50837699161517 141.575,77.48350185086588 141.64999999999998,77.6541485285753 141.725,77.96794455679944 141.8,78.39298708913839 141.875,78.88937269860094 141.95,79.4478418006058 142.02499999999998,79.9777904198965 142.1,80.51456453733016 142.175,81.13327545194225 142.25,81.82626445490443 142.325,82.51634704145852 142.39999999999998,83.12221455993063 142.475,83.71415696252947 142.55,84.37245724946705 142.625,84.8971595063476 142.7,85.22900264506256 142.77499999999998,85.3329872228448 142.85,85.40130912446942 142.925,85.44562856085857 143.0,85.41618693070566 143.075,85.3193329709818 143.14999999999998,85.18141895008833 143.225,84.89268959906303 143.3,84.45180705660526 143.375,83.92632526988751 143.45,83.38973274130687 143.52499999999998,82.8808605469486 143.6,82.25899070975538 143.675,81.55821338982533 143.75,80.76644547677796 143.825,80.00278341253485 143.89999999999998,79.33162077476423 143.975,78.71582729126257 144.05,78.24253457498183 144.125,77.90248629691783 144.2,77.77307150249992 144.27499999999998,77.73400729092509 144.35,77.7550942060502 144.425,77.7102379611792 144.5,77.6449128182257 144.575,77.53880234863223 144.64999999999998,77.51625747758655 144.725,77.6014148724446 144.8,77.82263133274127 144.875,78.08506846267518 144.95,78.3709421300347 145.02499999999998,78.5865873936782 145.1,78.79346177102815 145.175,79.02883673589923 145.25,79.25946253732133 145.325,79.47098533609724 145.39999999999998,79.61703070326004 145.475,79.79511203375088 145.55,79.94035797588342 145.625,79.96141486735357 145.7,79.9212372484289 145.77499999999998,79.95232077460548 145.85,80.0302659811136 145.925,80.14853024328251 146.0,80.21747070454592 146.075,80.29364270675616 146.14999999999998,80.209792787813 146.225,80.07954546999818 146.3,79.99922984166957 146.375,79.9794086225539 146.45,79.95597154253213 146.52499999999998,79.94685628853324 146.6,80.05722125473008 146.675,80.19891283018961 146.75,80.39438328287714 146.825,80.5817824366053 146.89999999999998,80.75484059257906 146.975,80.83860876036529 147.05,80.88290830156137 147.125,81.0906732600989 147.2,81.34126045131502 147.27499999999998,81.59450129955468 147.35,81.80217546366568 147.425,82.0833909428681 147.5,82.47686504891595 147.575,82.9573592824885 147.64999999999998,83.55958189307263 147.725,84.18986830125752 147.8,84.74361820920875 147.875,85.23730852643466 147.95,85.70141530652153 148.02499999999998,86.12970994329126 148.1,86.4440333749969 148.175,86.68154454100655 148.25,86.83883304349878 148.325,86.89481106302154 148.39999999999998,86.94443781345772 148.475,87.07428994039219 148.55,87.27620245659278 148.625,87.43336977927274 148.7,87.58629255294588 148.77499999999998,87.7100368556107 148.85,87.841955550508 148.925,87.93022057452214 149.0,87.97412492483787 149.075,87.96535385767893 149.14999999999998,87.82961817956023 149.225,87.6642990728217 149.3,87.43111190998536 149.375,87.20566269310538 149.45,86.9862998860327 149.52499999999998,86.82891031595972 149.6,86.74966975151796 149.675,86.71760557318885 149.75,86.72686298738542 149.825,86.82703781656191 149.89999999999998,86.93298677336081 149.975,87.02346052553548 150.05,87.08250764988594 150.125,87.17918002075677 150.2,87.29362784230047 150.27499999999998,87.40619104646512 150.35,87.48836018332543 150.425,87.56693480139583 150.5,87.63267629648047 150.575,87.69574152636766 150.64999999999998,87.77981354801153 150.725,87.78926340298462 150.8,87.78548566755316 150.875,87.72343075174268 150.95,87.67766186010637 151.02499999999998,87.65616980650438 151.1,87.62963414059608 151.175,87.65400086872997 151.25,87.72217138602194 151.325,87.87818381083126 151.39999999999998,88.09869144157227 151.475,88.33639528348343 151.55,88.58952421221885 151.625,88.86996851756516 151.7,89.16171544486814 151.77499999999998,89.47018375742907 151.85,89.78698716112282 151.925,90.1429655202706 152.0,90.5088093992341 152.075,90.81426192608473 152.14999999999998,91.05489381590479 152.225,91.30292868897624 152.3,91.60209986930064 152.375,91.93189857797667 152.45,92.18490674289022 152.52499999999998,92.33808327070757 152.6,92.41133700982657 152.675,92.4222542257206 152.75,92.38350399646532 152.825,92.32346544038502 152.89999999999998,92.28685305814338 152.975,92.26576639622981 153.05,92.18777123470058 153.125,92.05556167208071 153.2,91.8850880644644 153.27499999999998,91.71260773724326 153.35,91.50890362273446 153.425,91.26427214799376 153.5,90.97015532337991 153.575,90.70728285044875 153.64999999999998,90.49419874926758 153.725,90.33644446413273 153.8,90.17340342934583 153.875,90.07362286863618 153.95,90.07587145952898 154.02499999999998,90.18108089391528 154.1,90.33510927963988 154.175,90.52477780569431 154.25,90.79790048104232 154.325,91.10514406360497 154.39999999999998,91.42829833848143 154.475,91.73657515076587 154.55,92.08981951248323 154.625,92.43913325325373 154.7,92.78031458064909 154.77499999999998,93.07548572388939 154.85,93.35554489447111 154.925,93.62196176839221 155.0,93.89332091574077 155.075,94.16717222540483 155.14999999999998,94.4495116564094 155.225,94.70237811328873 155.3,94.93372252908418 155.375,95.08580411590816 155.45,95.20626677882375 155.52499999999998,95.28978240426387 155.6,95.3744525839304 155.675,95.40111975706482 155.75,95.34088847082337 155.825,95.1631011551129 155.89999999999998,94.95045330125595 155.975,94.7421502500923 156.05,94.57861313770968 156.125,94.43010601170369 156.2,94.30354634026885 156.27499999999998,94.16799297446474 156.35,94.04192967001022 156.425,93.90320618605726 156.5,93.78335123085698 156.575,93.66896535570987 156.64999999999998,93.5724655846821 156.725,93.50996559531633 156.8,93.475682198634 156.875,93.49595856550728 156.95,93.50822368073116 157.02499999999998,93.53330073960346 157.1,93.54957645445032 157.175,93.5761016301659 157.25,93.60802518565313 157.325,93.6481321585559 157.39999999999998,93.66640299953596 157.475,93.66380020186051 157.55,93.62110045122499 157.625,93.60100646901246 157.7,93.59894028086694 157.77499999999998,93.65328723820295 157.85,93.73517216318713 157.925,93.8519380098474 158.0,93.98608359179053 158.075,94.13596811627174 158.14999999999998,94.2922334270714 158.225,94.4375299391674 158.3,94.55635189977089 158.375,94.62226503611203 158.45,94.67701705957876 158.52499999999998,94.71494643125486 158.6,94.73047269417911 158.675,94.72210703679514 158.75,94.68795538246395 158.825,94.6667067917654 158.89999999999998,94.64153881186081 158.975,94.6236324869907 159.05,94.58509529908005 159.125,94.52349674282532 159.2,94.44993694329088 159.27499999999998,94.3752630310316 159.35,94.31605477370387 159.425,94.28033337055365 159.5,94.26084716840258 159.575,94.2608168191899 159.64999999999998,94.26798739041324 159.725,94.31070747031876 159.8,94.36981458771959 159.875,94.4423413383976 159.95,94.50528703434756 160.02499999999998,94.5798899569407 160.1,94.64285581938182 160.175,94.7090626449456 160.25,94.78897261028771 160.325,94.91228126248411 160.39999999999998,95.07261781707248 160.475,95.23535481713635 160.55,95.42171043181538 160.625,95.62244772087534 160.7,95.8233876515199 160.77499999999998,95.98657024964871 160.85,96.08495369755546 160.925,96.13310228940685 161.0,96.1568422646997 161.075,96.15673083353202 161.14999999999998,96.11204599479251 161.225,96.01906061918623 161.3,95.93291168407913 161.375,95.87933448984917 161.45,95.85350797905426 161.52499999999998,95.8211793574363 161.6,95.8238431610083 161.675,95.85930133266778 161.75,95.91454965076869 161.825,95.93167606598428 161.89999999999998,95.89403021889582 161.975,95.84873761818139 162.05,95.80155121212603 162.125,95.76056311729567 162.2,95.68639562813247 162.27499999999998,95.60689069274801 162.35,95.55025482962343 162.425,95.52923906694332 162.5,95.52436743953776 162.575,95.51396583470172 162.64999999999998,95.52500535177344 162.725,95.54859354482977 162.8,95.57205004979458 162.875,95.58693821961776 162.95,95.61128610157785 163.02499999999998,95.64401989784575 163.1,95.68078446022777 163.175,95.70158747094791 163.25,95.72194482934349 163.325,95.74971602291393 163.39999999999998,95.80134867906067 163.475,95.84940611475477 163.55,95.87140419354898 163.625,95.87290313356726 163.7,95.89259204964908 163.77499999999998,95.93841122186421 163.85,95.99698158504279 163.925,96.02356774856838 164.0,96.03608609342685 164.075,96.03034358107486 164.14999999999998,96.03995505736177 164.225,96.03499232805852 164.3,96.04461396898041 164.375,96.04607243132409 164.45,96.04922209359715 164.52499999999998,96.0344251341909 164.6,96.00583380650288 164.675,96.00404121343502 164.75,96.01496938977176 164.825,96.04044118736093 164.89999999999998,96.04998180058745 164.975,96.05747659111154 165.05,96.08073043640522 165.125,96.10718483949312 165.2,96.14414196925743 165.27499999999998,96.17098116346567 165.35,96.17954940817461 165.425,96.19510596605193 165.5,96.21569620672555 165.575,96.26269020817747 165.64999999999998,96.2846883774044 165.725,96.28401989891755 165.8,96.22217815105745 165.875,96.15512053469223 165.95,96.06146678911834 166.02499999999998,95.99654618778592 166.1,95.92419156670097 166.175,95.85655655566003 166.25,95.81034237342995 166.325,95.77861133106538 166.39999999999998,95.77075200634481 166.475,95.77315234330105 166.55,95.78240930533414 166.625,95.79629482977322 166.7,95.80125746864375 166.77499999999998,95.82210099321158 166.85,95.87827103752045 166.925,95.95386658555502 167.0,96.0269301085418 167.075,96.09663118112249 167.14999999999998,96.19030516553367 167.225,96.32681057058537 167.3,96.50979347979057 167.375,96.70192195603428 167.45,96.9041277273806 167.52499999999998,97.08066918801508 167.6,97.2444190704442 167.675,97.35670848057926 167.75,97.40820953906716 167.825,97.42819216245817 167.89999999999998,97.45081815163194 167.975,97.4680864014875 168.05,97.45472757515492 168.125,97.41343564455345 168.2,97.37472638130936 168.27499999999998,97.34118241660694 168.35,97.28111309532355 168.425,97.20140569921988 168.5,97.13187686475149 168.575,97.08096329322812 168.64999999999998,97.03477951447034 168.725,96.96929177352992 168.8,96.90954658111457 168.875,96.85040911450106 168.95,96.79848287765091 169.02499999999998,96.74636405533192 169.1,96.72045657110125 169.175,96.72289740381865 169.25,96.74560425790894 169.325,96.74638411330383 169.39999999999998,96.72259344144176 169.475,96.69301967103385 169.55,96.70620638585993 169.625,96.7382514286306 169.7,96.76306507514678 169.77499999999998,96.76675160016134 169.85,96.78984355284311 169.925,96.83526766078369 170.0,96.86594543354107 170.075,96.85813675113012 170.14999999999998,96.81294552546758 170.225,96.75823401584854 170.3,96.68915086987779 170.375,96.61600628302254 170.45,96.54389481736986 170.52499999999998,96.47926790526012 170.6,96.41221028889488 170.675,96.3553515453484 170.75,96.31281394053633 170.825,96.30241253465222 170.89999999999998,96.29531273605654 170.975,96.2949177260416 171.05,96.29711554801902 171.125,96.30917800357177 171.2,96.32195959800751 171.27499999999998,96.32780346732487 171.35,96.32875543422628 171.425,96.3159333440294 171.5,96.304792560425 171.575,96.30715236544702 171.64999999999998,96.32768185343565 171.725,96.36581379435019 171.8,96.41309137464938 171.875,96.4700107985347 171.95,96.51893922769446 172.02499999999998,96.56451538916964 172.1,96.62555691619175 172.175,96.68808730902984 172.25,96.74893652188122 172.325,96.80578501036 172.39999999999998,96.89100223548954 172.475,96.9910771184507 172.55,97.0824014263018 172.625,97.15763227736102 172.7,97.24432813132537 172.77499999999998,97.35581742914168 172.85,97.47564202970331 172.925,97.59465637682369 173.0,97.70663164366897 173.075,97.81718920618655 173.14999999999998,97.92931656635682 173.225,98.03584309869682 173.3,98.12546593346427 173.375,98.18783425282507 173.45,98.23860593544883 173.52499999999998,98.28202469836158 173.6,98.31438381388453 173.675,98.33630084689683 173.75,98.3585823960191 173.825,98.36972334240235 173.89999999999998,98.35543255288064 173.975,98.30438738369844 174.05,98.21184766041674 174.125,98.11751539832679 174.2,98.02518837274543 174.27499999999998,97.9421790799687 174.35,97.85481484337616 174.425,97.76057364701082 174.5,97.6690265654484 174.575,97.57295203427712 174.64999999999998,97.46967651574961 174.725,97.37418953665441 174.8,97.29315525777938 174.875,97.22507472101965 174.95,97.16332427400917 175.02499999999998,97.11301842828766 175.1,97.07827926890538 175.175,97.06101094670365 175.25,97.05080185499028 175.325,97.05344518459997 175.39999999999998,97.06082861630252 175.475,97.07357984343903 175.55,97.11736326715403 175.625,97.160883314686 175.7,97.18491710580727 175.77499999999998,97.17471825107508 175.85,97.15857409771398 175.925,97.16233157622159 176.0,97.176551303731 176.075,97.19157121590531 176.14999999999998,97.20569985960357 176.225,97.21647600049225 176.3,97.21539238167239 176.375,97.21405553321793 176.45,97.22059821214829 176.52499999999998,97.23937542196482 176.6,97.24940221945013 176.675,97.24142140744611 176.75,97.23446355200966 176.825,97.23858561897339 176.89999999999998,97.26207249123742 176.975,97.30740546110724 177.05,97.36942943084924 177.125,97.45099041144806 177.2,97.55335429605645 177.27499999999998,97.6699277417306 177.35,97.78191330524261 177.425,97.87142474501547 177.5,97.94019392675317 177.575,98.00177222608407 177.64999999999998,98.07020716857835 177.725,98.14140719926384 177.8,98.22297814192844 177.875,98.29682146605052 177.95,98.34919349991755 178.025,98.37552646998162 178.1,98.39138689980314 178.17499999999998,98.40482668148495 178.25,98.40874616112369 178.325,98.39574177669876 178.4,98.37899000605503 178.475,98.35057080796007 178.54999999999998,98.28926592284144 178.625,98.19260405663255 178.7,98.0726377010117 178.775,97.95816070226307 178.85,97.85824781319842 178.92499999999998,97.77778072819099 179.0,97.71583789466361 179.075,97.66693992323577 179.15,97.62003709602769 179.225,97.57961614080534 179.29999999999998,97.54066375830205 179.375,97.5024000931229 179.45,97.47290724189114 179.525,97.45142571465493 179.6,97.44570344114025 179.67499999999998,97.44806340894112 179.75,97.45339090756586 179.825,97.45993362266928 179.9,97.4626175384728 179.975,97.45798908458606 180.04999999999998,97.45995395193928 180.125,97.46597005936893 180.2,97.49419683477393 180.275,97.52572528981351 180.35,97.54629525547675 180.42499999999998,97.54718646969317 180.5,97.53068785633789 180.575,97.51216364103094 180.65,97.50147869247265 180.725,97.48742103844052 180.79999999999998,97.47143910324903 180.875,97.45543687496061 180.95,97.44309076821443 181.025,97.43212211420308 181.1,97.40131263526763 181.17499999999998,97.37293391484728 181.25,97.36072955230838 181.325,97.35955475924469 181.4,97.33985584130673 181.475,97.31561935434124 181.54999999999998,97.29559627136216 181.625,97.30020446832505 181.7,97.29956639331051 181.775,97.28750401010392 181.85,97.27721399921441 181.92499999999998,97.2727780403638 182.0,97.28223768015458 182.075,97.29451286958076 182.15,97.29158583451805 182.225,97.28449618247083 182.29999999999998,97.28223764398149 182.375,97.28456711787736 182.45,97.30038719663004 182.525,97.32413735464444 182.6,97.35995002247118 182.67499999999998,97.40166729421375 182.75,97.41430707209605 182.825,97.42962056497377 182.9,97.44742551479197 182.975,97.50498310412452 183.04999999999998,97.58689850492715 183.125,97.68859393817851 183.2,97.79248714457363 183.275,97.90411815404146 183.35,98.01582003561293 183.42499999999998,98.13055012834711 183.5,98.24093532433797 183.575,98.34781628049907 183.65,98.46217171419214 183.725,98.56929581674225 183.79999999999998,98.6593743888885 183.875,98.74190762225105 183.95,98.8190527092058 184.025,98.89727144929736 184.1,98.97215802308394 184.17499999999998,99.03281470472609 184.25,99.09331945943943 184.325,99.13640410971453 184.4,99.17748334261563 184.475,99.18164594151358 184.54999999999998,99.15215314454144 184.625,99.09449431038006 184.7,99.02458055637692 184.775,98.94344493500572 184.85,98.84191154086723 184.92499999999998,98.72709029197576 185.0,98.60226243379397 185.075,98.47419360344624 185.15,98.35946345283514 185.225,98.26337892161636 185.29999999999998,98.17261161405943 185.375,98.08868074338436 185.45,98.00902387021914 185.525,97.9423004279858 185.6,97.8808233590145 185.67499999999998,97.82389378858072 185.75,97.78211567372047 185.825,97.74660675123214 185.9,97.71855206924711 185.975,97.70070642471585 186.04999999999998,97.69986585280903 186.125,97.70249909012985 186.2,97.70900127329905 186.275,97.72264378699815 186.35,97.7559750901733 186.42499999999998,97.79934312034372 186.5,97.85324451578788 186.575,97.91846898906448 186.65,97.98205268768282 186.725,98.03423220842718 186.79999999999998,98.08481143218789 186.875,98.13768981680487 186.95,98.18859324177976 187.025,98.22006101648051 187.1,98.23443268900529 187.17499999999998,98.23497962594907 187.25,98.22592525124095 187.325,98.21182711953422 187.4,98.19194590736821 187.475,98.16685897324552 187.54999999999998,98.14014121206111 187.625,98.11882183064836 187.7,98.09616551034844 187.775,98.0869185501715 187.85,98.07550418957598 187.92499999999998,98.08184438970058 188.0,98.07384323034003 188.075,98.05827638122193 188.15,98.0304344511969 188.225,98.0085782251292 188.29999999999998,97.99847054464082 188.375,97.98405823166259 188.45,97.96394397443967 188.525,97.94475131681895 188.6,97.93888711823159 188.67499999999998,97.94753640872246 188.75,97.96518954013105 188.825,97.98549614769779 188.9,98.00974256417327 188.975,98.02677789557771 189.04999999999998,98.03588303920121 189.125,98.04171678005665 189.2,98.05567325798879 189.275,98.06008915886747 189.35,98.06005884582787 189.42499999999998,98.03550855740819 189.5,98.0280643549341 189.575,98.02228136490751 189.65,98.0212381514161 189.725,98.00984410200404 189.79999999999998,97.99386218489907 189.875,97.98418999210027 189.95,97.96593931761136 190.025,97.94098405349366 190.1,97.91401322545352 190.17499999999998,97.89155932969973 190.25,97.87312634289623 190.325,97.85510860494497 190.4,97.84117263714823 190.475,97.83717200320834 190.54999999999998,97.84616557097185 190.625,97.86042583041548 190.7,97.86616830659439 190.775,97.85902795797794 190.85,97.84780609241855 190.92499999999998,97.84957842856257 191.0,97.85020641128827 191.075,97.8518877359673 191.15,97.8507635852132 191.225,97.86148915613842 191.29999999999998,97.88154258833019 191.375,97.90701456678475 191.45,97.946969522326 191.525,97.99693090990947 191.6,98.05590619452644 191.67499999999998,98.11461850086424 191.75,98.16825648395228 191.825,98.21483523655193 191.9,98.25104278778787 191.975,98.27646417819244 192.04999999999998,98.2965784535019 192.125,98.30547080899234 192.2,98.3155481764411 192.275,98.3144240618601 192.35,98.31191245651502 192.42499999999998,98.3028378429696 192.5,98.30113635179943 192.575,98.30756749104286 192.65,98.31619654269642 192.725,98.3143128115578 192.79999999999998,98.2981383451571 192.875,98.27404381943737 192.95,98.2479743521621 193.025,98.22811336074686 193.1,98.20285407999265 193.17499999999998,98.18175734387678 193.25,98.16412445130548 193.325,98.1621292528261 193.4,98.16147088471465 193.475,98.16555236548453 193.54999999999998,98.16277725735064 193.625,98.16630179932059 193.7,98.17148735478611 193.775,98.19904559744464 193.85,98.23946640797467 193.92499999999998,98.28072788084422 194.0,98.30682773350524 194.075,98.32172608604995 194.15,98.3372016162319 194.225,98.3540444526002 194.29999999999998,98.37167730899843 194.375,98.39032288498305 194.45,98.41429588724627 194.525,98.42497090629458 194.6,98.43142253758685 194.67499999999998,98.4313212348811 194.75,98.43648642490353 194.825,98.4348456140722 194.9,98.43116919943304 194.975,98.43712449991808 195.04999999999998,98.4569046264168 195.125,98.47702913870742 195.2,98.49081337852726 195.275,98.48556707037676 195.35,98.47562137293298 195.42499999999998,98.47028392671172 195.5,98.47728249494777 195.575,98.48115138653654 195.65,98.47915627848985 195.725,98.47365683113746 195.79999999999998,98.47891323157681 195.875,98.4867523717197 195.95,98.5030179942777 196.025,98.53093076927658 196.1,98.5626820323919 196.17499999999998,98.58703997046776 196.25,98.5960235725482 196.325,98.60247516766741 196.4,98.61172207358473 196.475,98.61779898795899 196.54999999999998,98.61707983098947 196.625,98.6107395585187 196.7,98.60223208458129 196.775,98.60376146424494 196.85,98.60929124272349 196.92499999999998,98.61960163714261 197.0,98.62634692148448 197.075,98.6401007940051 197.15,98.66181516734628 197.225,98.68794540539307 197.29999999999998,98.70380597990689 197.375,98.71269851626272 197.45,98.69831660675679 197.525,98.6763589694641 197.6,98.65326716147463 197.67499999999998,98.63739649467196 197.75,98.61990558143296 197.825,98.59740118806188 197.9,98.56853630146928 197.975,98.53986372904741 198.04999999999998,98.50683629781646 198.125,98.47679663624669 198.2,98.45538604441701 198.275,98.43745951688268 198.35,98.41926972168454 198.42499999999998,98.39320005545734 198.5,98.35778219869361 198.575,98.32245571512564 198.65,98.28604552230512 198.725,98.24617157637272 198.79999999999998,98.20624684343838 198.875,98.16704115895435 198.95,98.14488118754822 199.025,98.11897375757718 199.1,98.089166996372 199.17499999999998,98.0568485213025 199.25,98.03813168435364 199.325,98.02780096066452 199.4,98.02507649484023 199.475,98.0160727986148 199.54999999999998,98.00736261074664 199.625,97.99512795325468 199.7,97.9951075878116 199.775,98.00086021053897 199.85,98.0114034691496 199.92499999999998,100.0" opacity="1" fill="#F28E2B" stroke="black" stroke-width="0"/>
<line x1="40" y1="100.0" x2="40" y2="70.0" stroke="black" stroke-width="1" />
<line x1="39.5" y1="100.0" x2="43.5" y2="100.0" stroke="black" stroke-width="1" />
<line x1="39.5" y1="70.0" x2="43.5" y2="70.0" stroke="black" stroke-width="1" />
<text text-anchor="end" font-family="Arial" x="36" y="104.0" font-size="8" >0</text>
<text text-anchor="end" font-family="Arial" x="36" y="74.0" font-size="8" >3284.2</text>
<text text-anchor="start" font-family="Arial" x="39.5" y="66" font-size="7" >ChrVII: 472,000-522,000</text>
</svg>
