<svg viewBox="0 0 320 210" xmlns="http://www.w3.org/2000/svg">
<polygon points="50.0,100.0 50.075,99.85273580396222 50.15,99.8537509298997 50.225,99.84580723111962 50.3,99.83639131920178 50.375,99.82696894488939 50.45,99.80371208701979 50.525,99.78292686408578 50.6,99.75828983535504 50.675,99.7457256242476 50.75,99.73791576938667 50.825,99.71983405972904 50.9,99.69971237838574 50.975,99.66621777113996 51.05,99.6139096567724 51.125,99.58713534302113 51.2,99.54879844745633 51.275,99.52497879284685 51.35,99.477909855548 51.425,99.45060860828629 51.5,99.42766439098529 51.575,99.42098405755931 51.65,99.40485887340864 51.725,99.40446712898522 51.8,99.40533113211934 51.875,99.40627259422345 51.95,99.42164215588727 52.025,99.42937940498928 52.1,99.44501251415166 52.175,99.45387885846593 52.25,99.44505696757176 52.325,99.44605743118093 52.4,99.44971922436586 52.475,99.46651299450791 52.55,99.49961911862526 52.625,99.5118666493314 52.7,99.52141396798902 52.775,99.51057979911513 52.85,99.5247982537072 52.925,99.52221237517617 53.0,99.52572328048184 53.075,99.54098809625901 53.15,99.54646949715134 53.225,99.54545092426736 53.3,99.55058721304232 53.375,99.54371339996689 53.45,99.53545663420132 53.525,99.53236431411545 53.6,99.52074226607314 53.675,99.4972339654869 53.75,99.51178664646936 53.825,99.52137760347776 53.9,99.52326058972739 53.975,99.51975450096485 54.05,99.52557883126005 54.125,99.53339024341895 54.2,99.51936750483985 54.275,99.55060706122146 54.35,99.57869636846641 54.425,99.60137246420409 54.5,99.61189442063713 54.575,99.57530072072271 54.65,99.53557269268977 54.725,99.48556738137373 54.8,99.45873166958664 54.875,99.4582271813219 54.95,99.46093327225965 55.025,99.47027151730568 55.1,99.48577622399344 55.175,99.49702188052166 55.25,99.49169713052108 55.325,99.49088404122571 55.4,99.49252270504027 55.475,99.50259281022917 55.55,99.51455817600075 55.625,99.49698481990764 55.7,99.51447235606862 55.775,99.48912580511085 55.85,99.46429792777073 55.925,99.44460952165815 56.0,99.40716799889775 56.075,99.43553460631392 56.15,99.46767304100109 56.225,99.50656812491846 56.3,99.52068411422984 56.375,99.52320476996846 56.45,99.52109003741921 56.525,99.49498280569719 56.6,99.49644264494954 56.675,99.50934400459003 56.75,99.49354963213993 56.825,99.48338717813817 56.9,99.48942411269473 56.975,99.49123555695938 57.05,99.48260128813708 57.125,99.49474318555366 57.2,99.5099847842236 57.275,99.49727072866408 57.35,99.47167064274684 57.425,99.43939520966211 57.5,99.4523565394901 57.575,99.46807682194063 57.65,99.47832150294687 57.725,99.48381372921838 57.8,99.48056183166854 57.875,99.48281300923863 57.95,99.46729776795799 58.025,99.46914965383861 58.1,99.43963560844695 58.175,99.42372997141663 58.25,99.41651229346205 58.325,99.40528059883553 58.4,99.39949145254552 58.475,99.39814594796832 58.55,99.40503813364532 58.625,99.40652199979706 58.7,99.40286071565967 58.775,99.42936195456694 58.85,99.45032950845265 58.925,99.48280031120129 59.0,99.49180834329529 59.075,99.49033039051625 59.15,99.49432077187446 59.225,99.49081589169782 59.3,99.48800278038037 59.375,99.49045656457662 59.45,99.50775943551916 59.525,99.52274876445856 59.6,99.55364545438114 59.675,99.56972429973483 59.75,99.5863466569385 59.825,99.60411395643528 59.9,99.59098387664261 59.975,99.55437855319421 60.05,99.51721732094524 60.125,99.51532648541716 60.2,99.52032544050824 60.275,99.50797928881656 60.35,99.51290970534663 60.425,99.52708117058972 60.5,99.5336296924585 60.575,99.53079303241111 60.65,99.52992207563707 60.725,99.54086708912914 60.8,99.55255304732252 60.875,99.54623607940032 60.95,99.53360768746964 61.025,99.52307024554159 61.1,99.49246291660867 61.175,99.4711008062695 61.25,99.46349300183489 61.325,99.47404906637203 61.4,99.49197972176415 61.475,99.53623479515299 61.55,99.57558319026661 61.625,99.58126573842479 61.7,99.57464409459652 61.775,99.5886946685833 61.85,99.60331304269167 61.925,99.60756383091277 62.0,99.614203001791 62.075,99.61108213224476 62.15,99.59395408855048 62.225,99.57317513349224 62.3,99.55715210376044 62.375,99.56478179555849 62.45,99.57861239094277 62.525,99.59559507683566 62.6,99.61956628589027 62.675,99.63885302331839 62.75,99.66357417242075 62.825,99.63239813911827 62.9,99.61682305721207 62.975,99.61433867740877 63.05,99.60637820464478 63.125,99.60486287786823 63.2,99.60977171984929 63.275,99.61356962373355 63.35,99.61243020066898 63.425,99.605271762804 63.5,99.59210726675366 63.575,99.59142782380668 63.65,99.60502733175929 63.725,99.61227637706827 63.8,99.62654033790427 63.875,99.62165206525681 63.95,99.62272280302804 64.025,99.61840064198972 64.1,99.61506027059104 64.175,99.60865855674068 64.25,99.595364826483 64.325,99.61387576251232 64.4,99.6212991290601 64.475,99.61767482164092 64.55,99.60910972240258 64.625,99.6032265082165 64.7,99.60134646134557 64.775,99.60600885207869 64.85,99.61022888226788 64.925,99.61070431925296 65.0,99.62437295328795 65.075,99.62286673532476 65.15,99.61898519740203 65.225,99.64277108530254 65.3,99.63213701131399 65.375,99.62695122843874 65.45,99.59303824988899 65.525,99.55289564938717 65.6,99.55148942518663 65.675,99.54547695226758 65.75,99.55027646000754 65.825,99.5491848630247 65.9,99.55156465386672 65.975,99.55015436222325 66.05,99.55629939056259 66.125,99.55459408427211 66.2,99.54759513538914 66.275,99.52881530442711 66.35,99.53015727733377 66.425,99.53779146735518 66.5,99.53502782785749 66.575,99.54353278667676 66.65,99.54550757790723 66.725,99.5345213795382 66.8,99.5486078344543 66.875,99.5562214350858 66.95,99.58661951037412 67.025,99.62970100244362 67.1,99.62569747598853 67.175,99.61987587512272 67.25,99.61474886075695 67.325,99.61450187816178 67.4,99.60291240809882 67.475,99.56619724987131 67.55,99.55574169081835 67.625,99.55744754936555 67.7,99.5645328214576 67.775,99.57653127404542 67.85,99.57521777836642 67.925,99.57607382984057 68.0,99.57972716354726 68.075,99.54557007206594 68.15,99.52504288202992 68.225,99.49835774283129 68.3,99.47229722642331 68.375,99.46546779269356 68.45,99.46671695339103 68.525,99.4671876373407 68.6,99.48132594697333 68.675,99.50285320569232 68.75,99.50223924936417 68.825,99.50135755835949 68.9,99.49865481608227 68.975,99.52586903936361 69.05,99.5430077963271 69.125,99.54789144761348 69.2,99.55433964296873 69.275,99.56010754767253 69.35,99.56318714862712 69.425,99.56271682450334 69.5,99.55648939790895 69.575,99.5929739586245 69.65,99.6164430874528 69.725,99.63699393777524 69.8,99.65518585106877 69.875,99.65979701023912 69.95,99.66009769258609 70.025,99.65613576859047 70.1,99.65406984674861 70.175,99.65467457860197 70.25,99.65494047797868 70.325,99.6606807288933 70.4,99.67323097193643 70.475,99.68640012803571 70.55,99.67746155219979 70.625,99.6880963833091 70.7,99.66701565754268 70.775,99.64015856306769 70.85,99.63922216508819 70.925,99.62337688490008 71.0,99.63036233200175 71.075,99.6291716598763 71.15,99.62719611382178 71.225,99.64084186288335 71.3,99.65045411301983 71.375,99.65346788451974 71.45,99.65463387829152 71.525,99.65873683066381 71.6,99.65861693334917 71.675,99.66288277896554 71.75,99.66739795984466 71.825,99.65984332877193 71.9,99.6611362890959 71.975,99.65536901960299 72.05,99.65385074684961 72.125,99.63188610491217 72.2,99.65974018397817 72.275,99.6807364751495 72.35,99.68776147323987 72.425,99.6660848214103 72.5,99.67700922172793 72.575,99.67585524412182 72.65,99.66838927879519 72.725,99.66394862309392 72.8,99.65954591490875 72.875,99.66614052420262 72.95,99.66987833695096 73.025,99.6709868763702 73.1,99.66442311885513 73.175,99.65270379103164 73.25,99.65141828652858 73.325,99.66692494611276 73.4,99.67303898167837 73.475,99.66771161752328 73.55,99.66234979823872 73.625,99.66458769429141 73.7,99.66332528321207 73.775,99.65843970376984 73.85,99.64345314550532 73.925,99.67834730410813 74.0,99.66652148582389 74.075,99.66544044730874 74.15,99.65954596757913 74.225,99.65276454112377 74.3,99.65703226706428 74.375,99.65067959242762 74.45,99.64642229394387 74.525,99.64138000708651 74.6,99.64809030144204 74.675,99.6413613128703 74.75,99.63374354564735 74.825,99.62485626944925 74.9,99.6148712090361 74.975,99.58667842588005 75.05,99.55217382410319 75.125,99.54285244197213 75.2,99.51834275404133 75.275,99.5111119725722 75.35,99.52192867982848 75.425,99.52233814417957 75.5,99.5215293383582 75.575,99.51742278212897 75.65,99.52741676967057 75.725,99.528435152461 75.8,99.53153298998441 75.875,99.52751434802347 75.95,99.51737650814952 76.025,99.50839630215476 76.1,99.49790731973906 76.175,99.50483101535866 76.25,99.50466699138853 76.325,99.5028509840381 76.4,99.50713496497262 76.475,99.52977915712705 76.55,99.56853766889958 76.625,99.58261079702423 76.7,99.58812257014571 76.775,99.59916150487682 76.85,99.5930363134393 76.925,99.58361271823229 77.0,99.57899131491835 77.075,99.57999733868557 77.15,99.57115636541903 77.225,99.56375980474637 77.3,99.55331426800996 77.375,99.55330236376349 77.45,99.5554787385276 77.525,99.55850903056941 77.6,99.56720518436386 77.675,99.57703644470301 77.75,99.57939950086381 77.825,99.57402749196989 77.9,99.57496329660832 77.975,99.59194398853535 78.05,99.60850327497765 78.125,99.61207948134629 78.2,99.62087818487505 78.275,99.62635972156643 78.35,99.62149674338086 78.425,99.61858432697271 78.5,99.61273112515484 78.575,99.60391845881551 78.65,99.62079459599346 78.725,99.61314716440607 78.8,99.59512497201253 78.875,99.5916251004733 78.95,99.58939865662103 79.025,99.58823418568838 79.1,99.57088417910781 79.175,99.55935408319132 79.25,99.55811369132039 79.325,99.56861407511968 79.4,99.56050123358116 79.475,99.55301095074297 79.55,99.54163786858896 79.625,99.49757239672435 79.7,99.46327232629886 79.775,99.44919935836283 79.85,99.4618579004627 79.925,99.47706933142966 80.0,99.49690424861285 80.075,99.5189930917451 80.15,99.52588784936498 80.225,99.5473909979926 80.3,99.58406648939904 80.375,99.59991050426916 80.45,99.6087265859363 80.525,99.613307137413 80.6,99.63128640991177 80.675,99.61953313094241 80.75,99.59739831012976 80.825,99.58917206477226 80.9,99.5875293526562 80.975,99.58016103041416 81.05,99.56186498577091 81.125,99.58737496747982 81.2,99.60994702127856 81.275,99.61309512412343 81.35,99.60381266629105 81.425,99.58542232941393 81.5,99.58714020030949 81.575,99.58109650976043 81.65,99.5825819434652 81.725,99.574781173342 81.8,99.55598875399697 81.875,99.54612413659336 81.95,99.55456387936198 82.025,99.55582601870908 82.1,99.5447536333005 82.175,99.55693128625127 82.25,99.58979693524833 82.32499999999999,99.5971970605447 82.4,99.61338298749773 82.475,99.61923626892205 82.55,99.64743583986105 82.625,99.65569171230216 82.69999999999999,99.67133805422911 82.775,99.68221176112684 82.85,99.6890326701022 82.925,99.68878266158393 83.0,99.67708874511302 83.07499999999999,99.67089030458376 83.15,99.65183602785677 83.225,99.65980034801302 83.3,99.67138925757884 83.375,99.6834594904595 83.44999999999999,99.6796841820657 83.525,99.67996489031096 83.6,99.68408537386354 83.675,99.68312820477998 83.75,99.66436528187147 83.82499999999999,99.65592549515391 83.9,99.64555253902472 83.975,99.64431579420568 84.05,99.62743537411615 84.125,99.62613235197851 84.19999999999999,99.61811406709552 84.275,99.60790411011814 84.35,99.5985534998985 84.425,99.59149852816259 84.5,99.58917178686998 84.57499999999999,99.58248917828391 84.65,99.58233021685581 84.725,99.56962524771514 84.8,99.54412084617235 84.875,99.50746412586196 84.94999999999999,99.50454544284628 85.025,99.48610997477878 85.1,99.4889147997589 85.175,99.49135788563073 85.25,99.48749863152966 85.32499999999999,99.4856228660244 85.4,99.49547041111192 85.475,99.49750740063764 85.55,99.51083896688732 85.625,99.52811464376583 85.69999999999999,99.53746809879095 85.775,99.53772849950393 85.85,99.5545103351756 85.925,99.57799145357377 86.0,99.57107114766515 86.07499999999999,99.59155779243576 86.15,99.61047953360733 86.225,99.62291991636674 86.3,99.64875184863868 86.375,99.67882138826909 86.44999999999999,99.67266443861487 86.525,99.69115972518377 86.6,99.69364466466857 86.675,99.70137608314903 86.75,99.71877889037403 86.82499999999999,99.73418834998225 86.9,99.73205279524242 86.975,99.74521454673527 87.05,99.75303796751852 87.125,99.75128960116487 87.19999999999999,99.74611961460171 87.275,99.75421880931476 87.35,99.7449843273418 87.425,99.73061912732709 87.5,99.73498650812635 87.57499999999999,99.72227173985986 87.65,99.7009488842174 87.725,99.68798824980331 87.8,99.68738810767839 87.875,99.69579397955019 87.94999999999999,99.70157155129493 88.025,99.71426613691125 88.1,99.71644783089616 88.175,99.70652412808735 88.25,99.70407264575144 88.32499999999999,99.69660337145758 88.4,99.69965036021637 88.475,99.68244357365629 88.55,99.67290091166245 88.625,99.67055167008616 88.69999999999999,99.67212989995656 88.775,99.67516138742943 88.85,99.67898875097895 88.925,99.70122912804804 89.0,99.7117820871448 89.07499999999999,99.71544807250453 89.15,99.73150485197462 89.225,99.74637168643949 89.3,99.74538327290844 89.375,99.73839683769778 89.44999999999999,99.7523731004894 89.525,99.752094146587 89.6,99.75057193294627 89.675,99.75329541231133 89.75,99.74756979855495 89.82499999999999,99.75437590165369 89.9,99.75152460070717 89.975,99.75511290748045 90.05,99.7621267312142 90.125,99.7742609757744 90.19999999999999,99.78985119815341 90.275,99.79624964538847 90.35,99.7861433575636 90.425,99.78679912059607 90.5,99.7923812709272 90.57499999999999,99.81301380846233 90.65,99.82644043500635 90.725,99.83839118530398 90.8,99.85837163845625 90.875,99.88183342866081 90.94999999999999,99.90413346855303 91.025,99.93537915869213 91.1,99.95930472902447 91.175,99.98964154976595 91.25,100.03875277103994 91.32499999999999,100.06838044653816 91.4,100.10671832934136 91.475,100.14419635673923 91.55,100.16642805572427 91.625,100.18525308169559 91.69999999999999,100.20010483244096 91.775,100.21710807014867 91.85,100.23564332502178 91.925,100.24924927340606 92.0,100.31270976426148 92.07499999999999,100.3755467150603 92.15,100.42397917197846 92.225,100.4978575269795 92.3,100.59602487554223 92.375,100.68487035291099 92.44999999999999,100.7575302522052 92.525,101.04687601558885 92.6,101.50507869542882 92.675,101.92911812187003 92.75,102.22062612504112 92.82499999999999,102.39636607877546 92.9,102.6094517052978 92.975,102.82265523343668 93.05,103.20515393655114 93.125,103.58364474365402 93.19999999999999,103.98485711166765 93.275,104.52413960359108 93.35,105.01126873836265 93.425,105.72274477001383 93.5,106.74304198723917 93.57499999999999,107.84413658895664 93.65,108.8815156002295 93.725,110.00490045865013 93.8,110.99665720253105 93.875,112.75482400068648 93.94999999999999,114.30927123240157 94.025,115.07502321691166 94.1,116.29218071039784 94.175,117.40079606544391 94.25,118.39602613559889 94.32499999999999,118.87545208300413 94.4,119.39674996565441 94.475,120.288744609249 94.55,120.66773832568117 94.625,121.12731300259769 94.69999999999999,121.3479745839044 94.775,121.44649763622536 94.85,121.23642731478833 94.925,120.7082193456149 95.0,119.80422944738572 95.07499999999999,118.75974996571257 95.15,117.76428943943296 95.225,116.6706950849181 95.3,115.8294175318966 95.375,114.10568904318745 95.44999999999999,112.5843979098415 95.525,111.53775536563603 95.6,109.90463925769005 95.675,108.41856039747836 95.75,107.1698825275783 95.82499999999999,106.55206756056583 95.9,105.8325611249751 95.975,104.7550456258223 96.05,104.02963751421917 96.125,103.22635592240538 96.19999999999999,102.5944350093229 96.275,101.97364810237812 96.35,101.79552185562588 96.425,101.74740272400489 96.5,101.73060445814743 96.57499999999999,101.75732252694648 96.65,101.7824029877178 96.725,101.77905333172575 96.8,101.58461691090015 96.875,101.47073482107375 96.94999999999999,101.35795404502356 97.025,101.3376854087606 97.1,101.29755067677998 97.175,101.24811834576549 97.25,101.1937453798177 97.32499999999999,101.15329353972676 97.4,101.12332479483791 97.475,101.08130521816183 97.55,101.0322689928978 97.625,100.98336868619636 97.69999999999999,100.97836778661564 97.775,100.95096593591957 97.85,100.85505579751198 97.925,100.70842836114686 98.0,100.55348884381948 98.07499999999999,100.39599825000386 98.15,100.2658054980007 98.225,100.15103192124938 98.3,100.07136297385573 98.375,100.03878790968407 98.44999999999999,100.01855503715664 98.525,99.98817947090502 98.6,99.95181202725765 98.675,99.927284024106 98.75,99.9007024577884 98.82499999999999,99.86883259979831 98.9,99.84403168292188 98.975,99.82157507834913 99.05,99.80648740474031 99.125,99.78673965051705 99.19999999999999,99.7412678244824 99.275,99.71626445728388 99.35,99.69187988118038 99.425,99.65063340158581 99.5,99.62389870992874 99.57499999999999,99.59020924969812 99.65,99.58976760536494 99.725,99.58961027801648 99.8,99.58234385569547 99.875,99.57842767173892 99.94999999999999,99.56386871029304 100.025,99.56561873552894 100.1,99.57840638771775 100.175,99.57661472908332 100.25,99.58971114342906 100.32499999999999,99.61727692697269 100.4,99.618835453652 100.475,99.62218912195364 100.55,99.6326442074735 100.625,99.66733857249082 100.69999999999999,99.72358559989382 100.775,99.75050663066385 100.85,99.76989802891126 100.925,99.79329605259446 101.0,99.7733553789088 101.07499999999999,99.79165593702166 101.15,99.78675646352102 101.225,99.76692506055431 101.3,99.76017269255408 101.375,99.7674129975584 101.44999999999999,99.77160351455316 101.525,99.77615608064859 101.6,99.77414003711044 101.675,99.75888895446221 101.75,99.72670006243963 101.82499999999999,99.68516299907178 101.9,99.67183910868357 101.975,99.6651928841342 102.05,99.63215338916132 102.125,99.58395587836577 102.19999999999999,99.53666228885301 102.275,99.5012601096 102.35,99.48227876397208 102.425,99.46165494927045 102.5,99.46058491221626 102.57499999999999,99.43979050519864 102.65,99.41453805448292 102.725,99.42811944669529 102.8,99.44507778550567 102.875,99.4315625141942 102.94999999999999,99.42307699262334 103.025,99.42722964638553 103.1,99.4283169822581 103.175,99.42675433635677 103.25,99.44138457608891 103.32499999999999,99.43092105961969 103.4,99.44027306467753 103.475,99.45268422604461 103.55,99.46024275204118 103.625,99.48225149058925 103.69999999999999,99.50513337264675 103.775,99.51774723004571 103.85,99.51871372038588 103.925,99.5590279142085 104.0,99.59134151745967 104.07499999999999,99.6148528543023 104.15,99.64027347456037 104.225,99.6414446018887 104.3,99.63771199893065 104.375,99.64948565218391 104.44999999999999,99.67335531617796 104.525,99.66440902311993 104.6,99.66241290376347 104.675,99.67123885806231 104.75,99.66801123509728 104.82499999999999,99.69054563957832 104.9,99.70463268044566 104.975,99.69824507144493 105.05,99.71437609133491 105.125,99.6900051317462 105.19999999999999,99.6458016368072 105.275,99.63491238291856 105.35,99.64307227764084 105.425,99.62442994662831 105.5,99.60938572279662 105.57499999999999,99.58975072529607 105.65,99.58721986586866 105.725,99.57782783671334 105.8,99.57401208362774 105.875,99.56310821433844 105.94999999999999,99.54605179998656 106.025,99.54971400718392 106.1,99.54689929098375 106.175,99.55171893804071 106.25,99.55291194403928 106.32499999999999,99.5509098839278 106.4,99.53902583838475 106.475,99.5422057026277 106.55,99.53679521276601 106.625,99.55711575140057 106.69999999999999,99.60991029857328 106.775,99.63762517617478 106.85,99.63530880209036 106.925,99.6351863136859 107.0,99.64884192803143 107.07499999999999,99.66397256148116 107.15,99.6657314471452 107.225,99.67052346750431 107.3,99.66176365755767 107.375,99.65181806411728 107.44999999999999,99.6418319683518 107.525,99.63467524946813 107.6,99.62732434561579 107.675,99.63654950175595 107.75,99.64494486136732 107.82499999999999,99.6453558620383 107.9,99.65985884352433 107.975,99.6623112088149 108.05,99.662823303323 108.125,99.65148209078166 108.19999999999999,99.63493797584846 108.275,99.60734162233756 108.35,99.60229996548932 108.425,99.61214291805224 108.5,99.60574826644589 108.57499999999999,99.60593209747572 108.65,99.61094128691354 108.725,99.63274456543704 108.8,99.64373716701006 108.875,99.64836769690784 108.94999999999999,99.66362609187838 109.025,99.66792704636407 109.1,99.67829360924614 109.175,99.65401801281713 109.25,99.63864562305652 109.32499999999999,99.63912297801566 109.4,99.62515985505017 109.475,99.6183550647579 109.55,99.61630588980282 109.625,99.62025163714006 109.69999999999999,99.63088325355795 109.775,99.64115985389768 109.85,99.64405151244233 109.925,99.64300479282844 110.0,99.64792203687179 110.07499999999999,99.64548692377575 110.15,99.63735160258037 110.225,99.60430829673575 110.3,99.5925055167579 110.375,99.60511833147955 110.44999999999999,99.60733254187564 110.525,99.6047930503557 110.6,99.59529695495173 110.675,99.60709399910213 110.75,99.60497439497243 110.82499999999999,99.59705221797965 110.9,99.58364682990803 110.975,99.5640475554933 111.05,99.5445531128535 111.125,99.53957055185981 111.19999999999999,99.52219621723091 111.275,99.52946150987 111.35,99.53583454471784 111.425,99.53395659648031 111.5,99.53915701102729 111.57499999999999,99.49687015895208 111.65,99.50170308344826 111.725,99.52103888471046 111.8,99.53113526827967 111.875,99.52040165021577 111.94999999999999,99.51268514439568 112.025,99.51449228115435 112.1,99.5222206077138 112.175,99.52804649899126 112.25,99.54452714029523 112.32499999999999,99.55074910381602 112.4,99.55882006749047 112.475,99.57330896773075 112.55,99.58717906703798 112.625,99.59397225049933 112.69999999999999,99.59212360872873 112.775,99.57710757413832 112.85,99.56350688777538 112.925,99.55088449543949 113.0,99.53863131223595 113.07499999999999,99.57676596036396 113.15,99.5850889527775 113.225,99.61184945190386 113.3,99.6178833598615 113.375,99.61464137729945 113.44999999999999,99.62606484639255 113.525,99.62811373801732 113.6,99.62530256101684 113.675,99.62940464927776 113.75,99.61940838573534 113.82499999999999,99.59517256734382 113.9,99.60742553833938 113.975,99.61930917775902 114.05,99.62377673276538 114.125,99.60468390456478 114.2,99.61417331516384 114.27499999999999,99.62856130819227 114.35,99.64435968130333 114.425,99.6515659077346 114.5,99.65228856363449 114.575,99.66128724015026 114.64999999999999,99.6450167916907 114.725,99.60863597258084 114.8,99.59206503525937 114.875,99.59238065481402 114.95,99.56822213146312 115.02499999999999,99.55360321072567 115.1,99.54426602802155 115.175,99.52018834020804 115.25,99.52313953287332 115.325,99.54319291906506 115.39999999999999,99.54155720399885 115.475,99.53722475345305 115.55,99.5320475176723 115.625,99.54184421965039 115.7,99.54275813068173 115.77499999999999,99.53262170121623 115.85,99.52328966199505 115.925,99.51780473125525 116.0,99.51884071791403 116.075,99.50962417830048 116.14999999999999,99.51343388189652 116.225,99.51010979384289 116.3,99.51379708134505 116.375,99.5220241836548 116.45,99.53572870868673 116.52499999999999,99.54717893714353 116.6,99.54279932113505 116.675,99.49627355812106 116.75,99.4965090248788 116.825,99.50293491579879 116.89999999999999,99.49546328929137 116.975,99.48465346475601 117.05,99.485313679125 117.125,99.49175502179475 117.2,99.48387034181206 117.27499999999999,99.48440902816492 117.35,99.49384077931639 117.425,99.49949360929821 117.5,99.50781436316387 117.575,99.52153139061716 117.64999999999999,99.51732267642873 117.725,99.524632458584 117.8,99.53468829692308 117.875,99.53652241835239 117.95,99.54028588845567 118.02499999999999,99.53127772533234 118.1,99.54207374230815 118.175,99.59460471744268 118.25,99.59518762615306 118.325,99.59645608509503 118.39999999999999,99.59223879335305 118.475,99.60798877847662 118.55,99.61085778959948 118.625,99.60341210344632 118.7,99.5978664920827 118.77499999999999,99.59375535240265 118.85,99.58820852925119 118.925,99.59826132287121 119.0,99.59840588097032 119.075,99.59271154085421 119.14999999999999,99.60584827893028 119.225,99.61251742044938 119.3,99.61578739414215 119.375,99.61921704789111 119.45,99.62246851729721 119.52499999999999,99.63559404086534 119.6,99.63855461300643 119.675,99.64739513693065 119.75,99.65499726670534 119.825,99.65367078957462 119.89999999999999,99.65807806854417 119.975,99.64892160406815 120.05,99.64512152252944 120.125,99.65132735567805 120.2,99.65333679777692 120.27499999999999,99.66020967760248 120.35,99.65182933549514 120.425,99.64013617174132 120.5,99.64300326652717 120.575,99.63777582433512 120.64999999999999,99.62336127278233 120.725,99.60537913019783 120.8,99.59545313631287 120.875,99.5758716131927 120.95,99.56829584725166 121.02499999999999,99.5602253829241 121.1,99.55805622023598 121.175,99.55578074239517 121.25,99.55196262631826 121.325,99.54855765253689 121.39999999999999,99.54657780121815 121.475,99.55565815330044 121.55,99.55505022208955 121.625,99.55629597517047 121.7,99.57311944687864 121.77499999999999,99.57849634959732 121.85,99.59172737733172 121.925,99.5930551928311 122.0,99.58900808036208 122.075,99.5943646727854 122.14999999999999,99.59364289718897 122.225,99.60390177576974 122.3,99.60729410309389 122.375,99.61954836711996 122.45,99.6181555714959 122.52499999999999,99.61752954947949 122.6,99.62707431902633 122.675,99.62987031845705 122.75,99.62773787517928 122.825,99.63627601737343 122.89999999999999,99.63655484189961 122.975,99.63126593329905 123.05,99.64002597810874 123.125,99.64430090785021 123.2,99.64173741992151 123.27499999999999,99.64509221476087 123.35,99.62606050437194 123.425,99.61824183812804 123.5,99.6217524629381 123.575,99.6224956429085 123.64999999999999,99.61708553937538 123.725,99.6161833464033 123.8,99.61697438100626 123.875,99.61291932069494 123.95,99.61818869912771 124.02499999999999,99.6178982533743 124.1,99.60723554558011 124.175,99.60563108994347 124.25,99.59731198201457 124.325,99.58355667653272 124.39999999999999,99.58677486346026 124.475,99.58894142775442 124.55,99.5904830328002 124.625,99.58532528769004 124.7,99.58186835697255 124.77499999999999,99.58531121094377 124.85,99.60143282606415 124.925,99.62448785851217 125.0,99.62462448315846 125.075,99.62147786761619 125.14999999999999,99.63393024288669 125.225,99.6440288044657 125.3,99.66057338951087 125.375,99.67821353474173 125.45,99.68160457715155 125.52499999999999,99.69116575296545 125.6,99.68505519994551 125.675,99.67977750407174 125.75,99.68608381037582 125.825,99.69086955280186 125.89999999999999,99.68843600077011 125.975,99.6812501064083 126.05,99.67649786514386 126.125,99.67507035213002 126.2,99.67628320586542 126.27499999999999,99.66864212573223 126.35,99.67225335320556 126.425,99.66387193588237 126.5,99.65922000327801 126.575,99.65610514132658 126.64999999999999,99.65174410698383 126.725,99.64496124254761 126.8,99.63444714611626 126.875,99.62681525580244 126.95,99.62425050199687 127.02499999999999,99.61791823961028 127.1,99.62824502667264 127.175,99.63144731495879 127.25,99.63500193191025 127.325,99.64491316327047 127.39999999999999,99.64140083848767 127.475,99.64910446076388 127.55,99.64926810282459 127.625,99.65122217710572 127.7,99.64804105241677 127.77499999999999,99.6511949391654 127.85,99.61722061337652 127.925,99.61083711700779 128.0,99.60613898223252 128.075,99.60746889636243 128.14999999999998,99.60733758822492 128.225,99.60381001267662 128.3,99.59819984797592 128.375,99.58653535126774 128.45,99.58785005148229 128.52499999999998,99.59621949762945 128.6,99.60122244324006 128.675,99.61286453820847 128.75,99.60920232919014 128.825,99.59455893373342 128.89999999999998,99.5932992073822 128.975,99.55025556912335 129.05,99.53220214881902 129.125,99.54049170535882 129.2,99.54390938077397 129.27499999999998,99.54308913486695 129.35,99.57877338288642 129.425,99.58365895106779 129.5,99.5978956370277 129.575,99.61023148150778 129.64999999999998,99.61010593208772 129.725,99.61723902656767 129.8,99.61631890501693 129.875,99.62057255543017 129.95,99.625942337809 130.02499999999998,99.62463928707996 130.1,99.60851595845016 130.175,99.5815349361612 130.25,99.57284209415222 130.325,99.57126429227507 130.39999999999998,99.57253976363634 130.475,99.60748246950925 130.55,99.62437214508533 130.625,99.61874426439233 130.7,99.61479702179327 130.77499999999998,99.60504295747874 130.85,99.59377550649755 130.925,99.59055183023355 131.0,99.58080220368254 131.075,99.57162120766608 131.14999999999998,99.57630590483026 131.225,99.57296588226599 131.3,99.57641082623607 131.375,99.58363325180683 131.45,99.57627106128189 131.52499999999998,99.57198642403142 131.6,99.58708628993574 131.675,99.60275123715041 131.75,99.61248411788326 131.825,99.63639230655544 131.89999999999998,99.64991340643562 131.975,99.66012719092258 132.05,99.67071620298115 132.125,99.6747891687529 132.2,99.6795557059544 132.27499999999998,99.68975144575653 132.35,99.69182588313257 132.425,99.69966064076775 132.5,99.69183369033884 132.575,99.69326623648756 132.64999999999998,99.69044071779282 132.725,99.687345621838 132.8,99.69011000923821 132.875,99.68855580691644 132.95,99.68910917837626 133.02499999999998,99.69624571104116 133.1,99.69567346125322 133.175,99.70124420327375 133.25,99.70477502445621 133.325,99.6952088058756 133.39999999999998,99.68336278844914 133.475,99.67681126619308 133.55,99.67216042373973 133.625,99.67020731946916 133.7,99.6639138189769 133.77499999999998,99.6551289365831 133.85,99.64488479134789 133.925,99.62850421634006 134.0,99.62635413887276 134.075,99.62862931674819 134.14999999999998,99.62466964350007 134.225,99.61964926752465 134.3,99.61606717083325 134.375,99.62007519782497 134.45,99.62360431052372 134.52499999999998,99.61344027037434 134.6,99.61522228364744 134.675,99.62025296310533 134.75,99.5984095381959 134.825,99.58708064316376 134.89999999999998,99.58109189821684 134.975,99.58679051464425 135.05,99.58662092011441 135.125,99.5837988064488 135.2,99.59148573566407 135.27499999999998,99.59647560230705 135.35,99.6038280202213 135.425,99.61025570098742 135.5,99.61489744085203 135.575,99.61317444065823 135.64999999999998,99.63844901359033 135.725,99.66534533304694 135.8,99.67384104224415 135.875,99.68450534304317 135.95,99.67781393129599 136.02499999999998,99.70319948896258 136.1,99.72819367034943 136.175,99.71961762164045 136.25,99.75329286667915 136.325,99.7608901614247 136.39999999999998,99.76945985046879 136.475,99.7715572639561 136.55,99.77986100921251 136.625,99.783007246965 136.7,99.78235526214864 136.77499999999998,99.79302280988404 136.85,99.80022665272323 136.925,99.80324618700055 137.0,99.79981078265655 137.075,99.77843900999973 137.14999999999998,99.73203110061861 137.225,99.69805915830815 137.3,99.68210848455222 137.375,99.67592099638269 137.45,99.67952305366279 137.52499999999998,99.66832149308708 137.6,99.63477866512532 137.675,99.63044620547211 137.75,99.61670154805506 137.825,99.61353985492765 137.89999999999998,99.61146433767632 137.975,99.60311030366282 138.05,99.59189601454344 138.125,99.59398954880403 138.2,99.59169961926278 138.27499999999998,99.57745022250336 138.35,99.57632727509915 138.425,99.56795157976019 138.5,99.52317427582156 138.575,99.51042903364767 138.64999999999998,99.53236515067346 138.725,99.53938366484515 138.8,99.54839726140047 138.875,99.53079362080283 138.95,99.52403721045796 139.02499999999998,99.52376098403882 139.1,99.52403091939819 139.175,99.52429774211564 139.25,99.52382997294313 139.325,99.50668024277299 139.39999999999998,99.50147751259715 139.475,99.50237805824905 139.55,99.51557988097947 139.625,99.51671628628017 139.7,99.52384414340322 139.77499999999998,99.53401744287684 139.85,99.52172725485035 139.925,99.52320551161058 140.0,99.5682619999811 140.075,99.58947193875079 140.14999999999998,99.58672268178682 140.225,99.601246642127 140.3,99.5996996589061 140.375,99.60580245894005 140.45,99.61925478912377 140.52499999999998,99.6134022283838 140.6,99.61586236627436 140.675,99.62284808625702 140.75,99.62932186412881 140.825,99.65615678486655 140.89999999999998,99.66907892740781 140.975,99.68177598211284 141.05,99.67884543156815 141.125,99.68492378747251 141.2,99.68346491138755 141.27499999999998,99.6771894974174 141.35,99.69098156262964 141.425,99.6968396251505 141.5,99.70594286046176 141.575,99.71884698874665 141.64999999999998,99.73622327597785 141.725,99.73056516090799 141.8,99.73614000548898 141.875,99.74332836727919 141.95,99.73747900167815 142.02499999999998,99.73591752366319 142.1,99.73522663365206 142.175,99.73342400267478 142.25,99.72443425411639 142.325,99.71990312724061 142.39999999999998,99.7118415552942 142.475,99.69851926311003 142.55,99.69090461814586 142.625,99.68598023854435 142.7,99.6816011246674 142.77499999999998,99.67929628081122 142.85,99.67046104582299 142.925,99.66051055436303 143.0,99.65694327804931 143.075,99.64987935678951 143.14999999999998,99.63104976382921 143.225,99.6348702355859 143.3,99.63029477157666 143.375,99.62376481073987 143.45,99.62366386447843 143.52499999999998,99.61585857628505 143.6,99.60695832746617 143.675,99.59832426892588 143.75,99.5923160881717 143.825,99.58346788976738 143.89999999999998,99.57712937075797 143.975,99.58102198402278 144.05,99.56685576906165 144.125,99.55930998510053 144.2,99.5502361205587 144.27499999999998,99.55241784825407 144.35,99.54591573071917 144.425,99.5453020526992 144.5,99.52421404652615 144.575,99.52043628461841 144.64999999999998,99.51343330355228 144.725,99.49899154370675 144.8,99.49231172174576 144.875,99.47950158901608 144.95,99.46994170618588 145.02499999999998,99.46917870130527 145.1,99.48119889676153 145.175,99.46835487552511 145.25,99.45840293967234 145.325,99.44527257015442 145.39999999999998,99.44943247746038 145.475,99.4227124793332 145.55,99.43921939688948 145.625,99.44983547144187 145.7,99.47217452216402 145.77499999999998,99.4707711491843 145.85,99.47573147521692 145.925,99.45132820975172 146.0,99.47269863037452 146.075,99.48719433909432 146.14999999999998,99.52688768289245 146.225,99.53544770247221 146.3,99.55397121799625 146.375,99.57426365319759 146.45,99.60401375836385 146.52499999999998,99.61229472807489 146.6,99.61832311047804 146.675,99.64582808040743 146.75,99.66368402562428 146.825,99.68162441887596 146.89999999999998,99.69145931077917 146.975,99.710266066709 147.05,99.71432172796692 147.125,99.71749158627127 147.2,99.71315443693265 147.27499999999998,99.71190032125351 147.35,99.69561983429989 147.425,99.7010639964207 147.5,99.69711693353622 147.575,99.69116812207334 147.64999999999998,99.66438412561786 147.725,99.67179350608076 147.8,99.6469805145313 147.875,99.63899713996747 147.95,99.61947258699703 148.02499999999998,99.62134538367067 148.1,99.61773356343748 148.175,99.61132622824928 148.25,99.61811552426109 148.325,99.62170861705019 148.39999999999998,99.6213484757225 148.475,99.612811432176 148.55,99.59404304891372 148.625,99.56928079981269 148.7,99.55896979604124 148.77499999999998,99.55134938342633 148.85,99.56284102715081 148.925,99.56974547570451 149.0,99.58442631203575 149.075,99.58224375481481 149.14999999999998,99.58515360382899 149.225,99.59162574418036 149.3,99.59695199696078 149.375,99.5878520323228 149.45,99.5917593934718 149.52499999999998,99.56225221578336 149.6,99.54488903912828 149.675,99.53496481203678 149.75,99.53602330287323 149.825,99.53166625644835 149.89999999999998,99.53471418550478 149.975,99.54821055287461 150.05,99.55874573363417 150.125,99.57400078416427 150.2,99.56442179738497 150.27499999999998,99.56843082112691 150.35,99.57870520829503 150.425,99.59588013347005 150.5,99.585525548044 150.575,99.57922195657542 150.64999999999998,99.5731610991421 150.725,99.54846253006862 150.8,99.55946532310655 150.875,99.57378231243356 150.95,99.56214036344556 151.02499999999998,99.57107630874064 151.1,99.53389833595178 151.175,99.52945847560244 151.25,99.5139649362312 151.325,99.50885220731908 151.39999999999998,99.49902091711333 151.475,99.49158521796443 151.55,99.48826306396107 151.625,99.48155372757714 151.7,99.48966659401447 151.77499999999998,99.49583011760535 151.85,99.48596014394131 151.925,99.48514195329591 152.0,99.47442481154083 152.075,99.48225526916406 152.14999999999998,99.48655759097458 152.225,99.49616735530749 152.3,99.49768599044728 152.375,99.49088724644889 152.45,99.49469548570394 152.52499999999998,99.51510780455317 152.6,99.5647689195272 152.675,99.57418377283297 152.75,99.5849256087563 152.825,99.60080588462438 152.89999999999998,99.59905685910694 152.975,99.60375272440012 153.05,99.60237905565121 153.125,99.60481041722812 153.2,99.60320765934568 153.27499999999998,99.608199659418 153.35,99.61895552072406 153.425,99.6200560948714 153.5,99.62155254871563 153.575,99.62510820950347 153.64999999999998,99.63062651058486 153.725,99.63284513531394 153.8,99.62670993117055 153.875,99.6349992313117 153.95,99.64322059158772 154.02499999999998,99.63207958324857 154.1,99.62876421181069 154.175,99.63058722905646 154.25,99.63177257715243 154.325,99.61851847038429 154.39999999999998,99.6232881663398 154.475,99.62788874167595 154.55,99.62840861443685 154.625,99.62454808154479 154.7,99.62492260227965 154.77499999999998,99.61226899245936 154.85,99.60915641710788 154.925,99.61389711396292 155.0,99.62226719431199 155.075,99.62247445336651 155.14999999999998,99.61290232099125 155.225,99.60978088545508 155.3,99.60750370162596 155.375,99.59514476591559 155.45,99.57836199213105 155.52499999999998,99.58632038157702 155.6,99.5968746637237 155.675,99.59681929301395 155.75,99.60449921341639 155.825,99.61608001445073 155.89999999999998,99.60880813144912 155.975,99.60123971153845 156.05,99.60316299946999 156.125,99.61501267360073 156.2,99.60989711246064 156.27499999999998,99.6090037639667 156.35,99.59982436030425 156.425,99.59997774569737 156.5,99.60196807498372 156.575,99.60229465518093 156.64999999999998,99.6068320209847 156.725,99.61534236222072 156.8,99.6037772537328 156.875,99.60552535199545 156.95,99.61900212270511 157.02499999999998,99.60353669523543 157.1,99.5986784773175 157.175,99.60508129823714 157.25,99.60138839886442 157.325,99.60433568206129 157.39999999999998,99.6146755843556 157.475,99.62208036071556 157.55,99.62904317596657 157.625,99.62062394216139 157.7,99.62726438154823 157.77499999999998,99.62752797330864 157.85,99.6294239545921 157.925,99.61542607698472 158.0,99.60659246232952 158.075,99.60108327872162 158.14999999999998,99.59991256350376 158.225,99.59754108765728 158.3,99.60703853884333 158.375,99.60344542941556 158.45,99.59550102597453 158.52499999999998,99.61901728007814 158.6,99.61322269823866 158.675,99.59092141614576 158.75,99.58367998006422 158.825,99.57410291060512 158.89999999999998,99.57433954958601 158.975,99.55440006289153 159.05,99.54145025149812 159.125,99.54692423901483 159.2,99.5458275025575 159.27499999999998,99.55920861754909 159.35,99.5647311546431 159.425,99.56627652781893 159.5,99.55956069643508 159.575,99.55074085262237 159.64999999999998,99.5534037200911 159.725,99.5530628106405 159.8,99.54766418997292 159.875,99.55931637815729 159.95,99.56410707377454 160.02499999999998,99.55079528770209 160.1,99.5567588413624 160.175,99.57314968368348 160.25,99.57188454873419 160.325,99.56648748529096 160.39999999999998,99.55687752303977 160.475,99.55723541841343 160.55,99.55900784204506 160.625,99.55639057550994 160.7,99.56123119429876 160.77499999999998,99.55591020610295 160.85,99.55011453912171 160.925,99.56512541937583 161.0,99.58284814737212 161.075,99.59755171786134 161.14999999999998,99.61001737170614 161.225,99.60965663571291 161.3,99.6201425548789 161.375,99.60859617116338 161.45,99.60709221960548 161.52499999999998,99.6097688860506 161.6,99.60389395541283 161.675,99.61283334236639 161.75,99.60841228941328 161.825,99.60827117153049 161.89999999999998,99.61093747106703 161.975,99.62739401738138 162.05,99.6334557464382 162.125,99.63293507894771 162.2,99.63920153846755 162.27499999999998,99.64161414652789 162.35,99.64783755055255 162.425,99.63571508214149 162.5,99.62782222635897 162.575,99.62910375442544 162.64999999999998,99.62053633332432 162.725,99.61947328832858 162.8,99.62580807821249 162.875,99.63552652935451 162.95,99.64477945503386 163.02499999999998,99.6217480269954 163.1,99.60697670601438 163.175,99.60852155669218 163.25,99.59695271591761 163.325,99.58259512564628 163.39999999999998,99.55800242792581 163.475,99.54239499703785 163.55,99.51737059769637 163.625,99.494820671513 163.7,99.48469014213467 163.77499999999998,99.47863321513529 163.85,99.4844166036724 163.925,99.49223641649799 164.0,99.50310231378018 164.075,99.50585376352073 164.14999999999998,99.4833602400494 164.225,99.47469430452277 164.3,99.46735480957253 164.375,99.47526507704875 164.45,99.47786775682951 164.52499999999998,99.50234110667523 164.6,99.53100619740091 164.675,99.52665409114594 164.75,99.55389315258337 164.825,99.56768163792592 164.89999999999998,99.59288329161427 164.975,99.61014687394162 165.05,99.62415136446558 165.125,99.65508086448739 165.2,99.6515172625167 165.27499999999998,99.64941338718181 165.35,99.65251066656413 165.425,99.65151583653376 165.5,99.64208280644011 165.575,99.63435235283127 165.64999999999998,99.65838403103933 165.725,99.66564040194969 165.8,99.67090500704272 165.875,99.6725398349997 165.95,99.66648153437224 166.02499999999998,99.66394126732472 166.1,99.6421802564915 166.175,99.61660195136105 166.25,99.58982404392212 166.325,99.57868933842786 166.39999999999998,99.56591087938371 166.475,99.56365547761125 166.55,99.55537257514946 166.625,99.53782249251454 166.7,99.54737180720493 166.77499999999998,99.54866966159423 166.85,99.53764717667241 166.925,99.53243218108454 167.0,99.54842288399414 167.075,99.55505552218612 167.14999999999998,99.5327746049661 167.225,99.52314227344101 167.3,99.51031154677514 167.375,99.50284485076034 167.45,99.49291726861645 167.52499999999998,99.48457893758639 167.6,99.48612554963043 167.675,99.52129598850362 167.75,99.54533749003042 167.825,99.55846349406863 167.89999999999998,99.58363762780546 167.975,99.58528308656359 168.05,99.6052089569586 168.125,99.63108135516948 168.2,99.63673227090325 168.27499999999998,99.64190881203882 168.35,99.64841570872635 168.425,99.6628339866631 168.5,99.64589610210233 168.575,99.64710963106326 168.64999999999998,99.68793063150423 168.725,99.70357290350564 168.8,99.70416442024874 168.875,99.681556081019 168.95,99.68477612105622 169.02499999999998,99.67886306131818 169.1,99.67926905647961 169.175,99.65809529302074 169.25,99.65331165595298 169.325,99.66527191056052 169.39999999999998,99.65137850624134 169.475,99.642448084661 169.55,99.6388725853836 169.625,99.62441416198423 169.7,99.61199318375473 169.77499999999998,99.59175321475131 169.85,99.52456953610724 169.925,99.51178297591373 170.0,99.50954384664736 170.075,99.49612848871054 170.14999999999998,99.46259583704709 170.225,99.45795600906206 170.3,99.4737078334754 170.375,99.49083226882881 170.45,99.48603597323078 170.52499999999998,99.50064830663531 170.6,99.50334198616872 170.675,99.50535757968639 170.75,99.48682718418492 170.825,99.45997525867456 170.89999999999998,99.45484168417332 170.975,99.45945628599043 171.05,99.46815425884394 171.125,99.46407450055675 171.2,99.4710771034446 171.27499999999998,99.49228314753518 171.35,99.57528825044791 171.425,99.58166558124836 171.5,99.5892949122368 171.575,99.59923528204487 171.64999999999998,99.62644658188673 171.725,99.63225722366913 171.8,99.62889264661516 171.875,99.63288880866949 171.95,99.64625652807668 172.02499999999998,99.63855748722102 172.1,99.62991385036526 172.175,99.62702361411506 172.25,99.6325887997155 172.325,99.64632884828674 172.39999999999998,99.65001380122929 172.475,99.64265767156921 172.55,99.64301766164496 172.625,99.63949366713628 172.7,99.6384695112539 172.77499999999998,99.63311159668874 172.85,99.62030667669984 172.925,99.61727805923209 173.0,99.61879149317424 173.075,99.61122655224732 173.14999999999998,99.5877264971961 173.225,99.5786926838946 173.3,99.57208354008321 173.375,99.56836241464397 173.45,99.56417824586633 173.52499999999998,99.58178947315855 173.6,99.60393432768439 173.675,99.61795136927395 173.75,99.62144558887412 173.825,99.62022609471113 173.89999999999998,99.6347019797178 173.975,99.65264024926992 174.05,99.6529826677118 174.125,99.65757519492831 174.2,99.65732207821624 174.27499999999998,99.67025029520755 174.35,99.67653693734432 174.425,99.680532041618 174.5,99.67402985337053 174.575,99.66650893692136 174.64999999999998,99.64353631688792 174.725,99.6045522098525 174.8,99.57578104067792 174.875,99.56513452011421 174.95,99.56382501651197 175.02499999999998,99.56545181454192 175.1,99.56385294499027 175.175,99.54563365408671 175.25,99.54304308507643 175.325,99.53543840322699 175.39999999999998,99.4999798534147 175.475,99.4730417254623 175.55,99.45429764525824 175.625,99.44331136566511 175.7,99.43844168554486 175.77499999999998,99.43042149227546 175.85,99.42419547763556 175.925,99.42024877269527 176.0,99.42151363068179 176.075,99.43779345564984 176.14999999999998,99.46494376028596 176.225,99.50707750351874 176.3,99.52780766757233 176.375,99.53765187918061 176.45,99.53495409041257 176.52499999999998,99.53150382914129 176.6,99.53037445588573 176.675,99.54137145117362 176.75,99.55992397262435 176.825,99.57447706196109 176.89999999999998,99.59899067915721 176.975,99.61858944863 177.05,99.62156130727169 177.125,99.63159704945632 177.2,99.6286242169911 177.27499999999998,99.62388268514104 177.35,99.62910492331491 177.425,99.64903268454098 177.5,99.65502566386462 177.575,99.64449068494656 177.64999999999998,99.63464681877315 177.725,99.62916694613382 177.8,99.63525494315358 177.875,99.63906442913206 177.95,99.63835087686893 178.025,99.63285544437893 178.1,99.62549010580952 178.17499999999998,99.62987486820488 178.25,99.62645625064037 178.325,99.62699464194242 178.4,99.62908843179157 178.475,99.6227666564862 178.54999999999998,99.61632695271408 178.625,99.60677799600836 178.7,99.60316973253113 178.775,99.60597513299693 178.85,99.59834061393546 178.92499999999998,99.58209896226315 179.0,99.57729230789364 179.075,99.58311127300975 179.15,99.6022029631346 179.225,99.60025234064226 179.29999999999998,99.5952260110909 179.375,99.59533650352999 179.45,99.60321262908693 179.525,99.60527281534284 179.6,99.6076728242617 179.67499999999998,99.61365800643105 179.75,99.61497169369038 179.825,99.61195613015235 179.9,99.60398525174945 179.975,99.61009140653823 180.04999999999998,99.63265210357922 180.125,99.65097253973596 180.2,99.66320064210223 180.275,99.66936803743435 180.35,99.66520016638346 180.42499999999998,99.65973764844756 180.5,99.65213192704043 180.575,99.64975099561539 180.65,99.63647547718413 180.725,99.63282777077491 180.79999999999998,99.62780930393757 180.875,99.62761154344145 180.95,99.61759193914318 181.025,99.60648632671463 181.1,99.60955738062636 181.17499999999998,99.59598116049857 181.25,99.5854117220086 181.325,99.58597299142092 181.4,99.59222676738192 181.475,99.58973736824129 181.54999999999998,99.56967641570101 181.625,99.57004318771189 181.7,99.5775130329283 181.775,99.54933706997339 181.85,99.53375418577647 181.92499999999998,99.52405294037683 182.0,99.52076833851477 182.075,99.51429568810565 182.15,99.51487270004 182.225,99.52381708532029 182.29999999999998,99.53392440101476 182.375,99.53202953970712 182.45,99.51785809063963 182.525,99.48153636178812 182.6,99.46780395306556 182.67499999999998,99.48602860690883 182.75,99.49778870137742 182.825,99.50321950816237 182.9,99.51505596631162 182.975,99.52561825415557 183.04999999999998,99.54301692748686 183.125,99.55010211313194 183.2,99.5437875373394 183.275,99.54657319583676 183.35,99.56036018187827 183.42499999999998,99.56746022614465 183.5,99.57445907291311 183.575,99.58711314317713 183.65,99.58590070129688 183.725,99.5841376071319 183.79999999999998,99.59154111138209 183.875,99.59189995894396 183.95,99.60191436094198 184.025,99.63905669890988 184.1,99.65556424437119 184.17499999999998,99.64139624125299 184.25,99.62722867665802 184.325,99.62086554764113 184.4,99.60959790664535 184.475,99.60327683344728 184.54999999999998,99.59833632573572 184.625,99.58399373842316 184.7,99.57904540606609 184.775,99.59923381167836 184.85,99.6040022828766 184.92499999999998,99.61359422861656 185.0,99.62623541326056 185.075,99.62764304485006 185.15,99.6287759278807 185.225,99.63028860284771 185.29999999999998,99.62898818622644 185.375,99.62520858336038 185.45,99.63424060663836 185.525,99.64105751289466 185.6,99.63589271626765 185.67499999999998,99.63939979160605 185.75,99.65436813760773 185.825,99.65617572278735 185.9,99.66128453270824 185.975,99.65512313633994 186.04999999999998,99.64567758983024 186.125,99.62918560857757 186.2,99.62050070898502 186.275,99.60763065323658 186.35,99.6025458984395 186.42499999999998,99.60271442494368 186.5,99.59738072838309 186.575,99.59148088595411 186.65,99.59014773422759 186.725,99.58803012612019 186.79999999999998,99.58514015034935 186.875,99.58249419423221 186.95,99.58555593080527 187.025,99.5794601755466 187.1,99.56699151640404 187.17499999999998,99.56497603704355 187.25,99.5753130274995 187.325,99.5921340995107 187.4,99.59264255410923 187.475,99.58999327330397 187.54999999999998,99.58698292225992 187.625,99.60454992012967 187.7,99.61368754529403 187.775,99.62513166173528 187.85,99.62282766769917 187.92499999999998,99.61092200945401 188.0,99.59630546405758 188.075,99.5954998891557 188.15,99.59726189978073 188.225,99.6007565441461 188.29999999999998,99.59919195557417 188.375,99.60005999443715 188.45,99.5969638561636 188.525,99.60047170165147 188.6,99.60826205861657 188.67499999999998,99.59828093260491 188.75,99.57174585705538 188.825,99.54576135681477 188.9,99.53193673276587 188.975,99.5330132944158 189.04999999999998,99.54823386249234 189.125,99.55034653227956 189.2,99.54386868196266 189.275,99.54227184163928 189.35,99.54189866110107 189.42499999999998,99.54818852949181 189.5,99.556624738525 189.575,99.5526752680059 189.65,99.55232150520473 189.725,99.54584472327603 189.79999999999998,99.53691000345854 189.875,99.54679898645115 189.95,99.50270340317385 190.025,99.46741176775632 190.1,99.47041697024731 190.17499999999998,99.48542931295908 190.25,99.48223277757387 190.325,99.48218409536585 190.4,99.48878517739264 190.475,99.48683966558399 190.54999999999998,99.48236603974344 190.625,99.48519997541096 190.7,99.49068499368752 190.775,99.49582192398721 190.85,99.50054633175816 190.92499999999998,99.49350015638092 191.0,99.48307312101207 191.075,99.48725207822493 191.15,99.48290282444279 191.225,99.48829885512917 191.29999999999998,99.50279503398359 191.375,99.49636994942146 191.45,99.53758836154452 191.525,99.57352605215206 191.6,99.57246130939353 191.67499999999998,99.53912269017843 191.75,99.54826130051337 191.825,99.54390442211178 191.9,99.53602577236236 191.975,99.55624562407732 192.04999999999998,99.55145066804448 192.125,99.52567462978645 192.2,99.52705218871101 192.275,99.52065851412559 192.35,99.50488125228453 192.42499999999998,99.5065541345426 192.5,99.5127096182697 192.575,99.50681272507232 192.65,99.50078389637034 192.725,99.48919259045853 192.79999999999998,99.47340518524904 192.875,99.47010047452703 192.95,99.45842037389868 193.025,99.43210810131697 193.1,99.43202464935472 193.17499999999998,99.44930821953598 193.25,99.44165523755768 193.325,99.4487756025634 193.4,99.44978195428384 193.475,99.43698392642705 193.54999999999998,99.44585765889423 193.625,99.46738663535594 193.7,99.46464226817399 193.775,99.48503203576632 193.85,99.513554412654 193.92499999999998,99.5179667750317 194.0,99.52231363075539 194.075,99.51967424912547 194.15,99.53469105230305 194.225,99.54426435112087 194.29999999999998,99.54362088336556 194.375,99.53691119375485 194.45,99.53584999608174 194.525,99.55963336528242 194.6,99.55849285160626 194.67499999999998,99.56258843699949 194.75,99.56403710936802 194.825,99.55435513819884 194.9,99.56182415423666 194.975,99.56713612778096 195.04999999999998,99.5613914382189 195.125,99.55760853700913 195.2,99.55735362293339 195.275,99.53899387095606 195.35,99.49835321528431 195.42499999999998,99.48120304935694 195.5,99.45309240825324 195.575,99.44347856339998 195.65,99.44227359409778 195.725,99.44968667750527 195.79999999999998,99.47329134133673 195.875,99.49884176256164 195.95,99.50733714234924 196.025,99.50841479398923 196.1,99.5154907066971 196.17499999999998,99.5342355578044 196.25,99.54356271754531 196.325,99.55471899144834 196.4,99.55538916622322 196.475,99.55581093751161 196.54999999999998,99.55968118564807 196.625,99.57000053406796 196.7,99.5674067492822 196.775,99.57121466564152 196.85,99.59534836071991 196.92499999999998,99.61406471481116 197.0,99.63579861794237 197.075,99.63949514302489 197.15,99.60956987458331 197.225,99.58834534402048 197.29999999999998,99.56130402452479 197.375,99.52902083017555 197.45,99.51464025032654 197.525,99.50145055826276 197.6,99.47244413321087 197.67499999999998,99.441457215446 197.75,99.43854450476606 197.825,99.4360989922806 197.9,99.43294297877773 197.975,99.4305324660503 198.04999999999998,99.42924141869982 198.125,99.41019767099287 198.2,99.40881246689825 198.275,99.40643417334243 198.35,99.3982778034375 198.42499999999998,99.37838602444197 198.5,99.36063466863105 198.575,99.35380906189184 198.65,99.35051907495456 198.725,99.35365299943793 198.79999999999998,99.35872269249701 198.875,99.37372566409563 198.95,99.36425272885869 199.025,99.33923883351642 199.1,99.31133287021834 199.17499999999998,99.2900598153966 199.25,99.25195993207335 199.325,99.26964602232354 199.4,99.27051044090197 199.475,99.25927309760553 199.54999999999998,99.24367187854774 199.625,99.25592381852425 199.7,99.26320189433706 199.775,99.26109373793525 199.85,99.27724861524007 199.92499999999998,100.0" opacity="1" fill="#E15759" stroke="black" stroke-width="0"/>
<line x1="40" y1="100.0" x2="40" y2="70.0" stroke="black" stroke-width="1" />
<line x1="39.5" y1="100.0" x2="43.5" y2="100.0" stroke="black" stroke-width="1" />
<line x1="39.5" y1="70.0" x2="43.5" y2="70.0" stroke="black" stroke-width="1" />
<text text-anchor="end" font-family="Arial" x="36" y="104.0" font-size="8" >0</text>
<text text-anchor="end" font-family="Arial" x="36" y="74.0" font-size="8" >2375.7</text>
<text text-anchor="start" font-family="Arial" x="39.5" y="66" font-size="7" >ChrIV: 1-1,531,933</text>
</svg>
