<svg viewBox="0 0 320 210" xmlns="http://www.w3.org/2000/svg">
<polygon points="50.0,100.0 50.075,99.75373092036305 50.15,99.75534519679024 50.225,99.7489045859857 50.3,99.73959881342549 50.375,99.73991161820368 50.45,99.73284387427029 50.525,99.72703322809001 50.6,99.71500174504958 50.675,99.7111388831238 50.75,99.71023011911537 50.825,99.70782147562267 50.9,99.70381642501341 50.975,99.6984846586339 51.05,99.68664266579376 51.125,99.68073947983704 51.2,99.66906262951015 51.275,99.66105467526017 51.35,99.65244969410941 51.425,99.64747702703814 51.5,99.64762763210807 51.575,99.6845085529579 51.65,99.68219579504425 51.725,99.68964087492638 51.8,99.70123190855885 51.875,99.69646614699803 51.95,99.70731545641726 52.025,99.70959881291724 52.1,99.72050273256352 52.175,99.72347846539628 52.25,99.71847723733461 52.325,99.71305924409984 52.4,99.71231094389684 52.475,99.71139301547224 52.55,99.71921825824876 52.625,99.72165865705061 52.7,99.728230881604 52.775,99.72798771238078 52.85,99.73140513387686 52.925,99.73390025701774 53.0,99.733140717343 53.075,99.735729638334 53.15,99.7377968091236 53.225,99.7332439918513 53.3,99.73151111201854 53.375,99.73085443139509 53.45,99.72487677314614 53.525,99.72730007865893 53.6,99.72538034732169 53.675,99.7187198316553 53.75,99.72422363710311 53.825,99.7262415817919 53.9,99.726107252091 53.975,99.72666151829965 54.05,99.72674224971483 54.125,99.7314278641358 54.2,99.7311838224942 54.275,99.73933033028902 54.35,99.72170614287063 54.425,99.71115913409528 54.5,99.71081154895404 54.575,99.70390960779561 54.65,99.69722956528993 54.725,99.69096923345185 54.8,99.6876777376221 54.875,99.68968725545359 54.95,99.68828020814725 55.025,99.68337112150398 55.1,99.68520842472034 55.175,99.68927221762789 55.25,99.68809342927838 55.325,99.6894182935205 55.4,99.68542001455518 55.475,99.68320207987009 55.55,99.69101644045347 55.625,99.68551158699506 55.7,99.68583147504545 55.775,99.68091386973076 55.85,99.70139070100493 55.925,99.71315683932039 56.0,99.7080673460428 56.075,99.71698562679283 56.15,99.72015346480269 56.225,99.72280701939741 56.3,99.72355390473088 56.375,99.7258016391604 56.45,99.72652316393344 56.525,99.72688276460282 56.6,99.72378153097084 56.675,99.72462703282046 56.75,99.72174611788448 56.825,99.7223050325361 56.9,99.72604285358476 56.975,99.72600992477365 57.05,99.7116292148835 57.125,99.71194744996646 57.2,99.71894472613826 57.275,99.7217124515358 57.35,99.72006616592213 57.425,99.71299769193395 57.5,99.71610790437612 57.575,99.7107586993687 57.65,99.71291552874868 57.725,99.71989779863169 57.8,99.71812744446696 57.875,99.71503104610167 57.95,99.7139432728226 58.025,99.7186172131455 58.1,99.71935922339554 58.175,99.72463329425847 58.25,99.7274852554113 58.325,99.72944067935312 58.4,99.7314946673946 58.475,99.73674493831354 58.55,99.7468213756178 58.625,99.74921306795305 58.7,99.74364053122362 58.775,99.74401159611193 58.85,99.74552184221672 58.925,99.74852011921541 59.0,99.7495236367669 59.075,99.74568018270465 59.15,99.74547942145684 59.225,99.74381929472608 59.3,99.74654673667816 59.375,99.74909065747133 59.45,99.74664809390868 59.525,99.74488390811833 59.6,99.74984550377803 59.675,99.74850327241805 59.75,99.74742440254649 59.825,99.74859189478094 59.9,99.74384086001645 59.975,99.74404197961258 60.05,99.73967253658542 60.125,99.73817310780507 60.2,99.74248501401637 60.275,99.74337649425163 60.35,99.7415307456436 60.425,99.74671437056526 60.5,99.74137163243071 60.575,99.73273929514414 60.65,99.71999221236743 60.725,99.71688856553453 60.8,99.71014598900207 60.875,99.70923063475453 60.95,99.7086193604218 61.025,99.70125102258834 61.1,99.69259624888994 61.175,99.69054683437757 61.25,99.69206101918037 61.325,99.69422246232232 61.4,99.6983473995332 61.475,99.7009134064547 61.55,99.69580286909908 61.625,99.6957471660329 61.7,99.68972786109298 61.775,99.68255315788754 61.85,99.67939151409357 61.925,99.6793256250246 62.0,99.68099460253 62.075,99.6914597292679 62.15,99.70086688154824 62.225,99.70314727495473 62.3,99.7050868996053 62.375,99.70939602319518 62.45,99.70998877369573 62.525,99.71216469669574 62.6,99.71493856094524 62.675,99.71310903211642 62.75,99.71645249223324 62.825,99.70960262631047 62.9,99.71469988913977 62.975,99.72091033262751 63.05,99.72573877285973 63.125,99.72960872428432 63.2,99.7328329732634 63.275,99.74177228053563 63.35,99.74505111092559 63.425,99.74062503866965 63.5,99.74397000410494 63.575,99.75213170442315 63.65,99.75290626946351 63.725,99.75375577022847 63.8,99.75471135384751 63.875,99.75473420102425 63.95,99.7550862270329 64.025,99.75750605878363 64.1,99.75900551937228 64.175,99.76002319373731 64.25,99.75740018224526 64.325,99.75753944587962 64.4,99.75279871480707 64.475,99.74881288081436 64.55,99.75439423756164 64.625,99.75317449900608 64.7,99.75071575354487 64.775,99.7423513915048 64.85,99.74072832104378 64.925,99.73975811924583 65.0,99.73148197480849 65.075,99.7219703472115 65.15,99.72001534288265 65.225,99.72349595330522 65.3,99.72264714503585 65.375,99.71214703617844 65.45,99.71215879871795 65.525,99.70655528133692 65.6,99.70854456931282 65.675,99.70774984189732 65.75,99.6980870408627 65.825,99.69052077759679 65.9,99.68910277285106 65.975,99.68466600516683 66.05,99.68652725431113 66.125,99.68743075936179 66.2,99.68728605658472 66.275,99.69019471731568 66.35,99.69292801142709 66.425,99.69283665293831 66.5,99.69826824718237 66.575,99.70672844975465 66.65,99.70471140543077 66.725,99.68603446979971 66.8,99.6889059127393 66.875,99.69491403662796 66.95,99.69397620189474 67.025,99.70179609776623 67.1,99.7037450111513 67.175,99.70488018909435 67.25,99.71613526665465 67.325,99.72264972172397 67.4,99.72105669855516 67.475,99.71645129649451 67.55,99.70947657116831 67.625,99.70342545308404 67.7,99.70639626493808 67.775,99.70173509732173 67.85,99.69932560779245 67.925,99.70543006202152 68.0,99.70364453647286 68.075,99.69541857980339 68.15,99.70151688017341 68.225,99.7177485897898 68.3,99.71647172048874 68.375,99.71390233905814 68.45,99.70617031689333 68.525,99.69530003776856 68.6,99.68975751143059 68.675,99.6849808568425 68.75,99.67601996624177 68.825,99.68302583736433 68.9,99.68874302608809 68.975,99.69174670281103 69.05,99.68818942538407 69.125,99.68757572617092 69.2,99.67799486758692 69.275,99.67927101097702 69.35,99.68264958007589 69.425,99.6845072858283 69.5,99.69399727300144 69.575,99.69690713785101 69.65,99.6886092892749 69.725,99.68759854243305 69.8,99.69064695807491 69.875,99.69407428056797 69.95,99.7047149019771 70.025,99.714930250375 70.1,99.71559678064018 70.175,99.70905935486617 70.25,99.70355009474457 70.325,99.68593065256479 70.4,99.6694007854478 70.475,99.6535253342014 70.55,99.64138660069587 70.625,99.64550616618773 70.7,99.64814750954712 70.775,99.65479742651075 70.85,99.65441299089046 70.925,99.64977008307437 71.0,99.63989807519476 71.075,99.64492346307605 71.15,99.65046029853612 71.225,99.65340775170927 71.3,99.64815622577753 71.375,99.64695670569071 71.45,99.65520067989641 71.525,99.65226664672778 71.6,99.65082409476676 71.675,99.66668856114806 71.75,99.67948998286695 71.825,99.69214784654828 71.9,99.70662218906396 71.975,99.7169690738656 72.05,99.73306202766753 72.125,99.73140424411278 72.2,99.74394006728701 72.275,99.74095468359322 72.35,99.73713871511322 72.425,99.73290623479599 72.5,99.73019953452022 72.575,99.7292646651818 72.65,99.72620006518954 72.725,99.72669521333147 72.8,99.72991708069362 72.875,99.73146103508807 72.95,99.72912148941175 73.025,99.73443351573209 73.1,99.7348110809674 73.175,99.72695660137094 73.25,99.72086796755498 73.325,99.72416939230075 73.4,99.72527013945509 73.475,99.73420134912732 73.55,99.73506551922365 73.625,99.73496605625495 73.7,99.72667501350821 73.775,99.71442957887585 73.85,99.70752527198697 73.925,99.70701831755537 74.0,99.71955822404388 74.075,99.71959115080915 74.15,99.72733598767506 74.225,99.72556538396427 74.3,99.72486845158286 74.375,99.7178415233665 74.45,99.71154473176948 74.525,99.70788765938707 74.6,99.71222938907682 74.675,99.70671794124358 74.75,99.70057519004187 74.825,99.6992894807534 74.9,99.69376507461286 74.975,99.68512959574666 75.05,99.68293250203904 75.125,99.68162325482629 75.2,99.67993142990619 75.275,99.6976107814808 75.35,99.7044402741112 75.425,99.70128555680819 75.5,99.69024873695504 75.575,99.68014599919383 75.65,99.67671477647885 75.725,99.67235096890968 75.8,99.67597210612078 75.875,99.67966026542273 75.95,99.68129085590179 76.025,99.68248252991033 76.1,99.67962040258854 76.175,99.68952512227548 76.25,99.69953256485934 76.325,99.70178451182566 76.4,99.70973938427379 76.475,99.7131289110695 76.55,99.71717609927694 76.625,99.7202510170126 76.7,99.72215159047089 76.775,99.71916340250266 76.85,99.72040011163388 76.925,99.72708568645923 77.0,99.7320451618309 77.075,99.74238167053525 77.15,99.73997296500589 77.225,99.73614809653579 77.3,99.72876092536607 77.375,99.72637734112409 77.45,99.7264042640837 77.525,99.72536359761425 77.6,99.7202223260733 77.675,99.71449666758825 77.75,99.71147270088845 77.825,99.71070013552429 77.9,99.70773049656684 77.975,99.70677094738095 78.05,99.71007142160249 78.125,99.71074339771957 78.2,99.70723671977252 78.275,99.70376009198222 78.35,99.70734625104221 78.425,99.7096230504294 78.5,99.70668703012471 78.575,99.69995600324322 78.65,99.70315838797443 78.725,99.70515241539823 78.8,99.70719149137275 78.875,99.71221405061334 78.95,99.71337124341225 79.025,99.71727862772325 79.1,99.72101923608788 79.175,99.71941045966378 79.25,99.71428899891166 79.325,99.71244626629435 79.4,99.71280523596069 79.475,99.71683154583458 79.55,99.7140081200426 79.625,99.70793518761286 79.7,99.70773411077114 79.775,99.70803550856975 79.85,99.70865788633262 79.925,99.6969874379556 80.0,99.69486198792521 80.075,99.69578844050739 80.15,99.69953826496584 80.225,99.69258785179048 80.3,99.69774389788314 80.375,99.70053600580285 80.45,99.69892164347768 80.525,99.69760280815694 80.6,99.70192195569096 80.675,99.70099341510574 80.75,99.70546888930724 80.825,99.7025665840333 80.9,99.70280197303822 80.975,99.70433620333719 81.05,99.69788795162773 81.125,99.69725247561531 81.2,99.69687229282074 81.275,99.69704811126411 81.35,99.69494703127066 81.425,99.7030755438873 81.5,99.71409333763833 81.575,99.71187348505663 81.65,99.70839947267996 81.725,99.71113315463431 81.8,99.6912730576514 81.875,99.68341222586746 81.95,99.67791219738722 82.025,99.67100158163277 82.1,99.66599127812164 82.175,99.66505674634034 82.25,99.67210996431375 82.32499999999999,99.67567363084085 82.4,99.66065317180524 82.475,99.6376393705705 82.55,99.6307163377434 82.625,99.63713486672762 82.69999999999999,99.6455670101989 82.775,99.64843997412466 82.85,99.64627059857116 82.925,99.64879912203807 83.0,99.6432387805821 83.07499999999999,99.64540093638048 83.15,99.62752525379638 83.225,99.62238171290528 83.3,99.64074759628924 83.375,99.64796633304334 83.44999999999999,99.65274363715945 83.525,99.64970380659406 83.6,99.64821980284015 83.675,99.65458926924923 83.75,99.64743149285256 83.82499999999999,99.64760081381627 83.9,99.65514691291482 83.975,99.66869543237286 84.05,99.67161048284927 84.125,99.66703669933199 84.19999999999999,99.65703465255268 84.275,99.6479402066998 84.35,99.64674080593365 84.425,99.64057881699314 84.5,99.64333020217825 84.57499999999999,99.64457905012469 84.65,99.65295718306965 84.725,99.65989188594773 84.8,99.65740020794297 84.875,99.64594209491472 84.94999999999999,99.64921970047091 85.025,99.64940800587459 85.1,99.65234530625983 85.175,99.65121442290541 85.25,99.64772263061464 85.32499999999999,99.6403113169058 85.4,99.63879046468116 85.475,99.65042617225474 85.55,99.66119934707105 85.625,99.66087961198212 85.69999999999999,99.66175147546231 85.775,99.66381199051837 85.85,99.66945513102549 85.925,99.6649038643768 86.0,99.65684854508898 86.07499999999999,99.66568830559204 86.15,99.67657151217087 86.225,99.67585031752817 86.3,99.68043846832416 86.375,99.68800794649339 86.44999999999999,99.68379697553155 86.525,99.68417989804445 86.6,99.67722691592502 86.675,99.6688567729483 86.75,99.66935353510502 86.82499999999999,99.66785053824769 86.9,99.64751196661283 86.975,99.6172691605322 87.05,99.60781162401 87.125,99.5950312051349 87.19999999999999,99.58603228685779 87.275,99.5842030311611 87.35,99.56760206457838 87.425,99.5560766057423 87.5,99.55597514203495 87.57499999999999,99.55292193050575 87.65,99.54117926937201 87.725,99.53134287156064 87.8,99.52345315698058 87.875,99.52508048286681 87.94999999999999,99.51958560818466 88.025,99.52658242288098 88.1,99.51791432080226 88.175,99.51171732329335 88.25,99.49806248852347 88.32499999999999,99.49444898532829 88.4,99.52132674236798 88.475,99.53071527199073 88.55,99.52923598799637 88.625,99.53398721576274 88.69999999999999,99.53522679573861 88.775,99.53009573968848 88.85,99.5391685269743 88.925,99.54110627584703 89.0,99.52610246958679 89.07499999999999,99.51381375171826 89.15,99.50496380021475 89.225,99.51035094692065 89.3,99.49130052905777 89.375,99.46398982295786 89.44999999999999,99.45154842103379 89.525,99.38374400104685 89.6,99.37310333583922 89.675,99.34494867306996 89.75,99.32361795304944 89.82499999999999,99.29694581746176 89.9,99.27198775566629 89.975,99.2114541734145 90.05,99.15928594936827 90.125,99.11906748935654 90.19999999999999,99.0958139350759 90.275,99.07791126440765 90.35,99.02136384747047 90.425,98.97517821058369 90.5,98.9100907610013 90.57499999999999,98.8846166502486 90.65,98.86047971489556 90.725,98.82852022077797 90.8,98.81436360830376 90.875,98.76424732168087 90.94999999999999,98.70674222692264 91.025,98.69872556278267 91.1,98.65924632765747 91.175,98.63119601104299 91.25,98.61176784447056 91.32499999999999,98.54000797706203 91.4,98.46911213508952 91.475,98.49283690814663 91.55,98.4763940390951 91.625,98.45249140161228 91.69999999999999,98.43986722177583 91.775,98.45459304039206 91.85,98.49753039309405 91.925,98.53883859990141 92.0,98.52936321562736 92.07499999999999,98.44059759854389 92.15,98.39108293749045 92.225,98.33031421835567 92.3,98.21325197351307 92.375,98.13731962303852 92.44999999999999,98.1022930043841 92.525,97.68894673558204 92.6,97.0438900357563 92.675,96.3810083527721 92.75,95.95933013077205 92.82499999999999,95.80101748771511 92.9,95.59787128533789 92.975,95.3693299564105 93.05,94.95596745281964 93.125,94.52348250461591 93.19999999999999,94.03371790195193 93.275,93.40718125282808 93.35,92.85296821502361 93.425,91.97015892486006 93.5,90.63981633346667 93.57499999999999,89.22921269343695 93.65,87.94389185037826 93.725,86.59735570119068 93.8,85.44674371403826 93.875,83.30307355627723 93.94999999999999,81.2717859634158 94.025,80.33220950798582 94.1,78.7763463767794 94.175,77.4622477495722 94.25,76.31395896607975 94.32499999999999,75.75455744726722 94.4,75.1652548627016 94.475,74.15958041596642 94.55,73.77198450256328 94.625,73.29712182781998 94.69999999999999,73.1020724092853 94.775,73.00013763880186 94.85,73.25666626463394 94.925,73.90868204660157 95.0,75.0801052156132 95.07499999999999,76.42142958391436 95.15,77.66217938691649 95.225,78.94671720235812 95.3,79.83566736240701 95.375,81.90011411772016 95.44999999999999,83.78911898327026 95.525,85.15556229850999 95.6,87.31651783182656 95.675,89.23852278394443 95.75,90.7489832768672 95.82499999999999,91.46249810490346 95.9,92.25934093305477 95.975,93.44509220701623 96.05,94.228995249724 96.125,95.13047330867285 96.19999999999999,95.84389246170485 96.275,96.52539473023135 96.35,96.69871726974053 96.425,96.74060156332133 96.5,96.76292524443278 96.57499999999999,96.72534844763146 96.65,96.65900215786175 96.725,96.60498588677925 96.8,96.88984552659895 96.875,97.07476207436261 96.94999999999999,97.28186580899064 97.025,97.29202217208717 97.1,97.33849499022797 97.175,97.43548827906874 97.25,97.5126222270991 97.32499999999999,97.50796671876567 97.4,97.50886175363183 97.475,97.55460666623978 97.55,97.61793873154227 97.625,97.67665552252107 97.69999999999999,97.65478178375889 97.775,97.66939746804695 97.85,97.80999492323805 97.925,98.01100977617972 98.0,98.21963497180437 98.07499999999999,98.45099088971902 98.15,98.63957312298947 98.225,98.84178653885647 98.3,98.95958919977718 98.375,99.00017686525396 98.44999999999999,99.02330341363921 98.525,99.0539097009 98.6,99.09319501822624 98.675,99.11320280695747 98.75,99.13953915248202 98.82499999999999,99.23815570236327 98.9,99.31031354489244 98.975,99.34947907595078 99.05,99.36785686742574 99.125,99.37692888421967 99.19999999999999,99.39384885698993 99.275,99.41952089106417 99.35,99.3932244249161 99.425,99.37724066960149 99.5,99.37295234063039 99.57499999999999,99.34909124357885 99.65,99.36500335507839 99.725,99.3676623339141 99.8,99.36395019651633 99.875,99.36622582624284 99.94999999999999,99.37751044636032 100.025,99.38609492114895 100.1,99.40402046835636 100.175,99.4097023571734 100.25,99.39592888496936 100.32499999999999,99.35627119971777 100.4,99.34353849378867 100.475,99.3267932177074 100.55,99.27433440863093 100.625,99.2076338959586 100.69999999999999,99.17814374434292 100.775,99.15978600440229 100.85,99.17441003748806 100.925,99.189757225409 101.0,99.19808456983917 101.07499999999999,99.21419031907902 101.15,99.20458243366048 101.225,99.20847089434218 101.3,99.22023051007012 101.375,99.22785414605613 101.44999999999999,99.23180543698115 101.525,99.23054559461718 101.6,99.22733292836918 101.675,99.22686057047385 101.75,99.24647293244851 101.82499999999999,99.29479166107281 101.9,99.31911086605496 101.975,99.34383989553693 102.05,99.40379995573417 102.125,99.47030328026686 102.19999999999999,99.51701722831784 102.275,99.55413899333242 102.35,99.56009921099667 102.425,99.55934763926638 102.5,99.56819194764077 102.57499999999999,99.56431136241017 102.65,99.56192551739925 102.725,99.57605769752892 102.8,99.5822667137232 102.875,99.57400006500636 102.94999999999999,99.57671685424539 103.025,99.59555878626044 103.1,99.60176931982924 103.175,99.60079192671157 103.25,99.60837180626665 103.32499999999999,99.61926575147493 103.4,99.63117977820636 103.475,99.64257103886769 103.55,99.64318032144814 103.625,99.65604385656715 103.69999999999999,99.66308286832032 103.775,99.65470615275228 103.85,99.6593432126776 103.925,99.68261281280985 104.0,99.69583260309214 104.07499999999999,99.70356942065702 104.15,99.71595990662705 104.225,99.70739232195278 104.3,99.70285095890966 104.375,99.70989776513922 104.44999999999999,99.71658871786276 104.525,99.71186445212545 104.6,99.71287999221667 104.675,99.71243903907279 104.75,99.7055888814861 104.82499999999999,99.69899483130399 104.9,99.69304737641129 104.975,99.6787928469326 105.05,99.68604374441196 105.125,99.68286218388262 105.19999999999999,99.67663813015061 105.275,99.68539804548944 105.35,99.69048794633962 105.425,99.67459063062742 105.5,99.66134035770409 105.57499999999999,99.65874694031115 105.65,99.65702250202939 105.725,99.6601849323036 105.8,99.66204494230816 105.875,99.64974143641571 105.94999999999999,99.62986395638875 106.025,99.61456803553637 106.1,99.60138060915372 106.175,99.60884323756379 106.25,99.61296734437293 106.32499999999999,99.6214836323692 106.4,99.62416308906815 106.475,99.63208102960566 106.55,99.62592213202544 106.625,99.63175002352568 106.69999999999999,99.63514474250877 106.775,99.62606176008114 106.85,99.62674696289922 106.925,99.63083044869312 107.0,99.6430140743635 107.07499999999999,99.64700889220984 107.15,99.64472835559907 107.225,99.64850770677307 107.3,99.64710484696543 107.375,99.65084490959282 107.44999999999999,99.66176213190421 107.525,99.68122378264083 107.6,99.69307360421386 107.675,99.69474798177927 107.75,99.69584841495146 107.82499999999999,99.693469546655 107.9,99.70131663235125 107.975,99.7080810440333 108.05,99.71391693582646 108.125,99.7091627601858 108.19999999999999,99.7132952589533 108.275,99.71908890342993 108.35,99.71461427477077 108.425,99.71918645243932 108.5,99.71343553531355 108.57499999999999,99.71527916659882 108.65,99.7172268826295 108.725,99.72634309984882 108.8,99.730818676994 108.875,99.7323688116864 108.94999999999999,99.74104473768878 109.025,99.74392284023133 109.1,99.7464641325707 109.175,99.74517264545423 109.25,99.7460552320088 109.32499999999999,99.74284403816364 109.4,99.73687286021463 109.475,99.73392159884189 109.55,99.72636891291987 109.625,99.72153745594622 109.69999999999999,99.72277167945903 109.775,99.72875552476616 109.85,99.73322544885927 109.925,99.72918963073856 110.0,99.73204254044202 110.07499999999999,99.73424481277354 110.15,99.73452540662866 110.225,99.72032101477811 110.3,99.71976434878722 110.375,99.72687817774205 110.44999999999999,99.72529205976785 110.525,99.72242272243304 110.6,99.71871024309793 110.675,99.72191100029376 110.75,99.72453165613574 110.82499999999999,99.73241806659826 110.9,99.72925560241937 110.975,99.72708456414584 111.05,99.72948200223246 111.125,99.73422139450092 111.19999999999999,99.73081535973087 111.275,99.7307767177691 111.35,99.72213501343234 111.425,99.70942056460753 111.5,99.7115219550164 111.57499999999999,99.70182942102608 111.65,99.70115324238361 111.725,99.70997815607572 111.8,99.70564605461217 111.875,99.69754772271739 111.94999999999999,99.6937458076621 112.025,99.68633201769411 112.1,99.68542674086085 112.175,99.67422147306198 112.25,99.67995833479623 112.32499999999999,99.6763338830635 112.4,99.67332892335462 112.475,99.67016453438254 112.55,99.66785403814825 112.625,99.67433085069173 112.69999999999999,99.67686569714236 112.775,99.6754719581962 112.85,99.67591838330262 112.925,99.69076014082907 113.0,99.68712319815081 113.07499999999999,99.69126733683173 113.15,99.6961662236885 113.225,99.64072516728542 113.3,99.62015636475317 113.375,99.59227997820595 113.44999999999999,99.5684578682901 113.525,99.54884992463529 113.6,99.54160019424154 113.675,99.54320154556578 113.75,99.53395457001704 113.82499999999999,99.5307920216384 113.9,99.53095643141025 113.975,99.53088150094118 114.05,99.53380810250664 114.125,99.52624286906001 114.2,99.51421181141396 114.27499999999999,99.49943974493046 114.35,99.50660238084403 114.425,99.50831941415234 114.5,99.50669381440548 114.575,99.49940675145066 114.64999999999999,99.49263475844647 114.725,99.54060169693447 114.8,99.56360211484211 114.875,99.59426064510741 114.95,99.62458440547387 115.02499999999999,99.64971879584243 115.1,99.66418514706228 115.175,99.66701098589556 115.25,99.67580199150358 115.325,99.6800232187489 115.39999999999999,99.68704996228965 115.475,99.69365045903359 115.55,99.6951298485907 115.625,99.69828288962094 115.7,99.71347220720344 115.77499999999999,99.72954076582381 115.85,99.72523845176438 115.925,99.72100269845473 116.0,99.72579120821021 116.075,99.73585886078007 116.14999999999999,99.74138457938406 116.225,99.74186927341424 116.3,99.74420372925253 116.375,99.74741441056464 116.45,99.7455431671517 116.52499999999999,99.74372964231807 116.6,99.73855109323985 116.675,99.73349630240926 116.75,99.73297622756704 116.825,99.73286614724927 116.89999999999999,99.73278671091559 116.975,99.7280123486762 117.05,99.72603754403988 117.125,99.73228073614392 117.2,99.72818157038482 117.27499999999999,99.73080461577783 117.35,99.73818135334118 117.425,99.73587530732556 117.5,99.73212653798615 117.575,99.7325904487415 117.64999999999999,99.72918497389816 117.725,99.72525162764747 117.8,99.72269166122709 117.875,99.72474571983682 117.95,99.72834247122383 118.02499999999999,99.72876167593265 118.1,99.72645576210883 118.175,99.73298182133061 118.25,99.72696434955515 118.325,99.72547407118572 118.39999999999999,99.71936229882922 118.475,99.72989820206182 118.55,99.73255240642209 118.625,99.72642227570712 118.7,99.72804493658444 118.77499999999999,99.73019871951968 118.85,99.72551222619124 118.925,99.73468127096451 119.0,99.73311967163545 119.075,99.72336218651317 119.14999999999999,99.71065483160824 119.225,99.70673025249529 119.3,99.70216549298424 119.375,99.69769932218931 119.45,99.69467693997083 119.52499999999999,99.69124269379715 119.6,99.69524762782646 119.675,99.69606740350126 119.75,99.70074415457655 119.825,99.70167743990568 119.89999999999999,99.70156052245189 119.975,99.69391268726883 120.05,99.69564298012355 120.125,99.69699993794228 120.2,99.697166695738 120.27499999999999,99.69435258590303 120.35,99.69526683926459 120.425,99.68679853888725 120.5,99.69025469818529 120.575,99.6981767331109 120.64999999999999,99.71780558318696 120.725,99.7263457360533 120.8,99.73179956395435 120.875,99.73025558141867 120.95,99.72802400335704 121.02499999999999,99.72792179477744 121.1,99.72181533293532 121.175,99.71953430218242 121.25,99.72237945794704 121.325,99.72113019112749 121.39999999999999,99.7207960011657 121.475,99.72415190500001 121.55,99.71849357471861 121.625,99.71465099269619 121.7,99.71074654891736 121.77499999999999,99.70826572108811 121.85,99.71077561401432 121.925,99.71460923053398 122.0,99.7122640803263 122.075,99.70722740611261 122.14999999999999,99.69300800052919 122.225,99.68742814877598 122.3,99.68574229212443 122.375,99.68713505546343 122.45,99.69306652401698 122.52499999999999,99.69748157388166 122.6,99.70567428433705 122.675,99.70725465955935 122.75,99.69857547700983 122.825,99.70310973384615 122.89999999999999,99.70288966407387 122.975,99.69904409547995 123.05,99.70994759533438 123.125,99.71377943453288 123.2,99.71544085352217 123.27499999999999,99.7112992527029 123.35,99.69845489043956 123.425,99.69254484686297 123.5,99.69663110056526 123.575,99.69963260836558 123.64999999999999,99.70125871537985 123.725,99.70961631572123 123.8,99.70848220052434 123.875,99.71351707353767 123.95,99.71035615982571 124.02499999999999,99.70439252103643 124.1,99.69187614801035 124.175,99.68616573691793 124.25,99.68573655700351 124.325,99.67587804770082 124.39999999999999,99.67123679982195 124.475,99.66631113238009 124.55,99.6550152716908 124.625,99.65377928377548 124.7,99.65347993665118 124.77499999999999,99.66249290794241 124.85,99.67201593985482 124.925,99.68088447951023 125.0,99.67628834706085 125.075,99.66800964219455 125.14999999999999,99.66757860412936 125.225,99.6658473824504 125.3,99.6769486967389 125.375,99.67938384557861 125.45,99.67678236706423 125.52499999999999,99.68590602290229 125.6,99.69294399646321 125.675,99.69633945983763 125.75,99.69756640345555 125.825,99.70002753812146 125.89999999999999,99.70729913281038 125.975,99.71437982828242 126.05,99.71594460850842 126.125,99.71742281911824 126.2,99.72096974237573 126.27499999999999,99.72041559687491 126.35,99.72076261539551 126.425,99.71933380245805 126.5,99.72665542387871 126.575,99.7361265267924 126.64999999999999,99.73755106520352 126.725,99.74021676358919 126.8,99.73965839255844 126.875,99.73285074630273 126.95,99.7302711344582 127.02499999999999,99.7264855043237 127.1,99.72759524219659 127.175,99.7253697068344 127.25,99.73005551591294 127.325,99.73633257017407 127.39999999999999,99.7389938820536 127.475,99.73753520990654 127.55,99.74039834105655 127.625,99.73853223200429 127.7,99.73722597369792 127.77499999999999,99.73941269788708 127.85,99.73860725646806 127.925,99.73575447936885 128.0,99.73033343751302 128.075,99.72961740025464 128.14999999999998,99.73280093000928 128.225,99.72741711920474 128.3,99.71703328630379 128.375,99.71535659603386 128.45,99.71991030355107 128.52499999999998,99.72327058589238 128.6,99.72514431610001 128.675,99.72957853351865 128.75,99.71812679554645 128.825,99.70517195524528 128.89999999999998,99.70078621699354 128.975,99.69703864445407 129.05,99.69259792637459 129.125,99.69249054004598 129.2,99.68036943736327 129.27499999999998,99.6685515503771 129.35,99.66988447035064 129.425,99.6770931653745 129.5,99.68107626374747 129.575,99.68008847192817 129.64999999999998,99.68051413707327 129.725,99.68734890053486 129.8,99.69033253946033 129.875,99.69003159426687 129.95,99.69363574508976 130.02499999999998,99.69192486294793 130.1,99.68899009922504 130.175,99.69081311399206 130.25,99.70019256552125 130.325,99.71273904819245 130.39999999999998,99.71225508444672 130.475,99.71392076756639 130.55,99.7133747146076 130.625,99.71111249040464 130.7,99.72107261049656 130.77499999999998,99.72740205870618 130.85,99.72641306133598 130.925,99.71822396772718 131.0,99.72002948750298 131.075,99.72075250272265 131.14999999999998,99.7182228056632 131.225,99.7168888913981 131.3,99.71789262909671 131.375,99.72452316950191 131.45,99.72426582878055 131.52499999999998,99.7184486640174 131.6,99.7079056683114 131.675,99.69502717659834 131.75,99.6972601112975 131.825,99.70426351550147 131.89999999999998,99.70667806785002 131.975,99.70764804472374 132.05,99.71468042052771 132.125,99.71623320882539 132.2,99.71468580672486 132.27499999999998,99.71500285963832 132.35,99.71152743046063 132.425,99.7187745405362 132.5,99.71544878677668 132.575,99.71452568390997 132.64999999999998,99.71660946788829 132.725,99.71169704355837 132.8,99.70566069632133 132.875,99.69099892356448 132.95,99.68230308343799 133.02499999999998,99.69146523889611 133.1,99.70294772914752 133.175,99.71661899415946 133.25,99.71537385134555 133.325,99.70815349886598 133.39999999999998,99.70982555219756 133.475,99.71137886083244 133.55,99.7108258220302 133.625,99.7120371488128 133.7,99.71342571687413 133.77499999999998,99.7184839104512 133.85,99.72359091871259 133.925,99.71735089618518 134.0,99.72058443860298 134.075,99.72494083660844 134.14999999999998,99.72665349463938 134.225,99.72461133043325 134.3,99.73210538673445 134.375,99.7379298618878 134.45,99.73433383895969 134.52499999999998,99.72230024976466 134.6,99.72076381345092 134.675,99.72053217306234 134.75,99.71866935441842 134.825,99.71939074812323 134.89999999999998,99.72097137902375 134.975,99.72229049115391 135.05,99.70819237288455 135.125,99.70162173379748 135.2,99.70551055378851 135.27499999999998,99.70294378333642 135.35,99.69560365963795 135.425,99.69359545254316 135.5,99.6687746953866 135.575,99.63489754869745 135.64999999999998,99.57716421684393 135.725,99.53116116308448 135.8,99.49598970742994 135.875,99.46176460072896 135.95,99.46660756446973 136.02499999999998,99.42350557095969 136.1,99.37452233918042 136.175,99.34571699390477 136.25,99.31627905366135 136.325,99.28895502623453 136.39999999999998,99.27390435861582 136.475,99.2683520838688 136.55,99.27935330634475 136.625,99.28324337625659 136.7,99.27222497354572 136.77499999999998,99.2625810384862 136.85,99.2744464925757 136.925,99.27481584706938 137.0,99.29363849102833 137.075,99.3263358954846 137.14999999999998,99.3814856237103 137.225,99.42731174277432 137.3,99.46054164517989 137.375,99.50544244713865 137.45,99.51031493235033 137.52499999999998,99.56718166457708 137.6,99.61437142410996 137.675,99.63693841602344 137.75,99.66088035134266 137.825,99.68128154276678 137.89999999999998,99.69241693898228 137.975,99.69316657674145 138.05,99.69393009441839 138.125,99.69405479256463 138.2,99.69760247150957 138.27499999999998,99.69863068885469 138.35,99.68866596034877 138.425,99.6931032683183 138.5,99.6911101017259 138.575,99.68814739458696 138.64999999999998,99.67853422801026 138.725,99.6781944954555 138.8,99.6804806095289 138.875,99.67638149887878 138.95,99.67425992627751 139.02499999999998,99.67359218284346 139.1,99.67459369356197 139.175,99.6795438007536 139.25,99.68939593431064 139.325,99.6934708187847 139.39999999999998,99.69380720835562 139.475,99.69875001070893 139.55,99.7038850441742 139.625,99.70919479645279 139.7,99.7171120060889 139.77499999999998,99.72532226811882 139.85,99.73065619931282 139.925,99.72071151913102 140.0,99.72362021036038 140.075,99.72307661802094 140.14999999999998,99.73085369420565 140.225,99.73628417699537 140.3,99.73193544119573 140.375,99.73071804434701 140.45,99.73438451484982 140.52499999999998,99.73175403903174 140.6,99.73454679962148 140.675,99.7383303636683 140.75,99.74032924043938 140.825,99.7395637024927 140.89999999999998,99.73767599690225 140.975,99.7321727879612 141.05,99.7287363725498 141.125,99.73486922922459 141.2,99.73404729437817 141.27499999999998,99.73201905494366 141.35,99.73425347587538 141.425,99.74156121060335 141.5,99.74336122328437 141.575,99.74672992799054 141.64999999999998,99.75203114927207 141.725,99.75253237207575 141.8,99.75056316789907 141.875,99.74374556351663 141.95,99.73419605926718 142.02499999999998,99.72621915510932 142.1,99.72999373404241 142.175,99.722999323539 142.25,99.71440856817146 142.325,99.71731095044858 142.39999999999998,99.71877183149876 142.475,99.72331718342444 142.55,99.7217845602125 142.625,99.71713338099552 142.7,99.71709502002777 142.77499999999998,99.71587853164124 142.85,99.71005493573045 142.925,99.70940054659322 143.0,99.71110142969658 143.075,99.70842635557494 143.14999999999998,99.70353918349308 143.225,99.7040286960351 143.3,99.70415004327398 143.375,99.71306687140093 143.45,99.72387325246022 143.52499999999998,99.73197081173076 143.6,99.7271732011943 143.675,99.72632216486153 143.75,99.72772057656795 143.825,99.72553938277052 143.89999999999998,99.72294842046689 143.975,99.72613694585034 144.05,99.7269308724559 144.125,99.71889381715735 144.2,99.71622571072129 144.27499999999998,99.72057595593039 144.35,99.72294301267097 144.425,99.72321917453586 144.5,99.7202690832459 144.575,99.72001008919183 144.64999999999998,99.72222352959162 144.725,99.72238643861851 144.8,99.72825396145655 144.875,99.72636530644559 144.95,99.71801269292789 145.02499999999998,99.70914497701433 145.1,99.71140634654824 145.175,99.71365069258303 145.25,99.71431168558672 145.325,99.71282883573879 145.39999999999998,99.71543883557858 145.475,99.70966518890533 145.55,99.71792714034159 145.625,99.72971272894226 145.7,99.72990822725023 145.77499999999998,99.72948488600787 145.85,99.73180696276023 145.925,99.72956516738023 146.0,99.7344791849922 146.075,99.7073750092329 146.14999999999998,99.66406073977436 146.225,99.63861770253942 146.3,99.5891242608027 146.375,99.5492335815256 146.45,99.50105880792987 146.52499999999998,99.48628496910752 146.6,99.4585905612614 146.675,99.43830242528189 146.75,99.40853582074733 146.825,99.38486500395014 146.89999999999998,99.35888203766366 146.975,99.3337824566501 147.05,99.30742909440754 147.125,99.29299049950455 147.2,99.29740885199745 147.27499999999998,99.29494126629466 147.35,99.29413298168828 147.425,99.29656643035348 147.5,99.28632176088479 147.575,99.31270096023766 147.64999999999998,99.35235415201838 147.725,99.3785306584752 147.8,99.42824139089066 147.875,99.46399998113694 147.95,99.5107860275898 148.02499999999998,99.52549620448069 148.1,99.55482001948488 148.175,99.57728394070516 148.25,99.61156485348829 148.325,99.6361155937353 148.39999999999998,99.66599024722545 148.475,99.68957538070154 148.55,99.70268823343804 148.625,99.70695927411589 148.7,99.70267052716332 148.77499999999998,99.70597089727521 148.85,99.70438971289809 148.925,99.70272608508134 149.0,99.71619208646446 149.075,99.72148970217599 149.14999999999998,99.71903619592656 149.225,99.72066332162133 149.3,99.71784659148678 149.375,99.71648018648564 149.45,99.72926858983303 149.52499999999998,99.7328407756975 149.6,99.728559836018 149.675,99.72610194934616 149.75,99.72574155893626 149.825,99.72648543147713 149.89999999999998,99.72469493895062 149.975,99.72648910160444 150.05,99.73148085710568 150.125,99.73635717631873 150.2,99.73752058881523 150.27499999999998,99.73528057821093 150.35,99.73978800159229 150.425,99.7412068450455 150.5,99.7304168140124 150.575,99.72874988311146 150.64999999999998,99.72778428756094 150.725,99.72204744686384 150.8,99.72317802431577 150.875,99.73176240244341 150.95,99.72427216258657 151.02499999999998,99.72358884178401 151.1,99.71402792213745 151.175,99.71513119092803 151.25,99.71651292342248 151.325,99.71853898840298 151.39999999999998,99.72068646856171 151.475,99.72577943366774 151.55,99.72843182507948 151.625,99.72756665248079 151.7,99.72642407757814 151.77499999999998,99.72309407378793 151.85,99.71628471516911 151.925,99.7161249113133 152.0,99.71824015101407 152.075,99.71870491122634 152.14999999999998,99.72418036222405 152.225,99.72469305881167 152.3,99.72770712261661 152.375,99.72208044582179 152.45,99.71898360004063 152.52499999999998,99.71774703745798 152.6,99.72501769319632 152.675,99.72147581957739 152.75,99.7195472076109 152.825,99.71981670133009 152.89999999999998,99.71657289641776 152.975,99.71670947669547 153.05,99.71180368463013 153.125,99.70822268359508 153.2,99.71051965258538 153.27499999999998,99.71769610365504 153.35,99.72037354489653 153.425,99.72568053688579 153.5,99.72502011473317 153.575,99.72569029981015 153.64999999999998,99.7308268386422 153.725,99.73283860402847 153.8,99.7199153295856 153.875,99.71478640330047 153.95,99.71324086401457 154.02499999999998,99.72194358217982 154.1,99.72652688180965 154.175,99.7289063050229 154.25,99.72067461620041 154.325,99.71471607689907 154.39999999999998,99.70962439819581 154.475,99.70793226837125 154.55,99.71231154505188 154.625,99.71765056388962 154.7,99.71020358194075 154.77499999999998,99.70308905074258 154.85,99.70694163661837 154.925,99.70585824470764 155.0,99.71198922200462 155.075,99.70953854969139 155.14999999999998,99.70614652136231 155.225,99.7068804624272 155.3,99.7223622732307 155.375,99.73020552445757 155.45,99.73812603846837 155.52499999999998,99.73629697604682 155.6,99.7354170214294 155.675,99.73348854642926 155.75,99.74711369068675 155.825,99.7546452485518 155.89999999999998,99.75535488237064 155.975,99.74799350649826 156.05,99.74055290268173 156.125,99.73590710392051 156.2,99.74512408630353 156.27499999999998,99.74464953598323 156.35,99.7358388167376 156.425,99.73894306760782 156.5,99.73420065304053 156.575,99.73044003210352 156.64999999999998,99.73187817567951 156.725,99.73279912205962 156.8,99.72343173962581 156.875,99.72280507247352 156.95,99.72143260125782 157.02499999999998,99.7195780506152 157.1,99.71855225234708 157.175,99.71974763298026 157.25,99.71620825940865 157.325,99.70749560141647 157.39999999999998,99.68821685032047 157.475,99.66667998080923 157.55,99.64217750849082 157.625,99.60942807618825 157.7,99.57673024980626 157.77499999999998,99.55764277460287 157.85,99.55758870202071 157.925,99.55113926641641 158.0,99.55615753690262 158.075,99.56128578376612 158.14999999999998,99.5609876666946 158.225,99.5626607094483 158.3,99.56580457288175 158.375,99.56256529855283 158.45,99.56760256387231 158.52499999999998,99.57178854361062 158.6,99.56961300793836 158.675,99.56905933646615 158.75,99.56061265720078 158.825,99.56680158185904 158.89999999999998,99.59366138543484 158.975,99.6174895276705 159.05,99.64781357094863 159.125,99.67184270573362 159.2,99.68955152725815 159.27499999999998,99.71221394036239 159.35,99.71835562891374 159.425,99.71461903444644 159.5,99.70623755677008 159.575,99.7062715234577 159.64999999999998,99.70918895438996 159.725,99.70415116637146 159.8,99.70230720909841 159.875,99.69829916393185 159.95,99.68350532887995 160.02499999999998,99.67377279328191 160.1,99.67483261709673 160.175,99.6815432578533 160.25,99.68694231140603 160.325,99.68053372643858 160.39999999999998,99.68052535251432 160.475,99.68498258748245 160.55,99.685893442661 160.625,99.69808027158261 160.7,99.71097834177235 160.77499999999998,99.70870146513927 160.85,99.70640444342945 160.925,99.70666364180947 161.0,99.70604824074215 161.075,99.70222548030345 161.14999999999998,99.70375422957656 161.225,99.70427907751727 161.3,99.69808183554025 161.375,99.7023945372903 161.45,99.7060447596843 161.52499999999998,99.70885245980573 161.6,99.71013605644964 161.675,99.70744092589678 161.75,99.70677268655625 161.825,99.70911436774989 161.89999999999998,99.70258253579489 161.975,99.69713171170461 162.05,99.69617207736115 162.125,99.69694040313615 162.2,99.69696771372946 162.27499999999998,99.70275238275484 162.35,99.70299732160296 162.425,99.70638224028784 162.5,99.71454846889907 162.575,99.7193565260849 162.64999999999998,99.71945119295579 162.725,99.71897156809338 162.8,99.71805673141948 162.875,99.71642846418113 162.95,99.72726521998082 163.02499999999998,99.72711263117641 163.1,99.72293191277525 163.175,99.72806244142127 163.25,99.7267118270179 163.325,99.73039486232446 163.39999999999998,99.72841107681637 163.475,99.73416739225556 163.55,99.72945296286312 163.625,99.72157378305147 163.7,99.72421738696809 163.77499999999998,99.72159759432903 163.85,99.71810674393917 163.925,99.70879506662774 164.0,99.70375391979321 164.075,99.71103359739263 164.14999999999998,99.69811685585854 164.225,99.69525124544441 164.3,99.69439920369942 164.375,99.69778951405937 164.45,99.69306199860878 164.52499999999998,99.69512851958213 164.6,99.69702592167509 164.675,99.69059385581842 164.75,99.69635713904844 164.825,99.6976078294633 164.89999999999998,99.70580436190569 164.975,99.70800151848336 165.05,99.71028682937153 165.125,99.71518344481494 165.2,99.70503474536606 165.27499999999998,99.70026026146307 165.35,99.70887776254575 165.425,99.71215203814214 165.5,99.70663581389181 165.575,99.69060602853021 165.64999999999998,99.70261463449398 165.725,99.70077099925729 165.8,99.71290784159068 165.875,99.7184911531293 165.95,99.72054924760721 166.02499999999998,99.7194887903983 166.1,99.71936760443751 166.175,99.71398155046451 166.25,99.70611590346836 166.325,99.6994919984313 166.39999999999998,99.69803953245744 166.475,99.69897328489844 166.55,99.70068586889296 166.625,99.70414351527243 166.7,99.70840125566518 166.77499999999998,99.70672453048937 166.85,99.69246300145919 166.925,99.68821396239971 167.0,99.70118601531988 167.075,99.71051630949788 167.14999999999998,99.70736698624198 167.225,99.71332452147401 167.3,99.7119250866705 167.375,99.70971472131045 167.45,99.7056320630677 167.52499999999998,99.70753190895596 167.6,99.7154472687402 167.675,99.7272572893913 167.75,99.72641480958376 167.825,99.73355175191365 167.89999999999998,99.7283821422226 167.975,99.71593771727126 168.05,99.71258867685906 168.125,99.7120888381124 168.2,99.70689256063807 168.27499999999998,99.69298563581391 168.35,99.68937955819224 168.425,99.67575165240902 168.5,99.64013144876462 168.575,99.60547080309408 168.64999999999998,99.56438174357496 168.725,99.56685867345098 168.8,99.56576582263381 168.875,99.56435735868958 168.95,99.56634179021849 169.02499999999998,99.56451952247774 169.1,99.55980320760797 169.175,99.55685278603481 169.25,99.55627212598311 169.325,99.55425765793149 169.39999999999998,99.5616050564774 169.475,99.56970458103126 169.55,99.57190439738815 169.625,99.56728663536019 169.7,99.57790760616128 169.77499999999998,99.59251450198491 169.85,99.59689368732992 169.925,99.62020474028586 170.0,99.64892400317967 170.075,99.68322066750378 170.14999999999998,99.72369794704207 170.225,99.72451310462796 170.3,99.72381079211173 170.375,99.72750622922332 170.45,99.72839317523383 170.52499999999998,99.7294649085328 170.6,99.7295517912178 170.675,99.72243785941116 170.75,99.72881114478793 170.825,99.7262670764594 170.89999999999998,99.72074672661952 170.975,99.72273669721685 171.05,99.7086069355548 171.125,99.69507341292663 171.2,99.69019823319992 171.27499999999998,99.70145521245155 171.35,99.71440496916722 171.425,99.71811349340427 171.5,99.71778701467247 171.575,99.72024856843396 171.64999999999998,99.72869561242332 171.725,99.72073275054574 171.8,99.71191623286936 171.875,99.70020685009413 171.95,99.69745824988793 172.02499999999998,99.69505778223271 172.1,99.69358985318277 172.175,99.69730607966464 172.25,99.69678269783105 172.325,99.70235490753232 172.39999999999998,99.70689502507047 172.475,99.70798044584471 172.55,99.72751522973985 172.625,99.73863181974325 172.7,99.73257933065771 172.77499999999998,99.72316216146248 172.85,99.71409091892775 172.925,99.7108064651351 173.0,99.71295057517162 173.075,99.71098035816098 173.14999999999998,99.7048078725203 173.225,99.70964054303734 173.3,99.72162481240701 173.375,99.72736665756543 173.45,99.73139420894353 173.52499999999998,99.73329453400348 173.6,99.7354972797072 173.675,99.73394663908373 173.75,99.71995487884111 173.825,99.71188888030046 173.89999999999998,99.70084320713339 173.975,99.69798103357778 174.05,99.69735923055927 174.125,99.69468176465041 174.2,99.69369587516849 174.27499999999998,99.70055676960347 174.35,99.70405197434127 174.425,99.70818235606167 174.5,99.70806103946009 174.575,99.70824053735636 174.64999999999998,99.70011579481593 174.725,99.69412545690295 174.8,99.69169959635329 174.875,99.69618361406937 174.95,99.69403497248591 175.02499999999998,99.6981211099461 175.1,99.69567068934678 175.175,99.6967612093188 175.25,99.71159988181493 175.325,99.72004959784068 175.39999999999998,99.72891093088357 175.475,99.73106211951324 175.55,99.7306381299546 175.625,99.7378555053893 175.7,99.74519464547767 175.77499999999998,99.7348208601298 175.85,99.72779027036727 175.925,99.7171192844267 176.0,99.7161198319263 176.075,99.71666372069996 176.14999999999998,99.72275360572827 176.225,99.73071846474242 176.3,99.73077961399783 176.375,99.72407942382765 176.45,99.7231188814421 176.52499999999998,99.72267417071842 176.6,99.72738098156384 176.675,99.73067889760881 176.75,99.72899906211168 176.825,99.72901196280219 176.89999999999998,99.72910194205141 176.975,99.7275918809931 177.05,99.7242619203766 177.125,99.72597884366589 177.2,99.72840128529081 177.27499999999998,99.73349864328705 177.35,99.74987766440836 177.425,99.75418129489351 177.5,99.7557120290116 177.575,99.75229683089886 177.64999999999998,99.75373641018902 177.725,99.74829391250739 177.8,99.7536965479269 177.875,99.7573561607044 177.95,99.75645925013696 178.025,99.75529934906434 178.1,99.74696319287722 178.17499999999998,99.73777140445694 178.25,99.73178923147914 178.325,99.72558597287889 178.4,99.72528696250706 178.475,99.72534255119182 178.54999999999998,99.72771320122312 178.625,99.7226754066721 178.7,99.72083682338034 178.775,99.72309301799032 178.85,99.7094090538722 178.92499999999998,99.70644287401763 179.0,99.70600928509805 179.075,99.703938129707 179.15,99.70526013467706 179.225,99.71255851057956 179.29999999999998,99.7078105264277 179.375,99.71081003866918 179.45,99.71140882375387 179.525,99.7041939654626 179.6,99.71275095052228 179.67499999999998,99.71783683600113 179.75,99.72928849941574 179.825,99.73184747115953 179.9,99.73269951897646 179.975,99.73030286811506 180.04999999999998,99.73266870975714 180.125,99.72328984183426 180.2,99.71135252113736 180.275,99.70664771939954 180.35,99.71308157675523 180.42499999999998,99.71359035222947 180.5,99.71045958412174 180.575,99.71557523306444 180.65,99.71643394386066 180.725,99.71285615769234 180.79999999999998,99.71354043333626 180.875,99.71349487704046 180.95,99.71495287593606 181.025,99.72154444327084 181.1,99.71860697992543 181.17499999999998,99.72523070186169 181.25,99.7201994790002 181.325,99.7198985239895 181.4,99.71760693869261 181.475,99.71546347861104 181.54999999999998,99.71133292969584 181.625,99.72637187443488 181.7,99.74611167628312 181.775,99.74776915881044 181.85,99.747003464 181.92499999999998,99.75184927772865 182.0,99.75439550193434 182.075,99.75175430146538 182.15,99.75142482025053 182.225,99.74880147958328 182.29999999999998,99.74537769140913 182.375,99.74194830161504 182.45,99.73362904780628 182.525,99.72897115249327 182.6,99.7203848453215 182.67499999999998,99.70715056456893 182.75,99.71012407220864 182.825,99.70602936138104 182.9,99.7063708416608 182.975,99.70414395998841 183.04999999999998,99.7075384533883 183.125,99.70681732289322 183.2,99.69227255799919 183.275,99.69084492321042 183.35,99.69540019629376 183.42499999999998,99.69325430376607 183.5,99.69244037523369 183.575,99.6948835217085 183.65,99.69311168788616 183.725,99.69519965162773 183.79999999999998,99.70197878198634 183.875,99.70333190802661 183.95,99.70829211203164 184.025,99.71070673220389 184.1,99.71843944659625 184.17499999999998,99.7221466816184 184.25,99.71243485173407 184.325,99.7141460373132 184.4,99.70941344772604 184.475,99.70956272245735 184.54999999999998,99.70206961850128 184.625,99.69996741164147 184.7,99.70533259603809 184.775,99.70326956005314 184.85,99.69912698017734 184.92499999999998,99.70056290883778 185.0,99.69592517302749 185.075,99.69298954332622 185.15,99.68922326954167 185.225,99.68743200431155 185.29999999999998,99.68422771383992 185.375,99.68411766031656 185.45,99.68960581953412 185.525,99.69039967686017 185.6,99.69431566166175 185.67499999999998,99.70345536947671 185.75,99.71348980663416 185.825,99.71278515686207 185.9,99.71568887215469 185.975,99.72039198792132 186.04999999999998,99.7168001464477 186.125,99.71654131282006 186.2,99.71943373834584 186.275,99.72343576936775 186.35,99.72369671017726 186.42499999999998,99.72268961629293 186.5,99.73132983059438 186.575,99.73472889433765 186.65,99.73487726496953 186.725,99.73013865484033 186.79999999999998,99.72626509043207 186.875,99.72997080895958 186.95,99.7298631065835 187.025,99.7290098587609 187.1,99.72462411634423 187.17499999999998,99.72714718890893 187.25,99.71853560485224 187.325,99.7262519207435 187.4,99.72870882190524 187.475,99.73079186838451 187.54999999999998,99.73567717747497 187.625,99.74076806851087 187.7,99.74079145544613 187.775,99.73990249354054 187.85,99.7385607415825 187.92499999999998,99.74401171077166 188.0,99.74199183085256 188.075,99.74372680919507 188.15,99.75050931263644 188.225,99.76137766159383 188.29999999999998,99.76380100419328 188.375,99.75665843268226 188.45,99.75724212112138 188.525,99.76200546117656 188.6,99.76133129073371 188.67499999999998,99.75652763210284 188.75,99.76160550035307 188.825,99.76219857153967 188.9,99.76288137443191 188.975,99.76419975210405 189.04999999999998,99.77107605139409 189.125,99.76729272778722 189.2,99.767354294264 189.275,99.77348830799397 189.35,99.77663166851214 189.42499999999998,99.77130311030382 189.5,99.77008562837504 189.575,99.76273590707773 189.65,99.75470013964282 189.725,99.75089885573655 189.79999999999998,99.75342692953734 189.875,99.76002017531755 189.95,99.75573064651991 190.025,99.75185514918526 190.1,99.75850674516765 190.17499999999998,99.7574577722898 190.25,99.75359956163828 190.325,99.7504819321676 190.4,99.7543533947234 190.475,99.75033342122441 190.54999999999998,99.74508579747582 190.625,99.74972924094654 190.7,99.74846866148829 190.775,99.74563393190058 190.85,99.74498815903112 190.92499999999998,99.74433941877102 191.0,99.74348018621029 191.075,99.74849393280626 191.15,99.73854941202099 191.225,99.7211288357748 191.29999999999998,99.72055978227533 191.375,99.71773343501214 191.45,99.71929338083886 191.525,99.7234990254267 191.6,99.71900548555712 191.67499999999998,99.71793293706811 191.75,99.71897578456178 191.825,99.71631817352127 191.9,99.71268845079518 191.975,99.7086594237007 192.04999999999998,99.71435512297418 192.125,99.70812832439725 192.2,99.70814727658389 192.275,99.70788817690313 192.35,99.70480234404383 192.42499999999998,99.70967541294847 192.5,99.71115381593542 192.575,99.71256359345999 192.65,99.72519593949947 192.725,99.73798098696567 192.79999999999998,99.73353313514521 192.875,99.73784660436196 192.95,99.73524812508181 193.025,99.7312789409064 193.1,99.73715039253071 193.17499999999998,99.73531027069735 193.25,99.73519103887979 193.325,99.7315640663109 193.4,99.72704457351163 193.475,99.73059255240138 193.54999999999998,99.72641029120247 193.625,99.71746693272493 193.7,99.7074192818769 193.775,99.7135208683015 193.85,99.71751284752203 193.92499999999998,99.71708486195543 194.0,99.71593871096839 194.075,99.71387702454801 194.15,99.71287506699191 194.225,99.71988940538361 194.29999999999998,99.71605717981241 194.375,99.71340195316225 194.45,99.71572748511882 194.525,99.7174312710901 194.6,99.71519626030103 194.67499999999998,99.71722279828418 194.75,99.72412306827019 194.825,99.72645629498292 194.9,99.73484102633643 194.975,99.7360250805678 195.04999999999998,99.73181390945224 195.125,99.73700670026668 195.2,99.7489584159092 195.275,99.74273377980965 195.35,99.72672544956033 195.42499999999998,99.72368868790531 195.5,99.72350799516849 195.575,99.71759189848947 195.65,99.71715748607443 195.725,99.71439121351183 195.79999999999998,99.72563574069056 195.875,99.7319298486543 195.95,99.73193298116917 196.025,99.72242704694614 196.1,99.71988069644975 196.17499999999998,99.7224200670283 196.25,99.71650706130113 196.325,99.71418987499774 196.4,99.70715081400238 196.475,99.71134263462295 196.54999999999998,99.71577598615606 196.625,99.72491520492562 196.7,99.72330367691235 196.775,99.72019593149251 196.85,99.7356853231253 196.92499999999998,99.73666927211188 197.0,99.73912413507878 197.075,99.74756094812943 197.15,99.74795608148357 197.225,99.74213778187642 197.29999999999998,99.73497673939349 197.375,99.72249322793121 197.45,99.72037311577938 197.525,99.73079613124017 197.6,99.72959677167282 197.67499999999998,99.72122065815034 197.75,99.72178422296653 197.825,99.72270173667641 197.9,99.72706053558353 197.975,99.72457605741315 198.04999999999998,99.72198550058084 198.125,99.71417526427828 198.2,99.71403351057548 198.275,99.71446423839171 198.35,99.70975037075104 198.42499999999998,99.70829498637532 198.5,99.70469593341687 198.575,99.70320023599702 198.65,99.70010194690043 198.725,99.70300680468736 198.79999999999998,99.69953202152102 198.875,99.70061698010083 198.95,99.69449084388997 199.025,99.6715401072104 199.1,99.63721269238465 199.17499999999998,99.59553251243644 199.25,99.55003313654173 199.325,99.54385073932593 199.4,99.5106415013717 199.475,99.47155551037395 199.54999999999998,99.44287470708636 199.625,99.43231741316725 199.7,99.40115057584629 199.775,99.36979967449963 199.85,99.32154530195622 199.92499999999998,100.0" opacity="1" fill="#F28E2B" stroke="black" stroke-width="0"/>
<line x1="40" y1="100.0" x2="40" y2="70.0" stroke="black" stroke-width="1" />
<line x1="39.5" y1="100.0" x2="43.5" y2="100.0" stroke="black" stroke-width="1" />
<line x1="39.5" y1="70.0" x2="43.5" y2="70.0" stroke="black" stroke-width="1" />
<text text-anchor="end" font-family="Arial" x="36" y="104.0" font-size="8" >0</text>
<text text-anchor="end" font-family="Arial" x="36" y="74.0" font-size="8" >2375.7</text>
<text text-anchor="start" font-family="Arial" x="39.5" y="66" font-size="7" >ChrIV: 1-1,531,933</text>
</svg>
