<svg viewBox="0 0 320 210" xmlns="http://www.w3.org/2000/svg">
<polygon points="50.0,100.0 50.075,99.60787316972839 50.15,99.61052245258739 50.225,99.59591984250629 50.3,99.57717573968155 50.375,99.56803225982803 50.45,99.53758958697505 50.525,99.51085220995903 50.6,99.47419303406757 50.675,99.45765693889696 50.75,99.44894448307764 50.825,99.42832460872336 50.9,99.40405437386637 50.975,99.36519300500753 51.05,99.30099352566724 51.125,99.26820961025157 51.2,99.21798073984722 51.275,99.18626597201285 51.35,99.13039945867108 51.425,99.0981015523587 51.5,99.07524389490511 51.575,99.10556975859421 51.65,99.08703254523994 51.725,99.09423083923717 51.8,99.10662530840767 51.875,99.10271703050465 51.95,99.12898928933792 52.025,99.1390939777007 52.1,99.1655574525894 52.175,99.17741234185979 52.25,99.1634501680742 52.325,99.15906812464125 52.4,99.16199471927497 52.475,99.17784766887875 52.55,99.2188025529429 52.625,99.23357883076545 52.7,99.24975813027163 52.775,99.23853756217424 52.85,99.25629792752144 52.925,99.25615567403612 53.0,99.25883598752431 53.075,99.27664659689334 53.15,99.2843427288861 53.225,99.27868375583083 53.3,99.28216167872532 53.375,99.27461684196487 53.45,99.26034573415455 53.525,99.25968186242942 53.6,99.2462990997457 53.675,99.21593499305958 53.75,99.23599191365123 53.825,99.24763854629248 53.9,99.24946573007534 53.975,99.24641481849417 54.05,99.25222385602699 54.125,99.2648154707856 54.2,99.25058391617651 54.275,99.289893209372 54.35,99.3003499503196 54.425,99.31246708387339 54.5,99.32271142221904 54.575,99.2792905211562 54.65,99.23274264827994 54.725,99.17643379130104 54.8,99.14630757832022 54.875,99.14793916923705 54.95,99.14924098380872 55.025,99.15357581232443 55.1,99.1707807625935 55.175,99.18626453131768 55.25,99.17982707541705 55.325,99.18032832438169 55.4,99.17796556625137 55.475,99.18577703477519 55.55,99.2056807916888 55.625,99.18244529505618 55.7,99.20030379732458 55.775,99.17006035410532 55.85,99.16563405496669 55.925,99.1578969048368 56.0,99.11521836077434 56.075,99.15248894670731 56.15,99.18791478922101 56.225,99.22948122766938 56.3,99.24426375766876 56.375,99.24888417236582 56.45,99.24761745328644 56.525,99.22190693955368 56.6,99.22028973521866 56.675,99.23398651980213 56.75,99.21530320365947 56.825,99.20566451831905 56.9,99.21557150362545 56.975,99.21732007052589 57.05,99.194289324114 57.125,99.20671688576772 57.2,99.22891290777368 57.275,99.21914794953571 57.35,99.19175224245721 57.425,99.1522344898764 57.5,99.16841229013033 57.575,99.1788689672908 57.65,99.19117020318734 57.725,99.20376136243328 57.8,99.19864554102342 57.875,99.19801642448998 57.95,99.18124681832508 58.025,99.18770804429596 58.1,99.15875526582788 58.175,99.14836980801265 58.25,99.14394670983859 58.325,99.13481703173066 58.4,99.13082566984788 58.475,99.13486241683493 58.55,99.1517583511764 58.625,99.15570745201335 58.7,99.14652225556031 58.775,99.17340573670975 58.85,99.19589003111176 58.925,99.23129794459535 59.0,99.24133407373994 59.075,99.23601081579704 59.15,99.23976049913048 59.225,99.23478208432094 59.3,99.23461039320219 59.375,99.2394207965197 59.45,99.2544342740416 59.525,99.26769682514531 59.6,99.30373821036603 59.675,99.31825505184376 59.75,99.33383228310666 59.825,99.35262727853456 59.9,99.3348229111086 59.975,99.29844179459398 60.05,99.25694069751914 60.125,99.25347282504556 60.2,99.26282182298996 60.275,99.25113876088282 60.35,99.25455397723685 60.425,99.27392209569807 60.5,99.27504008411712 60.575,99.2634729279873 60.65,99.2498617226262 60.725,99.25756667790864 60.8,99.26274157137958 60.875,99.255529351289 60.95,99.24216607929007 61.025,99.22442277273109 61.1,99.18499821523741 61.175,99.16162795472464 61.25,99.155509935888 61.325,99.16832095894632 61.4,99.19039668169152 61.475,99.2372385907891 61.55,99.27139269596873 61.625,99.27704883062898 61.7,99.26430233828863 61.775,99.2712015134054 61.85,99.28256454091441 61.925,99.28683036240011 62.0,99.2952278490361 62.075,99.3026152392683 62.15,99.29491833275011 62.225,99.2763852300898 62.3,99.26215630540591 62.375,99.27414743832671 62.45,99.28872295408993 62.525,99.307637803359 62.6,99.33449230885834 62.675,99.35187358106597 62.75,99.38024745712302 62.825,99.3419479706981 62.9,99.331502704019 62.975,99.33525965536576 63.05,99.33212276007048 63.125,99.33444618815993 63.2,99.34261150613837 63.275,99.35535810602339 63.35,99.35750904491049 63.425,99.34583043793397 63.5,99.33603450010865 63.575,99.3435499155221 63.65,99.357867025105 63.725,99.36587362479504 63.8,99.38127822076517 63.875,99.37639602605847 63.95,99.37772056126867 64.025,99.3759326739693 64.1,99.3740465219174 64.175,99.36876066615326 64.25,99.35258708359578 64.325,99.37150552251961 64.4,99.37405988439734 64.475,99.36639632575417 64.55,99.36350518584162 64.625,99.3564025369063 64.7,99.35208728203494 64.775,99.34844186716285 64.85,99.35093158749844 64.925,99.3505011744646 65.0,99.35590251664563 65.075,99.34505909701974 65.15,99.33904408750557 65.225,99.3664055021301 65.3,99.35472360854473 65.375,99.3390636889308 65.45,99.30515674738237 65.525,99.2593593342462 65.6,99.26013133730153 65.675,99.25324920884951 65.75,99.24839747368561 65.825,99.23952971295265 65.9,99.24068159606315 65.975,99.23485248118759 66.05,99.2427047606513 66.125,99.24203750955537 66.2,99.23496079077172 66.275,99.21894134679714 66.35,99.2231051006749 66.425,99.23071360795487 66.5,99.23321606476858 66.575,99.2500262773576 66.65,99.25016755372081 66.725,99.22055152810714 66.8,99.23757120543975 66.875,99.25116456174285 66.95,99.28062658678964 67.025,99.33157576165969 67.1,99.32934952313127 67.175,99.32462580066363 67.25,99.33085631748418 67.325,99.33723664506165 67.4,99.32391330939193 67.475,99.28249025860592 67.55,99.26531750860157 67.625,99.26080300324557 67.7,99.27086125177571 67.775,99.27829118237018 67.85,99.27451895190895 67.925,99.28147705599905 68.0,99.28342925874071 68.075,99.24099004971427 68.15,99.2266216885535 68.225,99.21607857789644 68.3,99.188756815643 68.375,99.17933942855262 68.45,99.17290823744456 68.525,99.16235286796137 68.6,99.17105865044148 68.675,99.18788992138659 68.75,99.17823760367025 68.825,99.18444034624397 68.9,99.18741139892104 68.975,99.21778894232736 69.05,99.23124727673655 69.125,99.23542332175381 69.2,99.23232187177115 69.275,99.23936597953251 69.35,99.24590546603852 69.425,99.2471763891152 69.5,99.2504933071224 69.575,99.28985063133018 69.65,99.30503100503137 69.725,99.3247025392986 69.8,99.3459021507838 69.875,99.35391402474578 69.95,99.36474163080136 70.025,99.37121866873994 70.1,99.36971337591663 70.175,99.36378057557609 70.25,99.3586385544459 70.325,99.34661148449216 70.4,99.34272298895092 70.475,99.33993986825027 70.55,99.31878737459058 70.625,99.33370302407445 70.7,99.31523262882064 70.775,99.29497368580667 70.85,99.29361337251105 70.925,99.27306132785286 71.0,99.27025079098422 71.075,99.2741471929632 71.15,99.27749841346815 71.225,99.29412744476575 71.3,99.2985588568721 71.375,99.3004818349678 71.45,99.30983315160493 71.525,99.31098062279493 71.6,99.30944360193251 71.675,99.3295909276977 71.75,99.34676122784165 71.825,99.35191812218558 71.9,99.36775691205169 71.975,99.3722660799494 72.05,99.38693256140391 72.125,99.36319622839385 72.2,99.4037270338651 72.275,99.42168943075576 72.35,99.42491743306178 72.425,99.39904311142526 72.5,99.40717690841392 72.575,99.40512781107047 72.65,99.39478005740351 72.725,99.39063720531772 72.8,99.38943854965433 72.875,99.397525236572 72.95,99.39901857410325 73.025,99.4054456207424 73.1,99.39915350410602 73.175,99.37965817863738 73.25,99.37230158794306 73.325,99.39110046666146 73.4,99.39827520564432 73.475,99.40200034914895 73.55,99.39744612728275 73.625,99.39962477180894 73.7,99.38993211646368 73.775,99.37289106768293 73.85,99.35090960149975 73.925,99.38539877045504 74.0,99.38613091432975 74.075,99.38509909202735 74.15,99.38688543593796 74.225,99.37839370872037 74.3,99.38196413235036 74.375,99.36850791765309 74.45,99.35798898902593 74.525,99.34921234246576 74.6,99.36038523528805 74.675,99.3480788747795 74.75,99.33430342707112 74.825,99.32417288634215 74.9,99.30862054020275 74.975,99.27168723118423 75.05,99.23506663007187 75.125,99.22443911349542 75.2,99.19838144325594 75.275,99.20870315182654 75.35,99.22638241881108 75.425,99.2236488140202 75.5,99.21177172303778 75.575,99.1974233911597 75.65,99.20408996302835 75.725,99.20076462854753 75.8,99.20747208208705 75.875,99.2071364188347 75.95,99.19866980075865 76.025,99.19087946080467 76.1,99.17748040233579 76.175,99.19439353878202 76.25,99.2041947422708 76.325,99.20469296114439 76.4,99.21683281525608 76.475,99.24296289617368 76.55,99.28561986089359 76.625,99.30291658314611 76.7,99.31012330418515 76.775,99.31832276702933 76.85,99.31347100372727 76.925,99.3106870353249 77.0,99.3110038971304 77.075,99.32251790090285 77.15,99.31110897557178 77.225,99.29989295096324 77.3,99.28208903047395 77.375,99.27975204472064 77.45,99.28189425628064 77.525,99.28380986097476 77.6,99.28744750727397 77.675,99.29152072589426 77.75,99.29080574382813 77.825,99.28467180232386 77.9,99.28274108998207 77.975,99.29868904316612 78.05,99.31864384364071 78.125,99.32287022369795 78.2,99.32811616269048 78.275,99.33012659322294 78.35,99.32883164645186 78.425,99.32829892076533 78.5,99.31947935054649 78.575,99.30379323726734 78.65,99.32404005978113 78.725,99.3182792178415 78.8,99.30230293813155 78.875,99.30379972530007 78.95,99.30280954937511 79.025,99.30564470147199 79.1,99.29186314887029 79.175,99.27870601949658 79.25,99.27247391012682 79.325,99.28107746263896 79.4,99.27326621361 79.475,99.26986954934938 79.55,99.25561163046386 79.625,99.20522030918822 79.7,99.17091772463013 79.775,99.15718173954257 79.85,99.17051212288592 79.925,99.17394724906063 80.0,99.19173274437908 80.075,99.2147904401665 80.15,99.22535342078184 80.225,99.23997742425856 80.3,99.28180077247708 80.375,99.30050142941819 80.45,99.30758607061411 80.525,99.31087183280617 80.6,99.33337535668649 80.675,99.32056555619687 80.75,99.30274143562629 80.825,99.29163801885814 80.9,99.2903340570855 80.975,99.28448056377704 81.05,99.25988096264209 81.125,99.28480136720651 81.2,99.30689806520378 81.275,99.31018574647567 81.35,99.29877561908569 81.425,99.28845688411245 81.5,99.30126525267889 81.575,99.29294222713972 81.65,99.2910210631371 81.725,99.28603121515877 81.8,99.24726669630623 81.875,99.22951470494311 81.95,99.2325725340574 82.025,99.22679115880506 82.1,99.21065085483264 82.175,99.22199753580111 82.25,99.26200757194809 82.32499999999999,99.27294928117227 82.4,99.27406746339709 82.475,99.25687261629963 82.55,99.27805741651457 82.625,99.29291805371535 82.69999999999999,99.31691081857768 82.775,99.33061425496051 82.85,99.33533490287807 82.925,99.33758279495292 83.0,99.32031559382006 83.07499999999999,99.31631745917493 83.15,99.27940425225026 83.225,99.28199686308905 83.3,99.3121698699083 83.375,99.33141798358 83.44999999999999,99.33222941995541 83.525,99.32971804268635 83.6,99.332373021822 83.675,99.33771790911139 83.75,99.3118111362059 83.82499999999999,99.30347643919106 83.9,99.30072885898657 83.975,99.31302871588022 84.05,99.29917517771472 84.125,99.29313959052607 84.19999999999999,99.27515938821867 84.275,99.25595315428049 84.35,99.24535460288648 84.425,99.23207301986075 84.5,99.23244196215926 84.57499999999999,99.22699216651694 84.65,99.23521542792793 84.725,99.22964930863989 84.8,99.20140145438225 84.875,99.15337052271815 84.94999999999999,99.15377919669871 85.025,99.13542074723085 85.1,99.14114707189331 85.175,99.1425674829153 85.25,99.13533763282443 85.32499999999999,99.12608911583523 85.4,99.13424793658915 85.475,99.1478897582912 85.55,99.17195843100767 85.625,99.18901647155408 85.69999999999999,99.19928168297726 85.775,99.20151815431005 85.85,99.22385672982546 85.925,99.24293743840003 86.0,99.2279406672186 86.07499999999999,99.25731425918029 86.15,99.28708432316881 86.225,99.29869189016766 86.3,99.32928663292562 86.375,99.36692299247339 86.44999999999999,99.35651856175036 86.525,99.3754453935872 86.6,99.3709277858276 86.675,99.37025890664509 86.75,99.3880420314751 86.82499999999999,99.40195236102817 86.9,99.37949554735836 86.975,99.3626306005297 87.05,99.36081618196539 87.125,99.34633908751145 87.19999999999999,99.331978060868 87.275,99.33837789147931 87.35,99.3125422731038 87.425,99.28666279453931 87.5,99.29097884975072 87.57499999999999,99.27521780603689 87.65,99.24215428569966 87.725,99.21935124497985 87.8,99.21082983193436 87.875,99.22092790129784 87.94999999999999,99.2212128746539 88.025,99.24078677115932 88.1,99.23427124408562 88.175,99.21818715101789 88.25,99.20208253409315 88.32499999999999,99.19100288220532 88.4,99.22110550698586 88.475,99.21312095902064 88.55,99.2022006455515 88.625,99.20452297913945 88.69999999999999,99.20747251015212 88.775,99.2053661005907 88.85,99.21814686469062 88.925,99.24241139685739 89.0,99.2379276489485 89.07499999999999,99.2292749622449 89.15,99.23641793130741 89.225,99.2567039812452 89.3,99.23665032613368 89.375,99.2022793301531 89.44999999999999,99.20382227874357 89.525,99.13607103676755 89.6,99.12376495344998 89.675,99.09816086522794 89.75,99.07117219465643 89.82499999999999,99.05134482541105 89.9,99.02346175042345 89.975,98.96649853499423 90.05,98.92136022974589 90.125,98.89334689518876 90.19999999999999,98.88573785210075 90.275,98.8739826029534 90.35,98.80746670525465 90.425,98.76219338488883 90.5,98.70233297716696 90.57499999999999,98.69759346027286 90.65,98.68689067854966 90.725,98.6669992608852 90.8,98.67276334570928 90.875,98.64594107948966 90.94999999999999,98.6109765420736 91.025,98.63391817245893 91.1,98.61844005787673 91.175,98.62098110123182 91.25,98.65056842077973 91.32499999999999,98.60824710200419 91.4,98.57570891076024 91.475,98.63703283300988 91.55,98.64274742715875 91.625,98.63776393868764 91.69999999999999,98.63983646876535 91.775,98.67174522673079 91.85,98.73312143195555 91.925,98.7877358557044 92.0,98.84205468541315 92.07499999999999,98.81604891617718 92.15,98.81508119531516 92.225,98.8280709756296 92.3,98.8089864524225 92.375,98.82226248442731 92.44999999999999,98.85974755171068 92.525,98.73598452408714 92.6,98.55054560423176 92.675,98.31015211012524 92.75,98.17997637902745 92.82499999999999,98.1971976881492 92.9,98.20741707908513 92.975,98.19187768909353 93.05,98.16131746453588 93.125,98.10715432761704 93.19999999999999,98.01800670305178 93.275,97.93190690591598 93.35,97.86428369638084 93.425,97.69498878496758 93.5,97.38327789777581 93.57499999999999,97.07331484263881 93.65,96.82573397256895 93.725,96.60352251643943 93.8,96.4403523362896 93.875,96.05745805670526 93.94999999999999,95.58274673984886 94.025,95.40699132716378 94.1,95.06749703837909 94.175,94.86337240317764 94.25,94.7083600359353 94.32499999999999,94.63006684647411 94.4,94.5623660473925 94.475,94.44938428698906 94.55,94.43959738630903 94.625,94.42452358044589 94.69999999999999,94.4507773299671 94.775,94.44617362077601 94.85,94.49331934924376 94.925,94.61495326496622 95.0,94.88410011830234 95.07499999999999,95.18140359253437 95.15,95.42626869684392 95.225,95.61592460620004 95.3,95.668872569685 95.375,96.0060288323968 95.44999999999999,96.37188469084627 95.525,96.69332064801206 95.6,97.22078318857075 95.675,97.65662851322995 95.75,97.92048887154297 95.82499999999999,98.01476084536638 95.9,98.0916222641986 95.975,98.19912430796992 96.05,98.25859947572758 96.125,98.35668399439196 96.19999999999999,98.43822491103018 96.275,98.49875266322444 96.35,98.49380425763822 96.425,98.48797444808638 96.5,98.49325337759274 96.57499999999999,98.48248823359728 96.65,98.44126862952416 96.725,98.38413990982905 96.8,98.47400144644955 96.875,98.54576715098317 96.94999999999999,98.63972976258408 97.025,98.62992453613771 97.1,98.63596213908627 97.175,98.68366120327673 97.25,98.70649966920558 97.32499999999999,98.66124933905462 97.4,98.63214175243054 97.475,98.63601092532332 97.55,98.65031570561857 97.625,98.66003283530381 97.69999999999999,98.63314266340646 97.775,98.62048656616767 97.85,98.66537761149289 97.925,98.71927764506458 98.0,98.77333572509495 98.07499999999999,98.84707972118788 98.15,98.90545505946722 98.225,98.99294175683224 98.3,99.0309746841626 98.375,99.03892522780744 98.44999999999999,99.04178713555356 98.525,99.04195445503431 98.6,99.04503158554562 98.675,99.04031924811669 98.75,99.04003539094576 98.82499999999999,99.1071297531184 98.9,99.15432526516932 98.975,99.17116296877424 99.05,99.17423624962831 99.125,99.1636086748036 99.19999999999999,99.13507455542933 99.275,99.13591157286518 99.35,99.08503231736974 99.425,99.02798161128233 99.5,98.99685371721122 99.57499999999999,98.93926753430026 99.65,98.95475145313908 99.725,98.95729769383671 99.8,98.94625107064824 99.875,98.94478694038737 99.94999999999999,98.94152925435598 100.025,98.95169822212468 100.1,98.98243299179981 100.175,98.98649689679367 100.25,98.98565752306793 100.32499999999999,98.97346210155885 100.4,98.96236492671581 100.475,98.9489556981352 100.55,98.90701135995671 100.625,98.87500431736761 100.69999999999999,98.90192528368654 100.775,98.91031243811906 100.85,98.94438884672249 100.925,98.9831394813296 101.0,98.97142306046197 101.07499999999999,99.0059426047532 101.15,98.99133469061485 101.225,98.97542894308549 101.3,98.980428744252 101.375,98.99521341096413 101.44999999999999,99.00342569327618 101.525,99.0067166253906 101.6,99.00146074229886 101.675,98.98577650612434 101.75,98.97325945061566 101.82499999999999,98.97999103423479 101.9,98.99082645286398 101.975,99.0087454153315 102.05,99.03594854337909 102.125,99.05426760013076 102.19999999999999,99.05358519719512 102.275,99.05530372027353 102.35,99.04235462056128 102.425,99.02108162765347 102.5,99.02874561998611 102.57499999999999,99.00395509761967 102.65,98.97646948585161 102.725,99.00419866460328 102.8,99.02736214091097 102.875,99.00560348156485 102.94999999999999,98.99979594123036 103.025,99.02280121764396 103.1,99.03017563188857 103.175,99.0274948134751 103.25,99.04973242781661 103.32499999999999,99.0502349447362 103.4,99.07156313533838 103.475,99.09543001834096 103.55,99.10341917457797 103.625,99.13828100874512 103.69999999999999,99.1681784819778 103.775,99.17255365884195 103.85,99.17793750280484 103.925,99.24154002877479 104.0,99.28717216871499 104.07499999999999,99.31849168433752 104.15,99.35620297433998 104.225,99.34873028856238 104.3,99.34058599717082 104.375,99.3593016614852 104.44999999999999,99.38994392000761 104.525,99.37625356554875 104.6,99.37528492720493 104.675,99.38375729814257 104.75,99.37357283816584 104.82499999999999,99.38953696305519 104.9,99.39771829523437 104.975,99.37702808415011 105.05,99.40042846782895 105.125,99.3728980711515 105.19999999999999,99.32241464154289 105.275,99.32014671512584 105.35,99.33368281704622 105.425,99.29902251000223 105.5,99.27063480578902 105.57499999999999,99.24853729679161 105.65,99.24428902697446 105.725,99.23803569185029 105.8,99.23602743542597 105.875,99.21284593213629 105.94999999999999,99.17596721851508 106.025,99.1642574872011 106.1,99.14822431733205 106.175,99.16058141972862 106.25,99.16588958926397 106.32499999999999,99.17236365218865 106.4,99.16309744995863 106.475,99.17429745191758 106.55,99.16274941801616 106.625,99.1888113502107 106.69999999999999,99.24501158510611 106.775,99.26376785396936 106.85,99.26215212894647 106.925,99.2660724318929 107.0,99.29200784193866 107.07499999999999,99.31100964389134 107.15,99.31038343331686 107.225,99.31906152619328 107.3,99.30876763055707 107.375,99.30261461668651 107.44999999999999,99.30353782935826 107.525,99.31593761011285 107.6,99.32031847123937 107.675,99.33122902768193 107.75,99.34077446072767 107.82499999999999,99.33883470404099 107.9,99.36125834704221 107.975,99.37036050808926 108.05,99.37674391432937 108.125,99.36066854937118 108.19999999999999,99.34832645157616 108.275,99.32650619352466 108.35,99.31674310649936 108.425,99.33126299366697 108.5,99.31906569130959 108.57499999999999,99.32118129829568 108.65,99.3281789372191 108.725,99.35910018189082 108.8,99.37473894644491 108.875,99.38079699347477 108.94999999999999,99.40464383656968 109.025,99.41189119420154 109.1,99.42480795855086 109.175,99.39908343543419 109.25,99.38483347713276 109.32499999999999,99.3819342914077 109.4,99.36200038506263 109.475,99.35229522382703 109.55,99.34263624796993 109.625,99.34179894736747 109.69999999999999,99.3536756431753 109.775,99.3699143373072 109.85,99.37737595847916 109.925,99.37212963270295 110.0,99.38014006400563 110.07499999999999,99.37968322186492 110.15,99.37188508963018 110.225,99.32460486935726 110.3,99.31217954909489 110.375,99.33204143036568 110.44999999999999,99.33261137601052 110.525,99.32713468350002 110.6,99.31400944679255 110.675,99.32905215680798 110.75,99.32938628664125 110.82499999999999,99.32950541440091 110.9,99.31293607955266 110.975,99.29114823597202 111.05,99.27412097731175 111.125,99.2738310549178 111.19999999999999,99.25291173780224 111.275,99.26018436167477 111.35,99.25810065312916 111.425,99.24344791957787 111.5,99.25059143265278 111.57499999999999,99.19855447812635 111.65,99.20284630233266 111.725,99.23101542503233 111.8,99.2367053005936 111.875,99.21793203979877 111.94999999999999,99.20642658051739 112.025,99.20090077411729 112.1,99.20754686739619 112.175,99.20233312409641 112.25,99.22461387213099 112.32499999999999,99.22697547996631 112.4,99.23213667301155 112.475,99.24357233439298 112.55,99.25496247993617 112.625,99.26827105694106 112.69999999999999,99.26899719489148 112.775,99.25258886774026 112.85,99.23929094194818 112.925,99.24162753437778 113.0,99.22567758875694 113.07499999999999,99.26817445283213 113.15,99.28124217340059 113.225,99.25272281392586 113.3,99.23804849882306 113.375,99.20687398652387 113.44999999999999,99.1944748067838 113.525,99.17694706340943 113.6,99.16700835751035 113.675,99.17258975304601 113.75,99.1533004912961 113.82499999999999,99.12605692834259 113.9,99.13838435862853 113.975,99.15013394405086 114.05,99.15758930606135 114.125,99.13093347551688 114.2,99.12833366523105 114.27499999999999,99.12796825288953 114.35,99.1510243695726 114.425,99.15977488445476 114.5,99.15907413782048 114.575,99.16076410156496 114.64999999999999,99.13760748269173 114.725,99.1490516863843 114.8,99.15579519137673 114.875,99.1867681893743 114.95,99.1928957807856 115.02499999999999,99.20326786688602 115.1,99.2084755194328 115.175,99.18719808584122 115.25,99.19889755115787 115.325,99.22316303946072 115.39999999999999,99.22862195895532 115.475,99.2307793986611 115.55,99.22721435468331 115.625,99.24011604064407 115.7,99.25630065388535 115.77499999999999,99.26207329916846 115.85,99.2484895102675 115.925,99.23892480287556 116.0,99.2446381136897 116.075,99.24541687113351 116.14999999999999,99.25487638267515 116.225,99.25207237262833 116.3,99.25793942888477 116.375,99.26930626137684 116.45,99.28121091539928 116.52499999999999,99.29110559958237 116.6,99.2813307633025 116.675,99.22965117214981 116.75,99.2294704747018 116.825,99.23585527990471 116.89999999999999,99.22820979566083 116.975,99.21279652290616 117.05,99.21125388332892 117.125,99.22400961766982 117.2,99.21193313852415 117.27499999999999,99.21524688437934 117.35,99.23201630916488 117.425,99.23529487432694 117.5,99.23989193755133 117.575,99.25414988199279 117.64999999999999,99.24661121611834 117.725,99.25000784148507 117.8,99.25739881038946 117.875,99.26127013957363 117.95,99.26859408358443 118.02499999999999,99.25985945458723 118.1,99.26852462870276 118.175,99.32768028771372 118.25,99.32216031962103 118.325,99.32197966388594 118.39999999999999,99.31167049098366 118.475,99.33780522170122 118.55,99.34353144334283 118.625,99.32992719514026 118.7,99.32610708786959 118.77499999999999,99.32402771871064 118.85,99.31373395891167 118.925,99.33305727752669 119.0,99.33154976684358 119.075,99.31612381828215 119.14999999999999,99.3163933520875 119.225,99.31908477080513 119.3,99.31787309493195 119.375,99.31693704985896 119.45,99.31724256389612 119.52499999999999,99.32676549172237 119.6,99.3337921456102 119.675,99.34348700972056 119.75,99.35564982685186 119.825,99.35532095339234 119.89999999999999,99.35957120898938 119.975,99.3428226022698 120.05,99.34067553398485 120.125,99.34826902860469 120.2,99.35044945391009 120.27499999999999,99.3545725304289 120.35,99.34704364180993 120.425,99.32684431052154 120.5,99.33333510686786 120.575,99.33593036915765 120.64999999999999,99.34115263817546 120.725,99.33169318925985 120.8,99.32731855900975 120.875,99.30609311255922 120.95,99.29621927193013 121.02499999999999,99.2882664890123 121.1,99.2799026036798 121.175,99.2753309713346 121.25,99.27441147665739 121.325,99.26965739645753 121.39999999999999,99.26741853723168 121.475,99.2799143920359 121.55,99.27355421041133 121.625,99.2709456156933 121.7,99.28386860003077 121.77499999999999,99.28674264749407 121.85,99.30241737434781 121.925,99.30777448791396 122.0,99.30124030372254 122.075,99.30145301065049 122.14999999999999,99.2864634550212 122.225,99.29134853813783 122.3,99.29303028116291 122.375,99.3066542254272 122.45,99.31129616995985 122.52499999999999,99.3149361371423 122.6,99.33274206042407 122.675,99.33707609090497 122.75,99.3263440122246 122.825,99.33935106751913 122.89999999999999,99.33931432562164 122.975,99.3302143982111 123.05,99.34996368736807 123.125,99.35803717312405 123.2,99.35716198004522 123.27499999999999,99.35641804397706 123.35,99.32451634714121 123.425,99.3107378095193 123.5,99.318321112749 123.575,99.32229491733939 123.64999999999999,99.31858243987 123.725,99.32591407441264 123.8,99.32547379639819 123.875,99.32647073651778 123.95,99.32849050973243 124.02499999999999,99.32226978416112 124.1,99.29906017776655 124.175,99.29182580417188 124.25,99.28289633589893 124.325,99.25942981242083 124.39999999999999,99.25813778981899 124.475,99.25522648822741 124.55,99.24549729873797 124.625,99.2391380151316 124.7,99.23533355757893 124.77499999999999,99.24777060719785 124.85,99.27352827589087 124.925,99.30533962272105 125.0,99.30088775728593 125.075,99.28941849132546 125.14999999999999,99.30150715532663 125.225,99.30980258654279 125.3,99.33752442855773 125.375,99.35765804019029 125.45,99.35851818786227 125.52499999999999,99.37712801417504 125.6,99.37800002507781 125.675,99.3762171691085 125.75,99.383798280806 125.825,99.39100119613273 125.89999999999999,99.39576243024501 125.975,99.3957208456276 126.05,99.39245771682816 126.125,99.39260371497186 126.2,99.39726860951701 126.27499999999999,99.38904018000824 126.35,99.39306897072159 126.425,99.3832414588168 126.5,99.38595769545566 126.575,99.39225525096 126.64999999999999,99.38930818424558 126.725,99.38514877544938 126.8,99.37406887553372 126.875,99.35964975758434 126.95,99.35446646384004 127.02499999999999,99.34441568033826 127.1,99.35577801709535 127.175,99.35671170782857 127.25,99.36503262095415 127.325,99.38124724893561 127.39999999999999,99.3803742313116 127.475,99.38657722877147 127.55,99.38955748268884 127.625,99.38965448464158 127.7,99.38522587707368 127.77499999999999,99.3905827344736 127.85,99.35579353966992 127.925,99.34656552605045 128.0,99.33643899822289 128.075,99.3370760928332 128.14999999999998,99.34012173160501 128.225,99.3313023254425 128.3,99.31525556592297 128.375,99.30188472658826 128.45,99.30774339793186 128.52499999999998,99.31942904004168 128.6,99.32645857658754 128.675,99.3424409428766 128.75,99.32730127259495 128.825,99.29967022838788 128.89999999999998,99.29407136129889 128.975,99.24727957182697 129.05,99.22490744269957 129.125,99.23313415417726 129.2,99.2242533685442 129.27499999999998,99.2116531403493 129.35,99.24867291020249 129.425,99.26079388629012 129.5,99.2789666052131 129.575,99.29032046984244 129.64999999999998,99.2905761846152 129.725,99.30443241710935 129.8,99.30670595070025 129.875,99.3105417455767 129.95,99.31958268269426 130.02499999999998,99.31659025043547 130.1,99.29758843066229 130.175,99.272229574377 130.25,99.27306826646931 130.325,99.28394417410554 130.39999999999998,99.28471098858023 130.475,99.32141803750024 130.55,99.33785088304407 130.625,99.32979817587555 130.7,99.33595359837716 130.77499999999998,99.33241647175451 130.85,99.32014290497342 130.925,99.30872338550887 131.0,99.30080574481694 131.075,99.29248300709472 131.14999999999998,99.29459371793692 131.225,99.28993756780963 131.3,99.2942010828537 131.375,99.3082674153754 131.45,99.30050356854962 131.52499999999998,99.29051624823138 131.6,99.29483968121087 131.675,99.2979002660185 131.75,99.30965896041833 131.825,99.34067212179603 131.89999999999998,99.35664124317354 131.975,99.36771948669164 132.05,99.38525891748505 132.125,99.39092713620212 132.2,99.3942218840444 132.27499999999998,99.40480189133716 132.35,99.40336125517887 132.425,99.4185186137241 132.5,99.40722160434649 132.575,99.40769011050294 132.64999999999998,99.40698278685863 132.725,99.39899603282821 132.8,99.39586171416474 132.875,99.37948343377637 132.95,99.37145057415293 133.02499999999998,99.38767070358551 133.1,99.39864918253639 133.175,99.41784829676341 133.25,99.42024969001027 133.325,99.40341027923918 133.39999999999998,99.39313870726666 133.475,99.38815390415171 133.55,99.38300310520737 133.625,99.38213651402631 133.7,99.3773301288917 133.77499999999998,99.37362674778684 133.85,99.36837968892605 133.925,99.34581304391884 134.0,99.34703339107065 134.075,99.35355744855956 134.14999999999998,99.35129978352099 134.225,99.34432588644056 134.3,99.34820361429512 134.375,99.35812279732546 134.45,99.35792245738217 134.52499999999998,99.3357348124043 134.6,99.33600006761792 134.675,99.34085960554016 134.75,99.3170305507283 134.825,99.30638220251797 134.89999999999998,99.30207526831155 134.975,99.30919848639971 135.05,99.29479520208746 135.125,99.28547791116448 135.2,99.2969926354768 135.27499999999998,99.29938191983801 135.35,99.29953263892459 135.425,99.30383741973081 135.5,99.28372867576098 135.575,99.24795547290668 135.64999999999998,99.21566539497547 135.725,99.19652550705597 135.8,99.169811594193 135.875,99.14617561472349 135.95,99.14436483857214 136.02499999999998,99.12679368092567 136.1,99.10280597103937 136.175,99.06528801179532 136.25,99.06961786975893 136.325,99.04995482115277 136.39999999999998,99.04342273059603 136.475,99.03985326666836 136.55,99.0592500979727 136.625,99.0662436820678 136.7,99.05455084626998 136.77499999999998,99.05564436511281 136.85,99.07467332839515 136.925,99.0779744659726 137.0,99.0934640630833 137.075,99.1049308339491 137.14999999999998,99.11341883208232 137.225,99.12545176548059 137.3,99.14260431701734 137.375,99.18137113382252 137.45,99.18985681648896 137.52499999999998,99.23539521924121 137.6,99.2490346280815 137.675,99.26718022956064 137.75,99.27756521811983 137.825,99.29481874008319 137.89999999999998,99.30386455593967 137.975,99.29631291781085 138.05,99.28581394272584 138.125,99.28799182560446 138.2,99.28930894707916 138.27499999999998,99.27605528083535 138.35,99.26493260102055 138.425,99.2613116471588 138.5,99.2142905464303 138.575,99.1986509229068 138.64999999999998,99.21106546862501 138.725,99.21739247303721 138.8,99.22886899811607 138.875,99.20722658586149 138.95,99.19834413198109 139.02499999999998,99.19735670723658 139.1,99.1987903296328 139.175,99.2040422959331 139.25,99.21317526223108 139.325,99.20014416018273 139.39999999999998,99.19530133546108 139.475,99.2012346635586 139.55,99.21940583634394 139.625,99.22602246567602 139.7,99.24105201959021 139.77499999999998,99.25944338502968 139.85,99.2523827960574 139.925,99.24372044343954 140.0,99.29174068579556 140.075,99.31243684812976 140.14999999999998,99.31745606280391 140.225,99.33759292608086 140.3,99.3316025297177 140.375,99.33646126659349 140.45,99.35367210495815 140.52499999999998,99.34520987194064 140.6,99.3502634524776 140.675,99.36127382738385 140.75,99.36972090620239 140.825,99.39569831826304 140.89999999999998,99.40674040582229 140.975,99.41373564019406 141.05,99.40765674017798 141.125,99.41962738902338 141.2,99.41742003782963 141.27499999999998,99.40910962563636 141.35,99.42525007150587 141.425,99.4383383953328 141.5,99.44941369261105 141.575,99.46554419536423 141.64999999999998,99.48830896840576 141.725,99.48308253447796 141.8,99.48673798288603 141.875,99.48705554482652 141.95,99.47161466896198 142.02499999999998,99.46203778813178 142.1,99.46521918234701 142.175,99.4563696757963 142.25,99.43884503446971 142.325,99.43711875689492 142.39999999999998,99.43062916603812 142.475,99.42193100164248 142.55,99.41270015036068 142.625,99.40335150475451 142.7,99.39872837763167 142.77499999999998,99.39533138909295 142.85,99.3807291775392 142.925,99.37001008302448 143.0,99.36803476490893 143.075,99.35840374488171 143.14999999999998,99.33461517079617 143.225,99.33892685912795 143.3,99.33443343899377 143.375,99.33682379915561 143.45,99.34769562092879 143.52499999999998,99.34789516685304 143.6,99.3341605383021 143.675,99.32458690884275 143.75,99.31999239014048 143.825,99.3091114872035 143.89999999999998,99.29999005466372 143.975,99.30711588652531 144.05,99.29380798828875 144.125,99.27811649224097 144.2,99.26649788764078 144.27499999999998,99.27284008939773 144.35,99.26870989382242 144.425,99.26847286652966 144.5,99.24455427677032 144.575,99.24038204146332 144.64999999999998,99.23559484597759 144.725,99.22140051023233 144.8,99.22058796297169 144.875,99.20591858248555 144.95,99.18779737826816 145.02499999999998,99.1782936661992 145.1,99.19256984208194 145.175,99.18209620727662 145.25,99.17265293380181 145.325,99.1580522434371 145.39999999999998,99.16507451357684 145.475,99.13244067649228 145.55,99.15709863328695 145.625,99.17957609914035 145.7,99.2020428739322 145.77499999999998,99.20023914269747 145.85,99.20763979627753 145.925,99.18093441040274 146.0,99.20708096427455 146.075,99.19459737158051 146.14999999999998,99.19088543053923 146.225,99.17404520822826 146.3,99.14307274400296 146.375,99.12347170530194 146.45,99.10510087296547 146.52499999999998,99.09855421870326 146.6,99.07693771961029 146.675,99.08408455373967 146.75,99.0722060340119 146.825,99.06663221483196 146.89999999999998,99.05023641422092 146.975,99.0440367504874 147.05,99.02178047947002 147.125,99.01047821561912 147.2,99.01058826301379 147.27499999999998,99.0070199362392 147.35,98.989612962325 147.425,98.9975785506693 147.5,98.9833619770623 147.575,99.00385709402613 147.64999999999998,99.01685929532974 147.725,99.05036815834009 147.8,99.07535785200076 147.875,99.10299255828792 147.95,99.1303615003403 148.02499999999998,99.14692673917745 148.1,99.17256811843549 148.175,99.18852252886448 148.25,99.22983576529074 148.325,99.25772060198926 148.39999999999998,99.28743025953416 148.475,99.30241609817887 148.55,99.29672148456322 148.625,99.27629778908056 148.7,99.26165867070043 148.77499999999998,99.25716667178132 148.85,99.26724429662364 148.925,99.27255937266317 149.0,99.30068543188641 149.075,99.30371928639883 149.14999999999998,99.30414607373001 149.225,99.3122365546023 149.3,99.3146791742299 149.375,99.30444999412572 149.45,99.32108329276282 149.52499999999998,99.29503607988093 149.6,99.27335283880768 149.675,99.26109233665592 149.75,99.26171449021876 149.825,99.25817758294995 149.89999999999998,99.25930700317119 149.975,99.27467011810016 150.05,99.29025245710928 150.125,99.3103696154816 150.2,99.30188961139275 150.27499999999998,99.30367017579523 150.35,99.31853538061591 150.425,99.3370468267885 150.5,99.31589685366842 150.575,99.30793203755883 150.64999999999998,99.30093820552354 150.725,99.27049757981352 150.8,99.28264752407127 150.875,99.30546799951519 150.95,99.28621298056524 151.02499999999998,99.29471029635958 151.1,99.24792263234886 151.175,99.24461099724783 151.25,99.2303897712864 151.325,99.2273004882666 151.39999999999998,99.21968163837656 151.475,99.2173014196861 151.55,99.21662807084886 151.625,99.2090491906263 151.7,99.21600723294415 151.77499999999998,99.21893244862198 151.85,99.20222261930348 151.925,99.20128979655506 152.0,99.19266416878017 152.075,99.20099655225205 152.14999999999998,99.21068355617793 152.225,99.22089515601857 152.3,99.22547742731847 152.375,99.21289447466938 152.45,99.21367065260422 152.52499999999998,99.23283880603275 152.6,99.28989264815361 152.675,99.2957522738379 152.75,99.30451772862062 152.825,99.32073597996619 152.89999999999998,99.31573977612932 152.975,99.32051394586915 153.05,99.3142351268102 153.125,99.313007914504 153.2,99.31379292942948 153.27499999999998,99.32593547257903 153.35,99.33932427940539 153.425,99.34582715791541 153.5,99.34662656360295 153.575,99.35096380101248 153.64999999999998,99.36150760276797 153.725,99.36565091793895 153.8,99.34654819612915 153.875,99.34986231312253 153.95,99.35651506014909 154.02499999999998,99.3539171228338 154.1,99.35526454993439 154.175,99.35938578602305 154.25,99.35246209869659 154.325,99.33320378678756 154.39999999999998,99.33285689268516 154.475,99.33582508541494 154.55,99.34072222963884 154.625,99.3421462652045 154.7,99.33517156379652 154.77499999999998,99.31540311732685 154.85,99.31611958352579 154.925,99.31963959726414 155.0,99.33423129459592 155.075,99.33177695541448 155.14999999999998,99.31907128703111 155.225,99.31669111407633 155.3,99.32980266349026 155.375,99.32531149409574 155.45,99.31652767238542 155.52499999999998,99.32259961690792 155.6,99.33228999030854 155.675,99.33032351657792 155.75,99.35163290856518 155.825,99.37073328081563 155.89999999999998,99.36411787786447 155.975,99.34917288858169 156.05,99.34367656536268 156.125,99.35105014709522 156.2,99.35508976806285 156.27499999999998,99.3535514563664 156.35,99.33559578427428 156.425,99.33902629189693 156.5,99.33616136217121 156.575,99.33280193528778 156.64999999999998,99.33872388898364 156.725,99.34819987118908 156.8,99.32726377412033 156.875,99.32831526244368 156.95,99.34048173754188 157.02499999999998,99.32321686479446 157.1,99.3172469432351 157.175,99.3248089459338 157.25,99.31761125923504 157.325,99.31179821887788 157.39999999999998,99.30290275750804 157.475,99.28885327896305 157.55,99.27121271804226 157.625,99.23014218063783 157.7,99.20390956337054 157.77499999999998,99.18526563710921 157.85,99.18704445117916 157.925,99.16641139186737 158.0,99.16276633267697 158.075,99.16237289288752 158.14999999999998,99.16090655146407 158.225,99.16012940375097 158.3,99.17282853431296 158.375,99.16605778053685 158.45,99.16301318671927 158.52499999999998,99.19087795238559 158.6,99.18280111131578 158.675,99.16002007955301 158.75,99.14433571898593 158.825,99.14082480326533 158.89999999999998,99.16800504411515 158.975,99.17181302675708 159.05,99.18919123643835 159.125,99.2186301986411 159.2,99.23541669224461 159.27499999999998,99.27139989545854 159.35,99.28310172465245 159.425,99.2810107557201 159.5,99.26568828022 159.575,99.2569613002266 159.64999999999998,99.26259678940426 159.725,99.25724784142255 159.8,99.25001505410606 159.875,99.25755153796686 159.95,99.24763216901113 160.02499999999998,99.2245646230438 160.1,99.23163969754813 160.175,99.25463927492754 160.25,99.25875411492738 160.325,99.24709698976315 160.39999999999998,99.23728416883047 160.475,99.24223492537202 160.55,99.24500144982729 160.625,99.25443610608623 160.7,99.27215344137275 160.77499999999998,99.26458933041806 160.85,99.25653309237529 160.925,99.27180895451619 161.0,99.28902869852962 161.075,99.2998781168559 161.14999999999998,99.31382013801111 161.225,99.31387762311277 161.3,99.3180938737751 161.375,99.31096291016918 161.45,99.31311039379362 161.52499999999998,99.31850889824554 161.6,99.31395100827595 161.675,99.32030153329264 161.75,99.31527051734602 161.825,99.31733277890542 161.89999999999998,99.31358854797952 161.975,99.32459820586352 162.05,99.32955099387317 162.125,99.32982798029175 162.2,99.33618276358771 162.27499999999998,99.34438708133224 162.35,99.3507181105808 162.425,99.34201171165792 162.5,99.34236153702484 162.575,99.34845319831587 162.64999999999998,99.33991000358346 162.725,99.3384541417405 162.8,99.34401920468368 162.875,99.35202182565239 162.95,99.37208719902098 163.02499999999998,99.34893344244858 163.1,99.33004823151944 163.175,99.33664396698413 163.25,99.32360198241378 163.325,99.3130914523374 163.39999999999998,99.28645243494118 163.475,99.27639282851597 163.55,99.24685738003056 163.625,99.21652389516633 163.7,99.2089108311167 163.77499999999998,99.20023054155325 163.85,99.20263157950262 163.925,99.20109567969189 164.0,99.20685803601214 164.075,99.21684278181306 164.14999999999998,99.18147304007273 164.225,99.16995992570381 164.3,99.16170256597526 164.375,99.17304888883045 164.45,99.17077994517426 164.52499999999998,99.19742538034443 164.6,99.2279804068804 164.675,99.21704285579148 164.75,99.2502121865759 164.825,99.26532498902228 164.89999999999998,99.29866602895468 164.975,99.31829555435213 165.05,99.33440611219382 165.125,99.37030472592976 165.2,99.35660642748398 165.27499999999998,99.34964124099781 165.35,99.36148413802505 165.425,99.36355153701096 165.5,99.34872005165775 165.575,99.3250141103523 165.64999999999998,99.36103019132898 165.725,99.36640395513966 165.8,99.3837804369568 165.875,99.39104921514298 165.95,99.38714895717975 166.02499999999998,99.38344457104948 166.1,99.36152132160466 166.175,99.33074596795257 166.25,99.2960820288988 166.325,99.27827034028284 166.39999999999998,99.26399097196075 166.475,99.26267890263405 166.55,99.25618399639465 166.625,99.24189786027463 166.7,99.25576821140656 166.77499999999998,99.25540552722903 166.85,99.23004034706692 166.925,99.22065062812551 167.0,99.24961212253903 167.075,99.26553265122494 167.14999999999998,99.24014504234577 167.225,99.23634948091417 167.3,99.22218977478667 167.375,99.21253722818048 167.45,99.19857971656755 167.52499999999998,99.19210349721502 167.6,99.20158875491427 167.675,99.2485176526722 167.75,99.27172429765052 167.825,99.29185564404206 167.89999999999998,99.31187971032027 167.975,99.30120091545379 168.05,99.31774134090217 168.125,99.34321432517672 168.2,99.34366207807854 168.27499999999998,99.33488482047981 168.35,99.3377873753553 168.425,99.33863551604021 168.5,99.28606311131473 168.575,99.2525896596145 168.64999999999998,99.25225780906662 168.725,99.27058215229641 168.8,99.27005653692098 168.875,99.24592425113302 168.95,99.25108304837872 169.02499999999998,99.24336128587521 169.1,99.23894401243395 169.175,99.21504627663927 169.25,99.20947252284483 169.325,99.21952575004056 169.39999999999998,99.21307718975235 169.475,99.21211128214775 169.55,99.21074727583016 169.625,99.19164523421259 169.7,99.18980394100463 169.77499999999998,99.1843822638842 169.85,99.1214448720385 169.925,99.1319730253512 170.0,99.15842526030154 170.075,99.17945997442727 170.14999999999998,99.18636787441604 170.225,99.18247538202614 170.3,99.19753055762295 170.375,99.21835538639463 170.45,99.21433207611534 170.52499999999998,99.2301473334043 170.6,99.23300251592802 170.675,99.22773252432634 170.75,99.21575493443326 170.825,99.1863327730831 170.89999999999998,99.17565160184475 170.975,99.18215312263304 171.05,99.17688181453504 171.125,99.1591108968616 171.2,99.16148750932442 171.27499999999998,99.19360871351174 171.35,99.2896833446784 171.425,99.29972280841388 171.5,99.30708825886654 171.575,99.31934489648206 171.64999999999998,99.35511486424053 171.725,99.3529892464351 171.8,99.34070922361377 171.875,99.3330131649396 171.95,99.34389819290837 172.02499999999998,99.33356952973047 172.1,99.3235509731486 172.175,99.32429408342591 172.25,99.32925750631574 172.325,99.34854772917963 172.39999999999998,99.35699154346482 172.475,99.35060490855973 172.55,99.37044200364434 172.625,99.3780500263231 172.7,99.3708383759404 172.77499999999998,99.35629531502019 172.85,99.33443019189671 172.925,99.32817345394606 173.0,99.33173599683917 173.075,99.32230809940212 173.14999999999998,99.29240852633846 173.225,99.28829574009114 173.3,99.29367670846223 173.375,99.29570656367507 173.45,99.29549522246347 173.52499999999998,99.31516928837172 173.6,99.33937070082331 173.675,99.35188472679663 173.75,99.34145059022 173.825,99.33214722905292 173.89999999999998,99.33540680844632 173.975,99.35067224424003 174.05,99.35035988227276 174.125,99.35233710533126 174.2,99.35104964418157 174.27499999999998,99.37082152961129 174.35,99.38056431839512 174.425,99.38868034201109 174.5,99.38207097816705 174.575,99.37464598092743 174.64999999999998,99.34375787442991 174.725,99.29862627402507 174.8,99.26765492524 174.875,99.26138871575603 174.95,99.257871338037 175.02499999999998,99.26353273054418 175.1,99.25955341903423 175.175,99.24252126321477 175.25,99.2545274340993 175.325,99.25549047577854 175.39999999999998,99.22892904912189 175.475,99.20399248126674 175.55,99.18494247197376 175.625,99.18112457445076 175.7,99.18370073100832 175.77499999999998,99.16524315547684 175.85,99.15195676338894 175.925,99.13748934781279 176.0,99.13766668027516 176.075,99.15446758453096 176.14999999999998,99.18768983700059 176.225,99.23793330939843 176.3,99.25843957518389 176.375,99.26167822358282 176.45,99.25801231249095 176.52499999999998,99.25416686351555 176.6,99.25774126334032 176.675,99.2720031193614 176.75,99.28901672471346 176.825,99.30352976258337 176.89999999999998,99.32806061470802 176.975,99.34632476897934 177.05,99.34587708917627 177.125,99.35760693298481 177.2,99.35695285952146 177.27499999999998,99.35740160084887 177.35,99.37900286414518 177.425,99.40312780966704 177.5,99.41077675108498 177.575,99.39692832221223 177.64999999999998,99.3884303136452 177.725,99.37742147483264 177.8,99.38899060171318 177.875,99.39657254183373 177.95,99.39487397850718 178.025,99.38813670418126 178.1,99.37239696266887 178.17499999999998,99.36761234480224 178.25,99.3582186111732 178.325,99.3525815004611 178.4,99.35440869353337 178.475,99.34815410136093 178.54999999999998,99.3440536188024 178.625,99.32946751474424 178.7,99.32395718300197 178.775,99.32910916883975 178.85,99.30775495785494 178.92499999999998,99.28850287765587 179.0,99.28321980465564 179.075,99.28690797773199 179.15,99.30743519834623 179.225,99.3127346550369 179.29999999999998,99.30302780207334 179.375,99.30606200622526 179.45,99.3145576896434 179.525,99.30954142750154 179.6,99.32045408773094 179.67499999999998,99.33150362023865 179.75,99.34432438844033 179.825,99.34378107895381 179.9,99.33666326451458 179.975,99.34028827048186 180.04999999999998,99.36524879583621 180.125,99.3743366368592 180.2,99.37463819161134 180.275,99.37594643737944 180.35,99.37826243743572 180.42499999999998,99.37327795998849 180.5,99.36262744146134 180.575,99.36535188898245 180.65,99.35281040702505 180.725,99.34570976215497 180.79999999999998,99.34136899791613 180.875,99.34111503192956 180.95,99.33262821364039 181.025,99.32790764102711 181.1,99.32831595093718 181.17499999999998,99.32124273072635 181.25,99.30560407682684 181.325,99.3060089695209 181.4,99.30982604080451 181.475,99.3052477253125 181.54999999999998,99.28106035039838 181.625,99.296328499787 181.7,99.32361310685106 181.775,99.29706423875841 181.85,99.28079423127905 181.92499999999998,99.27598090584408 182.0,99.2751094747336 182.075,99.2660371625182 182.15,99.26638825657604 182.225,99.27258133401436 182.29999999999998,99.27931595175728 182.375,99.27396856589868 182.45,99.25153580859558 182.525,99.2107077562276 182.6,99.18804906816098 182.67499999999998,99.19315130071668 182.75,99.2078760430725 182.825,99.209011673433 182.9,99.22148771058013 182.975,99.22981736924831 183.04999999999998,99.25049070634289 183.125,99.25694073902103 183.2,99.23612447540215 183.275,99.23733373624951 183.35,99.25576411776763 183.42499999999998,99.26068095549876 183.5,99.26692962480193 183.575,99.28198970460905 183.65,99.27903398739655 183.725,99.2793817716234 183.79999999999998,99.29350396498744 183.875,99.29520866118503 183.95,99.31024303060317 184.025,99.34963549951316 184.1,99.37408173381078 184.17499999999998,99.36360238986042 184.25,99.33965514642594 184.325,99.33507583588815 184.4,99.31897480762062 184.475,99.31276898559953 184.54999999999998,99.30038477303525 184.625,99.28397717947327 184.7,99.28426677748449 184.775,99.3025927031293 184.85,99.3030626271086 184.92499999999998,99.3141912260467 185.0,99.3221693996025 185.075,99.32067559042639 185.15,99.31793776334813 185.225,99.31772601222427 185.29999999999998,99.3131540695327 185.375,99.309265700183 185.45,99.32373255041354 185.525,99.33137477791891 185.6,99.32996423381553 185.67499999999998,99.34279034674837 185.75,99.36785880924212 185.825,99.36904862320073 185.9,99.37697068141912 185.975,99.37556132664518 186.04999999999998,99.36254252045097 186.125,99.3456976846008 186.2,99.33988799753901 186.275,99.33113618957618 186.35,99.32633885920416 186.42499999999998,99.32545729401023 186.5,99.32875307376062 186.575,99.32614800409641 186.65,99.32511245528843 186.725,99.31822414718805 186.79999999999998,99.31149652388807 186.875,99.31251381774798 186.95,99.31536693111671 187.025,99.30861287453008 187.1,99.29180560697607 187.17499999999998,99.29207795113004 187.25,99.29387626830008 187.325,99.31833151476894 187.4,99.32127642193387 187.475,99.32078785892243 187.54999999999998,99.32261914831086 187.625,99.34535068759669 187.7,99.3546430811387 187.775,99.36501598160866 187.85,99.36132514527839 187.92499999999998,99.35485221623009 188.0,99.33826027401683 188.075,99.33923272788107 188.15,99.34760795377187 188.225,99.36207341765677 188.29999999999998,99.36294979830066 188.375,99.35680355139368 188.45,99.35426818732763 188.525,99.3624525402688 188.6,99.36967873815819 188.67499999999998,99.35489208020368 188.75,99.33334844289647 188.825,99.3080368466212 188.9,99.29486131132661 188.975,99.29718309903694 189.04999999999998,99.3192747836247 189.125,99.31772742910731 189.2,99.31111722221043 189.275,99.31581324242748 189.35,99.31857298157279 189.42499999999998,99.31952263078537 189.5,99.32673299022767 189.575,99.31542935934313 189.65,99.30715339875508 189.725,99.29664836349887 189.79999999999998,99.29022201979159 189.875,99.30677142309197 189.95,99.25846344845615 190.025,99.21917868053394 190.1,99.22884091394627 190.17499999999998,99.24291387211142 190.25,99.23581120083291 190.325,99.23263469015562 190.4,99.24320349966183 190.475,99.23720351807187 190.54999999999998,99.22753469325116 190.625,99.23482723566106 190.7,99.23915538370555 190.775,99.24139030444623 190.85,99.24549845885022 190.92499999999998,99.23788899029992 191.0,99.22661622124096 191.075,99.23573624815056 191.15,99.22123308655166 191.225,99.20962680818455 191.29999999999998,99.2234891535681 191.375,99.21420089526663 191.45,99.25686758648584 191.525,99.2970599494253 191.6,99.29146661404349 191.67499999999998,99.2569076853765 191.75,99.26729686923932 191.825,99.26019104835095 191.9,99.24866447379931 191.975,99.26490605530763 192.04999999999998,99.2656679702806 192.125,99.2336861834647 192.2,99.23526810319134 192.275,99.22861909627336 192.35,99.20962019085218 192.42499999999998,99.2162015923645 192.5,99.22377631187013 192.575,99.21929581129021 192.65,99.22601694108226 192.725,99.22706426708844 192.79999999999998,99.20689773197245 192.875,99.20784023736633 192.95,99.1936222778392 193.025,99.16329998890951 193.1,99.16916649037367 193.17499999999998,99.18466203867787 193.25,99.17680631031918 193.325,99.18028235329604 193.4,99.17686313150477 193.475,99.1675219627578 193.54999999999998,99.1724898850468 193.625,99.18507486487077 193.7,99.1719434480563 193.775,99.19846422089927 193.85,99.23113762348889 193.92499999999998,99.23500094173754 194.0,99.23816178404869 194.075,99.23355962204111 194.15,99.24774482724226 194.225,99.26415955870509 194.29999999999998,99.25974554023276 194.375,99.25031360354663 194.45,99.25156015485678 194.525,99.27721388311365 194.6,99.273692256015 194.67499999999998,99.27982085691892 194.75,99.2881615827885 194.825,99.28084712044262 194.9,99.29659122578822 194.975,99.30315592500617 195.04999999999998,99.2931028603089 195.125,99.2945665646257 195.2,99.30644226341087 195.275,99.28179998288883 195.35,99.22502294248642 195.42499999999998,99.2049879697257 195.5,99.17674361980464 195.575,99.16112283537801 195.65,99.15940176661815 195.725,99.16412856703876 195.79999999999998,99.19887779213636 195.875,99.23080728319738 195.95,99.23936260305061 196.025,99.23078923003337 196.1,99.23544092615394 196.17499999999998,99.25675144187244 196.25,99.26006047158229 196.325,99.26882532036477 196.4,99.26261754152209 196.475,99.26717694194309 196.54999999999998,99.27540683113732 196.625,99.29490115016226 196.7,99.2906197206849 196.775,99.29140911113421 196.85,99.33111482417443 196.92499999999998,99.35060958575764 197.0,99.3748547740183 197.075,99.3872140656064 197.15,99.35755738199812 197.225,99.33049231711729 197.29999999999998,99.29626697806286 197.375,99.25143131480277 197.45,99.23491508471766 197.525,99.23229841608438 197.6,99.20199800993063 197.67499999999998,99.16258949705859 197.75,99.16033609644857 197.825,99.15885632333831 197.9,99.15997551851116 197.975,99.15512425745165 198.04999999999998,99.15125730963324 198.125,99.12432413183971 198.2,99.12282524599283 198.275,99.12081379743648 198.35,99.10799503385661 198.42499999999998,99.0868070021648 198.5,99.06535089127333 198.575,99.0568326124168 198.65,99.05054415644042 198.725,99.05659574339734 198.79999999999998,99.05829984536852 198.875,99.07442372296693 198.95,99.05870566170705 199.025,99.01071786919546 199.1,98.94844713274252 199.17499999999998,98.88553069354782 199.25,98.80202605391533 199.325,98.81356488003314 199.4,98.78125859940793 199.475,98.7308520926722 199.54999999999998,98.68655826277252 199.625,98.68818330050728 199.7,98.6643790091842 199.775,98.6309172979932 199.85,98.59883804189298 199.92499999999998,100.0" opacity="1" fill="#4E70A7" stroke="black" stroke-width="0"/>
<line x1="40" y1="100.0" x2="40" y2="70.0" stroke="black" stroke-width="1" />
<line x1="39.5" y1="100.0" x2="43.5" y2="100.0" stroke="black" stroke-width="1" />
<line x1="39.5" y1="70.0" x2="43.5" y2="70.0" stroke="black" stroke-width="1" />
<text text-anchor="end" font-family="Arial" x="36" y="104.0" font-size="8" >0</text>
<text text-anchor="end" font-family="Arial" x="36" y="74.0" font-size="8" >2375.7</text>
<text text-anchor="start" font-family="Arial" x="39.5" y="66" font-size="7" >ChrIV: 1-1,531,933</text>
</svg>
