<svg viewBox="0 0 320 210" xmlns="http://www.w3.org/2000/svg">
<polygon points="50.0,100.0 50.075,89.90402599195619 50.15,90.03207403005348 50.225,90.16353668250005 50.3,90.27963357037493 50.375,90.41314499143104 50.45,90.52309557347726 50.525,90.62929007973929 50.6,90.8351910976619 50.675,91.09060347154262 50.75,91.27362680066304 50.825,91.37743107688058 50.9,91.32621186164165 50.975,91.2131881266811 51.05,91.278407260752 51.125,91.4573330526533 51.2,91.59972247101749 51.275,91.68986828983799 51.35,91.83157478533234 51.425,92.04874406308434 51.5,92.32396116771396 51.575,92.4899107105977 51.65,92.56503222628145 51.725,92.69546981240971 51.8,92.89693124709528 51.875,93.1410753611466 51.95,93.40263400837917 52.025,93.5426327420232 52.1,93.55424246328752 52.175,93.57029115072905 52.25,93.58292509391399 52.325,93.57165686656143 52.4,93.69663175174438 52.475,93.91345976292247 52.55,93.96911797681544 52.625,93.92336214453533 52.7,93.88341115664898 52.775,93.91619145440188 52.85,93.99575164397133 52.925,94.00258090514669 53.0,93.90902118646729 53.075,93.7478521036725 53.15,93.60204807095904 53.225,93.4914152480565 53.3,93.38795305033372 53.375,93.17078438964157 53.45,92.92322566124098 53.525,92.86654345276524 53.6,92.90546947176381 53.675,92.81122686269138 53.75,92.70878856212087 53.825,92.64425235091984 53.9,92.63947189083088 53.975,92.72586163386718 54.05,92.8183976177785 54.125,92.88942153128947 54.2,92.94610412948721 54.275,92.92971398061076 54.35,92.84298310090786 54.425,92.80542250545015 54.5,92.82522736610638 54.575,92.9170804921015 54.65,93.02122622975396 54.725,93.08337204852636 54.8,93.14688332331643 54.875,93.19058999726496 54.95,93.09122471970146 55.025,92.8829333093502 55.1,92.65995977178746 55.175,92.5308873818622 55.25,92.46464386348654 55.325,92.52200938455412 55.4,92.60156989889191 55.475,92.53157030473206 55.55,92.46088785265601 55.625,92.46703419096153 55.7,92.51483862946701 55.775,92.61147205316693 55.85,92.66132542266615 55.925,92.6411791980055 56.0,92.50220439399057 56.075,92.31269329760657 56.15,92.25635216084376 56.225,92.14298712683245 56.3,91.95142800880608 56.375,91.86435573262193 56.45,91.92172125368951 56.525,91.99547692363356 56.6,91.98967207923982 56.675,92.04840344604712 56.75,92.25293861823002 56.825,92.40488840466597 56.9,92.5162041829152 56.975,92.64391011004089 57.05,92.76854272186807 57.125,92.80951744452253 57.2,92.83000496823392 57.275,92.89932098998725 57.35,93.01405122020157 57.425,93.13458629480964 57.5,93.28175591344812 57.575,93.39170649549435 57.65,93.42755994616158 57.725,93.55697334284608 57.8,93.74580070443938 57.875,93.8687262689066 57.95,93.9028724123992 58.025,93.87999449625916 58.1,93.82365335949635 58.175,93.69560532139906 58.25,93.49141161065106 58.325,93.35619343452649 58.4,93.25170688497579 58.475,93.12297657354532 58.55,93.03419741238538 58.625,93.00073451653095 58.7,92.88634526059904 58.775,92.61659153892826 58.85,92.37347180918171 58.925,92.24781481304974 59.0,92.18976662892698 59.075,92.21503477511152 59.15,92.27854637466993 59.225,92.30415568999788 59.3,92.22323007688757 59.375,92.18498694828203 59.45,92.2956200634761 59.525,92.43561918684213 59.6,92.64903258367097 59.675,92.82215353117851 59.75,92.80064146077817 59.825,92.73337355809772 59.9,92.7473734769297 59.975,92.86210403191237 60.05,92.89556692776678 60.125,92.93790769102193 60.2,93.15678365888874 60.275,93.41629353751173 60.35,93.58804824955757 60.425,93.6573645636024 60.5,93.76150955428768 60.575,93.91175177373432 60.65,93.95170256675968 60.725,93.86736230682328 60.8,93.82946015250015 60.875,93.81102123501414 60.95,93.76833884793987 61.025,93.77892421737626 61.1,93.78063152455088 61.175,93.81272889943394 61.25,93.9455573976202 61.325,94.08248343302559 61.4,94.1535069243377 61.475,94.12653166583955 61.55,93.98209380363414 61.625,93.78131529181843 61.7,93.49619580557597 61.775,93.18956424893315 61.85,93.02122415123658 61.925,92.95805411054359 62.0,92.90000634861966 62.075,92.76717866235425 62.15,92.64186273793521 62.225,92.56469251859558 62.3,92.51483914909636 62.375,92.4827417742133 62.45,92.49571737369416 62.525,92.56366754970777 62.6,92.61181318983351 62.675,92.65893451060815 62.75,92.70605618862795 62.825,92.68215388818312 62.9,92.59883778521366 62.975,92.49127772550344 63.05,92.4868387268494 63.125,92.50220449142107 63.2,92.5834723129335 63.275,92.81908070303253 63.35,92.91639721198648 63.425,92.9099094771997 63.5,92.95532336089238 63.575,93.04854174804419 63.65,93.11956569403199 63.725,93.16258983483269 63.8,93.27527188102047 63.875,93.39751426280317 63.95,93.39853825738594 64.025,93.15883297960447 64.1,92.92561524174877 64.175,92.83683562591315 64.25,92.73508011830516 64.325,92.55683724927373 64.4,92.32669224213352 64.475,92.24474149775125 64.55,92.17679067220094 64.625,92.07674247176759 64.7,92.04430363544961 64.775,91.98454788433753 64.85,92.00537703186802 64.925,92.00742580047758 65.0,91.87698808444198 65.075,91.76191616545489 65.15,91.663575304673 65.225,91.59528301768778 65.3,91.48908873876358 65.375,91.35216351527906 65.45,91.25962788861293 65.525,91.26440834870189 65.6,91.31494464107095 65.675,91.33611525003637 65.75,91.33884694151578 65.825,91.39074907962456 65.9,91.54884572399536 65.975,91.69294244953419 66.05,91.82918556206971 66.125,91.88450231452774 66.2,91.83396602215868 66.275,91.80255157014547 66.35,91.68884491231508 66.425,91.58538209753246 66.5,91.58572355896737 66.575,91.59289424910082 66.65,91.67279622487354 66.725,91.73801535894444 66.8,91.76055181364956 66.875,91.74655189481759 66.95,91.72708859302679 67.025,91.85752686116858 67.1,91.91523384367109 67.175,91.77899073113556 67.25,91.71684474997902 67.325,91.82679533202523 67.4,91.94596537281444 67.475,91.96816036608465 67.55,91.92103868806484 67.625,91.96372136743061 67.7,92.03645265306987 67.775,92.05830618490515 67.85,92.14162277502712 67.925,92.22323205797447 68.0,92.26181720012111 68.075,92.31269495392512 68.15,92.21162236918698 68.225,92.1819152243484 68.3,92.24850013920533 68.375,92.22084176297632 68.45,92.176110315001 68.525,92.08494011187571 68.6,92.06547681008493 68.675,92.15732993608006 68.75,92.24235383337667 68.825,92.25498790646893 68.9,92.28537755197851 68.975,92.31815765487042 69.05,92.37449879163323 69.125,92.40557178221151 69.2,92.44005938713904 69.275,92.5179125943022 69.35,92.57630227233673 69.425,92.62820424806132 69.5,92.64971631846167 69.575,92.6592771412091 69.65,92.75932534164247 69.725,92.77639841338876 69.8,92.6401553658069 69.875,92.61352137388268 69.95,92.73337433754175 70.025,92.88088567742983 70.1,93.04546960191172 70.175,93.2237116590223 70.25,93.3934173426439 70.325,93.43644132106043 70.4,93.37190553205824 70.475,93.38761259568066 70.55,93.50439175688871 70.625,93.64131720771108 70.7,93.67785354877134 70.775,93.65668284237542 70.85,93.7246330833427 70.925,93.8379976302015 71.0,93.85609508625258 71.075,93.80214427696475 71.15,93.76151036620854 71.225,93.72531545410637 71.3,93.73624222002401 71.375,93.80180281552983 71.45,93.75468113751002 71.525,93.5453652779003 71.6,93.28619653594387 71.675,93.04990603489586 71.75,92.87610281405513 71.825,92.83649344998787 71.9,92.86654186140036 71.975,92.87200508197502 72.05,92.84298115229781 72.125,92.82283531735918 72.2,92.90000482220846 72.275,93.01336930411358 72.35,93.02122291711689 72.425,92.99561330949741 72.5,92.9788814718482 72.575,92.8443456664873 72.65,92.69102948220547 72.725,92.6719076418496 72.8,92.58107890015926 72.875,92.41410425848038 72.95,92.28025137598934 73.025,92.1125938114406 73.1,92.03644791145207 73.175,92.09039881817041 73.25,92.19659299966409 73.325,92.32088415005634 73.4,92.296298861788 73.475,92.16722695901527 73.55,92.1375199116072 73.625,92.1539096382848 73.7,91.9975211130095 73.775,91.7499623846089 73.85,91.49728173468442 73.925,91.17323564486038 74.0,90.92362756326722 74.075,90.76314068885193 74.15,90.5811417440363 74.225,90.32914320506082 74.3,90.05597360244424 74.375,89.80977997281617 74.45,89.71382930960192 74.525,89.74012184009123 74.6,89.60592749616526 74.675,89.40036771233973 74.75,89.21495447794318 74.825,89.03124903787378 74.9,88.91924994703268 74.975,88.83217728112652 75.05,88.67988574096414 75.125,88.50335079616718 75.2,88.44086335357571 75.275,88.42174151321984 75.35,88.45725350245215 75.425,88.49993618181792 75.5,88.48422895581132 75.575,88.6068136109498 75.65,88.79427593872424 75.725,88.94861650731086 75.8,89.23988356597853 75.875,89.4625163565967 75.95,89.46319927946655 76.025,89.4560285893331 76.1,89.52807695210251 76.175,89.62129592383735 76.25,89.64144214849799 76.325,89.53149156645178 76.4,89.41539467857689 76.475,89.37544369069053 76.55,89.32046839966742 76.625,89.2012983588782 76.7,89.0561772490346 76.775,88.88271484009212 76.85,88.71847188989265 76.925,88.71095973832428 77.0,88.81954447463079 77.075,88.81544693741168 77.15,88.74817903473122 77.225,88.7072036625401 77.3,88.49925364867008 77.375,88.37188853344263 77.45,88.43471743746905 77.525,88.5139364903719 77.6,88.51735110472117 77.675,88.54159486660092 77.75,88.62559437959275 77.825,88.65052106434236 77.9,88.62866753250708 77.975,88.57847270157293 78.05,88.49754634149545 78.125,88.55457040112812 78.2,88.67135021187285 78.275,88.73315473159448 78.35,88.71676458271803 78.425,88.59793600336373 78.5,88.44154666616757 78.575,88.37359584061727 78.65,88.27832810027287 78.725,88.05262261141604 78.8,88.06525658707781 78.875,88.21823130992472 78.95,88.26637737224931 79.025,88.27593829242724 79.1,88.27047490946842 79.175,88.10930511218328 79.25,87.90579409696731 79.325,87.83750180998209 79.4,87.82008727680085 79.475,87.80438005079425 79.55,87.84637980729016 79.625,87.81530681671188 79.7,87.77433144452074 79.775,87.85901388038243 79.85,87.9645254637746 79.925,88.06423220277304 80.0,88.22232884714384 80.075,88.38110841438449 80.15,88.48354684486233 80.225,88.62969181938136 80.3,88.76900818226173 80.375,88.70754512397502 80.45,88.55081432534394 80.525,88.46613188948226 80.6,88.4722781953109 80.675,88.49618049575574 80.75,88.47193673387599 80.825,88.48491226840318 80.9,88.69661835805738 80.975,88.87315391991419 81.05,88.92232436654356 81.125,88.88749530018109 81.2,88.78915440692236 81.275,88.70105735671143 81.35,88.64266745133905 81.425,88.5388631751215 81.5,88.39066891236357 81.575,88.23906003525637 81.65,88.2329137294277 81.725,88.33842531281988 81.8,88.36027884465514 81.875,88.48149765405392 81.95,88.75227657195035 82.025,88.89056845309543 82.1,89.04217733020263 82.175,89.41812575299645 82.25,89.8521224248667 82.32499999999999,90.24446080167597 82.4,90.48280007133356 82.475,90.78704139793189 82.55,91.15957501151544 82.625,91.52493793496555 82.69999999999999,91.96200775975014 82.775,92.39976050740458 82.85,92.7992695743473 82.925,93.24726616504954 83.0,93.70687244453924 83.07499999999999,94.1408691164095 83.15,94.5571097936636 83.225,94.97164316374307 83.3,95.36193277194279 83.375,95.63817426087716 83.44999999999999,95.85465999869947 83.525,96.24460814546427 83.6,96.593239458603 83.675,96.68679969691175 83.75,96.67519000812426 83.82499999999999,96.68850700408638 83.9,96.74416525045618 83.975,96.69055580517276 84.05,96.61304405944453 84.125,96.6359219755846 84.19999999999999,96.63182443836547 84.275,96.53826423253355 84.35,96.45221627570051 84.425,96.4860209577582 84.5,96.514703718292 84.57499999999999,96.39450994273469 84.65,96.2825111441851 84.725,96.17973125227232 84.8,96.11075604241725 84.875,96.13260957425251 84.94999999999999,96.13021934420803 85.025,96.06090267291803 85.1,96.00763468906956 85.175,96.01548830207285 85.25,96.02026876216182 85.32499999999999,95.94890332226225 85.4,95.87139154405719 85.475,95.84031855347891 85.55,95.82324548173261 85.625,95.82870886469144 85.69999999999999,95.83963563060907 85.775,95.88334246694177 85.85,95.95914658072702 85.925,95.95163442915866 86.0,95.93012235875831 86.07499999999999,96.03665767691858 86.15,96.13875409385531 86.225,96.16402224003984 86.3,96.17699777456703 86.375,96.17324169878285 86.44999999999999,96.11690056202004 86.525,96.04109654566528 86.6,95.92670774440904 86.675,95.72251461824408 86.75,95.5627114786195 86.82499999999999,95.47085909959156 86.9,95.36159192756772 86.975,95.30320231448685 87.05,95.3312021521508 87.125,95.31993392479824 87.19999999999999,95.18369146179938 87.275,95.03140047374319 87.35,94.94159644112595 87.425,94.84393853569075 87.5,94.77223173178677 87.57499999999999,94.69881762070816 87.65,94.52808771516594 87.725,94.35462611814432 87.8,94.19892051573886 87.875,94.06506844516868 87.94999999999999,93.91414330285218 88.025,93.79224196030556 88.1,93.80111986018314 88.175,93.81546124045003 88.25,93.6085356108848 88.32499999999999,93.38112236017767 88.4,93.30975724504644 88.475,93.2380508633413 88.55,93.18956340453546 88.625,93.13697853841785 88.69999999999999,93.12571044097261 88.775,93.07244245712414 88.85,92.91673652995034 88.925,92.8119086163952 89.0,92.79825045128966 89.07499999999999,92.8050798748492 89.15,92.7398607407783 89.225,92.70673898159046 89.3,92.72620228338126 89.375,92.70810482733017 89.44999999999999,92.80405523072974 89.525,92.92254202388077 89.6,92.8795180129874 89.675,92.8388841022312 89.75,93.00039536095126 89.82499999999999,93.15576031384265 89.9,93.2476128877316 89.975,93.32580674440882 90.05,93.2790271448838 90.125,93.28619767263308 90.19999999999999,93.36063551847978 90.275,93.531365424022 90.35,93.62765735381016 90.425,93.651559654255 90.5,93.74409537835163 90.57499999999999,93.79736319981593 90.65,93.91858200921472 90.725,94.09716585252856 90.8,94.23989592040684 90.875,94.34574815331308 90.94999999999999,94.41813742541123 91.025,94.47072206419102 91.1,94.53286772057923 91.175,94.55164809950017 91.25,94.6165256422288 91.32499999999999,94.72545161263238 91.4,94.7315976586464 91.475,94.77598764518679 91.55,94.8719376263875 91.625,94.90744958314299 91.69999999999999,94.9303274668062 91.775,94.88525494711797 91.85,94.8777429904106 91.925,94.8907185249378 92.0,94.78452427849044 92.07499999999999,94.71998793738206 92.15,94.74525562889092 92.225,94.74218241102292 92.3,94.76608471146774 92.375,94.78964555047764 92.44999999999999,94.72101241911734 92.525,94.61516012125743 92.6,94.57179484379016 92.675,94.60525806441292 92.75,94.60833128228091 92.82499999999999,94.57725845408682 92.9,94.52228397498456 92.975,94.38570021293496 93.05,94.2429701450567 93.125,94.13438622067105 93.19999999999999,94.09136263197654 93.275,94.14326438036329 93.35,94.23750698943572 93.425,94.24228744952468 93.5,94.17228834251733 93.57499999999999,94.13745979578422 93.65,94.1511181882276 93.725,94.06848507308166 93.8,93.84721887517038 93.875,93.75639068558621 93.94999999999999,93.80795081015387 94.025,93.85370622023513 94.1,93.83697460992376 94.175,93.80658454221532 94.25,93.79053591972746 94.32499999999999,93.80726733517784 94.4,93.87931488602639 94.475,93.97082580361942 94.55,93.9981427184135 94.625,93.88170436910369 94.69999999999999,93.753998052256 94.775,93.70141357586039 94.85,93.7191695379997 94.925,93.82092436359417 95.0,93.84004620395004 95.07499999999999,93.79702235544086 95.15,93.79326627965666 95.225,93.87863085894418 95.3,94.04253153578787 95.375,94.12209156297314 95.44999999999999,94.04184887273269 95.525,93.9237036384471 95.6,93.85609427433172 95.675,93.80043606043876 95.75,93.82672839606707 95.82499999999999,93.88887382511744 95.9,93.89126405516193 95.975,93.86258165187331 96.05,93.86292311330823 96.125,93.95102016351917 96.19999999999999,94.04731222321467 96.275,94.15999391215729 96.35,94.23579831823405 96.425,94.2173594657017 96.5,94.23033496775207 96.57499999999999,94.25833457807816 96.65,94.29521212075868 96.725,94.28326119787411 96.8,94.17945773357742 96.875,94.06814205275869 96.94999999999999,93.93292332452793 97.025,93.83936289135818 97.1,93.83902142992325 97.175,93.80965574651961 97.25,93.70482728085828 97.32499999999999,93.52726814661756 97.4,93.33536763210992 97.475,93.2694659648912 97.55,93.2342954370938 97.625,93.17180799450232 97.69999999999999,93.14175945318249 97.775,92.97068808620536 97.85,92.73473904659225 97.925,92.62513054304081 98.0,92.5486432140942 98.07499999999999,92.47864384727218 98.15,92.35196246683545 98.225,92.2105979848822 98.3,92.16723238264657 98.375,92.11362293736317 98.44999999999999,92.06513541360367 98.525,92.06581833647353 98.6,92.06411102929889 98.675,92.08254994678491 98.75,92.01528204410445 98.82499999999999,91.89986807909942 98.9,91.90601438492808 98.975,91.8865510831373 99.05,91.74689335625251 99.125,91.59801617062472 99.19999999999999,91.37401746931317 99.275,91.14114077069355 99.35,90.9652881317066 99.425,90.71841151425501 99.5,90.48894942998464 99.57499999999999,90.29090179772749 99.65,90.13997584349013 99.725,90.10480531569274 99.8,90.09012247399093 99.875,89.98461089059874 99.94999999999999,89.86031892828564 100.025,89.6885638265178 100.1,89.43827259471693 100.175,89.21700558488482 100.25,88.95237297281706 100.32499999999999,88.69866702923645 100.4,88.47125371357563 100.475,88.16701157505645 100.55,87.91193988316664 100.625,87.71013617512529 100.69999999999999,87.46906456445161 100.775,87.16960402271059 100.85,86.77350924534879 100.925,86.2848792635197 101.0,85.74468821529476 101.07499999999999,85.26664314822636 101.15,84.83401271181782 101.225,84.15996923577751 101.3,83.34592585692712 101.375,82.6578821372865 101.44999999999999,81.90188707246622 101.525,81.02091686264832 101.6,80.27175083166557 101.675,79.50448786426108 101.75,78.54498230385417 101.82499999999999,77.49089403696695 101.9,76.43748820579708 101.975,75.60090824233424 102.05,74.92652239550765 102.125,74.31837987219572 102.19999999999999,73.94174927349923 102.275,73.86560343846438 102.35,73.83111628821251 102.425,73.90657913542384 102.5,74.11077333332435 102.57499999999999,74.27126020773963 102.65,74.45223379394545 102.725,74.87154703953087 102.8,75.2867637222022 102.875,75.63266321395417 102.94999999999999,76.15475842996975 103.025,76.77758486671904 103.1,77.31606961455122 103.175,77.83065173717023 103.25,78.60371990621363 103.32499999999999,79.35903071661386 103.4,79.84868427082687 103.475,80.17204863942393 103.55,80.56882721653011 103.625,81.07111750693579 103.69999999999999,81.27257910400552 103.775,81.03150713608666 103.85,80.75219239680744 103.925,80.54492394178024 104.0,80.41448528391645 104.07499999999999,80.30112034733565 104.15,80.03239078263181 104.225,79.75853997841757 104.3,79.63800379959714 104.375,79.60932162364637 104.44999999999999,79.76092926663387 104.525,80.11263347287226 104.6,80.3164855273243 104.675,80.42370406064595 104.75,80.51999638015612 104.82499999999999,80.78804253483759 104.9,81.37091665215033 104.975,82.04052158421227 105.05,82.64866352294119 105.125,82.96588038406671 105.19999999999999,83.32782862821388 105.275,84.02440894868133 105.35,84.83913427609653 105.425,85.51488661819953 105.5,86.00112688961347 105.57499999999999,86.4453670148095 105.65,86.91863175169627 105.725,87.2775064532071 105.8,87.63808976096593 105.875,88.10657413519422 105.94999999999999,88.46784033334607 106.025,88.60818098310071 106.1,88.70413164631495 106.175,88.81783804433068 106.25,89.0387628457607 106.32499999999999,89.34744385302659 106.4,89.49017473282572 106.475,89.42427267588496 106.55,89.19310328443999 106.625,89.0770063965651 106.69999999999999,89.08315270239376 106.775,89.07017716786658 106.85,89.0469577902916 106.925,89.11456715440697 107.0,89.21802996918959 107.07499999999999,89.3279805512358 107.15,89.39490699248132 107.225,89.49666250008931 107.3,89.58749124177966 107.375,89.48676011847645 107.44999999999999,89.32593178262624 107.525,89.31466355527368 107.6,89.51407703327054 107.675,89.73466112023283 107.75,89.89856260899737 107.82499999999999,90.0074888067388 107.9,90.07441524798432 107.975,90.23626796813932 108.05,90.43124244748213 108.125,90.52446141921696 108.19999999999999,90.5432417981379 108.275,90.35099901027449 108.35,90.15056114797285 108.425,90.11709792735009 108.5,90.15568306949675 108.57499999999999,90.14612214931881 108.65,90.1918779815989 108.725,90.26051173001906 108.8,90.27109703450178 108.875,90.33802347574729 108.94999999999999,90.30387733225469 109.025,90.12085400313428 109.1,89.91939175652786 109.175,89.84597754801874 109.25,89.74114888749642 109.32499999999999,89.5420768709345 109.4,89.40822398844344 109.475,89.20949343331644 109.55,89.03500664006918 109.625,89.10398184992425 109.69999999999999,89.23305427232634 109.775,89.45158959067906 109.85,89.61446669513883 109.925,89.56802793998887 110.0,89.46627243238089 110.07499999999999,89.34129754719791 110.15,89.25832241851087 110.225,89.20471297322747 110.3,89.1490547593345 110.375,89.01725064545302 110.44999999999999,88.94008036115972 110.525,89.08417708669855 110.6,89.32593178262624 110.675,89.37168761490635 110.75,89.23032258084693 110.82499999999999,89.17261559834441 110.9,89.1777375198683 110.975,89.30510263509575 111.05,89.44749205345995 111.125,89.42256536871034 111.19999999999999,89.4051508355291 111.275,89.41880929292616 111.35,89.35768769607438 111.425,89.2651516472094 111.5,89.2405664238947 111.57499999999999,89.34437070011225 111.65,89.34061462432807 111.725,89.23544450237083 111.8,89.19105451583042 111.875,89.20812758757673 111.94999999999999,89.3515413902457 112.025,89.38876068665265 112.1,89.17807898130323 112.175,89.02647010419602 112.25,89.15588398803303 112.32499999999999,89.36007792611886 112.4,89.42222390727541 112.475,89.28017595034615 112.55,89.18593259430654 112.625,89.23407865663111 112.69999999999999,89.20403005035762 112.775,89.15827421807751 112.85,89.22759088936752 112.925,89.31159040235934 113.0,89.37305346064605 113.07499999999999,89.41846783149123 113.15,89.47617481399374 113.225,89.60353992922118 113.3,89.6858321350384 113.375,89.71383197270234 113.44999999999999,89.73363673592804 113.525,89.71963681709607 113.6,89.76778287942066 113.675,89.89412361034333 113.75,89.9030016076514 113.82499999999999,89.76880726372544 113.9,89.66329568033326 113.975,89.71724658705159 114.05,89.7722218780747 114.125,89.81353871170076 114.2,89.89412361034333 114.27499999999999,89.81831917178972 114.35,89.71827097135638 114.425,89.83300201349155 114.5,89.93578190540431 114.575,89.93885505831865 114.64999999999999,89.96787928028738 114.725,89.9460257484521 114.8,89.9081235291753 114.875,89.89412361034333 114.95,89.88422122873047 115.02499999999999,90.02285453883364 115.1,90.20724361626326 115.175,90.2874870534709 115.25,90.36875487498331 115.325,90.52172959783022 115.39999999999999,90.75972821797373 115.475,91.02538508443892 115.55,91.25826152324387 115.625,91.35694387793752 115.7,91.30743196987324 115.77499999999999,91.32040750440044 115.85,91.4074801703066 115.925,91.32689527166403 116.0,91.23196899275456 116.075,91.19645700352224 116.14999999999999,91.20294477078583 116.225,91.00284836991912 116.3,90.64055885919802 116.375,90.50943760323273 116.45,90.54460813103012 116.52499999999999,90.48758410387428 116.6,90.05973425746205 116.675,89.5526636043979 116.75,89.37066508178111 116.825,89.38671376922264 116.89999999999999,89.36861631317156 116.975,89.31329969062087 117.05,89.2122273656974 117.125,89.09920363073685 117.2,89.12652054553095 117.27499999999999,89.25627589080287 117.35,89.366567934284 117.425,89.47310390198096 117.5,89.5349084217026 117.575,89.56154241362684 117.64999999999999,89.54685957192501 117.725,89.82685794856444 117.8,90.28646396823949 117.875,90.49441404706316 117.95,90.44285337038932 118.02499999999999,90.25368373544025 118.1,90.34519416588074 118.175,90.70850955484099 118.25,90.91782499225187 118.325,90.8935812303721 118.39999999999999,90.8358742478696 118.475,90.78567941693545 118.55,90.71636274564545 118.625,90.51353465329933 118.7,90.25470688562532 118.77499999999999,90.12256131030891 118.85,90.06519578924132 118.925,90.08568347533688 119.0,90.05153733184427 119.075,89.86305061976505 119.14999999999999,89.62436907675168 119.225,89.35973646468393 119.3,89.20744466470687 119.375,89.20676174183703 119.45,89.26959064586343 119.52499999999999,89.53729641084551 119.6,89.87397732072901 119.675,90.04504949962701 119.75,90.07304933729095 119.825,90.18368280973019 119.89999999999999,90.37080296157934 119.975,90.45958273979915 120.05,90.3479248505783 120.125,90.37387591963268 120.2,90.59138685368063 120.27499999999999,90.66241083214526 120.35,90.54085056131156 120.425,90.06758533727228 120.5,89.60080810783444 120.575,89.50007717939224 120.64999999999999,89.55300370180579 120.725,89.5229550955323 120.8,89.19754351721372 120.875,88.7509127722512 120.95,88.41354893949784 121.02499999999999,87.93038087917003 121.1,87.43901810164917 121.175,87.08116655032342 121.25,86.810387632427 121.325,86.40439001877667 121.39999999999999,85.82766259701462 121.475,85.46195759506973 121.55,85.41859199283411 121.625,85.35405578163308 121.7,85.09010609243518 121.77499999999999,84.86747323686335 121.85,84.79064441400496 121.925,85.0621059300029 122.0,85.39161566260043 122.075,85.45581021750553 122.14999999999999,85.43771276145445 122.225,85.39742057194783 122.3,85.38956637436152 122.375,85.4926868508347 122.45,85.64497858585808 122.52499999999999,85.90244063769973 122.6,86.19336561787262 122.675,86.34599884680776 122.75,86.39960829209116 122.825,86.63521668219019 122.89999999999999,87.04428725389386 122.975,87.20272535969957 123.05,87.23106665879844 123.125,87.445845901367 123.2,87.79242925781702 123.27499999999999,88.12228100395565 123.35,88.42652314247484 123.425,88.72052143794623 123.5,89.00188566032537 123.575,89.28393280557435 123.64999999999999,89.4362246055514 123.725,89.5311506246462 123.8,89.73807566962842 123.875,89.86066038972056 123.95,89.83744101214559 124.02499999999999,89.68958821082258 124.1,89.58032055164621 124.175,89.5174916476198 124.25,89.18798233722111 124.325,88.64540086409067 124.39999999999999,88.1547214316385 124.475,87.74462738498143 124.55,87.53906815326208 124.625,87.50355616402976 124.7,87.55443391783375 124.77499999999999,87.74018819146637 124.85,87.89179625665273 124.925,87.97477063837259 125.0,88.00106281161672 125.075,87.8777952336084 125.14999999999999,87.71867430236331 125.225,87.38438404472315 125.3,86.78751026839312 125.375,85.92224949300655 125.45,84.84152635732056 125.52499999999999,83.92948543030278 125.6,82.76373794264452 125.675,81.47984577280684 125.75,80.66512083511364 125.825,79.96990678258474 125.89999999999999,79.4614708683639 125.975,79.29176414548361 126.05,78.87313275103251 126.125,78.23016155108013 126.2,77.52743414533998 126.27499999999999,76.74002563528836 126.35,76.11686010791306 126.425,75.63710753880903 126.5,75.24067117010497 126.575,74.97774606007286 126.64999999999999,74.80564959430058 126.725,74.88691832516436 126.8,75.24545348137349 126.875,75.84949661628676 126.95,76.60036881775494 127.02499999999999,77.10436479149355 127.1,77.68279831878735 127.175,78.27728027370802 127.25,78.63342221200391 127.325,79.05341912742637 127.39999999999999,79.47375834868143 127.475,79.78585315837573 127.55,80.12389952427692 127.625,80.25706948389812 127.7,80.2717525854146 127.77499999999999,80.3530206667417 127.85,80.42233672097186 127.925,80.35575164373076 128.0,80.29804466122825 128.075,80.42438519728991 128.14999999999998,80.57189634231699 128.225,80.81501548748054 128.3,81.2568651228174 128.375,81.88037334574734 128.45,82.52129564718282 128.52499999999998,83.17690014078346 128.6,83.88611583341654 128.675,84.68172055459559 128.75,85.55859283747237 128.825,86.40200105532871 128.89999999999998,86.90633858793275 128.975,87.19009323521738 129.05,87.51618848337299 129.125,88.01813611070088 129.2,88.58393722122096 129.27499999999998,88.9482755005516 129.35,89.08281114352833 129.425,89.2456883454186 129.5,89.43929697902172 129.575,89.56119871129034 129.64999999999998,89.74592934758539 129.725,89.83266055205662 129.8,89.6926613637369 129.875,89.40446791265926 129.95,89.07017716786658 130.02499999999998,88.809300631583 130.1,88.65530152443132 130.175,88.5569606311726 130.25,88.51769256615609 130.325,88.54193632803585 130.39999999999998,88.53442417646747 130.475,88.32135224107357 130.55,88.12808529624321 130.625,88.03179317159405 130.7,87.90989143932542 130.77499999999998,87.84774545816886 130.85,87.90647682497615 130.925,87.98501295500917 131.0,88.03998824603227 131.075,88.0324760944639 131.14999999999998,87.85696491691186 131.225,87.70740480841422 131.3,87.708429192719 131.375,87.71184380706826 131.45,87.83545284651152 131.52499999999998,88.15028028951342 131.6,88.5402287285697 131.675,88.93632334354734 131.75,89.15280989329051 131.825,89.13266366862986 131.89999999999998,89.17056588790666 131.975,89.57075868964009 132.05,90.03787715317502 132.125,90.1280229719955 132.2,89.93373122066154 132.27499999999998,89.91973113944539 132.35,90.09216916408309 132.425,90.27621687750828 132.5,90.52821486437759 132.575,90.68938466166271 132.64999999999998,90.91577359301874 132.725,91.20191827548683 132.8,91.38494160460725 132.875,91.53245294449533 132.95,91.52050179427292 133.02499999999998,91.38903914182636 133.1,91.28216223232383 133.175,91.13089546618824 133.25,91.0506520289806 133.325,90.97996951195088 133.39999999999998,90.93489660254063 133.475,90.87377500568886 133.55,90.67641084840774 133.625,90.67948400132207 133.7,91.02060416967429 133.77499999999998,91.24460303337 133.85,91.30572463022177 133.925,91.37777257079235 134.0,91.31050522021808 134.075,91.33406605922798 134.14999999999998,91.50343050875249 134.225,91.63830774307148 134.3,91.66221004351631 134.375,91.71923410314898 134.45,91.91659881253628 134.52499999999998,92.03030547036668 134.6,91.91181835244731 134.675,91.76567285829893 134.75,91.77625816278163 134.825,92.00230534041123 134.89999999999998,92.20854778729193 134.975,92.2604499254007 135.05,92.39942472941564 135.125,92.59678943880294 135.2,92.62683804507645 135.27499999999998,92.5216679231192 135.35,92.36118104870391 135.425,92.15801191712171 135.5,92.0323541090689 135.575,91.87528184900287 135.64999999999998,91.5901619730384 135.725,91.42113859522681 135.8,91.48465042212307 135.875,91.5348452530572 135.95,91.48840649790725 136.02499999999998,91.36650476563862 136.1,91.26235902798615 136.175,91.30913924457104 136.25,91.36821207281325 136.325,91.33543206735186 136.39999999999998,91.3023105679787 136.475,91.33577365869411 136.55,91.30470066811584 136.625,91.25382291431184 136.7,91.34362727169741 136.77499999999998,91.4948946873697 136.85,91.52562621651305 136.925,91.51743114207481 137.0,91.55465043848176 137.075,91.6034794236762 137.14999999999998,91.73323476894814 137.225,91.78069790840287 137.3,91.70899100706838 137.375,91.60928426806994 137.45,91.56626012726926 137.52499999999998,91.57274789453285 137.6,91.55908943713581 137.675,91.50650437615718 137.75,91.36070034344372 137.825,91.09845796142045 137.89999999999998,90.82631319778433 137.975,90.55655879410003 138.05,90.2728043416764 138.125,89.99519619508146 138.2,89.7449049632806 138.27499999999998,89.66705175611744 138.35,89.75992926641736 138.425,89.81388017313569 138.5,89.75890488211257 138.575,89.67319806194612 138.64999999999998,89.43349213462798 138.725,89.20437151179254 138.8,89.07564055082538 138.875,88.95476320286154 138.95,88.64949693985226 139.02499999999998,88.24896348860476 139.1,88.11852551275449 139.175,88.21208594592424 139.25,88.30257322617966 139.325,88.39476781360972 139.39999999999998,88.51666954587834 139.475,88.68910757051604 139.55,88.90764288886876 139.625,89.20915333590855 139.7,89.50280997508402 139.77499999999998,89.56666323093836 139.85,89.43622496279659 139.925,89.28086000990518 140.0,89.12890967136306 140.075,89.13608036149651 140.14999999999998,89.388078900472 140.225,89.53593170179502 140.3,89.50963917130571 140.375,89.5226147058329 140.45,89.65851609711882 140.52499999999998,89.89753828964626 140.6,90.04948833589688 140.675,89.99143989195943 140.75,89.89207461439594 140.825,89.8589528552081 140.89999999999998,89.80500194848977 140.975,89.62573469515355 141.05,89.41778468128354 141.125,89.21051759028337 141.2,89.02476276454456 141.27499999999998,88.91208052349577 141.35,88.97149481317292 141.425,89.14393283781061 141.5,89.35324869742034 141.575,89.46900412386029 141.64999999999998,89.47856504403822 141.725,89.56802793998887 141.8,89.7500268848045 141.875,89.88183099868598 141.95,89.98358650629397 142.02499999999998,90.18060975424635 142.1,90.22943873944078 142.175,90.20109744034193 142.25,90.29841394929586 142.325,90.37046231206529 142.39999999999998,90.3745598492844 142.475,90.48519335420046 142.55,90.60504631785953 142.625,90.40256014162402 142.7,90.13212271763935 142.77499999999998,90.07714742661625 142.85,90.01534290689462 142.925,89.86066087687308 143.0,89.63905240560602 143.075,89.40515132268162 143.14999999999998,89.19242084872263 143.225,89.07290934649849 143.3,88.87895925146046 143.375,88.58666826316369 143.45,88.37837678785874 143.52499999999998,88.16974385111888 143.6,88.12467094170863 143.675,88.15471954798213 143.75,87.97067183455694 143.825,87.72652690858476 143.89999999999998,87.39974912728131 143.975,86.73765595706573 144.05,85.4435188399679 144.125,84.61718369385787 144.2,84.68103681980489 144.27499999999998,84.47376982623523 144.35,84.21903969321083 144.425,84.06674789323378 144.5,83.9847971488515 144.575,84.03123590400146 144.64999999999998,84.03977243987461 144.725,84.00596775781693 144.8,84.02952859682684 144.875,84.0264554439125 144.95,83.98752890528458 145.02499999999998,83.84343266689827 145.1,83.59587387354401 145.175,83.39748477985192 145.25,83.33670464443507 145.325,83.27080278235533 145.39999999999998,83.17041312048705 145.475,83.24587629246673 145.55,83.79494491580093 145.625,84.0206488457697 145.7,83.56889585451495 145.77499999999998,83.30801938318504 145.85,82.97407068441031 145.925,82.2583674843283 146.0,81.50681200274508 146.075,80.89115778254046 146.14999999999998,80.35506381685894 146.225,79.80360402165209 146.3,79.26170560129884 146.375,78.97146425848615 146.45,78.5972228830523 146.52499999999998,78.165615954074 146.6,77.73332623213321 146.675,77.16889168184316 146.75,76.43782343167985 146.825,75.78802352265828 146.89999999999998,75.37417154903746 146.975,74.86163968896237 147.05,74.57788666551947 147.125,74.49013296039985 147.2,74.02540602598276 147.27499999999998,73.4309240710621 147.35,73.0 147.425,73.03414711779763 147.5,73.33326752965394 147.575,73.6863383285992 147.64999999999998,74.16540823464805 147.725,74.5594543408308 147.8,74.73564831134534 147.875,74.63491783757883 147.95,74.61545414606601 148.02499999999998,74.71891722066331 148.1,74.66325874695568 148.175,74.43140532842848 148.25,74.37028425120604 148.325,74.39760084123179 148.39999999999998,74.33409011854789 148.475,74.54101399436409 148.55,74.91593761065428 148.625,74.96920416552206 148.7,75.11500663934747 148.77499999999998,75.65382979579216 148.85,76.34324085510686 148.925,77.04289439344231 149.0,77.61347511965367 149.075,77.92215583462806 149.14999999999998,78.06932571308121 149.225,78.09869136400803 149.3,78.19054413275798 149.375,78.51527239848468 149.45,78.95200154127838 149.52499999999998,79.48741199950703 149.6,80.19082161362667 149.675,80.96184153368986 149.75,81.66286056051985 149.825,82.3017338335311 149.89999999999998,82.98738719321992 149.975,83.73962598739499 150.05,84.27093923317287 150.125,85.00473949958395 150.2,85.87068482168209 150.27499999999998,86.43102345859472 150.35,86.80970282590076 150.425,86.95687270435393 150.5,87.00911630389763 150.575,87.15492033661107 150.64999999999998,87.28433422044809 150.725,87.53872298946806 150.8,87.91433017816479 150.875,88.10862176711458 150.95,88.18545058997297 151.02499999999998,88.22745034646888 151.1,88.26910864152987 151.175,88.4774000194043 151.25,88.85300769525355 151.325,89.20300566605283 151.39999999999998,89.52636964492788 151.475,89.80909968056989 151.55,90.00441562134763 151.625,90.05597629802148 151.7,90.11197597334936 151.77499999999998,90.2823652293775 151.85,90.43499845831265 151.925,90.62485101613157 152.0,90.77680135467371 152.075,90.7388991353969 152.14999999999998,90.69553353316128 152.225,90.74811859413991 152.3,90.70509445333923 152.375,90.72114314078075 152.45,90.83621564435086 152.52499999999998,90.86353255914494 152.6,90.94719061070185 152.675,91.0236779721253 152.75,90.90177623985667 152.825,90.81265480534096 152.89999999999998,90.73070406095869 152.975,90.64568016366206 153.05,90.75153320848918 153.125,90.94206868917796 153.2,91.03699496808741 153.27499999999998,90.99704398020106 153.35,90.89016658354602 153.425,90.8010451490303 153.5,90.78089892436965 153.575,90.78636230732847 153.64999999999998,90.71943586608295 153.725,90.59343659659521 153.8,90.6480704261834 153.875,90.78533792302369 153.95,90.8795812790633 154.02499999999998,91.05167784226607 154.1,91.22377440546884 154.175,91.32006653011803 154.25,91.39621243010654 154.325,91.54782130721375 154.39999999999998,91.74962498277826 154.475,91.87938003575867 154.55,91.95381794655906 154.625,91.99957374636233 154.7,91.99411036340351 154.77499999999998,91.89918408449404 154.85,91.80937972710846 154.925,91.85308679077902 155.0,91.90054993023375 155.075,91.91898884771976 155.14999999999998,91.91864738628483 155.225,91.81006264997832 155.3,91.71035591097989 155.375,91.77523358361586 155.45,91.82201380020074 155.52499999999998,91.73425821142472 155.6,91.61201501772116 155.675,91.55669826526314 155.75,91.58060056570795 155.825,91.57684448992377 155.89999999999998,91.5662592179179 155.975,91.42250427858234 156.05,91.12099451355608 156.125,90.89699584472137 156.2,90.83143524921556 156.27499999999998,90.89460561467689 156.35,91.00660496533266 156.425,91.01992196129478 156.5,90.90177630481034 156.575,90.78670380124024 156.64999999999998,90.73753335461087 156.725,90.72216759003919 156.8,90.66958252906056 156.875,90.46026666945085 156.95,90.24856057979665 157.02499999999998,90.10651262286738 157.1,89.93373313679476 157.175,89.77802672246844 157.25,89.70973443548321 157.325,89.62266176957705 157.39999999999998,89.41915075436108 157.475,89.28154179608585 157.55,89.29622463778767 157.625,89.39968745257029 157.7,89.46217489516177 157.77499999999998,89.41198006422763 157.85,89.340956085763 157.925,89.30339532792112 158.0,89.3228586297119 158.075,89.35837061894422 158.14999999999998,89.39661429965595 158.225,89.52671110636281 158.3,89.58236932025576 158.375,89.5082721888768 158.45,89.41368737140226 158.52499999999998,89.26446891920054 158.6,88.93461928405613 158.675,88.56276826857409 158.75,88.12843058994459 158.825,87.65618984764058 158.89999999999998,87.25360704320052 158.975,86.91624389246068 159.05,86.6891720382348 159.125,86.51673401359712 159.2,86.35556421631198 159.27499999999998,86.22307717956063 159.35,86.13668743652433 159.425,86.00556624551268 159.5,85.68049554404602 159.575,85.43225327571574 159.64999999999998,85.41381435822973 159.725,85.38957059634997 159.8,85.43566789006499 159.875,85.6122034519218 159.95,85.83039730883961 160.02499999999998,86.1387367897169 160.1,86.62804891497183 160.175,87.03131438246706 160.25,87.29628718937322 160.325,87.65379688954202 160.39999999999998,88.17828142625072 160.475,88.72325312942564 160.55,89.06778771726611 160.625,89.33924955803238 160.7,89.6216381647163 160.77499999999998,89.85178317185651 160.85,89.96344106107735 160.925,90.062123415771 161.0,90.4841691647567 161.075,90.83109378778063 161.14999999999998,90.87616669719088 161.225,90.92021522229635 161.3,90.81094756311998 161.375,90.57636355732573 161.45,90.37934030937336 161.52499999999998,90.29431641207675 161.6,90.21578028204374 161.675,90.19358528877355 161.75,90.31992601969621 161.825,90.38275492372262 161.89999999999998,90.31958455826128 161.975,90.12256131030891 162.05,89.99417181077668 162.125,89.91529421930875 162.2,89.78622179690667 162.27499999999998,89.77973402964308 162.35,89.89924553186722 162.425,90.06007383524059 162.5,90.13690246323797 162.575,90.12597569732033 162.64999999999998,90.0798784036053 162.725,90.10173193544058 162.8,90.30660879639626 162.875,90.50397350578356 162.95,90.71567959543776 163.02499999999998,90.8652397039354 163.1,90.94889775549231 163.175,91.1578721536671 163.25,91.3501149415305 163.325,91.42796814869367 163.39999999999998,91.3945049280709 163.475,91.51128473881565 163.55,91.71308844685699 163.625,91.80562449572197 163.7,91.85786809526567 163.77499999999998,91.81689272307453 163.85,91.7120640625522 163.925,91.62840604347214 164.0,91.64616184322729 164.075,91.82201370277023 164.14999999999998,92.0938163229579 164.225,92.22425452614603 164.3,92.18191330821519 164.375,92.27137620416583 164.45,92.40966789044991 164.52499999999998,92.54283703815025 164.6,92.75181072183469 164.675,92.77503009940966 164.75,92.7402010330472 164.825,92.85868792362872 164.89999999999998,93.05639386711312 164.975,93.12366176979357 165.05,93.16463710950786 165.125,93.2858553018468 165.2,93.31044052516147 165.27499999999998,93.25341646552882 165.35,93.23088001082368 165.425,93.29029420307033 165.5,93.3370740299332 165.575,93.3281962924398 165.64999999999998,93.26707537760153 165.725,93.33400136417137 165.8,93.522828855672 165.875,93.63551096681346 165.95,93.66419350000942 166.02499999999998,93.6525839736061 166.1,93.58634107229028 166.175,93.49858548351426 166.25,93.33092791896553 166.325,93.15951450597045 166.39999999999998,93.12810024881826 166.475,93.21073359130204 166.55,93.22883107982996 166.625,93.12810057358661 166.7,93.12127134488807 166.77499999999998,93.24351453859163 166.85,93.41492788663304 166.925,93.5235119084492 167.0,93.51326816283192 167.075,93.41697655781209 167.14999999999998,93.26912375648908 167.225,93.18273450060528 167.3,93.26844119086441 167.375,93.40468365386324 167.45,93.47775601121543 167.52499999999998,93.46546359441909 167.6,93.46717067425588 167.675,93.58019434426276 167.75,93.75229090746554 167.825,93.89468032582974 167.89999999999998,93.90833875074995 167.975,93.86394908897789 168.05,93.78985195759891 168.125,93.747852201103 168.2,93.77585203876694 168.27499999999998,93.757071659846 168.35,93.63619460417367 168.425,93.36780672824258 168.5,92.99561444618662 168.575,92.79551804531991 168.64999999999998,92.90956616458523 168.725,92.96693165317599 168.8,92.84946953662126 168.875,92.70059316291432 168.95,92.55308263494707 169.02499999999998,92.52918069174743 169.1,92.54010765252606 169.175,92.51108349551102 169.25,92.47488858340884 169.325,92.3109870946443 169.39999999999998,92.18396350580545 169.475,92.1638172811448 169.55,92.16415874257973 169.625,92.12591506186801 169.7,92.09347622555002 169.77499999999998,92.14640274796358 169.85,92.22801203091092 169.925,92.38542575241186 170.0,92.65996074609248 170.075,92.84947184247648 170.14999999999998,92.87371560435624 170.225,92.89147120925038 170.3,92.91844620793387 170.375,92.90239752049234 170.45,92.87815375861258 170.52499999999998,92.8651783215159 170.6,92.83069084649568 170.675,92.83615422945451 170.75,92.95600699825258 170.825,93.14381075498511 170.89999999999998,93.23532241954531 170.975,93.20424942896705 171.05,93.17727397560787 171.125,93.2062981975766 171.2,93.20527381327182 171.27499999999998,93.2315662138538 171.35,93.32068683644866 171.425,93.36883270391223 171.5,93.4166371099409 171.575,93.51736755123058 171.64999999999998,93.53990397345888 171.725,93.50951436042612 171.8,93.49927071223935 171.875,93.51019738072648 171.95,93.54229475560953 172.02499999999998,93.47707562153865 172.1,93.44327093948095 172.175,93.47707558906181 172.25,93.38556411936261 172.325,93.31317432763511 172.39999999999998,93.2868817971458 172.475,93.28927202719028 172.55,93.39990517486117 172.625,93.56107422517911 172.7,93.67682926189707 172.77499999999998,93.60443956760005 172.85,93.49039226025559 172.925,93.50541614119349 173.0,93.5252205146972 173.075,93.50712338341445 173.14999999999998,93.56585406820822 173.225,93.60238992211598 173.3,93.50848848218698 173.375,93.41970860653669 173.45,93.43985483119732 173.52499999999998,93.56312166223847 173.6,93.59556049855645 173.675,93.55731685032156 173.75,93.57541430637264 173.825,93.44907357544997 173.89999999999998,93.39000074720775 173.975,93.44087850101175 174.05,93.34800134795702 174.125,93.2121004438236 174.2,93.07312602953068 174.27499999999998,92.98878505510393 174.35,93.0341990362271 174.425,93.11683250861822 174.5,93.14619822449869 174.575,93.08336967771746 174.64999999999998,92.95224920119618 174.725,92.90137196702153 174.8,92.95703018091449 174.875,93.03385900377286 174.95,92.95566433517479 175.02499999999998,92.80508058933955 175.1,92.84059254609502 175.175,92.90342102792259 175.25,93.00346848138877 175.325,93.21175992421686 175.39999999999998,93.31590566186934 175.475,93.38453882570647 175.55,93.51600073118585 175.625,93.57712206822295 175.7,93.61775597897916 175.77499999999998,93.68536534309453 175.85,93.63585382475226 175.925,93.48561160530562 176.0,93.32512528299651 176.075,93.23600384848079 176.14999999999998,93.2636622247098 176.225,93.19673578346429 176.3,93.12673618930444 176.375,93.1817110581287 176.45,93.23293027336761 176.52499999999998,93.26639346151354 176.6,93.2032229986217 176.675,93.10010206747286 176.75,93.02020083866734 176.825,93.0123469983262 176.89999999999998,93.06424868175928 176.975,93.02361506329459 177.05,92.9245919941332 177.125,92.93073826748503 177.2,93.10966324746546 177.27499999999998,93.31010029784625 177.35,93.3985383223396 177.425,93.37156286898043 177.5,93.32546557526541 177.575,93.37429456045984 177.64999999999998,93.47024457413741 177.725,93.60682849857118 177.8,93.66829155685788 177.875,93.57951200597593 177.95,93.60375576785569 178.025,93.6805844283299 178.1,93.70175516720265 178.17499999999998,93.70824293446624 178.25,93.63517018739205 178.325,93.60170722658397 178.4,93.57165888012514 178.475,93.41014791369659 178.54999999999998,93.28892910429781 178.625,93.20424696072764 178.7,93.02190736639794 178.775,92.8887382186976 178.85,92.81737326595055 178.92499999999998,92.7839100453278 179.0,92.90581168016593 179.075,93.08234643010188 179.15,93.17488231658268 179.225,93.23156475239625 179.29999999999998,93.27185681199553 179.375,93.2387350528077 179.45,93.20697913935956 179.525,93.20458897426875 179.6,93.24010083359373 179.67499999999998,93.38829428443081 179.75,93.55799980566825 179.825,93.67238857444765 179.9,93.77550931073549 179.975,93.9455570078982 180.04999999999998,94.09648296213555 180.125,94.19072625322148 180.2,94.23375039402218 180.275,94.20609201779317 180.35,94.20916517070751 180.42499999999998,94.28701837787067 180.5,94.30067693269821 180.575,94.20506854283974 180.65,94.07736271314457 180.725,93.97629090785044 180.79999999999998,93.93599884825117 180.875,93.94043784690521 180.95,93.88136501866299 181.025,93.83731662346486 181.1,93.86087720266009 181.17499999999998,93.78712221472956 181.25,93.68297728899795 181.325,93.53239360811638 181.4,93.3425418622183 181.475,93.22576214890407 181.54999999999998,93.16703078209677 181.625,93.15439677395818 181.7,93.12264086051005 181.775,93.0802996425792 181.85,93.09634833002073 181.92499999999998,92.98844651658408 182.0,92.86791063005515 182.075,92.85254486548348 182.15,92.77161857035965 182.225,92.7063994687656 182.29999999999998,92.64664371765352 182.375,92.59679034815431 182.45,92.59166842663042 182.525,92.56571735757603 182.6,92.50698631553708 182.67499999999998,92.48137683782495 182.75,92.46532808542976 182.825,92.36801157647581 182.9,92.26762191460753 182.975,92.25737807155974 183.04999999999998,92.26967068321709 183.125,92.28367047214172 183.2,92.36664517862992 183.275,92.41581562525928 183.35,92.35469402840751 183.42499999999998,92.45508369027579 183.5,92.61352150379001 183.575,92.65415495987054 183.65,92.75351975028153 183.725,92.83171406163444 183.79999999999998,92.86722605086676 183.875,92.99220093604971 183.95,93.147224070261 184.025,93.24488161845103 184.1,93.31863670381206 184.17499999999998,93.40024527226906 184.25,93.56312162976164 184.325,93.84619234739455 184.4,94.11321437758592 184.475,94.25082288118547 184.54999999999998,94.17638428837158 184.625,94.01453169812393 184.7,93.9469227562074 184.775,93.9233619171975 184.85,93.93463014455006 184.92499999999998,93.9103863826703 185.0,93.75843633641968 185.075,93.58770607363229 185.15,93.39409792718169 185.225,93.1096609091334 185.29999999999998,92.97136902798832 185.375,93.00107588053538 185.45,93.03283133930783 185.525,93.05331876558873 185.6,93.06151374259646 185.67499999999998,93.00722176416521 185.75,92.86073562050275 185.825,92.69751786652893 185.9,92.57903156053041 185.975,92.50254465378264 186.04999999999998,92.53361764436092 186.125,92.58347101386012 186.2,92.53566641297047 186.275,92.45405713002312 186.35,92.42708167666396 186.42499999999998,92.52986108142422 186.5,92.78049296273913 186.575,92.96283278440667 186.65,93.14858761014548 186.725,93.44429266068533 186.79999999999998,93.61536483958332 186.875,93.65019367860795 186.95,93.70414458532628 187.025,93.77926597110269 187.1,93.74512015237842 187.17499999999998,93.69355980047291 187.25,93.79702196571886 187.325,93.89263042053098 187.4,93.93326407147251 187.475,93.93667868582178 187.54999999999998,94.00019051271804 187.625,94.12243367394476 187.7,94.246042323666 187.775,94.48540597762837 187.85,94.64418483037866 187.92499999999998,94.55472242158054 188.0,94.35667560124423 188.075,94.29213997462621 188.15,94.2538964887755 188.225,94.20540951712216 188.29999999999998,94.19140959829019 188.375,94.09443507040051 188.45,93.91892470476934 188.525,93.67887812793712 188.6,93.5760986582232 188.67499999999998,93.63687872868638 188.75,93.58839152969522 188.825,93.56414815753747 188.9,93.60785479900917 188.975,93.65190322668414 189.04999999999998,93.54639164329197 189.125,93.46614820608433 189.2,93.5289766879119 189.275,93.4313191721987 189.35,93.27049155083884 189.42499999999998,93.22541864142859 189.5,93.26024770779105 189.575,93.2243942571238 189.65,93.20936995398706 189.725,93.24283294727198 189.79999999999998,93.24488171588153 189.875,93.17419919885182 189.95,93.06424861680561 190.025,93.04410239214498 190.1,93.09019968586 190.17499999999998,92.9952734719042 190.25,92.86483552853076 190.325,92.78527537143816 190.4,92.70537407767895 190.475,92.69342302488704 190.54999999999998,92.87542148255017 190.625,92.93859188048833 190.7,92.80405688704829 190.775,92.81191072738943 190.85,92.90820272213126 190.92499999999998,93.00551916613153 191.0,93.09464008101791 191.075,93.22302876862928 191.15,93.30327158877708 191.225,93.21107719620802 191.29999999999998,93.12127283882245 191.375,93.18922366437275 191.45,93.33263746704172 191.525,93.40980775133504 191.6,93.36166168901045 191.67499999999998,93.32785700695275 191.75,93.36746653340418 191.825,93.37975914506153 191.9,93.39785660111262 191.975,93.39444198676335 192.04999999999998,93.29883327213655 192.125,93.16907792686462 192.2,93.0734687250853 192.275,92.90888444335825 192.35,92.69991017509079 192.42499999999998,92.53225267549573 192.5,92.36425416914142 192.575,92.18259749768157 192.65,91.9941114026622 192.725,91.92786791676336 192.79999999999998,91.91830699658543 192.875,91.91591676654095 192.95,91.90806315353765 193.025,91.93367276115711 193.1,91.97464813334824 193.17499999999998,92.02586734858716 193.25,92.05898910777499 193.325,92.04225749746362 193.4,92.00606258536145 193.475,91.95859944590671 193.54999999999998,91.92786791676336 193.625,92.00981866114563 193.7,92.14435436907603 193.775,92.36527913802921 193.85,92.62205748755699 193.92499999999998,92.7364469383499 194.0,92.80337337959541 194.075,92.95600602394755 194.15,93.1410775370945 194.225,93.27834496898113 194.29999999999998,93.45283098278436 194.375,93.5778050885233 194.45,93.61058528884571 194.525,93.61058528884571 194.6,93.55185392203842 194.67499999999998,93.45078133730028 194.75,93.4156108095029 194.825,93.49346378932822 194.9,93.58429191395871 194.975,93.61468198166713 195.04999999999998,93.63277943771823 195.125,93.6375598978072 195.2,93.59931631452596 195.275,93.53239049034029 195.35,93.48356205725204 195.42499999999998,93.51326913713694 195.5,93.55390304789316 195.575,93.5194158976413 195.65,93.49858697744864 195.725,93.4463434428586 195.79999999999998,93.31693033846562 195.875,93.22541945334945 195.95,93.28312575383845 196.025,93.3599537972528 196.1,93.4514653643825 196.17499999999998,93.64131750000259 196.25,93.78507195218563 196.325,93.80214466668676 196.4,93.81819325669778 196.475,93.90765547063492 196.54999999999998,93.90389939485073 196.625,93.84448510517358 196.7,93.80009511863318 196.775,93.77448567339789 196.85,93.83970412545527 196.92499999999998,93.93838586308907 197.0,94.01897004724128 197.075,94.04696943022955 197.15,94.01350656685196 197.225,93.98618965205787 197.29999999999998,93.94828743278107 197.375,93.89570237180244 197.45,93.77926480193666 197.525,93.6293640114481 197.6,93.57951073937939 197.67499999999998,93.55424288548637 197.75,93.46478080145658 197.825,93.38863548605107 197.9,93.31556345346723 197.975,93.20254040052019 198.04999999999998,93.0837118211659 198.125,92.98707823508181 198.2,92.98161485212299 198.275,92.88976172612786 198.35,92.64254442668536 198.42499999999998,92.44347322204428 198.5,92.35674269958656 198.575,92.34206011769942 198.65,92.35401110553765 198.725,92.44074211514788 198.79999999999998,92.55683887311544 198.875,92.65586246190618 198.95,92.77776338225395 199.025,92.9686395124568 199.1,93.20117393772064 199.17499999999998,93.36063574581763 199.25,93.4309763142599 199.325,93.4637566120128 199.4,93.4531713075301 199.475,93.49312229541646 199.54999999999998,93.73419348389129 199.625,94.02170320017824 199.7,94.1384826536778 199.775,94.2511647323424 199.85,94.42018804520035 199.92499999999998,100.0" opacity="1" fill="#59A14F" stroke="black" stroke-width="0"/>
<line x1="40" y1="100.0" x2="40" y2="70.0" stroke="black" stroke-width="1" />
<line x1="39.5" y1="100.0" x2="43.5" y2="100.0" stroke="black" stroke-width="1" />
<line x1="39.5" y1="70.0" x2="43.5" y2="70.0" stroke="black" stroke-width="1" />
<text text-anchor="end" font-family="Arial" x="36" y="104.0" font-size="8" >0</text>
<text text-anchor="end" font-family="Arial" x="36" y="74.0" font-size="8" >18.3</text>
<text text-anchor="start" font-family="Arial" x="39.5" y="66" font-size="7" >ChrVII: 472,000-522,000</text>
</svg>
