<svg viewBox="0 0 320 210" xmlns="http://www.w3.org/2000/svg">
<polygon points="50.0,100.0 50.075,95.36398803718991 50.15,95.49319686990992 50.225,95.58158133076824 50.3,95.61424089814912 50.375,95.63567377200445 50.45,95.67466114245663 50.525,95.7438583244336 50.6,95.83163043854589 50.675,95.93593638074482 50.75,96.03779285830232 50.825,96.11086832046627 50.9,96.18312737207363 50.975,96.28212614088281 51.05,96.31825574434374 51.125,96.32621656267128 51.2,96.38826953102038 51.275,96.43807531206257 51.35,96.4515474258333 51.425,96.42786932587585 51.5,96.41398908448407 51.575,96.34867051273731 51.65,96.26600156644719 51.725,96.21150142470475 51.8,96.20803136921037 51.875,96.22742296428828 51.95,96.18843565207904 52.025,96.1406713439574 52.1,96.08127225351781 52.175,95.9820694208981 52.25,95.95614605600993 52.325,95.96390257755522 52.4,95.972883753764 52.475,95.96655598952131 52.55,95.99717420046748 52.625,96.04493866390361 52.7,95.99043823094652 52.775,95.865923836584 52.85,95.84347039129003 52.925,95.95900298818586 53.0,96.02493433379347 53.075,96.02411784557965 53.15,96.01983128245718 53.225,96.01595296344159 53.3,96.0155447193347 53.375,96.03534446144795 53.45,96.08576260865047 53.525,96.08576260865048 53.6,96.05963498580869 53.675,96.11148181265658 53.75,96.13618044522406 53.825,96.12332094999971 53.9,96.06575893862687 53.975,95.98513119345695 54.05,95.94349044986731 54.125,95.89695071875191 54.2,95.92328250247577 54.275,96.06453474990684 54.35,96.11189108572191 54.425,96.06024869155641 54.5,96.10229746569554 54.575,96.16047182381442 54.65,96.17108613176528 54.725,96.19700959372501 54.8,96.26416526395282 54.875,96.30029447912754 54.95,96.31111275381738 55.025,96.31192924203118 55.1,96.34234342799547 55.175,96.3227478855929 55.25,96.24906030965465 55.325,96.27498363571421 55.4,96.3662257082493 55.475,96.42746205248443 55.55,96.46399984180933 55.625,96.52176622762164 55.7,96.50870241620073 55.775,96.45195669889861 55.85,96.45338555327278 55.925,96.45358967532623 56.0,96.4070502936684 56.075,96.3586737941152 56.15,96.3356080409038 56.225,96.33703691469226 56.3,96.26396170491435 56.375,96.17251551032581 56.45,96.17639375168415 56.525,96.23987526377846 56.6,96.25579678394767 56.675,96.24436594895438 56.75,96.27580066752869 56.825,96.26130807939086 56.9,96.19864307492468 56.975,96.19231536892491 57.05,96.24518255365405 57.125,96.29886632366855 57.2,96.36704272064948 57.275,96.39480331991888 57.35,96.39194559175625 57.425,96.41603187757768 57.5,96.43297394977122 57.575,96.44889545052614 57.65,96.45359025775552 57.725,96.42705441022113 57.8,96.44297593039035 57.875,96.46481699010967 57.95,96.42501346148696 58.025,96.37888232393603 58.1,96.41174566391277 58.175,96.48890331475971 58.25,96.51339759230201 58.325,96.50339570875444 58.4,96.51156053264957 58.475,96.49768036891503 58.55,96.42174745038879 58.625,96.34152796874008 58.7,96.34499808247737 58.775,96.402151830329 58.85,96.43317822713915 58.925,96.44481297062849 59.0,96.47338963099689 59.075,96.54809783661672 59.15,96.63709456656385 59.225,96.68159290241594 59.3,96.70078029778315 59.375,96.75732167947442 59.45,96.83835764933694 59.525,96.9108204929545 59.6,96.92878305892944 59.675,96.9179645900965 59.75,96.95613537526333 59.825,97.04329522028681 59.9,97.09207998336122 59.975,97.09697889322975 60.05,97.05084730914969 60.125,96.90061347780936 60.2,96.6799578680715 60.275,96.46746723754325 60.35,96.33029739235259 60.425,96.16067229597762 60.5,95.93185195941618 60.575,95.6985409376788 60.65,95.49258227110394 60.725,95.36949694467299 60.8,95.19374793430845 60.875,94.96431517334372 60.95,94.74753803793593 61.025,94.55872562385099 61.1,94.45299088552082 61.175,94.36623949816166 61.25,94.22784523127926 61.325,94.08271493663295 61.4,94.01943758542072 61.475,94.0057614854967 61.55,94.06699810153216 61.625,94.2033516332378 61.7,94.28316335613736 61.775,94.387877969558 61.85,94.51729115730319 61.925,94.64527562657437 62.0,94.79612182407507 62.075,94.92328986337539 62.15,95.00616341707672 62.225,95.05392797758438 62.3,95.1684404495707 62.375,95.27315506299135 62.45,95.37072540454119 62.525,95.48095131340503 62.6,95.51197786552966 62.675,95.49564810125354 62.75,95.47360291948077 62.825,95.48115543545848 62.9,95.49891385996565 62.975,95.50197569076744 63.05,95.5140187560209 63.125,95.58954343044023 63.2,95.77161981676127 63.275,95.8520437310924 63.35,95.77182395822904 63.425,95.75631068216671 63.5,95.84796099880872 63.575,95.9053191016855 63.65,95.9247106967634 63.725,95.93920336255846 63.8,95.94226519336023 63.875,96.0043182976095 63.95,96.09209039230747 64.025,96.15904194048184 64.1,96.24252737498577 64.175,96.32907495092044 64.25,96.39561874034565 64.325,96.39378164186459 64.4,96.37786025759553 64.475,96.40929466554087 64.55,96.38153420217164 64.625,96.27579946384148 64.7,96.16659465060265 64.775,96.13128171008431 64.85,96.1759844397902 64.925,96.1719020569641 65.0,96.08249708291007 65.075,96.02554722414018 65.15,96.02268951539186 65.225,96.01003394807786 65.3,96.05085835876818 65.375,96.11760588196063 65.45,96.11597298319026 65.525,96.0682088303831 65.6,95.99227591185688 65.675,95.86735338987332 65.75,95.74957496503177 65.825,95.73896061825229 65.9,95.71201656543961 65.975,95.59750448173949 66.05,95.5393296965058 66.125,95.56709029577522 66.2,95.60342382714649 66.275,95.66751766657254 66.35,95.73304053510152 66.425,95.72977458224629 66.5,95.68160177763173 66.575,95.632000118643 66.65,95.61975279543591 66.725,95.64159385515522 66.8,95.58974685357853 66.875,95.44502470596758 66.95,95.34459696629837 67.025,95.27784913247696 67.1,95.18721894074447 67.175,95.19946626395156 67.25,95.28499340434776 67.325,95.33602378181048 67.4,95.39685176545285 67.475,95.50483207934269 67.55,95.618323455704 67.625,95.65486110912873 67.7,95.64547164998444 67.775,95.62812141134123 67.85,95.51422161614423 67.925,95.48891048151623 68.0,95.57954055676285 68.075,95.64057305074488 68.15,95.69976815503118 68.225,95.7640661747536 68.3,95.82326141494006 68.375,95.87347544008915 68.45,95.92021937091525 68.525,95.99758143503028 68.6,96.03636462518608 68.675,95.93818191747587 68.75,95.8971533459035 68.825,95.89409163158759 68.9,95.84612333731266 68.975,95.79917551740483 69.05,95.75855571412572 69.125,95.74161371958941 69.2,95.72079330896598 69.275,95.69140008272653 69.35,95.74875837974642 69.425,95.77488600258822 69.5,95.74365544489599 69.575,95.75100383882024 69.65,95.72957131442247 69.725,95.68731843764421 69.8,95.63506334727509 69.875,95.65363845413917 69.95,95.66425282033296 70.025,95.60240403228025 70.1,95.62261211557195 70.175,95.7736624351261 70.25,95.88429637453943 70.325,95.9008300473116 70.4,95.90430012222026 70.475,95.88715386973034 70.55,95.87837662143193 70.625,95.93267269936383 70.7,95.92634489629253 70.775,95.86714950079158 70.85,95.90225828042784 70.925,95.98268196178725 71.0,96.01125904927046 71.075,96.01350439185843 71.15,95.9967663834754 71.225,95.94491942072733 71.3,95.95185957054468 71.375,95.93634629448236 71.45,95.8153019167856 71.525,95.57137639295426 71.6,95.31152931012508 71.675,95.12496175327037 71.75,94.91063384953227 71.825,94.66732059478974 71.9,94.44115335956542 71.975,94.32970271838087 72.05,94.24662504262609 72.125,94.10414829584604 72.2,94.07720420420475 72.275,94.08720618482387 72.35,93.98432888344169 72.425,93.85716125184189 72.5,93.79020921830978 72.575,93.73346328745025 72.65,93.74081164254588 72.725,93.8610390466711 72.8,93.95146474747825 72.875,94.01535491137997 72.95,94.15538264004773 73.025,94.4374789878745 73.1,94.74202880040957 73.175,94.92471803824871 73.25,95.0233089900658 73.325,95.14353687954878 73.4,95.33459512157941 73.475,95.49952562428241 73.55,95.6138336247577 73.625,95.69711542256593 73.7,95.67629497311387 73.775,95.65016735027207 73.85,95.67119192177759 73.925,95.69037939480204 74.0,95.70221847390222 74.075,95.69364534765725 74.15,95.66935486212515 74.225,95.57505095878827 74.3,95.4754397655758 74.375,95.45849767396794 74.45,95.49707631495548 74.525,95.52218307514399 74.6,95.49503484203493 74.675,95.47809271159845 74.75,95.56361985199464 74.825,95.70099354743842 74.9,95.79039852149245 74.975,95.82407829144007 75.05,95.8236701249904 75.125,95.80754448276772 75.2,95.85837087407717 75.275,95.95165443894712 75.35,96.00431792873762 75.425,96.02656723256383 75.5,96.04881653639006 75.575,96.13189403741605 75.65,96.21007235677318 75.725,96.2335463929201 75.8,96.2858016386037 75.875,96.32478858194106 75.95,96.32131852644669 76.025,96.31152080378119 76.1,96.2980487482534 76.175,96.32989178859182 76.25,96.31948156386579 76.325,96.24946814606105 76.4,96.2180337381157 76.475,96.15761409565178 76.55,96.05126677760387 76.625,96.00064450834789 76.7,95.74957453791696 76.775,95.44482087512877 76.85,95.41542729943176 76.925,95.46298764081442 77.0,95.45727222331777 77.075,95.4086913493251 77.15,95.32847180943345 77.225,95.28070724892578 77.3,95.27539997846449 77.375,95.27703283840624 77.45,95.25110960941824 77.525,95.2059987520913 77.6,95.23702526538733 77.675,95.2772371546028 77.75,95.30336454447288 77.825,95.29683263876242 77.9,95.21865398936204 77.975,95.21171383954469 78.05,95.26213198674722 78.125,95.31622433091188 78.2,95.62363163863786 78.275,95.89246001416166 78.35,95.87735498220624 78.425,95.8001969430731 78.5,95.73283666543409 78.575,95.73630674034277 78.65,95.7740693202313 78.725,95.81183190011984 78.8,95.76774163364587 78.875,95.64424827666542 78.95,95.57280569385755 79.025,95.6007704151804 79.1,95.61342594366579 79.175,95.55810902249489 79.25,95.49891385996565 79.325,95.49197371014832 79.4,95.46829555194793 79.475,95.36603040316871 79.55,95.3445975875563 79.625,95.32541011453185 79.7,95.21579692128594 79.775,95.16844062429949 79.85,95.20252898781159 79.925,95.32275641135112 80.0,95.50095447865657 80.075,95.59750372458141 80.15,95.61322106445425 80.225,95.62159006864576 80.3,95.67078348352759 80.375,95.76672082923551 80.45,95.79570616082563 80.525,95.73753137559193 80.6,95.687725672207 80.675,95.63689928089757 80.75,95.55116801844791 80.825,95.4521688225239 80.9,95.39174869470224 80.975,95.35072016195849 81.05,95.2343705914911 81.125,95.12189934003929 81.2,95.06903172819534 81.275,95.04106700687248 81.35,95.01310230496394 81.425,94.91675716167823 81.5,94.77121862292503 81.575,94.45401343721906 81.65,94.19600327814217 81.725,94.15824069825362 81.8,94.13742024880158 81.875,94.1070060822516 81.95,94.08251143583742 82.025,94.0951670031514 82.1,94.0816949476236 82.175,94.12272348036737 82.25,94.29928868773108 82.32499999999999,94.47156746787246 82.4,94.57709856950692 82.475,94.67303593462914 82.55,94.7932638241121 82.625,94.9437017775059 82.69999999999999,95.0620925685078 82.775,95.12414567275707 82.85,95.1535392484541 82.925,95.18579053289943 83.0,95.2225325025207 83.07499999999999,95.34112741557607 83.15,95.4150195406826 83.225,95.38031879159583 83.3,95.39072901632186 83.375,95.37480749615264 83.44999999999999,95.43461504425653 83.525,95.5681103818561 83.6,95.69037900651584 83.675,95.7434506821703 83.75,95.66404757224954 83.82499999999999,95.56708982983177 83.9,95.54014571877617 83.975,95.53953335261582 84.05,95.52912312788979 84.125,95.48401215407699 84.19999999999999,95.43420637303481 84.275,95.42685797911057 84.35,95.41706012054489 84.425,95.41971357133959 84.5,95.4868692415674 84.57499999999999,95.63118330038593 84.65,95.76896568646572 84.725,95.87368010574328 84.8,95.97349530452334 84.875,96.04840774868248 84.94999999999999,96.00084752378568 85.025,95.77427252981221 85.1,95.55810776056475 85.175,95.48380739135132 85.25,95.49462586018426 85.32499999999999,95.51605867579667 85.4,95.49421761607735 85.475,95.49748356893258 85.55,95.57627442917884 85.625,95.64404271795304 85.69999999999999,95.77651744528535 85.775,95.94981660854657 85.85,96.01921773784821 85.925,96.05963371028852 86.0,96.11148071186521 86.07499999999999,96.12331975213678 86.15,96.07575931368258 86.225,95.95206154343404 86.3,95.76794391716417 86.375,95.57811075691181 86.44999999999999,95.50462681766925 86.525,95.67343546465904 86.6,95.89980633657906 86.675,95.94389668071028 86.75,95.96941185973449 86.82499999999999,96.13332139106406 86.9,96.3980672167987 86.975,96.53993155858979 87.05,96.48808475115618 87.125,96.43297202969599 87.19999999999999,96.33581041761079 87.275,96.17516682166357 87.35,96.10780691289644 87.425,96.04779535922495 87.5,95.95614498434003 87.57499999999999,95.96288085678944 87.65,96.03901838272687 87.725,96.11474764514308 87.8,96.24354831141343 87.875,96.40521297774707 87.94999999999999,96.5395251141894 88.025,96.53033969944131 88.1,96.38786299148988 88.175,96.33622013138095 88.25,96.31499151547922 88.32499999999999,96.14250885790469 88.4,95.90266592269114 88.475,95.8304071234698 88.55,95.8387761276613 88.625,95.79284866563471 88.69999999999999,95.71426167505587 88.775,95.4885029751531 88.85,95.08924037450204 88.925,94.83939554409233 89.0,94.79224340798794 89.07499999999999,94.71324860041702 89.15,94.62833382618116 89.225,94.57750745428604 89.3,94.55689128220192 89.375,94.66956617423229 89.44999999999999,94.80163288072225 89.525,94.93349550398739 89.6,95.17252197040145 89.675,95.33663561601875 89.75,95.42195814900374 89.82499999999999,95.61587363772215 89.9,95.8691886226392 89.975,96.00288817936378 90.05,96.09739626299702 90.125,96.23640289603979 90.19999999999999,96.39541349032079 90.275,96.71078128633106 90.35,97.24639694303715 90.425,97.69219848269978 90.5,97.91101684446639 90.57499999999999,98.02001763272332 90.65,98.07513058715524 90.725,98.14147019628406 90.8,98.15249280658476 90.875,98.03471476614655 90.94999999999999,97.85508779593115 91.025,97.60830467013021 91.1,97.25517397583674 91.175,97.00410433544907 91.25,96.81059711413475 91.32499999999999,96.48808473174188 91.4,96.06943088352907 91.475,95.69833745629758 91.55,95.44216476457363 91.625,95.27335631172694 91.69999999999999,95.2047716512248 91.775,95.15802799219904 91.85,95.04025004300809 91.925,94.84633455428968 92.0,94.6565015046989 92.07499999999999,94.63445643941198 92.15,94.7416200321163 92.225,94.78754706702809 92.3,94.78326056214853 92.375,94.79367076746026 92.44999999999999,94.83449517815056 92.525,94.94676226872029 92.6,95.13312570352156 92.675,95.30540467780604 92.75,95.46911031228817 92.82499999999999,95.66016855431882 92.9,95.870006025267 92.975,96.06228899961836 93.05,96.22721961880721 93.125,96.33254659838822 93.19999999999999,96.3337714666091 93.275,96.29662144702401 93.35,96.25987947740273 93.425,96.24171261464555 93.5,96.21742210969911 93.57499999999999,96.19558110822274 93.65,96.1102585169948 93.725,96.01575049160448 93.8,95.9379801251396 93.875,95.85776027461901 93.94999999999999,95.8122410566993 94.025,95.77631561412046 94.1,95.7436560855682 94.175,95.67629584675782 94.25,95.61587597132218 94.32499999999999,95.63200139998744 94.4,95.62363239579594 94.475,95.55055670066028 94.55,95.51075290023724 94.625,95.45176162678973 94.69999999999999,95.36194792327105 94.775,95.34867998979671 94.85,95.36235616737795 94.925,95.33092137114642 95.0,95.31255038633577 95.07499999999999,95.27029733482871 95.15,95.03596527570926 95.225,94.7608095824719 95.3,94.69324518277944 95.375,94.72059753794194 95.44999999999999,94.66752580404454 95.525,94.57812034463277 95.6,94.52423212252155 95.675,94.49259320423656 95.75,94.46075016389813 95.82499999999999,94.39951376142007 95.9,94.38440872946465 95.975,94.4566679363865 96.05,94.48055021664032 96.125,94.50545310716142 96.19999999999999,94.5822029992592 96.275,94.5889390270231 96.35,94.57036392015901 96.425,94.62425214227022 96.5,94.66446418680017 96.57499999999999,94.63057992592722 96.65,94.79367344663501 96.725,94.99881527553849 96.8,94.97187116448289 96.875,94.9606443544715 96.94999999999999,95.05964339508103 97.025,95.15211068529457 97.1,95.19783402526772 97.175,95.23131004203378 97.25,95.25682529871523 97.32499999999999,95.26376544853258 97.4,95.25315110175309 97.475,95.18538258000719 97.55,95.1541519058291 97.625,95.1549683940429 97.69999999999999,95.10965329817665 97.775,95.09699773086265 97.85,95.09516063238159 97.925,95.01473654332169 98.0,94.82735249825316 98.07499999999999,94.62935410640516 98.15,94.48136561765278 98.225,94.3899189377065 98.3,94.33664308175564 98.375,94.18171454025746 98.44999999999999,93.92737861697131 98.525,93.73774922931482 98.6,93.5903731067228 98.675,93.43626095636688 98.75,93.28684361324034 98.82499999999999,93.2074401344477 98.9,93.17110640893331 98.975,93.13905924654142 99.05,92.96596374521451 99.125,92.71489373595496 99.19999999999999,92.50689346055938 99.275,92.26949962888109 99.35,92.04986404698118 99.425,91.89105703115295 99.5,91.77062571853169 99.57499999999999,91.64651964593332 99.65,91.54180573142783 99.725,91.47383308762846 99.8,91.359729170378 99.875,91.23848105891398 99.94999999999999,91.18520551359208 100.025,91.02721556840694 100.1,90.91678596460447 100.175,90.93127863039953 100.25,90.92352199236838 100.32499999999999,90.84228141509466 100.4,90.69653826893025 100.475,90.54079325863258 100.55,90.54895814077065 100.625,90.62489142816877 100.69999999999999,90.5703910534546 100.775,90.570187047887 100.85,90.70633670992522 100.925,90.78982268802983 101.0,90.86595951505211 101.07499999999999,90.96842884412771 101.15,91.0325225864822 101.225,91.08151193755351 101.3,91.22113111148542 101.375,91.33217312027686 101.44999999999999,91.39177644925576 101.525,91.51118738458148 101.6,91.42688507357754 101.675,91.22500892572894 101.75,91.03109377093666 101.82499999999999,90.83758666610821 101.9,90.80574362576976 101.975,90.80737658278306 102.05,90.68102575002602 102.125,90.58284329470186 102.19999999999999,90.66285882902591 102.275,90.7496104687711 102.35,90.66734928123012 102.425,90.6185641104552 102.5,90.66265447400073 102.57499999999999,90.74634432177277 102.65,90.81778692399496 102.725,90.80268183379661 102.8,90.81288793646918 102.875,90.93025811720383 102.94999999999999,91.00149671385842 103.025,91.04681175148173 103.1,91.19255437345977 103.175,91.3458494725869 103.25,91.59263223922312 103.32499999999999,91.87554480346337 103.4,91.96923682599763 103.475,92.06966477922424 103.55,92.26664184247552 103.625,92.38993131037424 103.69999999999999,92.5371033109128 103.775,92.7081575917052 103.85,92.87941599455105 103.925,93.0451631019537 104.0,93.16967755455916 104.07499999999999,93.2870477352938 104.15,93.39890662058525 104.225,93.53056534506149 104.3,93.62568622196991 104.375,93.69549596425034 104.44999999999999,93.85940597317195 104.525,94.07250935814673 104.6,94.22294731154054 104.675,94.30827032988327 104.75,94.34317520102348 104.82499999999999,94.36869045770493 104.9,94.45564645247529 104.975,94.57567021990481 105.05,94.71488146035877 105.125,94.91267561366746 105.19999999999999,94.98718016317727 105.275,94.97717818255815 105.35,95.06229665173262 105.425,95.20518160379096 105.5,95.37684776538597 105.57499999999999,95.52973469806344 105.65,95.63097906184662 105.725,95.75916769199989 105.8,95.8571460058563 105.875,95.82387411114368 105.94999999999999,95.76100451868061 106.025,95.76692388350192 106.1,95.90960471350681 106.175,96.13454673105267 106.25,96.31519426299954 106.32499999999999,96.47542958960126 106.4,96.63505255004263 106.475,96.71323119944303 106.55,96.75038129668535 106.625,96.82672257580434 106.69999999999999,96.91204514761796 106.775,96.91980178564913 106.85,96.82917202103145 106.925,96.71098583744075 107.0,96.60545522116404 107.07499999999999,96.53585004746618 107.15,96.54054495176712 107.225,96.53258421109682 107.3,96.4266451371558 107.375,96.3053966374056 107.44999999999999,96.26518459287563 107.525,96.2143584151236 107.6,96.05228599004082 107.675,95.85857464667305 107.75,95.67690650445891 107.82499999999999,95.51973300865896 107.9,95.41869307755819 107.975,95.39093257536032 108.05,95.32193943777956 108.125,95.18538226937822 108.19999999999999,95.0529075032173 108.275,94.96207318943135 108.35,94.91859519204617 108.425,94.88634390760083 108.5,94.76060472267467 108.57499999999999,94.56811766509848 108.65,94.4338054315846 108.725,94.37828423304578 108.8,94.37154820528188 108.875,94.45564649130392 108.94999999999999,94.43278482131734 109.025,94.31765998317067 109.1,94.36522042162488 109.175,94.4472774871124 109.25,94.53484584804312 109.32499999999999,94.58934643631468 109.4,94.56913835302298 109.475,94.53464172598967 109.55,94.51790371760664 109.625,94.47993701566465 109.69999999999999,94.51075944573583 109.775,94.61955650022551 109.85,94.63996870557067 109.925,94.58220216444388 110.0,94.58261040855078 110.07499999999999,94.6503789302967 110.15,94.65629846984679 110.225,94.58301865265769 110.3,94.56995484123678 110.375,94.50912646930823 110.44999999999999,94.46564847192305 110.525,94.5521962225865 110.6,94.58097743212316 110.675,94.54443958455533 110.75,94.50769761493406 110.82499999999999,94.49830800047529 110.9,94.53137577313444 110.975,94.61179964863695 111.05,94.71998387102283 111.125,94.82469829030038 111.19999999999999,94.82429004619347 111.275,94.77917907238069 111.35,94.82980134163667 111.425,94.90920482042932 111.5,94.98003517297701 111.57499999999999,94.97574860985452 111.65,94.94349732540918 111.725,94.9598270896853 111.8,94.95921472352495 111.875,94.9918742520772 111.94999999999999,95.03882232437105 112.025,94.99248661823755 112.1,94.85429598805085 112.175,94.67160675021171 112.25,94.47544545684478 112.32499999999999,94.25968844634649 112.4,93.98289925249514 112.475,93.68957615289992 112.55,93.43932298131175 112.625,93.19886739648892 112.69999999999999,92.95739079369834 112.775,92.65222900328911 112.85,92.28215616691057 112.925,92.03006554738377 113.0,91.97454434884494 113.07499999999999,91.91045002406116 113.15,91.75592997905592 113.225,91.62876188151267 113.3,91.5350698589784 113.375,91.3576879692578 113.44999999999999,91.15662827079439 113.525,90.97598046704718 113.6,90.76614352028534 113.675,90.61917601067212 113.75,90.54916193278083 113.82499999999999,90.46588062033034 113.9,90.42668903075317 113.975,90.45526605999345 114.05,90.46608452882639 114.125,90.39525431217886 114.2,90.38566078922405 114.27499999999999,90.48853762466278 114.35,90.55957211867823 114.425,90.56487925323935 114.5,90.43424113903036 114.575,90.36871795987241 114.64999999999999,90.37075896684954 114.725,90.22889445032966 114.8,90.06151496834299 114.875,90.07519081588097 114.95,90.13703927389042 115.02499999999999,90.19745918815468 115.1,90.34422242039997 115.175,90.49425176081499 115.25,90.61488810796226 115.325,90.73695261056854 115.39999999999999,90.79900554008903 115.475,90.70715119846511 115.55,90.60202836035188 115.625,90.59774197195819 115.7,90.5226252310168 115.77499999999999,90.3866803899472 115.85,90.34667190445572 115.925,90.2942124008185 116.0,90.1633706499138 116.075,90.02783440240867 116.14999999999999,89.96639350900527 116.225,89.97312969208366 116.3,89.9208737474849 116.375,89.79207352774368 116.45,89.75553573841879 116.52499999999999,89.72308039016292 116.6,89.59979076694972 116.675,88.74513283576374 116.75,87.58408774117561 116.825,87.12991755066192 116.89999999999999,87.08684779738363 116.975,87.14890062983257 117.05,87.1997270017277 117.125,87.29770527675548 117.2,87.48121082807964 117.27499999999999,87.5661250587148 117.35,87.59368192421695 117.425,87.68880280112538 117.5,87.83658677953811 117.575,87.83801528445468 117.64999999999999,87.73513885671646 117.725,87.66022641255732 117.8,87.66267591602735 117.875,87.65900195203695 117.95,87.48202875295237 118.02499999999999,87.26157771179709 118.1,87.03316567758547 118.175,87.58368192385744 118.25,88.60837371971165 118.325,88.97660875869397 118.39999999999999,88.95966674474334 118.475,88.9745674410879 118.55,89.0200866590076 118.625,88.89291898857917 118.7,88.67471307645445 118.77499999999999,88.75819919045924 118.85,89.06050366040633 118.925,89.30463369457732 119.0,89.4873228353449 119.075,89.74288319973712 119.14999999999999,90.0355931565996 119.225,90.33953013703088 119.3,90.67326975266708 119.375,91.05354826460338 119.45,91.4252538444378 119.52499999999999,91.70040953767517 119.6,91.97434129457854 119.675,92.2315353148992 119.75,92.31216335128379 119.825,92.36645958453018 119.89999999999999,92.50403775148497 119.975,92.5217962536494 120.05,92.52342923007701 120.125,92.73694052911544 120.2,93.06251464135568 120.27499999999999,93.15661481092529 120.35,92.97065962023093 120.425,92.83124425772353 120.5,92.7947064101557 120.575,92.80899495389731 120.64999999999999,92.86778210529135 120.725,92.92371154793707 120.8,92.94269489890807 120.875,92.93657123730452 120.95,92.9935212902175 121.02499999999999,93.15436946833732 121.1,93.43646554436377 121.175,93.68712701830177 121.25,93.83368659443704 121.325,93.96391646453914 121.39999999999999,94.1039441932069 121.475,94.31031158924641 121.55,94.47299686584729 121.625,94.51198417805654 121.7,94.49422555940626 121.77499999999999,94.53709119063109 121.85,94.67119937974876 121.925,94.72631233418068 122.0,94.68793738813179 122.075,94.66548396225211 122.14999999999999,94.55546217544173 122.225,94.33990994708343 122.3,94.1921255803845 122.375,94.15354651228216 122.45,94.10394485329343 122.52499999999999,93.94432140749431 122.6,93.724481955927 122.675,93.55914309263125 122.75,93.50239716177171 122.825,93.47116648759362 122.89999999999999,93.3815569061284 122.975,93.28174122199059 123.05,93.16865760437844 123.125,92.98025306552852 123.2,92.7879699746913 123.27499999999999,92.64120621825963 123.35,92.48668576555387 123.425,92.27950201720071 123.5,92.05251858497724 123.575,91.84982629837242 123.64999999999999,91.79899998472021 123.725,91.8179827338476 123.8,91.72429108018524 123.875,91.47179248835187 123.95,91.17744916677557 124.02499999999999,91.02354139085912 124.1,91.01047757943823 124.175,91.02088780416426 124.25,90.97740980677908 124.325,90.92474631698859 124.39999999999999,90.82676773133184 124.475,90.62019693156833 124.55,90.39423438141245 124.625,90.28462058632294 124.7,90.22440539595574 124.77499999999999,90.11703775885522 124.85,89.97149912303045 124.925,89.81187571605997 125.0,89.66899027864389 125.075,89.52181796747635 125.14999999999999,89.36301114579122 125.225,89.1637884099087 125.3,88.8316817512858 125.375,88.45446437123611 125.45,88.20461851186798 125.52499999999999,88.05867163193632 125.6,87.86475647714406 125.675,87.49611218451072 125.75,86.93294093393976 125.825,86.4085527182101 125.89999999999999,86.05521792904321 125.975,85.86762945129229 126.05,85.78945074364896 126.125,85.69943357816337 126.2,85.50674226263355 126.27499999999999,85.24199611462136 126.35,85.00909312343347 126.425,84.86335028789803 126.5,84.696787158225 126.575,84.19117756956929 126.64999999999999,83.61412584463483 126.725,83.3328466645227 126.8,83.34244063400665 126.875,83.3822444344297 126.95,83.3010042842708 127.02499999999999,82.99951674906663 127.1,82.55779693602643 127.175,82.0007491335016 127.25,81.50350769480778 127.325,81.0127987830823 127.39999999999999,80.50147400990166 127.475,79.49188815847542 127.55,77.82952060136904 127.625,76.50068855725972 127.7,75.64603045134496 127.77499999999999,74.91241687844143 127.85,74.1837017300487 127.925,73.44457682287337 128.0,73.0 128.075,73.29026121055053 128.14999999999998,73.66625271283522 128.225,73.82873281900991 128.3,73.90017495528866 128.375,74.01672857015225 128.45,74.29392608576774 128.52499999999998,74.76034418191784 128.6,75.38393604566821 128.675,76.15327117206886 128.75,76.91484950512385 128.825,77.43270583455737 128.89999999999998,77.57783653690417 128.975,78.14162149322287 129.05,79.45698175360472 129.125,80.46799591580445 129.2,80.94747811459008 129.27499999999998,81.27611442650398 129.35,81.73212355985818 129.425,82.33550788391753 129.5,82.79763834915809 129.575,82.96971261895983 129.64999999999998,83.12382496345884 129.725,83.23813350753483 129.8,83.22956053660434 129.875,83.19853433393727 129.95,83.17016167913647 130.02499999999998,83.0452391571529 130.1,82.82070493718481 130.175,82.7388516831218 130.25,82.83397228822987 130.325,83.08279753733075 130.39999999999998,83.59228513437309 130.475,84.13361511166734 130.55,84.54532894402153 130.625,84.9760260885181 130.7,85.53144134173013 130.77499999999998,86.22402609067525 130.85,86.8412895300964 130.925,87.36282030887807 131.0,87.7647364768097 131.075,87.92701370344678 131.14999999999998,87.99825179532931 131.225,88.03397315468334 131.3,88.20012877799323 131.375,88.49610532838317 131.45,88.66879225555991 131.52499999999998,88.87046408721196 131.6,89.08417987717573 131.675,89.18195439902195 131.75,89.24053843790665 131.825,89.29463019964203 131.89999999999998,89.41159194212666 131.975,89.5855035627955 132.05,89.73247099475148 132.125,89.88984880674798 132.2,90.11601586724352 132.27499999999998,90.32136242004405 132.35,90.41668741900592 132.425,90.34320388746387 132.5,90.34463305246699 132.575,90.54875454290355 132.64999999999998,90.78594446608581 132.725,91.00619155991643 132.8,91.16295692809533 132.875,91.30910791066613 132.95,91.5275181195731 133.02499999999998,91.72122994829861 133.1,91.87166776579224 133.175,92.00006026561293 133.25,92.12375716221753 133.325,92.30195530718022 133.39999999999998,92.48974746045548 133.475,92.61834435412996 133.55,92.7681699413634 133.625,92.88982668522051 133.7,92.94759322634731 133.77499999999998,92.98229397543406 133.85,93.05189959566104 133.925,93.24765223722058 134.0,93.40013135290596 134.075,93.46198033510177 134.14999999999998,93.50994901766289 134.225,93.60037508734192 134.3,93.76081502135484 134.375,93.82613407845933 134.45,93.82695056667315 134.52499999999998,93.82388873587138 134.6,93.86512139066858 134.675,94.00474087522944 134.75,94.10741426811558 134.825,94.15558707273014 134.89999999999998,94.21641544465871 134.975,94.31051571129987 135.05,94.32439601093458 135.125,94.21253712564312 135.2,94.03495093914027 135.27499999999998,93.86859146557725 135.35,93.80572187311418 135.425,93.8342989605974 135.5,93.92003022304705 135.575,93.97738852006694 135.64999999999998,94.03882925815586 135.725,94.13374601301082 135.8,94.18926721154965 135.875,94.27091603293026 135.95,94.31868059343793 136.02499999999998,94.34603294860044 136.1,94.37358942581639 136.175,94.34705355886769 136.25,94.4144138365067 136.325,94.58689683577309 136.39999999999998,94.71712629817468 136.475,94.78040378528708 136.55,94.87348332517513 136.625,95.10659022485905 136.7,95.43379739118414 136.77499999999998,95.66567992741925 136.85,95.77978415529866 136.925,95.79835926216275 137.0,95.7538606545103 137.075,95.81223934824004 137.14999999999998,95.88919326531973 137.225,95.8985828797785 137.3,95.85612549266058 137.375,95.71262768908414 137.45,95.53708272311582 137.52499999999998,95.44971848423855 137.6,95.46237405155254 137.675,95.4954418242117 137.75,95.3980756047153 137.825,95.06821413336588 137.89999999999998,94.71589981856609 137.975,94.55505198990384 138.05,94.50749166793548 138.125,94.37460869649627 138.2,94.19661475124427 138.27499999999998,94.13884832660334 138.35,94.12986695625148 138.425,94.08822605734736 138.5,94.04903462308465 138.575,93.92676572662458 138.64999999999998,93.75979398397277 138.725,93.67018440250754 138.8,93.69631202534934 138.875,93.83736022838418 138.95,94.02841847041483 139.02499999999998,94.16538436828083 139.1,94.21437362228058 139.175,94.31623029398119 139.25,94.54321353206157 139.325,94.88021913938162 139.39999999999998,95.14557786711157 139.475,95.23232973982847 139.55,95.22498134590421 139.625,95.24621003946318 139.7,95.33051244753867 139.77499999999998,95.4372678349647 139.85,95.56116943605205 139.925,95.6807846487457 140.0,95.76937360052936 140.075,95.8340802914735 140.14999999999998,95.92287338472492 140.225,95.95553291327718 140.3,95.84510288235988 140.375,95.72303803029602 140.45,95.63404081499115 140.52499999999998,95.54647245406044 140.6,95.48707297533466 140.675,95.37235661426661 140.75,95.1943626690146 140.825,95.12169548978619 140.89999999999998,95.1178171707706 140.975,95.06331658249904 141.05,94.99126149763065 141.125,94.89205817965319 141.2,94.81000111416567 141.27499999999998,94.70467458111379 141.35,94.53157956514463 141.425,94.39685932049557 141.5,94.34174638547795 141.575,94.32357952272076 141.64999999999998,94.33990928699689 141.725,94.38359140643551 141.8,94.4468692430055 141.875,94.38706148134419 141.95,94.27826442685452 142.02499999999998,94.21621132260525 142.1,94.12353991033825 142.175,94.07312176313572 142.25,94.07067229849429 142.325,94.0065779737105 142.39999999999998,93.95350623981311 142.475,93.96432470864603 142.55,93.97004012614268 142.625,93.97228546873065 142.7,93.94493311356814 142.77499999999998,93.92982808161273 142.85,93.9784091303342 142.925,94.00372026496218 143.0,93.92799098313166 143.075,93.85532353210291 143.14999999999998,93.80898782596941 143.225,93.81715270810747 143.3,93.91451883053232 143.375,94.09537096989038 143.45,94.2752024989812 143.52499999999998,94.37032337588963 143.6,94.42176213335941 143.675,94.42441572005428 143.75,94.3737934507983 143.825,94.29969714539538 143.89999999999998,94.20927107571634 143.975,94.09802455658526 144.05,94.0300519127859 144.125,93.99310582111116 144.2,93.82470555412844 144.27499999999998,93.67426760073465 144.35,93.69284270759874 144.425,93.6344638003116 144.5,93.53873055724281 144.575,93.4697373031762 144.64999999999998,93.31705400719444 144.725,93.07925195082356 144.8,92.8087903270718 144.875,92.57180462301454 144.95,92.37584745170106 145.02499999999998,92.12783933148621 145.1,91.88840433751633 145.175,91.79022168804907 145.25,91.7816485618041 145.325,91.78205680591101 145.39999999999998,91.7930793967974 145.475,91.79920305840093 145.55,91.76082811235204 145.625,91.74143651727415 145.7,91.81002110011906 145.77499999999998,91.73674171004477 145.85,91.50690027785832 145.925,91.3531965657524 146.0,91.17336525021899 146.075,90.94495315776446 146.14999999999998,90.76655073543384 146.225,90.64958945889262 146.3,90.47526994357446 146.375,90.30686985132054 146.45,90.14275601156014 146.52499999999998,89.98721500683006 146.6,89.88392971372701 146.675,89.69430071435671 146.75,89.40975517368886 146.825,89.06356442342107 146.89999999999998,88.7218647466154 146.975,88.44568793833871 147.05,88.1041923835865 147.125,87.68023167455432 147.2,87.3036270489512 147.27499999999998,86.972132465274 147.35,86.57654417807092 147.425,86.2091248119014 147.5,85.93805037546016 147.575,85.61451730902566 147.64999999999998,85.3607940237002 147.725,85.2899632440377 147.8,85.31527426217983 147.875,85.32833756882867 147.95,85.3846756438675 148.02499999999998,85.57797915082888 148.1,85.74535902110173 148.175,85.85803493820767 148.25,86.12216827353036 148.325,86.54674189232357 148.39999999999998,86.91783514482626 148.475,87.10399424401666 148.55,87.28117214758399 148.625,87.52264830384546 148.7,87.68819159982361 148.77499999999998,87.76085974976752 148.85,87.74289763032169 148.925,87.78086444874955 149.0,88.05847121801605 149.075,88.38567844258407 149.14999999999998,88.53611624066338 149.225,88.54428131694453 149.3,88.58020652655168 149.375,88.71186511512775 149.45,88.79739145953725 149.52499999999998,88.71309017749174 149.6,88.6796139859969 149.675,88.77044730965302 149.75,88.75207632484239 149.825,88.59980123413891 149.89999999999998,88.4814106372801 149.975,88.54407599120388 150.05,88.74452324584969 150.125,88.93639741307916 150.2,89.1441927898489 150.27499999999998,89.50099738212413 150.35,90.08335672697746 150.425,90.60672503135501 150.5,90.8855551156976 150.575,91.22990857334123 150.64999999999998,91.6552984085479 150.725,91.97658595766566 150.8,92.20050752025874 150.875,92.34461772882416 150.95,92.4938310663831 151.02499999999998,92.75224836295124 151.1,92.97494527088085 151.175,93.11538124365552 151.25,93.25214301946806 151.325,93.45748984406893 151.39999999999998,93.68794344827263 151.475,93.79429103812089 151.55,93.87328627280664 151.625,93.99249355202235 151.7,94.11578327230708 151.77499999999998,94.2809180135494 151.85,94.37134408322842 151.925,94.43400955363805 152.0,94.54056126553976 152.075,94.52810982027921 152.14999999999998,94.31357748385871 152.225,94.04842318881117 152.3,94.0024957850275 152.375,94.10435268969982 152.45,94.19906532250135 152.52499999999998,94.27703994691984 152.6,94.34337961429159 152.675,94.36583304017127 152.75,94.29092024655455 152.825,94.20335188562383 152.89999999999998,94.20478073999799 152.975,94.31459840475492 153.05,94.42359956188373 153.125,94.50626899353162 153.2,94.59996101606588 153.27499999999998,94.60649292177632 153.35,94.57342514911718 153.425,94.59200025598128 153.5,94.62996676378016 153.575,94.72998639524263 153.64999999999998,95.01657381653153 153.725,95.38848394553423 153.8,95.5599464121906 153.875,95.54239191559377 153.95,95.46482553528219 154.02499999999998,95.38644266675679 154.1,95.37684893024456 154.175,95.39236220630688 154.25,95.48442125241353 154.325,95.57627617646673 154.39999999999998,95.58770701146001 154.475,95.6191414970626 154.55,95.62138685906487 154.625,95.59362625979546 154.7,95.58913557461953 154.77499999999998,95.63771644861221 154.85,95.71875259320352 154.925,95.74467609399187 155.0,95.76161806911387 155.075,95.81366894035799 155.14999999999998,95.86816921800059 155.225,95.91328007532752 155.3,95.94471481331612 155.375,95.99656169840696 155.45,96.06943327148917 155.52499999999998,96.09045784299468 155.6,96.04044793989905 155.675,96.04248916043356 155.75,96.12148412331898 155.825,96.20925621801695 155.89999999999998,96.19802950507712 155.975,96.1431209833276 156.05,96.17659663122177 156.125,96.21640031515896 156.2,96.21844153569347 156.27499999999998,96.19313053696565 156.35,96.16332902779068 156.425,96.1325065977195 156.5,96.06657552391222 156.575,96.02187300776374 156.64999999999998,96.02615949322899 156.725,96.03656965971209 156.8,96.04555093299241 156.875,96.05208278045993 156.95,96.1006634408952 157.02499999999998,96.18210808197944 157.1,96.24701889497703 157.175,96.30907176625459 157.25,96.31519546668675 157.325,96.26253236518245 157.39999999999998,96.2951918937347 157.475,96.35316228511459 157.55,96.37296200781354 157.625,96.42276741998383 157.7,96.47726756172626 157.77499999999998,96.50196613605081 157.85,96.46889836339166 157.925,96.45726340634492 158.0,96.50380319570326 158.075,96.50237453547219 158.14999999999998,96.4886984937911 158.225,96.47277705127912 158.3,96.44562897348455 158.375,96.46481619412296 158.45,96.48400357007586 158.52499999999998,96.48665717618505 158.6,96.51135594465268 158.675,96.5205412623292 158.75,96.5242153816341 158.825,96.55034294623297 158.89999999999998,96.59116691039415 158.975,96.60606764556732 159.05,96.57973599774363 159.125,96.56442688256338 159.2,96.57116298798452 159.27499999999998,96.59279969267867 159.35,96.64872882469544 159.425,96.64587111594712 159.5,96.55258737634837 159.575,96.5023733706136 159.64999999999998,96.39745488752553 159.725,96.23885214906522 159.8,96.1492425676 159.875,96.0545303619133 159.95,95.957776993935 160.02499999999998,95.92470926010448 160.1,95.90388881065242 160.175,95.9085836372961 160.25,95.90021480783338 160.325,95.92328025041583 160.39999999999998,95.93736463327537 160.475,95.92634212004623 160.55,95.90878795349266 160.625,95.85939086308652 160.7,95.82591521519234 160.77499999999998,95.81223928999712 160.85,95.83755030813926 160.925,95.86122846633963 161.0,95.91001361770024 161.075,95.95471630857752 161.14999999999998,95.96900485231912 161.225,95.97104607285364 161.3,95.90858472449746 161.375,95.86612733737954 161.45,95.87939527085389 161.52499999999998,95.85102230542412 161.6,95.79223515403008 161.675,95.68547970836111 161.75,95.62567208259998 161.825,95.59832013513798 161.89999999999998,95.53422629571193 161.975,95.41461114126122 162.05,95.32745108268033 162.125,95.35725266951255 162.2,95.33479924363287 162.27499999999998,95.26294849437534 162.35,95.26498965666691 162.425,95.3366360703136 162.5,95.34378036159872 162.575,95.27968607564354 162.64999999999998,95.31744865553208 162.725,95.42236739100618 162.8,95.53177681165621 162.875,95.61342547772234 162.95,95.67037531707793 163.02499999999998,95.73161189428477 163.1,95.8173431179058 163.175,95.95941158175033 163.25,96.03963116047059 163.325,95.9802316429162 163.39999999999998,95.87163871047997 163.475,95.85347184772279 163.55,95.87674176181626 163.625,95.87245527635102 163.7,95.92593488548343 163.77499999999998,95.9265472516438 163.85,95.8044827490375 163.925,95.7299786266425 164.0,95.73201984717703 164.075,95.80080895977588 164.14999999999998,95.87041415288805 164.225,95.91634145960018 164.3,95.92348573147098 164.375,95.89899124037126 164.45,95.86857720972147 164.52499999999998,95.83591771999784 164.6,95.77998831618073 164.675,95.64812595500878 164.75,95.565865155754 164.825,95.5940339991303 164.89999999999998,95.6526170284709 164.975,95.71446601066673 165.05,95.75957698447952 165.125,95.73161241847113 165.2,95.63547130016734 165.27499999999998,95.62546931954822 165.35,95.69160486486652 165.425,95.69793264852352 165.5,95.73038795795077 165.575,95.79509418295147 165.64999999999998,95.77753995815497 165.725,95.73651158072569 165.8,95.73712394688604 165.875,95.7124251784184 165.95,95.66608953052783 166.02499999999998,95.66098647919155 166.1,95.7020150119353 166.175,95.71773241005107 166.25,95.65935350276393 166.325,95.59178910307146 166.39999999999998,95.54626988515177 166.475,95.49973005696482 166.55,95.51728432058994 166.625,95.55974131942166 166.7,95.61301717537252 166.77499999999998,95.690379142416 166.85,95.68874610774546 166.925,95.65302474839145 167.0,95.62567243205756 167.075,95.58852225715799 167.14999999999998,95.58464389931379 167.225,95.56688528066351 167.3,95.57055947762564 167.375,95.64751341411963 167.45,95.69344087614623 167.52499999999998,95.67853996624427 167.6,95.64057326430228 167.675,95.64016502019538 167.75,95.69099141150481 167.825,95.73304055451582 167.89999999999998,95.80121732036865 167.975,95.8683734759542 168.05,95.79427740352301 168.125,95.67119219357792 168.2,95.62097816842885 168.27499999999998,95.56647787137193 168.35,95.48727857287565 168.425,95.37888976249289 168.5,95.28519779820155 168.575,95.21334728191573 168.64999999999998,95.2104895537531 168.725,95.34582198983374 168.8,95.44890318029763 168.875,95.46053796261559 168.95,95.49421781022045 169.02499999999998,95.59178766641254 169.1,95.69895125911685 169.175,95.76100414980873 169.25,95.77896689051246 169.325,95.82428198637871 169.39999999999998,95.90531801448415 169.475,95.93532391751292 169.55,95.96818756811861 169.625,96.01799334916079 169.7,96.00452129363299 169.77499999999998,95.99125336015864 169.85,96.05555180699588 169.925,96.17292198773052 170.0,96.25620378553874 170.075,96.29723231828251 170.14999999999998,96.28131099225638 170.225,96.18414938017119 170.3,96.11311535209919 170.375,96.07494478048977 170.45,96.06106459734092 170.52499999999998,96.03473304658877 170.6,95.98166172039187 170.675,95.99431722946294 170.75,96.02922208118885 170.825,96.01125934048511 170.89999999999998,95.95328910441968 170.975,95.94185830825502 171.05,95.94471601700334 171.125,95.96267875770708 171.2,96.00248255813013 171.27499999999998,95.992480577511 171.35,96.00105370375597 171.425,96.07351662503076 171.5,96.14067229525857 171.575,96.156389421574 171.64999999999998,96.12087220368775 171.725,96.0498377290866 171.8,96.00329790089965 171.875,96.0224851603667 171.95,96.02575119087916 172.02499999999998,96.00207324623618 172.1,95.97104677176878 172.175,95.96431082166212 172.25,96.01799445577645 172.325,96.07535238392445 172.39999999999998,96.11454360462974 172.475,96.13189390151588 172.55,96.1490401345915 172.625,96.16108331633083 172.7,96.15904209579631 172.77499999999998,96.16924819846889 172.85,96.14965248133754 172.925,96.09311108023198 173.0,96.02289357920239 173.075,95.9551253292568 173.14999999999998,95.96900562889151 173.225,96.09168255590107 173.3,96.18802779625832 173.375,96.18455793490705 173.45,96.18047535793785 173.52499999999998,96.2115015411906 173.6,96.253142207123 173.675,96.19394700576515 173.75,96.10719561840598 173.825,96.09760197896532 173.89999999999998,96.08208883880316 173.975,96.07331157109044 174.05,96.07188273613059 174.125,96.05902306617745 174.2,95.93512099914668 174.27499999999998,95.67956088714048 174.35,95.49768813751515 174.425,95.26743828649302 174.5,95.05413074063614 174.575,95.06658210823944 174.64999999999998,95.07617584475167 174.725,94.9994263797687 174.8,94.92839227403945 174.875,94.91981914779448 174.95,94.92369758329593 175.02499999999998,94.87021805182074 175.1,94.83715051213332 175.175,94.91267524479557 175.25,94.90512272881787 175.325,94.81755463968749 175.39999999999998,94.7734643537992 175.475,94.75876766302223 175.55,94.77407679761679 175.625,94.75509344664579 175.7,94.86695231252293 175.77499999999998,95.14251638576737 175.85,95.31826547378915 175.925,95.54443288374226 176.0,95.75774042959912 176.075,95.73753242396467 176.14999999999998,95.7222232699558 176.225,95.74692199959482 176.3,95.70875117559937 176.375,95.62996006296707 176.45,95.56464112234843 176.52499999999998,95.56811119725712 176.6,95.61587542772152 176.675,95.66915122542943 176.75,95.78856214134085 176.825,95.87980448567629 176.89999999999998,95.92205773132645 176.975,95.93022261346451 177.05,95.87327257996583 177.125,95.86041289059838 177.2,95.87306845791238 177.27499999999998,95.87408906817964 177.35,95.87123135943132 177.425,95.82367092097711 177.5,95.79754329813531 177.575,95.85020678792581 177.64999999999998,95.86612830809503 177.725,95.87776330397038 177.8,95.9575749297984 177.875,96.05902355153519 177.95,96.14230507754309 178.025,96.20435769643461 178.1,96.21191005709784 178.17499999999998,96.15883834261476 178.25,96.1063791690208 178.325,96.10086797064916 178.4,96.12230053387555 178.475,96.15169383777223 178.54999999999998,96.2337505926308 178.625,96.31274551668758 178.7,96.3282587927499 178.775,96.32499283989468 178.85,96.3892910537602 178.92499999999998,96.50217006396116 179.0,96.57912386455499 179.075,96.61790656935304 179.15,96.70118788180352 179.225,96.79018461175065 179.29999999999998,96.83019214594096 179.375,96.819986082097 179.45,96.78630621507783 179.525,96.73405145475198 179.6,96.7146600732315 179.67499999999998,96.7487484367436 179.75,96.765282187173 179.825,96.75854621765203 179.9,96.71384375974648 179.975,96.65138268319065 180.04999999999998,96.60321018920503 180.125,96.56789738458687 180.2,96.5787158340055 180.275,96.61504954010556 180.35,96.61178366490758 180.42499999999998,96.59790357883028 180.5,96.57626685472182 180.575,96.55116015277623 180.65,96.49318974198202 180.725,96.40562186640905 180.79999999999998,96.35091764144178 180.875,96.35132588554869 180.95,96.33805795207434 181.025,96.33417955540152 181.1,96.35295857076166 181.17499999999998,96.34091536960801 181.25,96.3235651309648 181.325,96.32519808797811 181.4,96.39949803007673 181.475,96.51156055206387 181.54999999999998,96.59851606147649 181.625,96.6783272990183 181.7,96.71894725761189 181.775,96.70853701347156 181.85,96.64342223373498 181.92499999999998,96.46338685439106 182.0,96.31968492876116 182.075,96.26416390495113 182.15,96.24620139721911 182.225,96.26559281756822 182.29999999999998,96.25640732516291 182.375,96.24007750264386 182.45,96.2909035444957 182.525,96.36704066273263 182.6,96.35356882076223 182.67499999999998,96.29029146955 182.75,96.24640551927257 182.825,96.22048209614145 182.9,96.17047256191772 182.975,96.10086740763417 183.04999999999998,95.99696976778507 183.125,95.92532339296702 183.2,95.91797513494294 183.275,95.90572785056446 183.35,95.9102185357404 183.42499999999998,96.02677222826124 183.5,96.14720423979765 183.575,96.15659385425641 183.65,96.13005798730771 183.725,96.13577336597574 183.79999999999998,96.17557691401277 183.875,96.17659758252294 183.95,96.14353012049276 184.025,96.06392298559008 184.1,95.962474596825 184.17499999999998,95.90532042185858 184.25,95.91226057167593 184.325,95.94430757875334 184.4,95.94308296291848 184.475,95.93553046635509 184.54999999999998,95.97798779523008 184.625,95.96492398380919 184.7,95.92042558971416 184.775,95.93103989766502 184.85,95.98002913225045 184.92499999999998,96.06147334621988 185.0,96.15781847009127 185.075,96.23905863966448 185.15,96.26988106973566 185.225,96.27641287837456 185.29999999999998,96.2794746315191 185.375,96.3011114526991 185.45,96.27824982154115 185.525,96.2182379572407 185.6,96.267023089187 185.67499999999998,96.36704241002052 185.75,96.40500880133355 185.825,96.43644326752182 185.9,96.51829572559815 185.975,96.55442503784442 186.04999999999998,96.46542788078247 186.125,96.44419920663782 186.2,96.51196728185461 186.275,96.55095432226352 186.35,96.55381197276891 186.42499999999998,96.49318820825155 186.5,96.40500796651823 186.575,96.36234676797581 186.65,96.36704155579089 186.725,96.31866493975183 186.79999999999998,96.2347711058265 186.875,96.19251795724789 186.95,96.21701239010467 187.025,96.26702227378598 187.1,96.29212932518915 187.17499999999998,96.28008633759292 187.25,96.2243613276296 187.325,96.12066780983396 187.4,95.99758269696042 187.475,95.94287827785006 187.54999999999998,96.00125718513719 187.625,95.98472329880762 187.7,95.91246449958628 187.775,95.93165179788194 187.85,95.94104131526916 187.92499999999998,95.91573018064116 188.0,95.8675573760266 188.075,95.79060345894692 188.15,95.75753570570207 188.225,95.77529432435236 188.29999999999998,95.80121782514071 188.375,95.83734729270147 188.45,95.87163952588098 188.525,95.93573338472133 188.6,95.97472021157283 188.67499999999998,95.98962098557463 188.75,96.05004076393871 188.825,96.15067245093257 188.9,96.24334339725614 188.975,96.26559270108237 189.04999999999998,96.30723342525769 189.125,96.38132959476044 189.2,96.4076613784843 189.275,96.42195005812609 189.35,96.51768302939452 189.42499999999998,96.65036187878029 189.5,96.74711538265875 189.575,96.85999452875987 189.65,96.9608303378072 189.725,97.02104585821766 189.79999999999998,97.11187968664585 189.875,97.21312387570023 189.95,97.23741440006097 190.025,97.21210351781902 190.1,97.18352676037907 190.17499999999998,97.12126994177684 190.25,97.08881488473563 190.325,97.08207885697172 190.4,97.0220674392004 190.475,96.98144715056354 190.54999999999998,96.95266611575566 190.625,96.94531772183142 190.7,96.9559318938821 190.775,96.9163321960982 190.85,96.81896622898783 190.92499999999998,96.73548073624096 191.0,96.69873911607726 191.075,96.68383828383253 191.15,96.63015443616081 191.225,96.54850610013793 191.29999999999998,96.47971745348251 191.375,96.36316424631941 191.45,96.27988293386893 191.525,96.25273493373159 191.6,96.2576338047715 191.67499999999998,96.30498990761485 191.75,96.32172772185478 191.825,96.29070161625927 191.9,96.27927078126598 191.975,96.31723748320798 192.04999999999998,96.3343837356979 192.125,96.33887445970245 192.2,96.36255232668819 192.275,96.3721460632004 192.35,96.36683900629653 192.42499999999998,96.37990270123157 192.5,96.42297206622365 192.575,96.43603566408714 192.65,96.42889154753081 192.725,96.45950985554855 192.79999999999998,96.49890506240712 192.875,96.52931897657106 192.95,96.53503439406771 193.025,96.5681018560979 193.1,96.61749912123284 193.17499999999998,96.64791303539678 193.25,96.68363410353615 193.325,96.6868999010769 193.4,96.68138860563371 193.475,96.71037364600919 193.54999999999998,96.7379296378674 193.625,96.69669706072742 193.7,96.61770229198511 193.775,96.47583783370817 193.85,96.34907815500061 193.92499999999998,96.2753902684334 194.0,96.13434231778457 194.075,95.97900592046568 194.15,95.91756526003401 194.225,95.86428940408315 194.29999999999998,95.72548675719368 194.375,95.57668205202783 194.45,95.49829918350244 194.525,95.40848579061272 194.6,95.25845656668356 194.67499999999998,95.07495132598837 194.75,94.96493002453573 194.825,94.93574076503526 194.9,94.87042170793076 194.975,94.69283581264256 195.04999999999998,94.46809791715015 195.125,94.31235280978093 195.2,94.19641148342045 195.275,94.17824462066326 195.35,94.19457438493939 195.42499999999998,94.19212492029797 195.5,94.22172261804845 195.575,94.18375591610645 195.65,94.00902743835192 195.725,93.8743068830739 195.79999999999998,93.84715864996485 195.875,93.84532155148378 195.95,93.75448723769784 196.025,93.45381572476404 196.1,93.10660432540037 196.17499999999998,92.87553854917941 196.25,92.73469433229785 196.325,92.70815846534914 196.4,92.74898287603945 196.475,92.79776804681437 196.54999999999998,92.90881044389201 196.625,93.08149770111203 196.7,93.26949372405471 196.775,93.41401190492668 196.85,93.49668133657457 196.92499999999998,93.57118569194128 197.0,93.69488317097517 197.075,93.88247094981095 197.15,94.11884421005061 197.225,94.313372468747 197.29999999999998,94.46544320442531 197.375,94.60587915778567 197.45,94.81326693112072 197.525,95.14394430825466 197.6,95.48972685324418 197.67499999999998,95.87061792548393 197.75,96.14169152710984 197.825,96.14822337457736 197.9,96.1484274966308 197.975,96.24375237910682 198.04999999999998,96.25538733615356 198.125,96.18169927485755 198.2,96.11250228702367 198.275,96.06371734922047 198.35,96.0551442229755 198.42499999999998,96.03493631441259 198.5,95.97900735712462 198.575,95.91838349553569 198.65,95.85612634689022 198.725,95.79386917883042 198.79999999999998,95.72283489837238 198.875,95.6052606149986 198.95,95.48993188777018 199.025,95.51605958826923 199.1,95.60260733893269 199.17499999999998,95.5868901155457 199.25,95.42359295814221 199.325,95.31908252501795 199.4,95.34276068321833 199.475,95.39521972091211 199.54999999999998,95.50728228172788 199.625,95.6185284708157 199.7,95.64914677883344 199.775,95.63914479821432 199.85,95.67751947246288 199.92499999999998,100.0" opacity="1" fill="#59A14F" stroke="black" stroke-width="0"/>
<line x1="40" y1="100.0" x2="40" y2="70.0" stroke="black" stroke-width="1" />
<line x1="39.5" y1="100.0" x2="43.5" y2="100.0" stroke="black" stroke-width="1" />
<line x1="39.5" y1="70.0" x2="43.5" y2="70.0" stroke="black" stroke-width="1" />
<text text-anchor="end" font-family="Arial" x="36" y="104.0" font-size="8" >0</text>
<text text-anchor="end" font-family="Arial" x="36" y="74.0" font-size="8" >30.6</text>
<text text-anchor="start" font-family="Arial" x="39.5" y="66" font-size="7" >ChrIV: 424,000-474,000</text>
</svg>
