<svg viewBox="0 0 320 210" xmlns="http://www.w3.org/2000/svg">
<polygon points="50.0,100.0 50.075,100.18539779130668 50.15,100.18411980173576 50.225,100.19412049605424 50.3,100.20597462842093 50.375,100.2178368965987 50.45,100.24711604385762 50.525,100.27328353417408 50.6,100.30430024314975 50.675,100.32011791676972 50.75,100.3299501087118 50.825,100.35271401958606 50.9,100.37804614632695 50.975,100.42021407560733 51.05,100.48606720985235 51.125,100.51977464700812 51.2,100.56803875976941 51.275,100.59802643819434 51.35,100.65728372712911 51.425,100.69165454555221 51.5,100.7205400949615 51.575,100.72895027948489 51.65,100.74925102879385 51.725,100.74974421418997 51.8,100.74865648019178 51.875,100.74747122946962 51.95,100.72812176868764 52.025,100.71838098353486 52.1,100.69869973046764 52.175,100.68753747448785 52.25,100.69864376597575 52.325,100.69738423549641 52.4,100.69277423261062 52.475,100.67163176909392 52.55,100.6299529194127 52.625,100.61453392957696 52.7,100.60251436311307 52.775,100.61615400556457 52.85,100.59825372737008 52.925,100.60150921092372 53.0,100.59708916785371 53.075,100.57787157657263 53.15,100.5709707843499 53.225,100.57225311344317 53.3,100.56578679902314 53.375,100.57444056413595 53.45,100.5848353931403 53.525,100.58872845967893 53.6,100.60336000010408 53.675,100.63295570037154 53.75,100.6146346489257 53.825,100.60256014409889 53.9,100.60018956454776 53.975,100.60460354384611 54.05,100.59727102174213 54.125,100.58743686924471 54.2,100.60509075138705 54.275,100.56576181122114 54.35,100.53039886718813 54.425,100.5018508685684 54.5,100.48860428497647 54.575,100.53467380711702 54.65,100.58468928167534 54.725,100.64764330934148 54.8,100.68142804335919 54.875,100.68206316725583 54.95,100.67865634267503 55.025,100.66689998876964 55.1,100.64738038758951 55.175,100.63322270406411 55.25,100.63992628114482 55.325,100.64094991732763 55.4,100.63888692672919 55.475,100.6262091998242 55.55,100.61114544063553 55.625,100.63326936140629 55.7,100.61125348336618 55.775,100.64316344309331 55.85,100.67442042031884 55.925,100.69920707658582 56.0,100.74634396260228 56.075,100.71063191240052 56.15,100.67017133225022 56.225,100.6212044900375 56.3,100.60343321018229 56.375,100.60025983865576 56.45,100.60292217447385 56.525,100.63578979083019 56.6,100.6339519308457 56.675,100.61770980515216 56.75,100.63759408012267 56.825,100.65038806927193 56.9,100.64278788970918 56.975,100.64050737771254 57.05,100.6513774629897 57.125,100.6360914598479 57.2,100.61690309767015 57.275,100.63290941748654 57.35,100.66513856424466 57.425,100.7057716180919 57.5,100.68945399312155 57.575,100.66966299352042 57.65,100.65676548494534 57.725,100.6498510641459 57.8,100.65394503022536 57.875,100.65111091738216 57.95,100.67064378105448 58.025,100.66831235521401 58.1,100.7054689688062 58.175,100.72549331996613 58.25,100.73457999267508 58.325,100.74872009890873 58.4,100.75600832622126 58.475,100.75770224493009 58.55,100.74902534968892 58.625,100.74715724111581 58.7,100.75176660313784 58.775,100.71840295268856 58.85,100.69200591740025 58.925,100.65112690353588 59.0,100.63978627017639 59.075,100.6416469341277 59.15,100.63662325620608 59.225,100.64103571395906 59.3,100.64457727150656 59.375,100.64148808769565 59.45,100.61970469334506 59.525,100.60083392534236 59.6,100.56193663581475 59.675,100.54169422458688 59.75,100.52076756084385 59.825,100.49839947564178 59.9,100.51492954784355 59.975,100.56101370339525 60.05,100.60779771856366 60.125,100.61017817993893 60.2,100.60388476132351 60.275,100.61942790973544 60.35,100.61322077752345 60.425,100.59537965642042 60.5,100.5871354156378 60.575,100.59070661978399 60.65,100.59180310804506 60.725,100.57802391811398 60.8,100.56331191820738 60.875,100.57126464488529 60.95,100.58716311874856 61.025,100.60042919775518 61.1,100.63896219718501 61.175,100.66585595806573 61.25,100.67543377926613 61.325,100.66214425538503 61.4,100.63957051379798 61.475,100.58385572988472 61.55,100.53431819298298 61.625,100.52716416704955 61.7,100.53550046449054 61.775,100.51781153905023 61.85,100.49940778345243 61.925,100.49405626713883 62.0,100.48569790407402 62.075,100.489626912865 62.15,100.51119020900732 62.225,100.53734980840153 62.3,100.5575219507297 62.375,100.5479165745027 62.45,100.53050459042448 62.525,100.50912429202398 62.6,100.4789458146123 62.675,100.45466483785833 62.75,100.4235422258083 62.825,100.46279119379577 62.9,100.48239939363334 62.975,100.48552709568648 63.05,100.49554890755866 63.125,100.49745662338532 63.2,100.4912766523832 63.275,100.48649529336532 63.35,100.48792976640912 63.425,100.49694185899567 63.5,100.5135152594356 63.575,100.51437064197309 63.65,100.49724958468212 63.725,100.4881234221421 63.8,100.47016585400651 63.875,100.4763199293115 63.95,100.47497192739932 64.025,100.4804132982942 64.1,100.48461864824428 64.175,100.49267806553898 64.25,100.50941416497326 64.325,100.4861098809233 64.4,100.47676425721401 64.475,100.48132706751423 64.55,100.49211007196362 64.625,100.49951672575477 64.7,100.50188360478442 64.775,100.49601390279722 64.85,100.49070110921008 64.925,100.49010255932959 65.0,100.47289447597703 65.075,100.47479072429206 65.15,100.47967737411673 65.225,100.44973220618267 65.3,100.46311993981459 65.375,100.46964856467476 65.45,100.51234320117786 65.525,100.56288060042753 65.6,100.56465096191306 65.675,100.57222034557506 65.75,100.5661780205681 65.825,100.56755228311839 65.9,100.5645562530055 65.975,100.56633173518536 66.05,100.55859547129853 66.125,100.5607423612301 66.2,100.5695536656699 66.275,100.59319647414034 66.35,100.59150700161693 66.425,100.58189596236593 66.5,100.58537523752327 66.575,100.57466794666324 66.65,100.5721817895234 66.725,100.58601282902436 66.8,100.56827873140216 66.875,100.55869361309813 66.95,100.52042405287875 67.025,100.46618674543551 67.1,100.47122697233507 67.175,100.4785560582326 67.25,100.48501069666465 67.325,100.48532163461745 67.4,100.49991216109909 67.475,100.54613459279666 67.55,100.55929758561807 67.625,100.55715000042464 67.7,100.54823001965526 67.775,100.5331246059245 67.85,100.53477822713272 67.925,100.53370050385156 68.0,100.52910115099898 68.075,100.57210311270103 68.15,100.59794575332111 68.225,100.63154092445741 68.3,100.66434972871767 68.375,100.67294762259438 68.45,100.67137499570659 68.525,100.67078242964492 68.6,100.65298304969225 68.675,100.62588137578392 68.75,100.6266543141509 68.825,100.62776431623749 68.9,100.63116692503276 68.975,100.59690566517301 69.05,100.57532888159447 69.125,100.56918062433733 69.2,100.56106268929989 69.275,100.55380120401477 69.35,100.54992415018603 69.425,100.55051626324604 69.5,100.55835626215405 69.575,100.51242414046085 69.65,100.4828777553535 69.725,100.45700532769105 69.8,100.43410267629983 69.875,100.42829747212565 69.95,100.42791892904107 70.025,100.43290678065658 70.1,100.43550766638982 70.175,100.43474634114607 70.25,100.4344115879713 70.325,100.42718491733615 70.4,100.41138482876634 70.475,100.39480556157261 70.55,100.40605875319689 70.625,100.39267006639022 70.7,100.41920957905788 70.775,100.45302123274253 70.85,100.45420010800112 70.925,100.47414847310647 71.0,100.4653541666913 71.075,100.46685315957734 71.15,100.46934026700052 71.225,100.45216099461247 71.3,100.44005968286976 71.375,100.43626550482365 71.45,100.43479758067248 71.525,100.42963218183063 71.6,100.42978312617365 71.675,100.42441265340014 71.75,100.4187282807905 71.825,100.42823915955604 71.9,100.42661139126776 71.975,100.43387207685615 72.05,100.43578350151094 72.125,100.46343581763128 72.2,100.42836901336615 72.275,100.4019357993635 72.35,100.39309170035686 72.425,100.4203814522467 72.5,100.40662821320605 72.575,100.40808100964364 72.65,100.41748026295008 72.725,100.42307081232407 72.8,100.42861358779334 72.875,100.42031132539344 72.95,100.41560561792004 73.025,100.41421002574332 73.1,100.42247344739438 73.175,100.43722745789069 73.25,100.43884583969697 73.325,100.41932377992411 73.4,100.4116265342912 73.475,100.41833340245343 73.55,100.42508364779131 73.625,100.42226625567221 73.7,100.42385556408613 73.775,100.43000624878896 73.85,100.44887352865932 73.925,100.40494363864853 74.0,100.41983171497179 74.075,100.42119268497278 74.15,100.42861352148411 74.225,100.43715097675539 74.3,100.4317781367538 74.375,100.43977581628634 74.45,100.4451355286744 74.525,100.45148349967917 74.6,100.4430355959388 74.675,100.45150703470323 74.75,100.46109739852433 74.825,100.47228600663269 74.9,100.48485666668769 74.975,100.52034988138989 75.05,100.56378934007343 75.125,100.57552446446566 75.2,100.60638085814617 75.275,100.6154840274831 75.35,100.60186636827956 75.425,100.60135087443685 75.5,100.60236911795366 75.575,100.60753905385975 75.65,100.5949571550248 75.725,100.5936750652492 75.8,100.58977505255011 75.875,100.59483430906769 75.95,100.60759731033903 76.025,100.61890291211938 76.1,100.63210798317704 76.175,100.62339141859385 76.25,100.62359791604946 76.325,100.62588417272843 76.4,100.62049086855383 76.475,100.59198303484877 76.55,100.54318812970348 76.625,100.52547080980301 76.7,100.51853178055897 76.775,100.50463434878267 76.85,100.51234563906506 76.925,100.5242094442842 77.0,100.53002754529038 77.075,100.52876101486777 77.15,100.53989133004768 77.225,100.54920320658572 77.3,100.56235358184358 77.375,100.56236856865681 77.45,100.55962862856833 77.525,100.55581365203852 77.6,100.54486565687246 77.675,100.53248862293155 77.75,100.52951366089236 77.825,100.53627673440656 77.9,100.53509860613285 77.975,100.51372081802931 78.05,100.49287355702074 78.125,100.48837130338516 78.2,100.4772942035572 78.275,100.4703932403707 78.35,100.47651547129331 78.425,100.48018204866898 78.5,100.4875509184846 78.575,100.4986455967485 78.65,100.47739943751387 78.725,100.48702714719224 78.8,100.50971612899615 78.875,100.51412228114098 78.95,100.5169252555488 79.025,100.51839126252646 79.1,100.54023399813865 79.175,100.5547497757274 79.25,100.55631136312891 79.325,100.54309193833565 79.4,100.553305574392 79.475,100.56273544215232 79.55,100.57705354776408 79.625,100.63252963344135 79.7,100.67571159803047 79.775,100.69342871626199 79.85,100.67749228493908 79.925,100.65834190229506 80.0,100.63337079638164 80.075,100.60556211756206 80.15,100.5968819843816 80.225,100.56981066379613 80.3,100.5236381705168 80.375,100.50369139837949 80.45,100.49259242039948 80.525,100.48682574968389 80.6,100.46419080174502 80.675,100.47898755492847 80.75,100.5068541172026 80.825,100.51721052263625 80.9,100.51927860983098 80.975,100.52855493568659 81.05,100.55158868290941 81.125,100.51947297255785 81.2,100.49105595720629 81.275,100.48709266314059 81.35,100.49877878391078 81.425,100.52193124004157 81.5,100.51976853194039 81.575,100.5273772169384 81.65,100.5255071348994 81.725,100.53532788963983 81.8,100.55898654621501 81.875,100.57140557492612 81.95,100.56078038760567 82.025,100.55919142128819 82.1,100.57313096568852 82.175,100.55779994823068 82.25,100.51642384393746 82.32499999999999,100.50710747972774 82.4,100.48673025846092 82.475,100.479361288425 82.55,100.44385952826502 82.625,100.43346582390866 82.69999999999999,100.41376791149456 82.775,100.40007849277369 82.85,100.3914913311094 82.925,100.39180607853847 83.0,100.40652809749326 83.07499999999999,100.41433160448673 83.15,100.43831992558023 83.225,100.42829327004578 83.3,100.41370344920024 83.375,100.39850766789806 83.44999999999999,100.40326058039508 83.525,100.40290718364236 83.6,100.39771971397684 83.675,100.39892473895083 83.75,100.42254626108104 83.82499999999999,100.43317150373089 83.9,100.44623050386407 83.975,100.4477874998212 84.05,100.46903905101377 84.125,100.47067948659037 84.19999999999999,100.48077408084593 84.275,100.49362787371531 84.35,100.50539979471671 84.425,100.51428162894906 84.5,100.51721087250043 84.57499999999999,100.52562392132941 84.65,100.52582404531381 84.725,100.5418189258121 84.8,100.57392761103128 84.875,100.62007647249894 84.94999999999999,100.6237509392002 85.025,100.64696021309962 85.1,100.64342908761014 85.175,100.64035337242073 85.25,100.64521196809898 85.32499999999999,100.64757345711696 85.4,100.63517592154389 85.475,100.63261146005803 85.55,100.61582772712192 85.625,100.59407856865178 85.69999999999999,100.58230306619157 85.775,100.58197523554205 85.85,100.56084779688884 85.925,100.53128631755061 86.0,100.53999861466794 86.07499999999999,100.5142070183808 86.15,100.49038555250334 86.225,100.47472377218838 86.3,100.44220274319927 86.375,100.40434679190169 86.44999999999999,100.41209806408996 86.525,100.38881348187843 86.6,100.38568507521606 86.675,100.37595163050572 86.75,100.35404242169015 86.82499999999999,100.33464273151793 86.9,100.33733128136663 86.975,100.32076133617865 87.05,100.31091206546178 87.125,100.31311316572295 87.19999999999999,100.31962190386626 87.275,100.30942544843742 87.35,100.32105117015197 87.425,100.33913619302965 87.5,100.33363789286052 87.57499999999999,100.3496451099371 87.65,100.37648945124222 87.725,100.39280620072348 87.8,100.39356174774322 87.875,100.38297920208059 87.94999999999999,100.37570554650503 88.025,100.35972373831171 88.1,100.35697710160713 88.175,100.36947051570124 88.25,100.3725568015924 88.32499999999999,100.38196022071261 88.4,100.37812422390407 88.475,100.39978665312688 88.55,100.41180035709868 88.625,100.41475792731066 88.69999999999999,100.41277101983403 88.775,100.40895453832009 88.85,100.4041360911503 88.925,100.37613663916281 89.0,100.36285102486599 89.07499999999999,100.35823574425507 89.15,100.3380211128012 89.225,100.31930455882768 89.3,100.32054891889946 89.375,100.32934446929131 89.44999999999999,100.31174909769383 89.525,100.3121002858222 89.6,100.3140166718446 89.675,100.31058795615853 89.75,100.31779619938987 89.82499999999999,100.3092276775369 89.9,100.31281731379647 89.975,100.30829982639494 90.05,100.29946979530907 90.125,100.28419342670648 90.19999999999999,100.26456616581879 90.275,100.25651086101905 90.35,100.26923413993853 90.425,100.2684085691541 90.5,100.26138093874577 90.57499999999999,100.23540567122667 90.65,100.2185022624353 90.725,100.20345690335108 90.8,100.17830257539218 90.875,100.14876542922184 90.94999999999999,100.12069086491289 91.025,100.08135420267249 91.1,100.05123318198508 91.175,100.01304073798264 91.25,99.95121232213175 91.32499999999999,99.91391265427826 91.4,99.86564729863632 91.475,99.81846445522261 91.55,99.79047592848144 91.625,99.76677622189777 91.69999999999999,99.74807865752496 91.775,99.72667248548254 91.85,99.7033375853015 91.925,99.68620841984958 92.0,99.60631503668932 92.07499999999999,99.52720665730048 92.15,99.46623276967694 92.225,99.37322384957899 92.3,99.24963637827474 92.375,99.13778464706691 92.44999999999999,99.04630969790645 92.525,98.6820387692042 92.6,98.10518596248843 92.675,97.5713428750011 92.75,97.20434980139429 92.82499999999999,96.98310254548745 92.9,96.71483907358214 92.975,96.4464271698116 93.05,95.96488164385838 93.125,95.48838184584399 93.19999999999999,94.98327681097477 93.275,94.30434883266757 93.35,93.69107915750082 93.425,92.79536866992291 93.5,91.51086873280718 93.57499999999999,90.12464918541798 93.65,88.81864417800564 93.725,87.40436238282226 93.8,86.15579338386576 93.875,83.942354884238 93.94999999999999,81.98538848495912 94.025,81.02134745912514 94.1,79.48901090321974 94.175,78.09332312734325 94.25,76.84038139531908 94.32499999999999,76.2368096233913 94.4,75.5805233117381 94.475,74.45754949169702 94.55,73.98041655758173 94.625,73.40183647950938 94.69999999999999,73.12403528341954 94.775,73.0 94.85,73.26446736315674 94.925,73.92945310626442 95.0,75.06752831398322 95.07499999999999,76.38247243602675 95.15,77.63570430005618 95.225,79.01248143508018 95.3,80.07160513522288 95.375,82.24168763468585 95.44999999999999,84.15691226935819 95.525,85.47457957209832 95.6,87.53058590294378 95.675,89.40148015832756 95.75,90.97349919188551 95.82499999999999,91.75129537997546 95.9,92.65711571905666 95.975,94.0136504302528 96.05,94.92690066558266 96.125,95.93818947118878 96.19999999999999,96.73374429522717 96.275,97.51528199764425 96.35,97.73953346955763 96.425,97.80011289729471 96.5,97.82126102067804 96.57499999999999,97.787624392926 96.65,97.75604942659295 96.725,97.76026646535236 96.8,98.00505157904959 96.875,98.14842307389542 96.94999999999999,98.29040807326481 97.025,98.3159252084345 97.1,98.36645270163443 97.175,98.42868537757201 97.25,98.49713805014783 97.32499999999999,98.54806476559484 97.4,98.58579382167308 97.475,98.63869423410861 97.55,98.70042823397125 97.625,98.76199111959174 97.69999999999999,98.7682869862162 97.775,98.80278445901307 97.85,98.92353022277037 97.925,99.10812636751201 98.0,99.30318698014898 98.07499999999999,99.50145926241848 98.15,99.66536501354436 98.225,99.80985884301941 98.3,99.91015781099614 98.375,99.95116808444746 98.44999999999999,99.97664019497603 98.525,100.01488141751524 98.6,100.06066609504789 98.675,100.09154554661745 98.75,100.12501032500452 98.82499999999999,100.16513278137609 98.9,100.19635581681162 98.975,100.22462748772723 99.05,100.24362206643879 99.125,100.26848343882098 99.19999999999999,100.32573004960844 99.275,100.35720795923316 99.35,100.38790684377656 99.425,100.43983396809978 99.5,100.47349152314602 99.57499999999999,100.51590476197204 99.65,100.51646076870088 99.725,100.51665883546593 99.8,100.52580687473998 99.875,100.53073714207876 99.94999999999999,100.54906610029406 100.025,100.54686291158833 100.1,100.53076393752953 100.175,100.53301954046995 100.25,100.51653185127552 100.32499999999999,100.4818279957415 100.4,100.47986589353465 100.475,100.47564380349085 100.55,100.46248140682243 100.625,100.41880304631076 100.69999999999999,100.34799103002538 100.775,100.31409888394539 100.85,100.28968614478582 100.925,100.26022927727476 101.0,100.28533352500065 101.07499999999999,100.26229409555961 101.15,100.2684622721431 101.225,100.29342895384484 101.3,100.30192982606644 101.375,100.29281466710518 101.44999999999999,100.28753902906031 101.525,100.28180759045148 101.6,100.28434568205287 101.675,100.30354598405496 101.75,100.3440700873072 101.82499999999999,100.39636304114772 101.9,100.41313711058245 101.975,100.42150435384413 102.05,100.46309932097576 102.125,100.52377742392538 102.19999999999999,100.5833175380505 102.275,100.62788699904335 102.35,100.6517835037616 102.425,100.67774778969718 102.5,100.67909490944388 102.57499999999999,100.70527396203322 102.65,100.73706545455985 102.725,100.71996720402245 102.8,100.69861755730405 102.875,100.71563256514354 102.94999999999999,100.7263153855415 103.025,100.72108741529289 103.1,100.7197185172538 103.175,100.72168580534212 103.25,100.70326711155501 103.32499999999999,100.7164401223403 103.4,100.7046664453118 103.475,100.68904145317578 103.55,100.67952567090825 103.625,100.65181783950018 103.69999999999999,100.6230107668475 103.775,100.6071305911867 103.85,100.60591383124635 103.925,100.55516040513112 104.0,100.51447929707422 104.07499999999999,100.48487977432143 104.15,100.45287656528421 104.225,100.45140217825839 104.3,100.45610132688286 104.375,100.44127892355947 104.44999999999999,100.41122828597888 104.525,100.42249119317538 104.6,100.4250042012916 104.675,100.4138927941933 104.75,100.4179561998614 104.82499999999999,100.38958658299865 104.9,100.37185174769502 104.975,100.3798934077341 105.05,100.3595853115397 105.125,100.39026705361508 105.19999999999999,100.44591690300294 105.275,100.4596258945586 105.35,100.44935302104616 105.425,100.47282272439243 105.5,100.49176260214522 105.57499999999999,100.5164820198099 105.65,100.51966823723801 105.725,100.53149230247676 105.8,100.53629613268991 105.875,100.55002352425774 105.94999999999999,100.57149664286723 106.025,100.5668861187618 106.1,100.57042969677131 106.175,100.56436201743526 106.25,100.56286008632709 106.32499999999999,100.56538057353795 106.4,100.58034195488352 106.475,100.57633867490672 106.55,100.58315019391291 106.625,100.55756771641755 106.69999999999999,100.49110218913933 106.775,100.45621063211526 106.85,100.45912682390285 106.925,100.45928103029013 107.0,100.44208933803422 107.07499999999999,100.42304067516758 107.15,100.42082633165403 107.225,100.41479343286139 107.3,100.42582156773781 107.375,100.43834254097295 107.44999999999999,100.45091450448146 107.525,100.45992443296194 107.6,100.46917882999121 107.675,100.45756484900424 107.75,100.44699553771846 107.82499999999999,100.4464781097307 107.9,100.42821962730784 107.975,100.42513222982373 108.05,100.42448753007119 108.125,100.43876551353546 108.19999999999999,100.45959367442089 108.275,100.49433601591797 108.35,100.50068319377476 108.425,100.48829143994594 108.5,100.49634196625097 108.57499999999999,100.49611053276055 108.65,100.48980422964684 108.725,100.46235506148338 108.8,100.44851596068912 108.875,100.44268636979922 108.94999999999999,100.42347686197223 109.025,100.41806218899936 109.1,100.4050112376243 109.175,100.43557292255304 109.25,100.45492594375848 109.32499999999999,100.45432497925064 109.4,100.4719038085058 109.475,100.48047067760525 109.55,100.48305047989865 109.625,100.47808299383577 109.69999999999999,100.46469835415463 109.775,100.45176066083617 109.85,100.44812021650677 109.925,100.44943798083614 110.0,100.44324743208442 110.07499999999999,100.44631310997312 110.15,100.456555046722 110.225,100.49815481153851 110.3,100.51301388385919 110.375,100.49713502087369 110.44999999999999,100.49434744773663 110.525,100.49754453251016 110.6,100.50949961162173 110.675,100.49464776040277 110.75,100.49731622928161 110.82499999999999,100.50728982881441 110.9,100.5241664994985 110.975,100.5488409436979 111.05,100.57338341026762 111.125,100.57965618958626 111.19999999999999,100.60152955291753 111.275,100.59238293585291 111.35,100.58435962389727 111.425,100.5867238608591 111.5,100.58017681550231 111.57499999999999,100.63341371345167 111.65,100.62732931852574 111.725,100.60298657301387 111.8,100.59027576302556 111.875,100.60378881735458 111.94999999999999,100.61350348781856 112.025,100.61122839874287 112.1,100.60149884659666 112.175,100.59416435929903 112.25,100.57341610833727 112.32499999999999,100.56558298714842 112.4,100.55542207309584 112.475,100.53718131821255 112.55,100.51971960079615 112.625,100.51116734407957 112.69999999999999,100.51349468575805 112.775,100.53239907475518 112.85,100.54952161560209 112.925,100.56541253629457 113.0,100.58083864232397 113.07499999999999,100.5328291483301 113.15,100.52235094349788 113.225,100.48866089822022 113.3,100.48106452898459 113.375,100.48514601262167 113.44999999999999,100.47076447253315 113.525,100.46818502693756 113.6,100.47172414928286 113.675,100.46655983831127 113.75,100.47914460251023 113.82499999999999,100.50965620900516 113.9,100.49423037013432 113.975,100.47926950007654 114.05,100.47364508590796 114.125,100.49768194125656 114.2,100.48573527795888 114.27499999999999,100.46762155988905 114.35,100.44773224829918 114.425,100.43865999244909 114.5,100.43775020710194 114.575,100.4264213519179 114.64999999999999,100.44690498126658 114.725,100.49270649779518 114.8,100.51356842664104 114.875,100.51317107840637 114.95,100.54358537455572 115.02499999999999,100.56198981833046 115.1,100.57374483480388 115.175,100.60405736331049 115.25,100.60034196868924 115.325,100.5750958219122 115.39999999999999,100.5771551001933 115.475,100.5826094250309 115.55,100.58912728955363 115.625,100.57679376275149 115.7,100.57564319736478 115.77499999999999,100.58840442300689 115.85,100.60015296410883 115.925,100.6070582002218 116.0,100.60575394811214 116.075,100.61735708135033 116.14999999999999,100.61256086712284 116.225,100.61674571720746 116.3,100.61210361833207 116.375,100.6017461340411 116.45,100.58449286583208 116.52499999999999,100.57007763712772 116.6,100.57559134077457 116.675,100.63416480217072 116.75,100.63386836204482 116.825,100.62577850710521 116.89999999999999,100.63518488753722 116.975,100.64879388176114 117.05,100.64796270698076 117.125,100.63985339910994 117.2,100.64977979190111 117.27499999999999,100.6491016144302 117.35,100.6372275413107 117.425,100.63011092898088 117.5,100.61963554236142 117.575,100.60236653426878 117.64999999999999,100.60766508161274 117.725,100.59846245461323 117.8,100.58580268891346 117.875,100.58349362757247 117.95,100.57875561885365 118.02499999999999,100.59009641717212 118.1,100.57650480593138 118.175,100.51037110183248 118.25,100.50963725076517 118.325,100.50804032841383 118.39999999999999,100.51334967444156 118.475,100.49352128075463 118.55,100.48990934832487 118.625,100.49928307123037 118.7,100.50626470102173 118.77499999999999,100.51144040724864 118.85,100.51842356261648 118.925,100.5057676300561 119.0,100.5055856390969 119.075,100.51275451047829 119.14999999999999,100.49621605585178 119.225,100.48781996134396 119.3,100.48370323836185 119.375,100.47938548668078 119.45,100.47529205961153 119.52499999999999,100.45876772345414 119.6,100.45504052057163 119.675,100.44391077108979 119.75,100.43434009398447 119.825,100.43601005815005 119.89999999999999,100.43046152830631 119.975,100.44198903014116 120.05,100.4467731307102 120.125,100.43896031680208 120.2,100.43643053606168 120.27499999999999,100.42777794586081 120.35,100.43832835090764 120.425,100.45304942223164 120.5,100.44943990236825 120.575,100.45602097409287 120.64999999999999,100.47416812793246 120.725,100.49680668915663 120.8,100.50930298759377 120.875,100.53395508385735 120.95,100.54349257029814 121.02499999999999,100.55365285569953 121.1,100.55638371616787 121.175,100.55924842175962 121.25,100.56405522685317 121.325,100.56834190776753 121.39999999999999,100.5708344352894 121.475,100.55940275491061 121.55,100.56016810797534 121.625,100.55859977109557 121.7,100.53741991488664 121.77499999999999,100.53065068030733 121.85,100.51399352001532 121.925,100.51232187091479 122.0,100.51741697028797 122.075,100.51067330529041 122.14999999999999,100.51158198238231 122.225,100.49866659981593 122.3,100.49439584011868 122.375,100.4789683733912 122.45,100.48072182901306 122.52499999999999,100.48150995743991 122.6,100.46949360017094 122.675,100.46597358557882 122.75,100.46865821826228 122.825,100.45790915129794 122.89999999999999,100.45755812604736 122.975,100.4642165807115 123.05,100.45318815015499 123.125,100.44780624095108 123.2,100.45103353592712 123.27499999999999,100.44681002763224 123.35,100.4707699389062 123.425,100.48061322391086 123.5,100.47619353396989 123.575,100.47525790990944 123.64999999999999,100.48206894254852 123.725,100.48320475552178 123.8,100.48220888502387 123.875,100.48731399030783 123.95,100.48068012308634 124.02499999999999,100.48104577884399 124.1,100.49446956091444 124.175,100.49648948523607 124.25,100.50696279970867 124.325,100.52427999780366 124.39999999999999,100.52022847160497 124.475,100.51750088237644 124.55,100.5155600836063 124.625,100.52205341041127 124.7,100.52640550234514 124.77499999999999,100.52207113228624 124.85,100.5017748761966 124.925,100.4727498164104 125.0,100.4725778132464 125.075,100.47653923487721 125.14999999999999,100.46086235662854 125.225,100.44814880464172 125.3,100.42732005191031 125.375,100.40511204716698 125.45,100.40084290510856 125.52499999999999,100.38880589322186 125.6,100.39649875451495 125.675,100.40314309295235 125.75,100.39520378868465 125.825,100.3891787934759 125.89999999999999,100.39224250606765 125.975,100.40128916492357 126.05,100.40727198395146 126.125,100.40906914692079 126.2,100.40754222856745 126.27499999999999,100.41716194210274 126.35,100.41261559875878 126.425,100.4231673574452 126.5,100.42902389320446 126.575,100.43294533875306 126.64999999999999,100.43843564907093 126.725,100.44697491468364 126.8,100.46021160295142 126.875,100.46981974699284 126.95,100.47304863564055 127.02499999999999,100.48102061723577 127.1,100.46801974150243 127.175,100.46398823084775 127.25,100.45951315714026 127.325,100.4470354439367 127.39999999999999,100.45145727405293 127.475,100.44175882328554 127.55,100.44155280663358 127.625,100.43909273103125 127.7,100.44309759784252 127.77499999999999,100.43912702214959 127.85,100.48189889156433 127.925,100.48993537401843 128.0,100.49585007585385 128.075,100.49417578468909 128.14999999999998,100.49434109465125 128.225,100.49878212467023 128.3,100.50584502368004 128.375,100.5205300047181 128.45,100.51887486706369 128.52499999999998,100.50833817945127 128.6,100.502039736984 128.675,100.48738295854498 128.75,100.49199348494291 128.825,100.51042874108764 128.89999999999998,100.51201466957161 128.975,100.56620432108032 129.05,100.5889326171632 129.125,100.57849650631792 129.2,100.57419383472211 129.27499999999998,100.57522648069839 129.35,100.53030191012896 129.425,100.52415123960297 129.5,100.50622800908592 129.575,100.49069783690527 129.64999999999998,100.49085589694843 129.725,100.48187571033587 129.8,100.48303409443623 129.875,100.47767897477495 129.95,100.47091870432486 130.02499999999998,100.47255917589652 130.1,100.49285758920337 130.175,100.52682526141531 130.25,100.53776908721959 130.325,100.53975545587548 130.39999999999998,100.53814970526116 130.475,100.49415869681907 130.55,100.47289549346115 130.625,100.47998069596314 130.7,100.48495006448113 130.77499999999998,100.49722991273231 130.85,100.51141503431496 130.925,100.51547347129636 131.0,100.52774773263928 131.075,100.53930611837893 131.14999999999998,100.53340833378127 131.225,100.53761324456741 131.3,100.53327624331106 131.375,100.52418359360584 131.45,100.5334521999557 131.52499999999998,100.53884633039718 131.6,100.51983640223398 131.675,100.50011506675206 131.75,100.48786188750368 131.825,100.45776274940206 131.89999999999998,100.44074040370455 131.975,100.42788179220415 132.05,100.41455078914572 132.125,100.40942314183927 132.2,100.40342232498686 132.27499999999998,100.39058643078506 132.35,100.38797482444716 132.425,100.37811128123661 132.5,100.38796499558964 132.575,100.38616149617116 132.64999999999998,100.38971867394683 132.725,100.39361523515684 132.8,100.39013501843003 132.875,100.39209167650071 132.95,100.39139501126108 133.02499999999998,100.38241049615654 133.1,100.38313092820732 133.175,100.37611766025535 133.25,100.37167254415557 133.325,100.38371590461739 133.39999999999998,100.3986294105865 133.475,100.40687742869714 133.55,100.41273259201428 133.625,100.41519144642491 133.7,100.42311462885652 133.77499999999998,100.43417432861057 133.85,100.4470711626784 133.925,100.46769343549484 134.0,100.47040026868514 134.075,100.46753594073385 134.14999999999998,100.47252095877795 134.225,100.47884134514757 134.3,100.48335101438627 134.375,100.47830512155043 134.45,100.4738621563408 134.52499999999998,100.48665814236557 134.6,100.48441468242213 134.675,100.47808132451601 134.75,100.50558103484441 134.825,100.5198435112196 134.89999999999998,100.52738302262654 134.975,100.52020876759666 135.05,100.52042227809069 135.125,100.52397516911579 135.2,100.51429773402441 135.27499999999998,100.50801575728181 135.35,100.49875945412911 135.425,100.49066734586839 135.5,100.48482364222643 135.575,100.48699280784132 135.64999999999998,100.45517346462074 135.725,100.42131242877021 135.8,100.41061678269244 135.875,100.39719099511363 135.95,100.40561512665428 136.02499999999998,100.37365605955512 136.1,100.34218971437879 136.175,100.35298650362941 136.25,100.31059116097408 136.325,100.30102657091331 136.39999999999998,100.29023778814255 136.475,100.28759725610243 136.55,100.27714328241747 136.625,100.27318233640392 136.7,100.27400315061519 136.77499999999998,100.26057327531615 136.85,100.25150402028171 136.925,100.2477025872053 137.0,100.2520275785797 137.075,100.27893350380451 137.14999999999998,100.3373585937443 137.225,100.38012746248644 137.3,100.40020851248887 137.375,100.40799823104392 137.45,100.40346343248555 137.52499999999998,100.41756560155177 137.6,100.45979423814917 137.675,100.46524857445252 137.75,100.48255236720016 137.825,100.48653277070885 137.89999999999998,100.48914573655233 137.975,100.4996630211081 138.05,100.51378121473388 138.125,100.51114556643387 138.2,100.51402846594793 138.27499999999998,100.5319676986856 138.35,100.53338142974923 138.425,100.54392598476177 138.5,100.60029822916502 138.575,100.61634381127041 138.64999999999998,100.58872740649689 138.725,100.57989147039908 138.8,100.5685438316787 138.875,100.59070587903011 138.95,100.59921184034862 139.02499999999998,100.59955959472062 139.1,100.59921976045833 139.175,100.59888384484668 139.25,100.59947274135892 139.325,100.62106333962106 139.39999999999998,100.62761330023143 139.475,100.62647956114668 139.55,100.60985916840154 139.625,100.60842849456196 139.7,100.59945490150324 139.77499999999998,100.58664725848166 139.85,100.60211995161526 139.925,100.60025890496776 140.0,100.54353518221177 140.075,100.51683299724455 140.14999999999998,100.52029416555679 140.225,100.50200927187224 140.3,100.50395684147882 140.375,100.4962737407828 140.45,100.47933797247593 140.52499999999998,100.48670603520857 140.6,100.48360885243441 140.675,100.47481420247658 140.75,100.46666406041129 140.825,100.43288032228263 140.89999999999998,100.4166120320223 140.975,100.40062711537759 141.05,100.40431652266678 141.125,100.39666419582996 141.2,100.39850084323794 141.27499999999998,100.40640125570006 141.35,100.3890377790594 141.425,100.3816627898772 141.5,100.37020230073006 141.575,100.35395668946049 141.64999999999998,100.33208086790675 141.725,100.33920413388135 141.8,100.33218570102395 141.875,100.32313593580689 141.95,100.33049997602953 142.02499999999998,100.33246579381102 142.1,100.33333558759352 142.175,100.33560500413006 142.25,100.34692261949057 142.325,100.352627067262 142.39999999999998,100.3627761576284 142.475,100.37954821500924 142.55,100.38913464807256 142.625,100.39533418011253 142.7,100.4008472516025 142.77499999999998,100.40374892744592 142.85,100.41487201843859 142.925,100.42739915801988 143.0,100.43189016919123 143.075,100.44078327039821 143.14999999999998,100.46448872657813 143.225,100.45967895580903 143.3,100.46543922167363 143.375,100.47366009510407 143.45,100.47378718107889 143.52499999999998,100.4836136238294 143.6,100.49481856377744 143.675,100.50568838432073 143.75,100.5132523643754 143.825,100.52439177561955 143.89999999999998,100.53237163397017 143.975,100.52747104087882 144.05,100.54530555215607 144.125,100.55480529287858 144.2,100.56622880578894 144.27499999999998,100.56348212664467 144.35,100.57166794683872 144.425,100.57244053483049 144.5,100.59898921314291 144.575,100.60374521448351 144.64999999999998,100.61256159522749 144.725,100.63074300286071 144.8,100.63915254347688 144.875,100.65527981934113 144.95,100.6673152034301 145.02499999999998,100.66827578599823 145.1,100.65314299915238 145.175,100.66931293884443 145.25,100.68184189683946 145.325,100.69837233378993 145.39999999999998,100.69313523171544 145.475,100.72677428838898 145.55,100.70599295702293 145.625,100.69262788372396 145.7,100.6645042068547 145.77499999999998,100.66627097880486 145.85,100.66002619211976 145.925,100.69074860557562 146.0,100.66384438248974 146.075,100.64559505609282 146.14999999999998,100.59562324714163 146.225,100.58484663771226 146.3,100.56152651674742 146.375,100.53597941997992 146.45,100.4985256196852 146.52499999999998,100.48810031920067 146.6,100.48051090634428 146.675,100.44588361191654 146.75,100.42340392646706 146.825,100.4008179254327 146.89999999999998,100.38843631954579 146.975,100.36475961397275 147.05,100.35965375212896 147.125,100.35566306909674 147.2,100.36112330946459 147.27499999999998,100.36270217441081 147.35,100.38319844168969 147.425,100.37634453109995 147.5,100.38131367336683 147.575,100.388802910641 147.64999999999998,100.42252253780644 147.725,100.41319452183426 147.8,100.444432758641 147.875,100.45448340266125 147.95,100.47906377653597 148.02499999999998,100.47670602511914 148.1,100.48125311471624 148.175,100.48931960897633 148.25,100.480772246352 148.325,100.47624873361106 148.39999999999998,100.47670213239032 148.475,100.48744981621569 148.55,100.51107821264091 148.625,100.54225256740357 148.7,100.55523357281298 148.77499999999998,100.56482726704188 148.85,100.55035989871797 148.925,100.5416675651672 149.0,100.52318517295255 149.075,100.52593289642537 149.14999999999998,100.5222695512622 149.225,100.51412147074802 149.3,100.5074160017474 149.375,100.51887237329083 149.45,100.51395321339757 149.52499999999998,100.55110118091662 149.6,100.57296049695222 149.675,100.58545457109038 149.75,100.58412198741779 149.825,100.58960727715913 149.89999999999998,100.58577009656584 149.975,100.56877888778358 150.05,100.55551565546784 150.125,100.53631035811351 150.2,100.54836979305848 150.27499999999998,100.54332264536711 150.35,100.530387738314 150.425,100.5087654208806 150.5,100.52180129327549 150.575,100.52973717970966 150.64999999999998,100.537367476902 150.725,100.56846166189646 150.8,100.55460973058986 150.875,100.53658540240416 150.95,100.5512419970616 151.02499999999998,100.53999211714836 151.1,100.58679720776622 151.175,100.59238675583443 151.25,100.61189229795691 151.325,100.61832895176254 151.39999999999998,100.6307060233039 151.475,100.64006717310214 151.55,100.64424958832033 151.625,100.65269628602543 151.7,100.6424826186228 151.77499999999998,100.63472307019782 151.85,100.64714884215599 151.925,100.64817890066722 152.0,100.66167121219964 152.075,100.65181308247546 152.14999999999998,100.64639668811333 152.225,100.63429850586513 152.3,100.6323866249851 152.375,100.6409458821221 152.45,100.63615151142201 152.52499999999998,100.61045348751726 152.6,100.54793278474135 152.675,100.53607998511096 152.75,100.52255658493397 152.825,100.50256416212856 152.89999999999998,100.50476609224191 152.975,100.49885424756374 153.05,100.50058362346695 153.125,100.49752266854135 153.2,100.49954045548074 153.27499999999998,100.49325579286408 153.35,100.4797147354761 153.425,100.47832917115308 153.5,100.47644521534455 153.575,100.4719688275026 153.64999999999998,100.46502157990419 153.725,100.46222844935664 153.8,100.46995234510324 153.875,100.45951655705024 153.95,100.44916630167438 154.02499999999998,100.46319223869493 154.1,100.46736611502386 154.175,100.46507103325945 154.25,100.46357874304339 154.325,100.48026495861153 154.39999999999998,100.47426016505581 154.475,100.46846828536606 154.55,100.46781379320689 154.625,100.47267399881498 154.7,100.47220249712679 154.77499999999998,100.488132718972 154.85,100.49205128581286 154.925,100.48608300058245 155.0,100.47554551454357 155.075,100.47528458641597 155.14999999999998,100.48733539203074 155.225,100.49126511337295 155.3,100.49413196671325 155.375,100.50969120952482 155.45,100.53081982921223 155.52499999999998,100.52080064012662 155.6,100.50751336018033 155.675,100.50758306895929 155.75,100.49791445759053 155.825,100.48333484495488 155.89999999999998,100.49248975893542 155.975,100.50201799711463 156.05,100.49959667988924 156.125,100.48467857032388 156.2,100.4911187897539 156.27499999999998,100.49224346799953 156.35,100.50379984905018 156.425,100.50360674499727 156.5,100.5011010262714 156.575,100.50068987917064 156.64999999999998,100.49497757692063 156.725,100.48426350988414 156.8,100.49882336643836 156.875,100.49662260368949 156.95,100.47965606606023 157.02499999999998,100.49912621679366 157.1,100.50524245479247 157.175,100.49718164375643 157.25,100.50183080767845 157.325,100.49812033487 157.39999999999998,100.48510294775711 157.475,100.47578072810566 157.55,100.46701491398693 157.625,100.4776142816131 157.7,100.4692543215634 157.77499999999998,100.46892247355483 157.85,100.46653553394717 157.925,100.48415811744822 158.0,100.49527916852779 158.075,100.50221493771194 158.14999999999998,100.50368880591263 158.225,100.50667436788835 158.3,100.49471758191923 158.375,100.49924111560736 158.45,100.50924269705652 158.52499999999998,100.47963698373367 158.6,100.4869320541139 158.675,100.51500818228745 158.75,100.5241247652148 158.825,100.53618178635557 158.89999999999998,100.53588387046307 158.975,100.5609866238302 159.05,100.577289747704 159.125,100.57039828852692 159.2,100.57177902140228 159.27499999999998,100.55493290923512 159.35,100.54798032872209 159.425,100.54603478607662 159.5,100.55448966064118 159.575,100.56559337496242 159.64999999999998,100.56224096643048 159.725,100.56267015329924 159.8,100.56946672962125 159.875,100.5547972443601 159.95,100.548766013347 160.02499999999998,100.5655248440919 160.1,100.55801704717514 160.175,100.53738184835733 160.25,100.53897458597866 160.325,100.54576920183803 160.39999999999998,100.55786763325483 160.475,100.55741706201226 160.55,100.55518567491744 160.625,100.55848067429902 160.7,100.55238659266784 160.77499999999998,100.5590854338364 160.85,100.56638187035242 160.925,100.54748397039056 161.0,100.52517199833731 161.075,100.50666098502676 161.14999999999998,100.4909673897592 161.225,100.49142153719075 161.3,100.47822032260159 161.375,100.49275660566312 161.45,100.49465000069443 161.52499999999998,100.49128021998506 161.6,100.49867644522939 161.675,100.48742223245117 161.75,100.49298810300769 161.825,100.49316576291747 161.89999999999998,100.48980903359468 161.975,100.46909111694349 162.05,100.46145972242348 162.125,100.46211521510494 162.2,100.45422607581956 162.27499999999998,100.451188730574 162.35,100.44335379586738 162.425,100.45861533892445 162.5,100.46855202461283 162.575,100.46693864892876 162.64999999999998,100.47772457647991 162.725,100.47906289359688 162.8,100.47108773001693 162.875,100.45885271685603 162.95,100.44720377549599 163.02499999999998,100.47619911858585 163.1,100.49479542616263 163.175,100.49285054131437 163.25,100.507415096619 163.325,100.52549053923445 163.39999999999998,100.5564514378257 163.475,100.576100363311 163.55,100.60760475128522 163.625,100.63599390914581 163.7,100.64874770689192 163.77499999999998,100.65637305587697 163.85,100.64909207726915 163.925,100.6392473487791 164.0,100.62556776194887 164.075,100.62210383304752 164.14999999999998,100.65042198289314 164.225,100.661331934867 164.3,100.67057196869524 164.375,100.66061336261045 164.45,100.6573367271769 164.52499999999998,100.62652608121303 164.6,100.59043825639793 164.675,100.59591732672808 164.75,100.56162479695072 164.825,100.54426582717562 164.89999999999998,100.51253828540507 164.975,100.49080435333165 165.05,100.47317344452031 165.125,100.4342348488226 165.2,100.43872123419145 165.27499999999998,100.44136990135408 165.35,100.43747059132494 165.425,100.43872302942815 165.5,100.45059871266783 165.575,100.46033094265611 165.64999999999998,100.430076337796 165.725,100.42094095271341 165.8,100.4143130948728 165.875,100.41225493341506 165.95,100.41988201172481 166.02499999999998,100.42308007284632 166.1,100.45047602823553 166.175,100.48267775414138 166.25,100.5163897155588 166.325,100.53040771763281 166.39999999999998,100.54649511801139 166.475,100.54933454890072 166.55,100.55976228261565 166.625,100.58185690334022 166.7,100.56983482397725 166.77499999999998,100.56820089432097 166.85,100.58207761666216 166.925,100.58864301877401 167.0,100.56851157419585 167.075,100.56016143543562 167.14999999999998,100.58821192531722 167.225,100.60033851846023 167.3,100.61649172099497 167.375,100.62589189419896 167.45,100.63839019216965 167.52499999999998,100.64888770750434 167.6,100.64694060518967 167.675,100.60266289301106 167.75,100.57239592111503 167.825,100.55587098007138 167.89999999999998,100.52417808445628 167.975,100.52210653938522 168.05,100.49702092821501 168.125,100.46444895476075 168.2,100.45733475236746 168.27499999999998,100.45081776236604 168.35,100.442625925473 168.425,100.42447408031414 168.5,100.44579797622005 168.575,100.44427020779365 168.64999999999998,100.39287873909788 168.725,100.37318595050357 168.8,100.37244126238086 168.875,100.4009039591604 168.95,100.39685009999516 169.02499999999998,100.40429432774904 169.1,100.40378320143161 169.175,100.43043984360632 169.25,100.43646218828097 169.325,100.42140486377602 169.39999999999998,100.43889592096309 169.475,100.45013884681323 169.55,100.45464021025855 169.625,100.4728425964199 169.7,100.48847994746363 169.77499999999998,100.51396099207808 169.85,100.59854167066524 169.925,100.61463926996004 170.0,100.6174582146296 170.075,100.63434743684375 170.14999999999998,100.67656326202278 170.225,100.68240455871005 170.3,100.66257384945513 170.375,100.64101509602207 170.45,100.64705337711315 170.52499999999998,100.62865722644023 170.6,100.62526602715747 170.675,100.6227285021079 170.75,100.64605728459847 170.825,100.67986243083153 170.89999999999998,100.68632532812529 170.975,100.6805157898419 171.05,100.66956550457724 171.125,100.6747017032994 171.2,100.66588579866178 171.27499999999998,100.63918851688844 171.35,100.53468950652982 171.425,100.5266607861983 171.5,100.51705586421141 171.575,100.50454146725157 171.64999999999998,100.47028388784666 171.725,100.46296859885236 171.8,100.46720442243522 171.875,100.46217346692455 171.95,100.44534421908578 172.02499999999998,100.45503690208832 172.1,100.4659187812214 172.175,100.46955743495775 172.25,100.46255116224317 172.325,100.44525317178729 172.39999999999998,100.44061401199828 172.475,100.44987498804161 172.55,100.44942177968049 172.625,100.45385830136102 172.7,100.45514765915236 172.77499999999998,100.4618929886562 172.85,100.478013701957 172.925,100.48182657028714 173.0,100.47992123743833 173.075,100.48944509576204 173.14999999999998,100.5190304153394 173.225,100.5304035058681 173.3,100.53872406645259 173.375,100.54340876549128 173.45,100.54867641146838 173.52499999999998,100.52650481287193 173.6,100.49862561868652 173.675,100.48097890875103 173.75,100.47657987209689 173.825,100.47811515039544 173.89999999999998,100.45989078099912 173.975,100.43730745358957 174.05,100.43687636698104 174.125,100.43109461944587 174.2,100.43141327992565 174.27499999999998,100.41513734225572 174.35,100.40722279412894 174.425,100.4021931703079 174.5,100.4103790795253 174.575,100.41984751337272 174.64999999999998,100.44876882031168 174.725,100.49784773789581 174.8,100.53406910983682 174.875,100.54747251304491 174.95,100.54912110844079 175.02499999999998,100.54707305623415 175.1,100.54908594797185 175.175,100.57202306631817 175.25,100.57528445493573 175.325,100.58485834496746 175.39999999999998,100.62949877349668 175.475,100.66341244402004 175.55,100.6870102441874 175.625,100.70084138594517 175.7,100.70697205424713 175.77499999999998,100.71706905105972 175.85,100.7249072723921 175.925,100.72987596402629 176.0,100.72828357508638 176.075,100.70778814121212 176.14999999999998,100.67360735152752 176.225,100.62056320946847 176.3,100.5944650353544 176.375,100.58207169645442 176.45,100.58546806904508 176.52499999999998,100.58981176450085 176.6,100.59123358536955 176.675,100.57738895312194 176.75,100.55403231523792 176.825,100.53571074969575 176.89999999999998,100.50484940927917 176.975,100.4801756007748 177.05,100.47643418878826 177.125,100.46379972307824 177.2,100.46754236105681 177.27499999999998,100.47351169750155 177.35,100.46693717735909 177.425,100.44184918573312 177.5,100.4343043434711 177.575,100.44756732167912 177.64999999999998,100.45996022569497 177.725,100.46685909392845 177.8,100.45919462944003 177.875,100.45439868918147 177.95,100.45529701353408 178.025,100.46221547079207 178.1,100.4714880403625 178.17499999999998,100.46596785768827 178.25,100.4702717154 178.325,100.46959390938235 178.4,100.46695793930996 178.475,100.47491671822762 178.54999999999998,100.48302396281349 178.625,100.49504559149281 178.7,100.49958820332331 178.775,100.49605635332797 178.85,100.50566780682288 178.92499999999998,100.52611518254787 179.0,100.53216650478136 179.075,100.52484073715254 179.15,100.50080531458077 179.225,100.50326104456461 179.29999999999998,100.50958892616973 179.375,100.50944982206491 179.45,100.49953419884079 179.525,100.49694053390523 179.6,100.49391905030879 179.67499999999998,100.48638402424936 179.75,100.48473016185172 179.825,100.48852659597851 179.9,100.49856150799673 179.975,100.49087418384276 180.04999999999998,100.46247146604524 180.125,100.43940701120407 180.2,100.424012480615 180.275,100.41624805787374 180.35,100.42149518587956 180.42499999999998,100.42837220546436 180.5,100.43794740424393 180.575,100.4409448702902 180.65,100.45765804200353 180.725,100.46225031038784 180.79999999999998,100.46856829325418 180.875,100.46881726320188 180.95,100.48143141217119 181.025,100.49541278762266 181.1,100.49154649406633 181.17499999999998,100.5086382332243 181.25,100.52194459420079 181.325,100.52123798585896 181.4,100.51336481449965 181.475,100.51649883563155 181.54999999999998,100.54175450803899 181.625,100.54129276158223 181.7,100.53188862370088 181.775,100.56736066266436 181.85,100.58697868517103 181.92499999999998,100.59919203721728 182.0,100.60332717628661 182.075,100.61147589893636 182.15,100.61074947159649 182.225,100.59948896619072 182.29999999999998,100.58676439323807 182.375,100.58914992285573 182.45,100.60699102359452 182.525,100.65271814863029 182.6,100.67000652092295 182.67499999999998,100.64706265092076 182.75,100.63225731738622 182.825,100.62542022045407 182.9,100.61051874910662 182.975,100.59722139041317 183.04999999999998,100.57531738594994 183.125,100.56639751401272 183.2,100.5743472291266 183.275,100.57084023321966 183.35,100.55348315098483 183.42499999999998,100.54454457283357 183.5,100.5357333969505 183.575,100.51980259543113 183.65,100.52132899528074 183.725,100.52354863707318 183.79999999999998,100.51422801894029 183.875,100.51377624894339 183.95,100.50116864939345 184.025,100.4544084211201 184.1,100.43362629925502 184.17499999999998,100.45146306172691 184.25,100.46929927212139 184.325,100.47731011316267 184.4,100.4914954739636 184.475,100.4994533689655 184.54999999999998,100.50567320543833 184.625,100.52372976012654 184.7,100.52995944741194 184.775,100.50454331836482 184.85,100.49854006671336 184.92499999999998,100.48646431712609 185.0,100.47054973791708 185.075,100.46877760460369 185.15,100.4673513651148 185.225,100.46544698777532 185.29999999999998,100.4670841431454 185.375,100.47184246215463 185.45,100.46047162517033 185.525,100.45188950271648 185.6,100.45839170700619 185.67499999999998,100.45397648566127 185.75,100.43513213406129 185.825,100.43285648044747 185.9,100.42642476044341 185.975,100.43418163080825 186.04999999999998,100.44607307155012 186.125,100.46683559890424 186.2,100.4777694256286 186.275,100.49397214138675 186.35,100.50037357726919 186.42499999999998,100.50016141136265 186.5,100.50687625168666 186.575,100.5143038395513 186.65,100.51598220667805 186.725,100.51864816267094 186.79999999999998,100.52228648847762 186.875,100.52561760651723 186.95,100.52176304299479 187.025,100.52943727469341 187.1,100.54513465347102 187.17499999999998,100.54767203480277 187.25,100.53465831353951 187.325,100.51348147842144 187.4,100.5128413611215 187.475,100.51617666476666 187.54999999999998,100.51996653664075 187.625,100.49785062053508 187.7,100.48634683639175 187.775,100.47193930238993 187.85,100.47483990835507 187.92499999999998,100.48982849894321 188.0,100.50822995228995 188.075,100.50924412825096 188.15,100.50702585057772 188.225,100.5026262791668 188.29999999999998,100.50459601297408 188.375,100.50350319820788 188.45,100.50740107164175 188.525,100.50298488071961 188.6,100.49317723559146 188.67499999999998,100.5057429424442 188.75,100.53914919142667 188.825,100.57186229537477 188.9,100.58926676185929 188.975,100.58791142799355 189.04999999999998,100.56874954221446 189.125,100.56608980330405 189.2,100.57424507236118 189.275,100.57625540940842 189.35,100.5767252238603 189.42499999999998,100.56880661405133 189.5,100.55818587551585 189.575,100.56315804886668 189.65,100.56360341742027 189.725,100.57175734143345 189.79999999999998,100.58300567853559 189.875,100.57055597484366 189.95,100.62606996918818 190.025,100.67050026137089 190.1,100.6667168712513 190.17499999999998,100.64781713013305 190.25,100.6518413981914 190.325,100.65190268650237 190.4,100.64359227527595 190.475,100.64604157118079 190.54999999999998,100.65167362820678 190.625,100.64810585390997 190.7,100.64120050759287 190.775,100.63473338552734 190.85,100.62878560738756 190.92499999999998,100.63765636747213 191.0,100.65078345049214 191.075,100.64552236559796 191.15,100.65099784481649 191.225,100.64420452914307 191.29999999999998,100.62595461087164 191.375,100.63404345064959 191.45,100.58215166178039 191.525,100.53690802047066 191.6,100.53824847498065 191.67499999999998,100.58022002362586 191.75,100.56871499920514 191.825,100.5742000774141 191.9,100.58411887846229 191.975,100.55866316044418 192.04999999999998,100.56469975509393 192.125,100.59715041649196 192.2,100.59541614306447 192.275,100.60346543935212 192.35,100.62332817297577 192.42499999999998,100.62122210317669 192.5,100.6134726765127 192.575,100.62089655145161 192.65,100.6284865261745 192.725,100.64307936389221 192.79999999999998,100.6629548674773 192.875,100.66711532253191 192.95,100.68181994807566 193.025,100.71494569997027 193.1,100.71505076155277 193.17499999999998,100.69329166583424 193.25,100.70292636315958 193.325,100.69396220227814 193.4,100.69269525897988 193.475,100.70880729545289 193.54999999999998,100.69763573818149 193.625,100.67053190172643 193.7,100.67398691406316 193.775,100.64831728099155 193.85,100.61240912530899 193.92499999999998,100.60685419572475 194.0,100.60138173553426 194.075,100.6047045766441 194.15,100.5857992200366 194.225,100.57374694593267 194.29999999999998,100.574557037617 194.375,100.58300418001583 194.45,100.58434017145181 194.525,100.55439817442692 194.6,100.55583402049272 194.67499999999998,100.55067789628573 194.75,100.54885409481412 194.825,100.56104318162922 194.9,100.55164008763961 194.975,100.54495259543792 195.04999999999998,100.55218485409415 195.125,100.5569473255427 195.2,100.55726824880774 195.275,100.58038220017622 195.35,100.63154662439827 195.42499999999998,100.6531377712556 195.5,100.68852757348222 195.575,100.70063089288854 195.65,100.70214788515979 195.725,100.69281520737728 195.79999999999998,100.66309819090867 195.875,100.63093156935705 195.95,100.62023633798844 196.025,100.61887963188319 196.1,100.60997143408079 196.17499999999998,100.58637266338724 196.25,100.57463026529145 196.325,100.5605851097378 196.4,100.5597413953361 196.475,100.55921040771379 196.54999999999998,100.55433797112964 196.625,100.54134646025162 196.7,100.54461189735949 196.775,100.53981793316797 196.85,100.50943489449335 196.92499999999998,100.48587200002754 197.0,100.45851017179358 197.075,100.45385644329575 197.15,100.49153076483894 197.225,100.51825132009775 197.29999999999998,100.55229490328638 197.375,100.5929377281529 197.45,100.61104211342408 197.525,100.627647234305 197.6,100.66416478088463 197.67499999999998,100.70317566246739 197.75,100.70684261031558 197.825,100.7099213804825 197.9,100.71389463364592 197.975,100.7169293409788 198.04999999999998,100.71855470093517 198.125,100.74252976655238 198.2,100.74427366484238 198.275,100.7472678099516 198.35,100.75753624590645 198.42499999999998,100.78257893781769 198.5,100.80492695076714 198.575,100.81352002666628 198.65,100.81766194525892 198.725,100.81371650099636 198.79999999999998,100.80733402704108 198.875,100.78844608365593 198.95,100.80037200534886 199.025,100.83186316934669 199.1,100.8669952931008 199.17499999999998,100.89377693782104 199.25,100.94174266477454 199.325,100.91947681769521 199.4,100.91838856067473 199.475,100.93253577828341 199.54999999999998,100.95217688340487 199.625,100.93675234253219 199.7,100.92758963213168 199.775,100.93024368892988 199.85,100.90990555751894 199.92499999999998,100.0" opacity="1" fill="#E15759" stroke="black" stroke-width="0"/>
<line x1="40" y1="100.0" x2="40" y2="70.0" stroke="black" stroke-width="1" />
<line x1="39.5" y1="100.0" x2="43.5" y2="100.0" stroke="black" stroke-width="1" />
<line x1="39.5" y1="70.0" x2="43.5" y2="70.0" stroke="black" stroke-width="1" />
<text text-anchor="end" font-family="Arial" x="36" y="104.0" font-size="8" >0</text>
<text text-anchor="end" font-family="Arial" x="36" y="74.0" font-size="8" >1887.0</text>
<text text-anchor="start" font-family="Arial" x="39.5" y="66" font-size="7" >ChrIV: 1-1,531,933</text>
</svg>
